%TF.GenerationSoftware,KiCad,Pcbnew,8.0.5*%
%TF.CreationDate,2025-03-04T14:17:42-05:00*%
%TF.ProjectId,ELEC4907,454c4543-3439-4303-972e-6b696361645f,Rev 1*%
%TF.SameCoordinates,Original*%
%TF.FileFunction,Legend,Bot*%
%TF.FilePolarity,Positive*%
%FSLAX46Y46*%
G04 Gerber Fmt 4.6, Leading zero omitted, Abs format (unit mm)*
G04 Created by KiCad (PCBNEW 8.0.5) date 2025-03-04 14:17:42*
%MOMM*%
%LPD*%
G01*
G04 APERTURE LIST*
%ADD10C,0.200000*%
%ADD11C,0.300000*%
G04 APERTURE END LIST*
D10*
X133381584Y-116807084D02*
X187420416Y-116807084D01*
X187420416Y-129540000D01*
X133381584Y-129540000D01*
X133381584Y-116807084D01*
D11*
X143217489Y-95906534D02*
X143003203Y-95977962D01*
X143003203Y-95977962D02*
X142931774Y-96049391D01*
X142931774Y-96049391D02*
X142860346Y-96192248D01*
X142860346Y-96192248D02*
X142860346Y-96406534D01*
X142860346Y-96406534D02*
X142931774Y-96549391D01*
X142931774Y-96549391D02*
X143003203Y-96620820D01*
X143003203Y-96620820D02*
X143146060Y-96692248D01*
X143146060Y-96692248D02*
X143717489Y-96692248D01*
X143717489Y-96692248D02*
X143717489Y-95192248D01*
X143717489Y-95192248D02*
X143217489Y-95192248D01*
X143217489Y-95192248D02*
X143074632Y-95263677D01*
X143074632Y-95263677D02*
X143003203Y-95335105D01*
X143003203Y-95335105D02*
X142931774Y-95477962D01*
X142931774Y-95477962D02*
X142931774Y-95620820D01*
X142931774Y-95620820D02*
X143003203Y-95763677D01*
X143003203Y-95763677D02*
X143074632Y-95835105D01*
X143074632Y-95835105D02*
X143217489Y-95906534D01*
X143217489Y-95906534D02*
X143717489Y-95906534D01*
X142003203Y-96692248D02*
X142146060Y-96620820D01*
X142146060Y-96620820D02*
X142217489Y-96549391D01*
X142217489Y-96549391D02*
X142288917Y-96406534D01*
X142288917Y-96406534D02*
X142288917Y-95977962D01*
X142288917Y-95977962D02*
X142217489Y-95835105D01*
X142217489Y-95835105D02*
X142146060Y-95763677D01*
X142146060Y-95763677D02*
X142003203Y-95692248D01*
X142003203Y-95692248D02*
X141788917Y-95692248D01*
X141788917Y-95692248D02*
X141646060Y-95763677D01*
X141646060Y-95763677D02*
X141574632Y-95835105D01*
X141574632Y-95835105D02*
X141503203Y-95977962D01*
X141503203Y-95977962D02*
X141503203Y-96406534D01*
X141503203Y-96406534D02*
X141574632Y-96549391D01*
X141574632Y-96549391D02*
X141646060Y-96620820D01*
X141646060Y-96620820D02*
X141788917Y-96692248D01*
X141788917Y-96692248D02*
X142003203Y-96692248D01*
X140217489Y-96692248D02*
X140217489Y-95906534D01*
X140217489Y-95906534D02*
X140288917Y-95763677D01*
X140288917Y-95763677D02*
X140431774Y-95692248D01*
X140431774Y-95692248D02*
X140717489Y-95692248D01*
X140717489Y-95692248D02*
X140860346Y-95763677D01*
X140217489Y-96620820D02*
X140360346Y-96692248D01*
X140360346Y-96692248D02*
X140717489Y-96692248D01*
X140717489Y-96692248D02*
X140860346Y-96620820D01*
X140860346Y-96620820D02*
X140931774Y-96477962D01*
X140931774Y-96477962D02*
X140931774Y-96335105D01*
X140931774Y-96335105D02*
X140860346Y-96192248D01*
X140860346Y-96192248D02*
X140717489Y-96120820D01*
X140717489Y-96120820D02*
X140360346Y-96120820D01*
X140360346Y-96120820D02*
X140217489Y-96049391D01*
X139503203Y-96692248D02*
X139503203Y-95692248D01*
X139503203Y-95977962D02*
X139431774Y-95835105D01*
X139431774Y-95835105D02*
X139360346Y-95763677D01*
X139360346Y-95763677D02*
X139217488Y-95692248D01*
X139217488Y-95692248D02*
X139074631Y-95692248D01*
X137931775Y-96692248D02*
X137931775Y-95192248D01*
X137931775Y-96620820D02*
X138074632Y-96692248D01*
X138074632Y-96692248D02*
X138360346Y-96692248D01*
X138360346Y-96692248D02*
X138503203Y-96620820D01*
X138503203Y-96620820D02*
X138574632Y-96549391D01*
X138574632Y-96549391D02*
X138646060Y-96406534D01*
X138646060Y-96406534D02*
X138646060Y-95977962D01*
X138646060Y-95977962D02*
X138574632Y-95835105D01*
X138574632Y-95835105D02*
X138503203Y-95763677D01*
X138503203Y-95763677D02*
X138360346Y-95692248D01*
X138360346Y-95692248D02*
X138074632Y-95692248D01*
X138074632Y-95692248D02*
X137931775Y-95763677D01*
X136074632Y-96692248D02*
X136074632Y-95192248D01*
X136074632Y-95192248D02*
X135717489Y-95192248D01*
X135717489Y-95192248D02*
X135503203Y-95263677D01*
X135503203Y-95263677D02*
X135360346Y-95406534D01*
X135360346Y-95406534D02*
X135288917Y-95549391D01*
X135288917Y-95549391D02*
X135217489Y-95835105D01*
X135217489Y-95835105D02*
X135217489Y-96049391D01*
X135217489Y-96049391D02*
X135288917Y-96335105D01*
X135288917Y-96335105D02*
X135360346Y-96477962D01*
X135360346Y-96477962D02*
X135503203Y-96620820D01*
X135503203Y-96620820D02*
X135717489Y-96692248D01*
X135717489Y-96692248D02*
X136074632Y-96692248D01*
X134003203Y-96620820D02*
X134146060Y-96692248D01*
X134146060Y-96692248D02*
X134431775Y-96692248D01*
X134431775Y-96692248D02*
X134574632Y-96620820D01*
X134574632Y-96620820D02*
X134646060Y-96477962D01*
X134646060Y-96477962D02*
X134646060Y-95906534D01*
X134646060Y-95906534D02*
X134574632Y-95763677D01*
X134574632Y-95763677D02*
X134431775Y-95692248D01*
X134431775Y-95692248D02*
X134146060Y-95692248D01*
X134146060Y-95692248D02*
X134003203Y-95763677D01*
X134003203Y-95763677D02*
X133931775Y-95906534D01*
X133931775Y-95906534D02*
X133931775Y-96049391D01*
X133931775Y-96049391D02*
X134646060Y-96192248D01*
X133360346Y-96620820D02*
X133217489Y-96692248D01*
X133217489Y-96692248D02*
X132931775Y-96692248D01*
X132931775Y-96692248D02*
X132788918Y-96620820D01*
X132788918Y-96620820D02*
X132717489Y-96477962D01*
X132717489Y-96477962D02*
X132717489Y-96406534D01*
X132717489Y-96406534D02*
X132788918Y-96263677D01*
X132788918Y-96263677D02*
X132931775Y-96192248D01*
X132931775Y-96192248D02*
X133146061Y-96192248D01*
X133146061Y-96192248D02*
X133288918Y-96120820D01*
X133288918Y-96120820D02*
X133360346Y-95977962D01*
X133360346Y-95977962D02*
X133360346Y-95906534D01*
X133360346Y-95906534D02*
X133288918Y-95763677D01*
X133288918Y-95763677D02*
X133146061Y-95692248D01*
X133146061Y-95692248D02*
X132931775Y-95692248D01*
X132931775Y-95692248D02*
X132788918Y-95763677D01*
X132074632Y-96692248D02*
X132074632Y-95692248D01*
X132074632Y-95192248D02*
X132146060Y-95263677D01*
X132146060Y-95263677D02*
X132074632Y-95335105D01*
X132074632Y-95335105D02*
X132003203Y-95263677D01*
X132003203Y-95263677D02*
X132074632Y-95192248D01*
X132074632Y-95192248D02*
X132074632Y-95335105D01*
X130717489Y-95692248D02*
X130717489Y-96906534D01*
X130717489Y-96906534D02*
X130788917Y-97049391D01*
X130788917Y-97049391D02*
X130860346Y-97120820D01*
X130860346Y-97120820D02*
X131003203Y-97192248D01*
X131003203Y-97192248D02*
X131217489Y-97192248D01*
X131217489Y-97192248D02*
X131360346Y-97120820D01*
X130717489Y-96620820D02*
X130860346Y-96692248D01*
X130860346Y-96692248D02*
X131146060Y-96692248D01*
X131146060Y-96692248D02*
X131288917Y-96620820D01*
X131288917Y-96620820D02*
X131360346Y-96549391D01*
X131360346Y-96549391D02*
X131431774Y-96406534D01*
X131431774Y-96406534D02*
X131431774Y-95977962D01*
X131431774Y-95977962D02*
X131360346Y-95835105D01*
X131360346Y-95835105D02*
X131288917Y-95763677D01*
X131288917Y-95763677D02*
X131146060Y-95692248D01*
X131146060Y-95692248D02*
X130860346Y-95692248D01*
X130860346Y-95692248D02*
X130717489Y-95763677D01*
X130003203Y-95692248D02*
X130003203Y-96692248D01*
X130003203Y-95835105D02*
X129931774Y-95763677D01*
X129931774Y-95763677D02*
X129788917Y-95692248D01*
X129788917Y-95692248D02*
X129574631Y-95692248D01*
X129574631Y-95692248D02*
X129431774Y-95763677D01*
X129431774Y-95763677D02*
X129360346Y-95906534D01*
X129360346Y-95906534D02*
X129360346Y-96692248D01*
X128074631Y-96620820D02*
X128217488Y-96692248D01*
X128217488Y-96692248D02*
X128503203Y-96692248D01*
X128503203Y-96692248D02*
X128646060Y-96620820D01*
X128646060Y-96620820D02*
X128717488Y-96477962D01*
X128717488Y-96477962D02*
X128717488Y-95906534D01*
X128717488Y-95906534D02*
X128646060Y-95763677D01*
X128646060Y-95763677D02*
X128503203Y-95692248D01*
X128503203Y-95692248D02*
X128217488Y-95692248D01*
X128217488Y-95692248D02*
X128074631Y-95763677D01*
X128074631Y-95763677D02*
X128003203Y-95906534D01*
X128003203Y-95906534D02*
X128003203Y-96049391D01*
X128003203Y-96049391D02*
X128717488Y-96192248D01*
X126717489Y-96692248D02*
X126717489Y-95192248D01*
X126717489Y-96620820D02*
X126860346Y-96692248D01*
X126860346Y-96692248D02*
X127146060Y-96692248D01*
X127146060Y-96692248D02*
X127288917Y-96620820D01*
X127288917Y-96620820D02*
X127360346Y-96549391D01*
X127360346Y-96549391D02*
X127431774Y-96406534D01*
X127431774Y-96406534D02*
X127431774Y-95977962D01*
X127431774Y-95977962D02*
X127360346Y-95835105D01*
X127360346Y-95835105D02*
X127288917Y-95763677D01*
X127288917Y-95763677D02*
X127146060Y-95692248D01*
X127146060Y-95692248D02*
X126860346Y-95692248D01*
X126860346Y-95692248D02*
X126717489Y-95763677D01*
X124360346Y-95906534D02*
X124146060Y-95977962D01*
X124146060Y-95977962D02*
X124074631Y-96049391D01*
X124074631Y-96049391D02*
X124003203Y-96192248D01*
X124003203Y-96192248D02*
X124003203Y-96406534D01*
X124003203Y-96406534D02*
X124074631Y-96549391D01*
X124074631Y-96549391D02*
X124146060Y-96620820D01*
X124146060Y-96620820D02*
X124288917Y-96692248D01*
X124288917Y-96692248D02*
X124860346Y-96692248D01*
X124860346Y-96692248D02*
X124860346Y-95192248D01*
X124860346Y-95192248D02*
X124360346Y-95192248D01*
X124360346Y-95192248D02*
X124217489Y-95263677D01*
X124217489Y-95263677D02*
X124146060Y-95335105D01*
X124146060Y-95335105D02*
X124074631Y-95477962D01*
X124074631Y-95477962D02*
X124074631Y-95620820D01*
X124074631Y-95620820D02*
X124146060Y-95763677D01*
X124146060Y-95763677D02*
X124217489Y-95835105D01*
X124217489Y-95835105D02*
X124360346Y-95906534D01*
X124360346Y-95906534D02*
X124860346Y-95906534D01*
X123503203Y-95692248D02*
X123146060Y-96692248D01*
X122788917Y-95692248D02*
X123146060Y-96692248D01*
X123146060Y-96692248D02*
X123288917Y-97049391D01*
X123288917Y-97049391D02*
X123360346Y-97120820D01*
X123360346Y-97120820D02*
X123503203Y-97192248D01*
X122217489Y-96549391D02*
X122146060Y-96620820D01*
X122146060Y-96620820D02*
X122217489Y-96692248D01*
X122217489Y-96692248D02*
X122288917Y-96620820D01*
X122288917Y-96620820D02*
X122217489Y-96549391D01*
X122217489Y-96549391D02*
X122217489Y-96692248D01*
X122217489Y-95763677D02*
X122146060Y-95835105D01*
X122146060Y-95835105D02*
X122217489Y-95906534D01*
X122217489Y-95906534D02*
X122288917Y-95835105D01*
X122288917Y-95835105D02*
X122217489Y-95763677D01*
X122217489Y-95763677D02*
X122217489Y-95906534D01*
X142860346Y-98964307D02*
X142931774Y-99035736D01*
X142931774Y-99035736D02*
X143146060Y-99107164D01*
X143146060Y-99107164D02*
X143288917Y-99107164D01*
X143288917Y-99107164D02*
X143503203Y-99035736D01*
X143503203Y-99035736D02*
X143646060Y-98892878D01*
X143646060Y-98892878D02*
X143717489Y-98750021D01*
X143717489Y-98750021D02*
X143788917Y-98464307D01*
X143788917Y-98464307D02*
X143788917Y-98250021D01*
X143788917Y-98250021D02*
X143717489Y-97964307D01*
X143717489Y-97964307D02*
X143646060Y-97821450D01*
X143646060Y-97821450D02*
X143503203Y-97678593D01*
X143503203Y-97678593D02*
X143288917Y-97607164D01*
X143288917Y-97607164D02*
X143146060Y-97607164D01*
X143146060Y-97607164D02*
X142931774Y-97678593D01*
X142931774Y-97678593D02*
X142860346Y-97750021D01*
X141574632Y-99107164D02*
X141574632Y-98321450D01*
X141574632Y-98321450D02*
X141646060Y-98178593D01*
X141646060Y-98178593D02*
X141788917Y-98107164D01*
X141788917Y-98107164D02*
X142074632Y-98107164D01*
X142074632Y-98107164D02*
X142217489Y-98178593D01*
X141574632Y-99035736D02*
X141717489Y-99107164D01*
X141717489Y-99107164D02*
X142074632Y-99107164D01*
X142074632Y-99107164D02*
X142217489Y-99035736D01*
X142217489Y-99035736D02*
X142288917Y-98892878D01*
X142288917Y-98892878D02*
X142288917Y-98750021D01*
X142288917Y-98750021D02*
X142217489Y-98607164D01*
X142217489Y-98607164D02*
X142074632Y-98535736D01*
X142074632Y-98535736D02*
X141717489Y-98535736D01*
X141717489Y-98535736D02*
X141574632Y-98464307D01*
X140860346Y-99107164D02*
X140860346Y-98107164D01*
X140860346Y-98392878D02*
X140788917Y-98250021D01*
X140788917Y-98250021D02*
X140717489Y-98178593D01*
X140717489Y-98178593D02*
X140574631Y-98107164D01*
X140574631Y-98107164D02*
X140431774Y-98107164D01*
X140146060Y-98107164D02*
X139574632Y-98107164D01*
X139931775Y-97607164D02*
X139931775Y-98892878D01*
X139931775Y-98892878D02*
X139860346Y-99035736D01*
X139860346Y-99035736D02*
X139717489Y-99107164D01*
X139717489Y-99107164D02*
X139574632Y-99107164D01*
X138503203Y-99035736D02*
X138646060Y-99107164D01*
X138646060Y-99107164D02*
X138931775Y-99107164D01*
X138931775Y-99107164D02*
X139074632Y-99035736D01*
X139074632Y-99035736D02*
X139146060Y-98892878D01*
X139146060Y-98892878D02*
X139146060Y-98321450D01*
X139146060Y-98321450D02*
X139074632Y-98178593D01*
X139074632Y-98178593D02*
X138931775Y-98107164D01*
X138931775Y-98107164D02*
X138646060Y-98107164D01*
X138646060Y-98107164D02*
X138503203Y-98178593D01*
X138503203Y-98178593D02*
X138431775Y-98321450D01*
X138431775Y-98321450D02*
X138431775Y-98464307D01*
X138431775Y-98464307D02*
X139146060Y-98607164D01*
X137788918Y-99107164D02*
X137788918Y-98107164D01*
X137788918Y-98392878D02*
X137717489Y-98250021D01*
X137717489Y-98250021D02*
X137646061Y-98178593D01*
X137646061Y-98178593D02*
X137503203Y-98107164D01*
X137503203Y-98107164D02*
X137360346Y-98107164D01*
X135003204Y-99107164D02*
X135717490Y-99107164D01*
X135717490Y-99107164D02*
X135717490Y-97607164D01*
X134503204Y-99107164D02*
X134503204Y-98107164D01*
X134503204Y-97607164D02*
X134574632Y-97678593D01*
X134574632Y-97678593D02*
X134503204Y-97750021D01*
X134503204Y-97750021D02*
X134431775Y-97678593D01*
X134431775Y-97678593D02*
X134503204Y-97607164D01*
X134503204Y-97607164D02*
X134503204Y-97750021D01*
X133931775Y-98107164D02*
X133574632Y-99107164D01*
X133574632Y-99107164D02*
X133217489Y-98107164D01*
X132074632Y-99035736D02*
X132217489Y-99107164D01*
X132217489Y-99107164D02*
X132503204Y-99107164D01*
X132503204Y-99107164D02*
X132646061Y-99035736D01*
X132646061Y-99035736D02*
X132717489Y-98892878D01*
X132717489Y-98892878D02*
X132717489Y-98321450D01*
X132717489Y-98321450D02*
X132646061Y-98178593D01*
X132646061Y-98178593D02*
X132503204Y-98107164D01*
X132503204Y-98107164D02*
X132217489Y-98107164D01*
X132217489Y-98107164D02*
X132074632Y-98178593D01*
X132074632Y-98178593D02*
X132003204Y-98321450D01*
X132003204Y-98321450D02*
X132003204Y-98464307D01*
X132003204Y-98464307D02*
X132717489Y-98607164D01*
X131360347Y-99107164D02*
X131360347Y-98107164D01*
X131360347Y-98392878D02*
X131288918Y-98250021D01*
X131288918Y-98250021D02*
X131217490Y-98178593D01*
X131217490Y-98178593D02*
X131074632Y-98107164D01*
X131074632Y-98107164D02*
X130931775Y-98107164D01*
X130431776Y-99107164D02*
X130431776Y-98107164D01*
X130431776Y-98250021D02*
X130360347Y-98178593D01*
X130360347Y-98178593D02*
X130217490Y-98107164D01*
X130217490Y-98107164D02*
X130003204Y-98107164D01*
X130003204Y-98107164D02*
X129860347Y-98178593D01*
X129860347Y-98178593D02*
X129788919Y-98321450D01*
X129788919Y-98321450D02*
X129788919Y-99107164D01*
X129788919Y-98321450D02*
X129717490Y-98178593D01*
X129717490Y-98178593D02*
X129574633Y-98107164D01*
X129574633Y-98107164D02*
X129360347Y-98107164D01*
X129360347Y-98107164D02*
X129217490Y-98178593D01*
X129217490Y-98178593D02*
X129146061Y-98321450D01*
X129146061Y-98321450D02*
X129146061Y-99107164D01*
X128217490Y-99107164D02*
X128360347Y-99035736D01*
X128360347Y-99035736D02*
X128431776Y-98964307D01*
X128431776Y-98964307D02*
X128503204Y-98821450D01*
X128503204Y-98821450D02*
X128503204Y-98392878D01*
X128503204Y-98392878D02*
X128431776Y-98250021D01*
X128431776Y-98250021D02*
X128360347Y-98178593D01*
X128360347Y-98178593D02*
X128217490Y-98107164D01*
X128217490Y-98107164D02*
X128003204Y-98107164D01*
X128003204Y-98107164D02*
X127860347Y-98178593D01*
X127860347Y-98178593D02*
X127788919Y-98250021D01*
X127788919Y-98250021D02*
X127717490Y-98392878D01*
X127717490Y-98392878D02*
X127717490Y-98821450D01*
X127717490Y-98821450D02*
X127788919Y-98964307D01*
X127788919Y-98964307D02*
X127860347Y-99035736D01*
X127860347Y-99035736D02*
X128003204Y-99107164D01*
X128003204Y-99107164D02*
X128217490Y-99107164D01*
X127074633Y-99107164D02*
X127074633Y-98107164D01*
X127074633Y-98392878D02*
X127003204Y-98250021D01*
X127003204Y-98250021D02*
X126931776Y-98178593D01*
X126931776Y-98178593D02*
X126788918Y-98107164D01*
X126788918Y-98107164D02*
X126646061Y-98107164D01*
X125574633Y-99035736D02*
X125717490Y-99107164D01*
X125717490Y-99107164D02*
X126003205Y-99107164D01*
X126003205Y-99107164D02*
X126146062Y-99035736D01*
X126146062Y-99035736D02*
X126217490Y-98892878D01*
X126217490Y-98892878D02*
X126217490Y-98321450D01*
X126217490Y-98321450D02*
X126146062Y-98178593D01*
X126146062Y-98178593D02*
X126003205Y-98107164D01*
X126003205Y-98107164D02*
X125717490Y-98107164D01*
X125717490Y-98107164D02*
X125574633Y-98178593D01*
X125574633Y-98178593D02*
X125503205Y-98321450D01*
X125503205Y-98321450D02*
X125503205Y-98464307D01*
X125503205Y-98464307D02*
X126217490Y-98607164D01*
X143717489Y-103936996D02*
X143717489Y-102436996D01*
X143717489Y-103151282D02*
X142860346Y-103151282D01*
X142860346Y-103936996D02*
X142860346Y-102436996D01*
X141503203Y-103936996D02*
X141503203Y-103151282D01*
X141503203Y-103151282D02*
X141574631Y-103008425D01*
X141574631Y-103008425D02*
X141717488Y-102936996D01*
X141717488Y-102936996D02*
X142003203Y-102936996D01*
X142003203Y-102936996D02*
X142146060Y-103008425D01*
X141503203Y-103865568D02*
X141646060Y-103936996D01*
X141646060Y-103936996D02*
X142003203Y-103936996D01*
X142003203Y-103936996D02*
X142146060Y-103865568D01*
X142146060Y-103865568D02*
X142217488Y-103722710D01*
X142217488Y-103722710D02*
X142217488Y-103579853D01*
X142217488Y-103579853D02*
X142146060Y-103436996D01*
X142146060Y-103436996D02*
X142003203Y-103365568D01*
X142003203Y-103365568D02*
X141646060Y-103365568D01*
X141646060Y-103365568D02*
X141503203Y-103294139D01*
X140788917Y-103936996D02*
X140788917Y-102936996D01*
X140788917Y-103222710D02*
X140717488Y-103079853D01*
X140717488Y-103079853D02*
X140646060Y-103008425D01*
X140646060Y-103008425D02*
X140503202Y-102936996D01*
X140503202Y-102936996D02*
X140360345Y-102936996D01*
X139217489Y-103936996D02*
X139217489Y-102436996D01*
X139217489Y-103865568D02*
X139360346Y-103936996D01*
X139360346Y-103936996D02*
X139646060Y-103936996D01*
X139646060Y-103936996D02*
X139788917Y-103865568D01*
X139788917Y-103865568D02*
X139860346Y-103794139D01*
X139860346Y-103794139D02*
X139931774Y-103651282D01*
X139931774Y-103651282D02*
X139931774Y-103222710D01*
X139931774Y-103222710D02*
X139860346Y-103079853D01*
X139860346Y-103079853D02*
X139788917Y-103008425D01*
X139788917Y-103008425D02*
X139646060Y-102936996D01*
X139646060Y-102936996D02*
X139360346Y-102936996D01*
X139360346Y-102936996D02*
X139217489Y-103008425D01*
X138646060Y-102936996D02*
X138360346Y-103936996D01*
X138360346Y-103936996D02*
X138074631Y-103222710D01*
X138074631Y-103222710D02*
X137788917Y-103936996D01*
X137788917Y-103936996D02*
X137503203Y-102936996D01*
X136288917Y-103936996D02*
X136288917Y-103151282D01*
X136288917Y-103151282D02*
X136360345Y-103008425D01*
X136360345Y-103008425D02*
X136503202Y-102936996D01*
X136503202Y-102936996D02*
X136788917Y-102936996D01*
X136788917Y-102936996D02*
X136931774Y-103008425D01*
X136288917Y-103865568D02*
X136431774Y-103936996D01*
X136431774Y-103936996D02*
X136788917Y-103936996D01*
X136788917Y-103936996D02*
X136931774Y-103865568D01*
X136931774Y-103865568D02*
X137003202Y-103722710D01*
X137003202Y-103722710D02*
X137003202Y-103579853D01*
X137003202Y-103579853D02*
X136931774Y-103436996D01*
X136931774Y-103436996D02*
X136788917Y-103365568D01*
X136788917Y-103365568D02*
X136431774Y-103365568D01*
X136431774Y-103365568D02*
X136288917Y-103294139D01*
X135574631Y-103936996D02*
X135574631Y-102936996D01*
X135574631Y-103222710D02*
X135503202Y-103079853D01*
X135503202Y-103079853D02*
X135431774Y-103008425D01*
X135431774Y-103008425D02*
X135288916Y-102936996D01*
X135288916Y-102936996D02*
X135146059Y-102936996D01*
X134074631Y-103865568D02*
X134217488Y-103936996D01*
X134217488Y-103936996D02*
X134503203Y-103936996D01*
X134503203Y-103936996D02*
X134646060Y-103865568D01*
X134646060Y-103865568D02*
X134717488Y-103722710D01*
X134717488Y-103722710D02*
X134717488Y-103151282D01*
X134717488Y-103151282D02*
X134646060Y-103008425D01*
X134646060Y-103008425D02*
X134503203Y-102936996D01*
X134503203Y-102936996D02*
X134217488Y-102936996D01*
X134217488Y-102936996D02*
X134074631Y-103008425D01*
X134074631Y-103008425D02*
X134003203Y-103151282D01*
X134003203Y-103151282D02*
X134003203Y-103294139D01*
X134003203Y-103294139D02*
X134717488Y-103436996D01*
X132217489Y-103936996D02*
X132217489Y-102436996D01*
X132217489Y-102436996D02*
X131860346Y-102436996D01*
X131860346Y-102436996D02*
X131646060Y-102508425D01*
X131646060Y-102508425D02*
X131503203Y-102651282D01*
X131503203Y-102651282D02*
X131431774Y-102794139D01*
X131431774Y-102794139D02*
X131360346Y-103079853D01*
X131360346Y-103079853D02*
X131360346Y-103294139D01*
X131360346Y-103294139D02*
X131431774Y-103579853D01*
X131431774Y-103579853D02*
X131503203Y-103722710D01*
X131503203Y-103722710D02*
X131646060Y-103865568D01*
X131646060Y-103865568D02*
X131860346Y-103936996D01*
X131860346Y-103936996D02*
X132217489Y-103936996D01*
X130146060Y-103865568D02*
X130288917Y-103936996D01*
X130288917Y-103936996D02*
X130574632Y-103936996D01*
X130574632Y-103936996D02*
X130717489Y-103865568D01*
X130717489Y-103865568D02*
X130788917Y-103722710D01*
X130788917Y-103722710D02*
X130788917Y-103151282D01*
X130788917Y-103151282D02*
X130717489Y-103008425D01*
X130717489Y-103008425D02*
X130574632Y-102936996D01*
X130574632Y-102936996D02*
X130288917Y-102936996D01*
X130288917Y-102936996D02*
X130146060Y-103008425D01*
X130146060Y-103008425D02*
X130074632Y-103151282D01*
X130074632Y-103151282D02*
X130074632Y-103294139D01*
X130074632Y-103294139D02*
X130788917Y-103436996D01*
X129503203Y-103865568D02*
X129360346Y-103936996D01*
X129360346Y-103936996D02*
X129074632Y-103936996D01*
X129074632Y-103936996D02*
X128931775Y-103865568D01*
X128931775Y-103865568D02*
X128860346Y-103722710D01*
X128860346Y-103722710D02*
X128860346Y-103651282D01*
X128860346Y-103651282D02*
X128931775Y-103508425D01*
X128931775Y-103508425D02*
X129074632Y-103436996D01*
X129074632Y-103436996D02*
X129288918Y-103436996D01*
X129288918Y-103436996D02*
X129431775Y-103365568D01*
X129431775Y-103365568D02*
X129503203Y-103222710D01*
X129503203Y-103222710D02*
X129503203Y-103151282D01*
X129503203Y-103151282D02*
X129431775Y-103008425D01*
X129431775Y-103008425D02*
X129288918Y-102936996D01*
X129288918Y-102936996D02*
X129074632Y-102936996D01*
X129074632Y-102936996D02*
X128931775Y-103008425D01*
X128217489Y-103936996D02*
X128217489Y-102936996D01*
X128217489Y-102436996D02*
X128288917Y-102508425D01*
X128288917Y-102508425D02*
X128217489Y-102579853D01*
X128217489Y-102579853D02*
X128146060Y-102508425D01*
X128146060Y-102508425D02*
X128217489Y-102436996D01*
X128217489Y-102436996D02*
X128217489Y-102579853D01*
X126860346Y-102936996D02*
X126860346Y-104151282D01*
X126860346Y-104151282D02*
X126931774Y-104294139D01*
X126931774Y-104294139D02*
X127003203Y-104365568D01*
X127003203Y-104365568D02*
X127146060Y-104436996D01*
X127146060Y-104436996D02*
X127360346Y-104436996D01*
X127360346Y-104436996D02*
X127503203Y-104365568D01*
X126860346Y-103865568D02*
X127003203Y-103936996D01*
X127003203Y-103936996D02*
X127288917Y-103936996D01*
X127288917Y-103936996D02*
X127431774Y-103865568D01*
X127431774Y-103865568D02*
X127503203Y-103794139D01*
X127503203Y-103794139D02*
X127574631Y-103651282D01*
X127574631Y-103651282D02*
X127574631Y-103222710D01*
X127574631Y-103222710D02*
X127503203Y-103079853D01*
X127503203Y-103079853D02*
X127431774Y-103008425D01*
X127431774Y-103008425D02*
X127288917Y-102936996D01*
X127288917Y-102936996D02*
X127003203Y-102936996D01*
X127003203Y-102936996D02*
X126860346Y-103008425D01*
X126146060Y-102936996D02*
X126146060Y-103936996D01*
X126146060Y-103079853D02*
X126074631Y-103008425D01*
X126074631Y-103008425D02*
X125931774Y-102936996D01*
X125931774Y-102936996D02*
X125717488Y-102936996D01*
X125717488Y-102936996D02*
X125574631Y-103008425D01*
X125574631Y-103008425D02*
X125503203Y-103151282D01*
X125503203Y-103151282D02*
X125503203Y-103936996D01*
X124217488Y-103865568D02*
X124360345Y-103936996D01*
X124360345Y-103936996D02*
X124646060Y-103936996D01*
X124646060Y-103936996D02*
X124788917Y-103865568D01*
X124788917Y-103865568D02*
X124860345Y-103722710D01*
X124860345Y-103722710D02*
X124860345Y-103151282D01*
X124860345Y-103151282D02*
X124788917Y-103008425D01*
X124788917Y-103008425D02*
X124646060Y-102936996D01*
X124646060Y-102936996D02*
X124360345Y-102936996D01*
X124360345Y-102936996D02*
X124217488Y-103008425D01*
X124217488Y-103008425D02*
X124146060Y-103151282D01*
X124146060Y-103151282D02*
X124146060Y-103294139D01*
X124146060Y-103294139D02*
X124860345Y-103436996D01*
X123503203Y-103936996D02*
X123503203Y-102936996D01*
X123503203Y-103222710D02*
X123431774Y-103079853D01*
X123431774Y-103079853D02*
X123360346Y-103008425D01*
X123360346Y-103008425D02*
X123217488Y-102936996D01*
X123217488Y-102936996D02*
X123074631Y-102936996D01*
X122646060Y-103865568D02*
X122503203Y-103936996D01*
X122503203Y-103936996D02*
X122217489Y-103936996D01*
X122217489Y-103936996D02*
X122074632Y-103865568D01*
X122074632Y-103865568D02*
X122003203Y-103722710D01*
X122003203Y-103722710D02*
X122003203Y-103651282D01*
X122003203Y-103651282D02*
X122074632Y-103508425D01*
X122074632Y-103508425D02*
X122217489Y-103436996D01*
X122217489Y-103436996D02*
X122431775Y-103436996D01*
X122431775Y-103436996D02*
X122574632Y-103365568D01*
X122574632Y-103365568D02*
X122646060Y-103222710D01*
X122646060Y-103222710D02*
X122646060Y-103151282D01*
X122646060Y-103151282D02*
X122574632Y-103008425D01*
X122574632Y-103008425D02*
X122431775Y-102936996D01*
X122431775Y-102936996D02*
X122217489Y-102936996D01*
X122217489Y-102936996D02*
X122074632Y-103008425D01*
X121360346Y-103794139D02*
X121288917Y-103865568D01*
X121288917Y-103865568D02*
X121360346Y-103936996D01*
X121360346Y-103936996D02*
X121431774Y-103865568D01*
X121431774Y-103865568D02*
X121360346Y-103794139D01*
X121360346Y-103794139D02*
X121360346Y-103936996D01*
X121360346Y-103008425D02*
X121288917Y-103079853D01*
X121288917Y-103079853D02*
X121360346Y-103151282D01*
X121360346Y-103151282D02*
X121431774Y-103079853D01*
X121431774Y-103079853D02*
X121360346Y-103008425D01*
X121360346Y-103008425D02*
X121360346Y-103151282D01*
X143431774Y-104851912D02*
X143146060Y-104851912D01*
X143146060Y-104851912D02*
X143003203Y-104923341D01*
X143003203Y-104923341D02*
X142860346Y-105066198D01*
X142860346Y-105066198D02*
X142788917Y-105351912D01*
X142788917Y-105351912D02*
X142788917Y-105851912D01*
X142788917Y-105851912D02*
X142860346Y-106137626D01*
X142860346Y-106137626D02*
X143003203Y-106280484D01*
X143003203Y-106280484D02*
X143146060Y-106351912D01*
X143146060Y-106351912D02*
X143431774Y-106351912D01*
X143431774Y-106351912D02*
X143574632Y-106280484D01*
X143574632Y-106280484D02*
X143717489Y-106137626D01*
X143717489Y-106137626D02*
X143788917Y-105851912D01*
X143788917Y-105851912D02*
X143788917Y-105351912D01*
X143788917Y-105351912D02*
X143717489Y-105066198D01*
X143717489Y-105066198D02*
X143574632Y-104923341D01*
X143574632Y-104923341D02*
X143431774Y-104851912D01*
X142288917Y-105351912D02*
X142003203Y-106351912D01*
X142003203Y-106351912D02*
X141717488Y-105637626D01*
X141717488Y-105637626D02*
X141431774Y-106351912D01*
X141431774Y-106351912D02*
X141146060Y-105351912D01*
X140003202Y-106280484D02*
X140146059Y-106351912D01*
X140146059Y-106351912D02*
X140431774Y-106351912D01*
X140431774Y-106351912D02*
X140574631Y-106280484D01*
X140574631Y-106280484D02*
X140646059Y-106137626D01*
X140646059Y-106137626D02*
X140646059Y-105566198D01*
X140646059Y-105566198D02*
X140574631Y-105423341D01*
X140574631Y-105423341D02*
X140431774Y-105351912D01*
X140431774Y-105351912D02*
X140146059Y-105351912D01*
X140146059Y-105351912D02*
X140003202Y-105423341D01*
X140003202Y-105423341D02*
X139931774Y-105566198D01*
X139931774Y-105566198D02*
X139931774Y-105709055D01*
X139931774Y-105709055D02*
X140646059Y-105851912D01*
X139288917Y-105351912D02*
X139288917Y-106351912D01*
X139288917Y-105494769D02*
X139217488Y-105423341D01*
X139217488Y-105423341D02*
X139074631Y-105351912D01*
X139074631Y-105351912D02*
X138860345Y-105351912D01*
X138860345Y-105351912D02*
X138717488Y-105423341D01*
X138717488Y-105423341D02*
X138646060Y-105566198D01*
X138646060Y-105566198D02*
X138646060Y-106351912D01*
X136788917Y-106351912D02*
X136788917Y-104851912D01*
X136788917Y-104851912D02*
X136288917Y-105923341D01*
X136288917Y-105923341D02*
X135788917Y-104851912D01*
X135788917Y-104851912D02*
X135788917Y-106351912D01*
X134431774Y-106351912D02*
X134431774Y-105566198D01*
X134431774Y-105566198D02*
X134503202Y-105423341D01*
X134503202Y-105423341D02*
X134646059Y-105351912D01*
X134646059Y-105351912D02*
X134931774Y-105351912D01*
X134931774Y-105351912D02*
X135074631Y-105423341D01*
X134431774Y-106280484D02*
X134574631Y-106351912D01*
X134574631Y-106351912D02*
X134931774Y-106351912D01*
X134931774Y-106351912D02*
X135074631Y-106280484D01*
X135074631Y-106280484D02*
X135146059Y-106137626D01*
X135146059Y-106137626D02*
X135146059Y-105994769D01*
X135146059Y-105994769D02*
X135074631Y-105851912D01*
X135074631Y-105851912D02*
X134931774Y-105780484D01*
X134931774Y-105780484D02*
X134574631Y-105780484D01*
X134574631Y-105780484D02*
X134431774Y-105709055D01*
X133074631Y-106280484D02*
X133217488Y-106351912D01*
X133217488Y-106351912D02*
X133503202Y-106351912D01*
X133503202Y-106351912D02*
X133646059Y-106280484D01*
X133646059Y-106280484D02*
X133717488Y-106209055D01*
X133717488Y-106209055D02*
X133788916Y-106066198D01*
X133788916Y-106066198D02*
X133788916Y-105637626D01*
X133788916Y-105637626D02*
X133717488Y-105494769D01*
X133717488Y-105494769D02*
X133646059Y-105423341D01*
X133646059Y-105423341D02*
X133503202Y-105351912D01*
X133503202Y-105351912D02*
X133217488Y-105351912D01*
X133217488Y-105351912D02*
X133074631Y-105423341D01*
X132431774Y-106351912D02*
X132431774Y-104851912D01*
X131717488Y-105351912D02*
X131717488Y-106351912D01*
X131717488Y-105494769D02*
X131646059Y-105423341D01*
X131646059Y-105423341D02*
X131503202Y-105351912D01*
X131503202Y-105351912D02*
X131288916Y-105351912D01*
X131288916Y-105351912D02*
X131146059Y-105423341D01*
X131146059Y-105423341D02*
X131074631Y-105566198D01*
X131074631Y-105566198D02*
X131074631Y-106351912D01*
X130574630Y-105351912D02*
X130003202Y-105351912D01*
X130360345Y-104851912D02*
X130360345Y-106137626D01*
X130360345Y-106137626D02*
X130288916Y-106280484D01*
X130288916Y-106280484D02*
X130146059Y-106351912D01*
X130146059Y-106351912D02*
X130003202Y-106351912D01*
X129288916Y-106351912D02*
X129431773Y-106280484D01*
X129431773Y-106280484D02*
X129503202Y-106209055D01*
X129503202Y-106209055D02*
X129574630Y-106066198D01*
X129574630Y-106066198D02*
X129574630Y-105637626D01*
X129574630Y-105637626D02*
X129503202Y-105494769D01*
X129503202Y-105494769D02*
X129431773Y-105423341D01*
X129431773Y-105423341D02*
X129288916Y-105351912D01*
X129288916Y-105351912D02*
X129074630Y-105351912D01*
X129074630Y-105351912D02*
X128931773Y-105423341D01*
X128931773Y-105423341D02*
X128860345Y-105494769D01*
X128860345Y-105494769D02*
X128788916Y-105637626D01*
X128788916Y-105637626D02*
X128788916Y-106066198D01*
X128788916Y-106066198D02*
X128860345Y-106209055D01*
X128860345Y-106209055D02*
X128931773Y-106280484D01*
X128931773Y-106280484D02*
X129074630Y-106351912D01*
X129074630Y-106351912D02*
X129288916Y-106351912D01*
X128217487Y-106280484D02*
X128074630Y-106351912D01*
X128074630Y-106351912D02*
X127788916Y-106351912D01*
X127788916Y-106351912D02*
X127646059Y-106280484D01*
X127646059Y-106280484D02*
X127574630Y-106137626D01*
X127574630Y-106137626D02*
X127574630Y-106066198D01*
X127574630Y-106066198D02*
X127646059Y-105923341D01*
X127646059Y-105923341D02*
X127788916Y-105851912D01*
X127788916Y-105851912D02*
X128003202Y-105851912D01*
X128003202Y-105851912D02*
X128146059Y-105780484D01*
X128146059Y-105780484D02*
X128217487Y-105637626D01*
X128217487Y-105637626D02*
X128217487Y-105566198D01*
X128217487Y-105566198D02*
X128146059Y-105423341D01*
X128146059Y-105423341D02*
X128003202Y-105351912D01*
X128003202Y-105351912D02*
X127788916Y-105351912D01*
X127788916Y-105351912D02*
X127646059Y-105423341D01*
X126931773Y-106351912D02*
X126931773Y-104851912D01*
X126288916Y-106351912D02*
X126288916Y-105566198D01*
X126288916Y-105566198D02*
X126360344Y-105423341D01*
X126360344Y-105423341D02*
X126503201Y-105351912D01*
X126503201Y-105351912D02*
X126717487Y-105351912D01*
X126717487Y-105351912D02*
X126860344Y-105423341D01*
X126860344Y-105423341D02*
X126931773Y-105494769D01*
X142860346Y-108623971D02*
X142931774Y-108695400D01*
X142931774Y-108695400D02*
X143146060Y-108766828D01*
X143146060Y-108766828D02*
X143288917Y-108766828D01*
X143288917Y-108766828D02*
X143503203Y-108695400D01*
X143503203Y-108695400D02*
X143646060Y-108552542D01*
X143646060Y-108552542D02*
X143717489Y-108409685D01*
X143717489Y-108409685D02*
X143788917Y-108123971D01*
X143788917Y-108123971D02*
X143788917Y-107909685D01*
X143788917Y-107909685D02*
X143717489Y-107623971D01*
X143717489Y-107623971D02*
X143646060Y-107481114D01*
X143646060Y-107481114D02*
X143503203Y-107338257D01*
X143503203Y-107338257D02*
X143288917Y-107266828D01*
X143288917Y-107266828D02*
X143146060Y-107266828D01*
X143146060Y-107266828D02*
X142931774Y-107338257D01*
X142931774Y-107338257D02*
X142860346Y-107409685D01*
X141574632Y-108766828D02*
X141574632Y-107981114D01*
X141574632Y-107981114D02*
X141646060Y-107838257D01*
X141646060Y-107838257D02*
X141788917Y-107766828D01*
X141788917Y-107766828D02*
X142074632Y-107766828D01*
X142074632Y-107766828D02*
X142217489Y-107838257D01*
X141574632Y-108695400D02*
X141717489Y-108766828D01*
X141717489Y-108766828D02*
X142074632Y-108766828D01*
X142074632Y-108766828D02*
X142217489Y-108695400D01*
X142217489Y-108695400D02*
X142288917Y-108552542D01*
X142288917Y-108552542D02*
X142288917Y-108409685D01*
X142288917Y-108409685D02*
X142217489Y-108266828D01*
X142217489Y-108266828D02*
X142074632Y-108195400D01*
X142074632Y-108195400D02*
X141717489Y-108195400D01*
X141717489Y-108195400D02*
X141574632Y-108123971D01*
X140860346Y-108766828D02*
X140860346Y-107766828D01*
X140860346Y-108052542D02*
X140788917Y-107909685D01*
X140788917Y-107909685D02*
X140717489Y-107838257D01*
X140717489Y-107838257D02*
X140574631Y-107766828D01*
X140574631Y-107766828D02*
X140431774Y-107766828D01*
X140146060Y-107766828D02*
X139574632Y-107766828D01*
X139931775Y-107266828D02*
X139931775Y-108552542D01*
X139931775Y-108552542D02*
X139860346Y-108695400D01*
X139860346Y-108695400D02*
X139717489Y-108766828D01*
X139717489Y-108766828D02*
X139574632Y-108766828D01*
X138503203Y-108695400D02*
X138646060Y-108766828D01*
X138646060Y-108766828D02*
X138931775Y-108766828D01*
X138931775Y-108766828D02*
X139074632Y-108695400D01*
X139074632Y-108695400D02*
X139146060Y-108552542D01*
X139146060Y-108552542D02*
X139146060Y-107981114D01*
X139146060Y-107981114D02*
X139074632Y-107838257D01*
X139074632Y-107838257D02*
X138931775Y-107766828D01*
X138931775Y-107766828D02*
X138646060Y-107766828D01*
X138646060Y-107766828D02*
X138503203Y-107838257D01*
X138503203Y-107838257D02*
X138431775Y-107981114D01*
X138431775Y-107981114D02*
X138431775Y-108123971D01*
X138431775Y-108123971D02*
X139146060Y-108266828D01*
X137788918Y-108766828D02*
X137788918Y-107766828D01*
X137788918Y-108052542D02*
X137717489Y-107909685D01*
X137717489Y-107909685D02*
X137646061Y-107838257D01*
X137646061Y-107838257D02*
X137503203Y-107766828D01*
X137503203Y-107766828D02*
X137360346Y-107766828D01*
X135003204Y-108766828D02*
X135717490Y-108766828D01*
X135717490Y-108766828D02*
X135717490Y-107266828D01*
X134503204Y-108766828D02*
X134503204Y-107766828D01*
X134503204Y-107266828D02*
X134574632Y-107338257D01*
X134574632Y-107338257D02*
X134503204Y-107409685D01*
X134503204Y-107409685D02*
X134431775Y-107338257D01*
X134431775Y-107338257D02*
X134503204Y-107266828D01*
X134503204Y-107266828D02*
X134503204Y-107409685D01*
X133931775Y-107766828D02*
X133574632Y-108766828D01*
X133574632Y-108766828D02*
X133217489Y-107766828D01*
X132074632Y-108695400D02*
X132217489Y-108766828D01*
X132217489Y-108766828D02*
X132503204Y-108766828D01*
X132503204Y-108766828D02*
X132646061Y-108695400D01*
X132646061Y-108695400D02*
X132717489Y-108552542D01*
X132717489Y-108552542D02*
X132717489Y-107981114D01*
X132717489Y-107981114D02*
X132646061Y-107838257D01*
X132646061Y-107838257D02*
X132503204Y-107766828D01*
X132503204Y-107766828D02*
X132217489Y-107766828D01*
X132217489Y-107766828D02*
X132074632Y-107838257D01*
X132074632Y-107838257D02*
X132003204Y-107981114D01*
X132003204Y-107981114D02*
X132003204Y-108123971D01*
X132003204Y-108123971D02*
X132717489Y-108266828D01*
X131360347Y-108766828D02*
X131360347Y-107766828D01*
X131360347Y-108052542D02*
X131288918Y-107909685D01*
X131288918Y-107909685D02*
X131217490Y-107838257D01*
X131217490Y-107838257D02*
X131074632Y-107766828D01*
X131074632Y-107766828D02*
X130931775Y-107766828D01*
X130431776Y-108766828D02*
X130431776Y-107766828D01*
X130431776Y-107909685D02*
X130360347Y-107838257D01*
X130360347Y-107838257D02*
X130217490Y-107766828D01*
X130217490Y-107766828D02*
X130003204Y-107766828D01*
X130003204Y-107766828D02*
X129860347Y-107838257D01*
X129860347Y-107838257D02*
X129788919Y-107981114D01*
X129788919Y-107981114D02*
X129788919Y-108766828D01*
X129788919Y-107981114D02*
X129717490Y-107838257D01*
X129717490Y-107838257D02*
X129574633Y-107766828D01*
X129574633Y-107766828D02*
X129360347Y-107766828D01*
X129360347Y-107766828D02*
X129217490Y-107838257D01*
X129217490Y-107838257D02*
X129146061Y-107981114D01*
X129146061Y-107981114D02*
X129146061Y-108766828D01*
X128217490Y-108766828D02*
X128360347Y-108695400D01*
X128360347Y-108695400D02*
X128431776Y-108623971D01*
X128431776Y-108623971D02*
X128503204Y-108481114D01*
X128503204Y-108481114D02*
X128503204Y-108052542D01*
X128503204Y-108052542D02*
X128431776Y-107909685D01*
X128431776Y-107909685D02*
X128360347Y-107838257D01*
X128360347Y-107838257D02*
X128217490Y-107766828D01*
X128217490Y-107766828D02*
X128003204Y-107766828D01*
X128003204Y-107766828D02*
X127860347Y-107838257D01*
X127860347Y-107838257D02*
X127788919Y-107909685D01*
X127788919Y-107909685D02*
X127717490Y-108052542D01*
X127717490Y-108052542D02*
X127717490Y-108481114D01*
X127717490Y-108481114D02*
X127788919Y-108623971D01*
X127788919Y-108623971D02*
X127860347Y-108695400D01*
X127860347Y-108695400D02*
X128003204Y-108766828D01*
X128003204Y-108766828D02*
X128217490Y-108766828D01*
X127074633Y-108766828D02*
X127074633Y-107766828D01*
X127074633Y-108052542D02*
X127003204Y-107909685D01*
X127003204Y-107909685D02*
X126931776Y-107838257D01*
X126931776Y-107838257D02*
X126788918Y-107766828D01*
X126788918Y-107766828D02*
X126646061Y-107766828D01*
X125574633Y-108695400D02*
X125717490Y-108766828D01*
X125717490Y-108766828D02*
X126003205Y-108766828D01*
X126003205Y-108766828D02*
X126146062Y-108695400D01*
X126146062Y-108695400D02*
X126217490Y-108552542D01*
X126217490Y-108552542D02*
X126217490Y-107981114D01*
X126217490Y-107981114D02*
X126146062Y-107838257D01*
X126146062Y-107838257D02*
X126003205Y-107766828D01*
X126003205Y-107766828D02*
X125717490Y-107766828D01*
X125717490Y-107766828D02*
X125574633Y-107838257D01*
X125574633Y-107838257D02*
X125503205Y-107981114D01*
X125503205Y-107981114D02*
X125503205Y-108123971D01*
X125503205Y-108123971D02*
X126217490Y-108266828D01*
D10*
X119663168Y-94455084D02*
X145000000Y-94455084D01*
X145000000Y-110236000D01*
X119663168Y-110236000D01*
X119663168Y-94455084D01*
D11*
X186135489Y-118770366D02*
X185635489Y-118770366D01*
X185421203Y-119556080D02*
X186135489Y-119556080D01*
X186135489Y-119556080D02*
X186135489Y-118056080D01*
X186135489Y-118056080D02*
X185421203Y-118056080D01*
X184064060Y-119556080D02*
X184778346Y-119556080D01*
X184778346Y-119556080D02*
X184778346Y-118056080D01*
X183564060Y-118770366D02*
X183064060Y-118770366D01*
X182849774Y-119556080D02*
X183564060Y-119556080D01*
X183564060Y-119556080D02*
X183564060Y-118056080D01*
X183564060Y-118056080D02*
X182849774Y-118056080D01*
X181349774Y-119413223D02*
X181421202Y-119484652D01*
X181421202Y-119484652D02*
X181635488Y-119556080D01*
X181635488Y-119556080D02*
X181778345Y-119556080D01*
X181778345Y-119556080D02*
X181992631Y-119484652D01*
X181992631Y-119484652D02*
X182135488Y-119341794D01*
X182135488Y-119341794D02*
X182206917Y-119198937D01*
X182206917Y-119198937D02*
X182278345Y-118913223D01*
X182278345Y-118913223D02*
X182278345Y-118698937D01*
X182278345Y-118698937D02*
X182206917Y-118413223D01*
X182206917Y-118413223D02*
X182135488Y-118270366D01*
X182135488Y-118270366D02*
X181992631Y-118127509D01*
X181992631Y-118127509D02*
X181778345Y-118056080D01*
X181778345Y-118056080D02*
X181635488Y-118056080D01*
X181635488Y-118056080D02*
X181421202Y-118127509D01*
X181421202Y-118127509D02*
X181349774Y-118198937D01*
X178921203Y-118556080D02*
X178921203Y-119556080D01*
X179278345Y-117984652D02*
X179635488Y-119056080D01*
X179635488Y-119056080D02*
X178706917Y-119056080D01*
X178064060Y-119556080D02*
X177778346Y-119556080D01*
X177778346Y-119556080D02*
X177635489Y-119484652D01*
X177635489Y-119484652D02*
X177564060Y-119413223D01*
X177564060Y-119413223D02*
X177421203Y-119198937D01*
X177421203Y-119198937D02*
X177349774Y-118913223D01*
X177349774Y-118913223D02*
X177349774Y-118341794D01*
X177349774Y-118341794D02*
X177421203Y-118198937D01*
X177421203Y-118198937D02*
X177492632Y-118127509D01*
X177492632Y-118127509D02*
X177635489Y-118056080D01*
X177635489Y-118056080D02*
X177921203Y-118056080D01*
X177921203Y-118056080D02*
X178064060Y-118127509D01*
X178064060Y-118127509D02*
X178135489Y-118198937D01*
X178135489Y-118198937D02*
X178206917Y-118341794D01*
X178206917Y-118341794D02*
X178206917Y-118698937D01*
X178206917Y-118698937D02*
X178135489Y-118841794D01*
X178135489Y-118841794D02*
X178064060Y-118913223D01*
X178064060Y-118913223D02*
X177921203Y-118984652D01*
X177921203Y-118984652D02*
X177635489Y-118984652D01*
X177635489Y-118984652D02*
X177492632Y-118913223D01*
X177492632Y-118913223D02*
X177421203Y-118841794D01*
X177421203Y-118841794D02*
X177349774Y-118698937D01*
X176421203Y-118056080D02*
X176278346Y-118056080D01*
X176278346Y-118056080D02*
X176135489Y-118127509D01*
X176135489Y-118127509D02*
X176064061Y-118198937D01*
X176064061Y-118198937D02*
X175992632Y-118341794D01*
X175992632Y-118341794D02*
X175921203Y-118627509D01*
X175921203Y-118627509D02*
X175921203Y-118984652D01*
X175921203Y-118984652D02*
X175992632Y-119270366D01*
X175992632Y-119270366D02*
X176064061Y-119413223D01*
X176064061Y-119413223D02*
X176135489Y-119484652D01*
X176135489Y-119484652D02*
X176278346Y-119556080D01*
X176278346Y-119556080D02*
X176421203Y-119556080D01*
X176421203Y-119556080D02*
X176564061Y-119484652D01*
X176564061Y-119484652D02*
X176635489Y-119413223D01*
X176635489Y-119413223D02*
X176706918Y-119270366D01*
X176706918Y-119270366D02*
X176778346Y-118984652D01*
X176778346Y-118984652D02*
X176778346Y-118627509D01*
X176778346Y-118627509D02*
X176706918Y-118341794D01*
X176706918Y-118341794D02*
X176635489Y-118198937D01*
X176635489Y-118198937D02*
X176564061Y-118127509D01*
X176564061Y-118127509D02*
X176421203Y-118056080D01*
X175421204Y-118056080D02*
X174421204Y-118056080D01*
X174421204Y-118056080D02*
X175064061Y-119556080D01*
X171849776Y-119413223D02*
X171921204Y-119484652D01*
X171921204Y-119484652D02*
X172135490Y-119556080D01*
X172135490Y-119556080D02*
X172278347Y-119556080D01*
X172278347Y-119556080D02*
X172492633Y-119484652D01*
X172492633Y-119484652D02*
X172635490Y-119341794D01*
X172635490Y-119341794D02*
X172706919Y-119198937D01*
X172706919Y-119198937D02*
X172778347Y-118913223D01*
X172778347Y-118913223D02*
X172778347Y-118698937D01*
X172778347Y-118698937D02*
X172706919Y-118413223D01*
X172706919Y-118413223D02*
X172635490Y-118270366D01*
X172635490Y-118270366D02*
X172492633Y-118127509D01*
X172492633Y-118127509D02*
X172278347Y-118056080D01*
X172278347Y-118056080D02*
X172135490Y-118056080D01*
X172135490Y-118056080D02*
X171921204Y-118127509D01*
X171921204Y-118127509D02*
X171849776Y-118198937D01*
X170564062Y-119556080D02*
X170564062Y-118770366D01*
X170564062Y-118770366D02*
X170635490Y-118627509D01*
X170635490Y-118627509D02*
X170778347Y-118556080D01*
X170778347Y-118556080D02*
X171064062Y-118556080D01*
X171064062Y-118556080D02*
X171206919Y-118627509D01*
X170564062Y-119484652D02*
X170706919Y-119556080D01*
X170706919Y-119556080D02*
X171064062Y-119556080D01*
X171064062Y-119556080D02*
X171206919Y-119484652D01*
X171206919Y-119484652D02*
X171278347Y-119341794D01*
X171278347Y-119341794D02*
X171278347Y-119198937D01*
X171278347Y-119198937D02*
X171206919Y-119056080D01*
X171206919Y-119056080D02*
X171064062Y-118984652D01*
X171064062Y-118984652D02*
X170706919Y-118984652D01*
X170706919Y-118984652D02*
X170564062Y-118913223D01*
X169849776Y-118556080D02*
X169849776Y-120056080D01*
X169849776Y-118627509D02*
X169706919Y-118556080D01*
X169706919Y-118556080D02*
X169421204Y-118556080D01*
X169421204Y-118556080D02*
X169278347Y-118627509D01*
X169278347Y-118627509D02*
X169206919Y-118698937D01*
X169206919Y-118698937D02*
X169135490Y-118841794D01*
X169135490Y-118841794D02*
X169135490Y-119270366D01*
X169135490Y-119270366D02*
X169206919Y-119413223D01*
X169206919Y-119413223D02*
X169278347Y-119484652D01*
X169278347Y-119484652D02*
X169421204Y-119556080D01*
X169421204Y-119556080D02*
X169706919Y-119556080D01*
X169706919Y-119556080D02*
X169849776Y-119484652D01*
X168564061Y-119484652D02*
X168421204Y-119556080D01*
X168421204Y-119556080D02*
X168135490Y-119556080D01*
X168135490Y-119556080D02*
X167992633Y-119484652D01*
X167992633Y-119484652D02*
X167921204Y-119341794D01*
X167921204Y-119341794D02*
X167921204Y-119270366D01*
X167921204Y-119270366D02*
X167992633Y-119127509D01*
X167992633Y-119127509D02*
X168135490Y-119056080D01*
X168135490Y-119056080D02*
X168349776Y-119056080D01*
X168349776Y-119056080D02*
X168492633Y-118984652D01*
X168492633Y-118984652D02*
X168564061Y-118841794D01*
X168564061Y-118841794D02*
X168564061Y-118770366D01*
X168564061Y-118770366D02*
X168492633Y-118627509D01*
X168492633Y-118627509D02*
X168349776Y-118556080D01*
X168349776Y-118556080D02*
X168135490Y-118556080D01*
X168135490Y-118556080D02*
X167992633Y-118627509D01*
X167492632Y-118556080D02*
X166921204Y-118556080D01*
X167278347Y-118056080D02*
X167278347Y-119341794D01*
X167278347Y-119341794D02*
X167206918Y-119484652D01*
X167206918Y-119484652D02*
X167064061Y-119556080D01*
X167064061Y-119556080D02*
X166921204Y-119556080D01*
X166206918Y-119556080D02*
X166349775Y-119484652D01*
X166349775Y-119484652D02*
X166421204Y-119413223D01*
X166421204Y-119413223D02*
X166492632Y-119270366D01*
X166492632Y-119270366D02*
X166492632Y-118841794D01*
X166492632Y-118841794D02*
X166421204Y-118698937D01*
X166421204Y-118698937D02*
X166349775Y-118627509D01*
X166349775Y-118627509D02*
X166206918Y-118556080D01*
X166206918Y-118556080D02*
X165992632Y-118556080D01*
X165992632Y-118556080D02*
X165849775Y-118627509D01*
X165849775Y-118627509D02*
X165778347Y-118698937D01*
X165778347Y-118698937D02*
X165706918Y-118841794D01*
X165706918Y-118841794D02*
X165706918Y-119270366D01*
X165706918Y-119270366D02*
X165778347Y-119413223D01*
X165778347Y-119413223D02*
X165849775Y-119484652D01*
X165849775Y-119484652D02*
X165992632Y-119556080D01*
X165992632Y-119556080D02*
X166206918Y-119556080D01*
X165064061Y-118556080D02*
X165064061Y-119556080D01*
X165064061Y-118698937D02*
X164992632Y-118627509D01*
X164992632Y-118627509D02*
X164849775Y-118556080D01*
X164849775Y-118556080D02*
X164635489Y-118556080D01*
X164635489Y-118556080D02*
X164492632Y-118627509D01*
X164492632Y-118627509D02*
X164421204Y-118770366D01*
X164421204Y-118770366D02*
X164421204Y-119556080D01*
X163135489Y-119484652D02*
X163278346Y-119556080D01*
X163278346Y-119556080D02*
X163564061Y-119556080D01*
X163564061Y-119556080D02*
X163706918Y-119484652D01*
X163706918Y-119484652D02*
X163778346Y-119341794D01*
X163778346Y-119341794D02*
X163778346Y-118770366D01*
X163778346Y-118770366D02*
X163706918Y-118627509D01*
X163706918Y-118627509D02*
X163564061Y-118556080D01*
X163564061Y-118556080D02*
X163278346Y-118556080D01*
X163278346Y-118556080D02*
X163135489Y-118627509D01*
X163135489Y-118627509D02*
X163064061Y-118770366D01*
X163064061Y-118770366D02*
X163064061Y-118913223D01*
X163064061Y-118913223D02*
X163778346Y-119056080D01*
X162421204Y-119413223D02*
X162349775Y-119484652D01*
X162349775Y-119484652D02*
X162421204Y-119556080D01*
X162421204Y-119556080D02*
X162492632Y-119484652D01*
X162492632Y-119484652D02*
X162421204Y-119413223D01*
X162421204Y-119413223D02*
X162421204Y-119556080D01*
X162421204Y-118627509D02*
X162349775Y-118698937D01*
X162349775Y-118698937D02*
X162421204Y-118770366D01*
X162421204Y-118770366D02*
X162492632Y-118698937D01*
X162492632Y-118698937D02*
X162421204Y-118627509D01*
X162421204Y-118627509D02*
X162421204Y-118770366D01*
X157564061Y-119556080D02*
X158278347Y-119556080D01*
X158278347Y-119556080D02*
X158278347Y-118056080D01*
X156849775Y-119556080D02*
X156992632Y-119484652D01*
X156992632Y-119484652D02*
X157064061Y-119413223D01*
X157064061Y-119413223D02*
X157135489Y-119270366D01*
X157135489Y-119270366D02*
X157135489Y-118841794D01*
X157135489Y-118841794D02*
X157064061Y-118698937D01*
X157064061Y-118698937D02*
X156992632Y-118627509D01*
X156992632Y-118627509D02*
X156849775Y-118556080D01*
X156849775Y-118556080D02*
X156635489Y-118556080D01*
X156635489Y-118556080D02*
X156492632Y-118627509D01*
X156492632Y-118627509D02*
X156421204Y-118698937D01*
X156421204Y-118698937D02*
X156349775Y-118841794D01*
X156349775Y-118841794D02*
X156349775Y-119270366D01*
X156349775Y-119270366D02*
X156421204Y-119413223D01*
X156421204Y-119413223D02*
X156492632Y-119484652D01*
X156492632Y-119484652D02*
X156635489Y-119556080D01*
X156635489Y-119556080D02*
X156849775Y-119556080D01*
X155849775Y-118556080D02*
X155564061Y-119556080D01*
X155564061Y-119556080D02*
X155278346Y-118841794D01*
X155278346Y-118841794D02*
X154992632Y-119556080D01*
X154992632Y-119556080D02*
X154706918Y-118556080D01*
X152492632Y-118770366D02*
X152992632Y-118770366D01*
X152992632Y-119556080D02*
X152992632Y-118056080D01*
X152992632Y-118056080D02*
X152278346Y-118056080D01*
X151706918Y-119556080D02*
X151706918Y-118556080D01*
X151706918Y-118841794D02*
X151635489Y-118698937D01*
X151635489Y-118698937D02*
X151564061Y-118627509D01*
X151564061Y-118627509D02*
X151421203Y-118556080D01*
X151421203Y-118556080D02*
X151278346Y-118556080D01*
X150206918Y-119484652D02*
X150349775Y-119556080D01*
X150349775Y-119556080D02*
X150635490Y-119556080D01*
X150635490Y-119556080D02*
X150778347Y-119484652D01*
X150778347Y-119484652D02*
X150849775Y-119341794D01*
X150849775Y-119341794D02*
X150849775Y-118770366D01*
X150849775Y-118770366D02*
X150778347Y-118627509D01*
X150778347Y-118627509D02*
X150635490Y-118556080D01*
X150635490Y-118556080D02*
X150349775Y-118556080D01*
X150349775Y-118556080D02*
X150206918Y-118627509D01*
X150206918Y-118627509D02*
X150135490Y-118770366D01*
X150135490Y-118770366D02*
X150135490Y-118913223D01*
X150135490Y-118913223D02*
X150849775Y-119056080D01*
X148849776Y-118556080D02*
X148849776Y-120056080D01*
X148849776Y-119484652D02*
X148992633Y-119556080D01*
X148992633Y-119556080D02*
X149278347Y-119556080D01*
X149278347Y-119556080D02*
X149421204Y-119484652D01*
X149421204Y-119484652D02*
X149492633Y-119413223D01*
X149492633Y-119413223D02*
X149564061Y-119270366D01*
X149564061Y-119270366D02*
X149564061Y-118841794D01*
X149564061Y-118841794D02*
X149492633Y-118698937D01*
X149492633Y-118698937D02*
X149421204Y-118627509D01*
X149421204Y-118627509D02*
X149278347Y-118556080D01*
X149278347Y-118556080D02*
X148992633Y-118556080D01*
X148992633Y-118556080D02*
X148849776Y-118627509D01*
X147564061Y-119484652D02*
X147706918Y-119556080D01*
X147706918Y-119556080D02*
X147992633Y-119556080D01*
X147992633Y-119556080D02*
X148135490Y-119484652D01*
X148135490Y-119484652D02*
X148206918Y-119341794D01*
X148206918Y-119341794D02*
X148206918Y-118770366D01*
X148206918Y-118770366D02*
X148135490Y-118627509D01*
X148135490Y-118627509D02*
X147992633Y-118556080D01*
X147992633Y-118556080D02*
X147706918Y-118556080D01*
X147706918Y-118556080D02*
X147564061Y-118627509D01*
X147564061Y-118627509D02*
X147492633Y-118770366D01*
X147492633Y-118770366D02*
X147492633Y-118913223D01*
X147492633Y-118913223D02*
X148206918Y-119056080D01*
X146206919Y-118556080D02*
X146206919Y-119556080D01*
X146849776Y-118556080D02*
X146849776Y-119341794D01*
X146849776Y-119341794D02*
X146778347Y-119484652D01*
X146778347Y-119484652D02*
X146635490Y-119556080D01*
X146635490Y-119556080D02*
X146421204Y-119556080D01*
X146421204Y-119556080D02*
X146278347Y-119484652D01*
X146278347Y-119484652D02*
X146206919Y-119413223D01*
X145492633Y-118556080D02*
X145492633Y-119556080D01*
X145492633Y-118698937D02*
X145421204Y-118627509D01*
X145421204Y-118627509D02*
X145278347Y-118556080D01*
X145278347Y-118556080D02*
X145064061Y-118556080D01*
X145064061Y-118556080D02*
X144921204Y-118627509D01*
X144921204Y-118627509D02*
X144849776Y-118770366D01*
X144849776Y-118770366D02*
X144849776Y-119556080D01*
X143492633Y-119484652D02*
X143635490Y-119556080D01*
X143635490Y-119556080D02*
X143921204Y-119556080D01*
X143921204Y-119556080D02*
X144064061Y-119484652D01*
X144064061Y-119484652D02*
X144135490Y-119413223D01*
X144135490Y-119413223D02*
X144206918Y-119270366D01*
X144206918Y-119270366D02*
X144206918Y-118841794D01*
X144206918Y-118841794D02*
X144135490Y-118698937D01*
X144135490Y-118698937D02*
X144064061Y-118627509D01*
X144064061Y-118627509D02*
X143921204Y-118556080D01*
X143921204Y-118556080D02*
X143635490Y-118556080D01*
X143635490Y-118556080D02*
X143492633Y-118627509D01*
X142992633Y-118556080D02*
X142635490Y-119556080D01*
X142278347Y-118556080D02*
X142635490Y-119556080D01*
X142635490Y-119556080D02*
X142778347Y-119913223D01*
X142778347Y-119913223D02*
X142849776Y-119984652D01*
X142849776Y-119984652D02*
X142992633Y-120056080D01*
X140564062Y-119556080D02*
X140564062Y-118056080D01*
X140564062Y-118056080D02*
X139992633Y-118056080D01*
X139992633Y-118056080D02*
X139849776Y-118127509D01*
X139849776Y-118127509D02*
X139778347Y-118198937D01*
X139778347Y-118198937D02*
X139706919Y-118341794D01*
X139706919Y-118341794D02*
X139706919Y-118556080D01*
X139706919Y-118556080D02*
X139778347Y-118698937D01*
X139778347Y-118698937D02*
X139849776Y-118770366D01*
X139849776Y-118770366D02*
X139992633Y-118841794D01*
X139992633Y-118841794D02*
X140564062Y-118841794D01*
X138206919Y-119413223D02*
X138278347Y-119484652D01*
X138278347Y-119484652D02*
X138492633Y-119556080D01*
X138492633Y-119556080D02*
X138635490Y-119556080D01*
X138635490Y-119556080D02*
X138849776Y-119484652D01*
X138849776Y-119484652D02*
X138992633Y-119341794D01*
X138992633Y-119341794D02*
X139064062Y-119198937D01*
X139064062Y-119198937D02*
X139135490Y-118913223D01*
X139135490Y-118913223D02*
X139135490Y-118698937D01*
X139135490Y-118698937D02*
X139064062Y-118413223D01*
X139064062Y-118413223D02*
X138992633Y-118270366D01*
X138992633Y-118270366D02*
X138849776Y-118127509D01*
X138849776Y-118127509D02*
X138635490Y-118056080D01*
X138635490Y-118056080D02*
X138492633Y-118056080D01*
X138492633Y-118056080D02*
X138278347Y-118127509D01*
X138278347Y-118127509D02*
X138206919Y-118198937D01*
X137064062Y-118770366D02*
X136849776Y-118841794D01*
X136849776Y-118841794D02*
X136778347Y-118913223D01*
X136778347Y-118913223D02*
X136706919Y-119056080D01*
X136706919Y-119056080D02*
X136706919Y-119270366D01*
X136706919Y-119270366D02*
X136778347Y-119413223D01*
X136778347Y-119413223D02*
X136849776Y-119484652D01*
X136849776Y-119484652D02*
X136992633Y-119556080D01*
X136992633Y-119556080D02*
X137564062Y-119556080D01*
X137564062Y-119556080D02*
X137564062Y-118056080D01*
X137564062Y-118056080D02*
X137064062Y-118056080D01*
X137064062Y-118056080D02*
X136921205Y-118127509D01*
X136921205Y-118127509D02*
X136849776Y-118198937D01*
X136849776Y-118198937D02*
X136778347Y-118341794D01*
X136778347Y-118341794D02*
X136778347Y-118484652D01*
X136778347Y-118484652D02*
X136849776Y-118627509D01*
X136849776Y-118627509D02*
X136921205Y-118698937D01*
X136921205Y-118698937D02*
X137064062Y-118770366D01*
X137064062Y-118770366D02*
X137564062Y-118770366D01*
X136064062Y-119413223D02*
X135992633Y-119484652D01*
X135992633Y-119484652D02*
X136064062Y-119556080D01*
X136064062Y-119556080D02*
X136135490Y-119484652D01*
X136135490Y-119484652D02*
X136064062Y-119413223D01*
X136064062Y-119413223D02*
X136064062Y-119556080D01*
X136064062Y-118627509D02*
X135992633Y-118698937D01*
X135992633Y-118698937D02*
X136064062Y-118770366D01*
X136064062Y-118770366D02*
X136135490Y-118698937D01*
X136135490Y-118698937D02*
X136064062Y-118627509D01*
X136064062Y-118627509D02*
X136064062Y-118770366D01*
X185278346Y-121970996D02*
X185778346Y-121256710D01*
X186135489Y-121970996D02*
X186135489Y-120470996D01*
X186135489Y-120470996D02*
X185564060Y-120470996D01*
X185564060Y-120470996D02*
X185421203Y-120542425D01*
X185421203Y-120542425D02*
X185349774Y-120613853D01*
X185349774Y-120613853D02*
X185278346Y-120756710D01*
X185278346Y-120756710D02*
X185278346Y-120970996D01*
X185278346Y-120970996D02*
X185349774Y-121113853D01*
X185349774Y-121113853D02*
X185421203Y-121185282D01*
X185421203Y-121185282D02*
X185564060Y-121256710D01*
X185564060Y-121256710D02*
X186135489Y-121256710D01*
X183992632Y-121970996D02*
X183992632Y-121185282D01*
X183992632Y-121185282D02*
X184064060Y-121042425D01*
X184064060Y-121042425D02*
X184206917Y-120970996D01*
X184206917Y-120970996D02*
X184492632Y-120970996D01*
X184492632Y-120970996D02*
X184635489Y-121042425D01*
X183992632Y-121899568D02*
X184135489Y-121970996D01*
X184135489Y-121970996D02*
X184492632Y-121970996D01*
X184492632Y-121970996D02*
X184635489Y-121899568D01*
X184635489Y-121899568D02*
X184706917Y-121756710D01*
X184706917Y-121756710D02*
X184706917Y-121613853D01*
X184706917Y-121613853D02*
X184635489Y-121470996D01*
X184635489Y-121470996D02*
X184492632Y-121399568D01*
X184492632Y-121399568D02*
X184135489Y-121399568D01*
X184135489Y-121399568D02*
X183992632Y-121328139D01*
X182635489Y-121970996D02*
X182635489Y-120470996D01*
X182635489Y-121899568D02*
X182778346Y-121970996D01*
X182778346Y-121970996D02*
X183064060Y-121970996D01*
X183064060Y-121970996D02*
X183206917Y-121899568D01*
X183206917Y-121899568D02*
X183278346Y-121828139D01*
X183278346Y-121828139D02*
X183349774Y-121685282D01*
X183349774Y-121685282D02*
X183349774Y-121256710D01*
X183349774Y-121256710D02*
X183278346Y-121113853D01*
X183278346Y-121113853D02*
X183206917Y-121042425D01*
X183206917Y-121042425D02*
X183064060Y-120970996D01*
X183064060Y-120970996D02*
X182778346Y-120970996D01*
X182778346Y-120970996D02*
X182635489Y-121042425D01*
X181278346Y-121970996D02*
X181278346Y-121185282D01*
X181278346Y-121185282D02*
X181349774Y-121042425D01*
X181349774Y-121042425D02*
X181492631Y-120970996D01*
X181492631Y-120970996D02*
X181778346Y-120970996D01*
X181778346Y-120970996D02*
X181921203Y-121042425D01*
X181278346Y-121899568D02*
X181421203Y-121970996D01*
X181421203Y-121970996D02*
X181778346Y-121970996D01*
X181778346Y-121970996D02*
X181921203Y-121899568D01*
X181921203Y-121899568D02*
X181992631Y-121756710D01*
X181992631Y-121756710D02*
X181992631Y-121613853D01*
X181992631Y-121613853D02*
X181921203Y-121470996D01*
X181921203Y-121470996D02*
X181778346Y-121399568D01*
X181778346Y-121399568D02*
X181421203Y-121399568D01*
X181421203Y-121399568D02*
X181278346Y-121328139D01*
X180564060Y-121970996D02*
X180564060Y-120970996D01*
X180564060Y-121256710D02*
X180492631Y-121113853D01*
X180492631Y-121113853D02*
X180421203Y-121042425D01*
X180421203Y-121042425D02*
X180278345Y-120970996D01*
X180278345Y-120970996D02*
X180135488Y-120970996D01*
X178564060Y-121899568D02*
X178349775Y-121970996D01*
X178349775Y-121970996D02*
X177992632Y-121970996D01*
X177992632Y-121970996D02*
X177849775Y-121899568D01*
X177849775Y-121899568D02*
X177778346Y-121828139D01*
X177778346Y-121828139D02*
X177706917Y-121685282D01*
X177706917Y-121685282D02*
X177706917Y-121542425D01*
X177706917Y-121542425D02*
X177778346Y-121399568D01*
X177778346Y-121399568D02*
X177849775Y-121328139D01*
X177849775Y-121328139D02*
X177992632Y-121256710D01*
X177992632Y-121256710D02*
X178278346Y-121185282D01*
X178278346Y-121185282D02*
X178421203Y-121113853D01*
X178421203Y-121113853D02*
X178492632Y-121042425D01*
X178492632Y-121042425D02*
X178564060Y-120899568D01*
X178564060Y-120899568D02*
X178564060Y-120756710D01*
X178564060Y-120756710D02*
X178492632Y-120613853D01*
X178492632Y-120613853D02*
X178421203Y-120542425D01*
X178421203Y-120542425D02*
X178278346Y-120470996D01*
X178278346Y-120470996D02*
X177921203Y-120470996D01*
X177921203Y-120470996D02*
X177706917Y-120542425D01*
X177206918Y-120970996D02*
X176849775Y-121970996D01*
X176492632Y-120970996D02*
X176849775Y-121970996D01*
X176849775Y-121970996D02*
X176992632Y-122328139D01*
X176992632Y-122328139D02*
X177064061Y-122399568D01*
X177064061Y-122399568D02*
X177206918Y-122470996D01*
X175992632Y-121899568D02*
X175849775Y-121970996D01*
X175849775Y-121970996D02*
X175564061Y-121970996D01*
X175564061Y-121970996D02*
X175421204Y-121899568D01*
X175421204Y-121899568D02*
X175349775Y-121756710D01*
X175349775Y-121756710D02*
X175349775Y-121685282D01*
X175349775Y-121685282D02*
X175421204Y-121542425D01*
X175421204Y-121542425D02*
X175564061Y-121470996D01*
X175564061Y-121470996D02*
X175778347Y-121470996D01*
X175778347Y-121470996D02*
X175921204Y-121399568D01*
X175921204Y-121399568D02*
X175992632Y-121256710D01*
X175992632Y-121256710D02*
X175992632Y-121185282D01*
X175992632Y-121185282D02*
X175921204Y-121042425D01*
X175921204Y-121042425D02*
X175778347Y-120970996D01*
X175778347Y-120970996D02*
X175564061Y-120970996D01*
X175564061Y-120970996D02*
X175421204Y-121042425D01*
X174921203Y-120970996D02*
X174349775Y-120970996D01*
X174706918Y-120470996D02*
X174706918Y-121756710D01*
X174706918Y-121756710D02*
X174635489Y-121899568D01*
X174635489Y-121899568D02*
X174492632Y-121970996D01*
X174492632Y-121970996D02*
X174349775Y-121970996D01*
X173278346Y-121899568D02*
X173421203Y-121970996D01*
X173421203Y-121970996D02*
X173706918Y-121970996D01*
X173706918Y-121970996D02*
X173849775Y-121899568D01*
X173849775Y-121899568D02*
X173921203Y-121756710D01*
X173921203Y-121756710D02*
X173921203Y-121185282D01*
X173921203Y-121185282D02*
X173849775Y-121042425D01*
X173849775Y-121042425D02*
X173706918Y-120970996D01*
X173706918Y-120970996D02*
X173421203Y-120970996D01*
X173421203Y-120970996D02*
X173278346Y-121042425D01*
X173278346Y-121042425D02*
X173206918Y-121185282D01*
X173206918Y-121185282D02*
X173206918Y-121328139D01*
X173206918Y-121328139D02*
X173921203Y-121470996D01*
X172564061Y-121970996D02*
X172564061Y-120970996D01*
X172564061Y-121113853D02*
X172492632Y-121042425D01*
X172492632Y-121042425D02*
X172349775Y-120970996D01*
X172349775Y-120970996D02*
X172135489Y-120970996D01*
X172135489Y-120970996D02*
X171992632Y-121042425D01*
X171992632Y-121042425D02*
X171921204Y-121185282D01*
X171921204Y-121185282D02*
X171921204Y-121970996D01*
X171921204Y-121185282D02*
X171849775Y-121042425D01*
X171849775Y-121042425D02*
X171706918Y-120970996D01*
X171706918Y-120970996D02*
X171492632Y-120970996D01*
X171492632Y-120970996D02*
X171349775Y-121042425D01*
X171349775Y-121042425D02*
X171278346Y-121185282D01*
X171278346Y-121185282D02*
X171278346Y-121970996D01*
X168992632Y-122542425D02*
X169064061Y-122470996D01*
X169064061Y-122470996D02*
X169206918Y-122256710D01*
X169206918Y-122256710D02*
X169278347Y-122113853D01*
X169278347Y-122113853D02*
X169349775Y-121899568D01*
X169349775Y-121899568D02*
X169421204Y-121542425D01*
X169421204Y-121542425D02*
X169421204Y-121256710D01*
X169421204Y-121256710D02*
X169349775Y-120899568D01*
X169349775Y-120899568D02*
X169278347Y-120685282D01*
X169278347Y-120685282D02*
X169206918Y-120542425D01*
X169206918Y-120542425D02*
X169064061Y-120328139D01*
X169064061Y-120328139D02*
X168992632Y-120256710D01*
X167564061Y-121970996D02*
X168064061Y-121256710D01*
X168421204Y-121970996D02*
X168421204Y-120470996D01*
X168421204Y-120470996D02*
X167849775Y-120470996D01*
X167849775Y-120470996D02*
X167706918Y-120542425D01*
X167706918Y-120542425D02*
X167635489Y-120613853D01*
X167635489Y-120613853D02*
X167564061Y-120756710D01*
X167564061Y-120756710D02*
X167564061Y-120970996D01*
X167564061Y-120970996D02*
X167635489Y-121113853D01*
X167635489Y-121113853D02*
X167706918Y-121185282D01*
X167706918Y-121185282D02*
X167849775Y-121256710D01*
X167849775Y-121256710D02*
X168421204Y-121256710D01*
X166349775Y-121899568D02*
X166492632Y-121970996D01*
X166492632Y-121970996D02*
X166778347Y-121970996D01*
X166778347Y-121970996D02*
X166921204Y-121899568D01*
X166921204Y-121899568D02*
X166992632Y-121756710D01*
X166992632Y-121756710D02*
X166992632Y-121185282D01*
X166992632Y-121185282D02*
X166921204Y-121042425D01*
X166921204Y-121042425D02*
X166778347Y-120970996D01*
X166778347Y-120970996D02*
X166492632Y-120970996D01*
X166492632Y-120970996D02*
X166349775Y-121042425D01*
X166349775Y-121042425D02*
X166278347Y-121185282D01*
X166278347Y-121185282D02*
X166278347Y-121328139D01*
X166278347Y-121328139D02*
X166992632Y-121470996D01*
X165778347Y-120970996D02*
X165421204Y-121970996D01*
X165421204Y-121970996D02*
X165064061Y-120970996D01*
X163421204Y-120613853D02*
X163349776Y-120542425D01*
X163349776Y-120542425D02*
X163206919Y-120470996D01*
X163206919Y-120470996D02*
X162849776Y-120470996D01*
X162849776Y-120470996D02*
X162706919Y-120542425D01*
X162706919Y-120542425D02*
X162635490Y-120613853D01*
X162635490Y-120613853D02*
X162564061Y-120756710D01*
X162564061Y-120756710D02*
X162564061Y-120899568D01*
X162564061Y-120899568D02*
X162635490Y-121113853D01*
X162635490Y-121113853D02*
X163492633Y-121970996D01*
X163492633Y-121970996D02*
X162564061Y-121970996D01*
X162064062Y-122542425D02*
X161992633Y-122470996D01*
X161992633Y-122470996D02*
X161849776Y-122256710D01*
X161849776Y-122256710D02*
X161778348Y-122113853D01*
X161778348Y-122113853D02*
X161706919Y-121899568D01*
X161706919Y-121899568D02*
X161635490Y-121542425D01*
X161635490Y-121542425D02*
X161635490Y-121256710D01*
X161635490Y-121256710D02*
X161706919Y-120899568D01*
X161706919Y-120899568D02*
X161778348Y-120685282D01*
X161778348Y-120685282D02*
X161849776Y-120542425D01*
X161849776Y-120542425D02*
X161992633Y-120328139D01*
X161992633Y-120328139D02*
X162064062Y-120256710D01*
X155635491Y-121970996D02*
X156349777Y-121970996D01*
X156349777Y-121970996D02*
X156349777Y-120470996D01*
X154921205Y-121970996D02*
X155064062Y-121899568D01*
X155064062Y-121899568D02*
X155135491Y-121828139D01*
X155135491Y-121828139D02*
X155206919Y-121685282D01*
X155206919Y-121685282D02*
X155206919Y-121256710D01*
X155206919Y-121256710D02*
X155135491Y-121113853D01*
X155135491Y-121113853D02*
X155064062Y-121042425D01*
X155064062Y-121042425D02*
X154921205Y-120970996D01*
X154921205Y-120970996D02*
X154706919Y-120970996D01*
X154706919Y-120970996D02*
X154564062Y-121042425D01*
X154564062Y-121042425D02*
X154492634Y-121113853D01*
X154492634Y-121113853D02*
X154421205Y-121256710D01*
X154421205Y-121256710D02*
X154421205Y-121685282D01*
X154421205Y-121685282D02*
X154492634Y-121828139D01*
X154492634Y-121828139D02*
X154564062Y-121899568D01*
X154564062Y-121899568D02*
X154706919Y-121970996D01*
X154706919Y-121970996D02*
X154921205Y-121970996D01*
X153921205Y-120970996D02*
X153635491Y-121970996D01*
X153635491Y-121970996D02*
X153349776Y-121256710D01*
X153349776Y-121256710D02*
X153064062Y-121970996D01*
X153064062Y-121970996D02*
X152778348Y-120970996D01*
X151064062Y-121970996D02*
X151064062Y-120470996D01*
X151064062Y-120470996D02*
X150492633Y-120470996D01*
X150492633Y-120470996D02*
X150349776Y-120542425D01*
X150349776Y-120542425D02*
X150278347Y-120613853D01*
X150278347Y-120613853D02*
X150206919Y-120756710D01*
X150206919Y-120756710D02*
X150206919Y-120970996D01*
X150206919Y-120970996D02*
X150278347Y-121113853D01*
X150278347Y-121113853D02*
X150349776Y-121185282D01*
X150349776Y-121185282D02*
X150492633Y-121256710D01*
X150492633Y-121256710D02*
X151064062Y-121256710D01*
X148921205Y-121970996D02*
X148921205Y-121185282D01*
X148921205Y-121185282D02*
X148992633Y-121042425D01*
X148992633Y-121042425D02*
X149135490Y-120970996D01*
X149135490Y-120970996D02*
X149421205Y-120970996D01*
X149421205Y-120970996D02*
X149564062Y-121042425D01*
X148921205Y-121899568D02*
X149064062Y-121970996D01*
X149064062Y-121970996D02*
X149421205Y-121970996D01*
X149421205Y-121970996D02*
X149564062Y-121899568D01*
X149564062Y-121899568D02*
X149635490Y-121756710D01*
X149635490Y-121756710D02*
X149635490Y-121613853D01*
X149635490Y-121613853D02*
X149564062Y-121470996D01*
X149564062Y-121470996D02*
X149421205Y-121399568D01*
X149421205Y-121399568D02*
X149064062Y-121399568D01*
X149064062Y-121399568D02*
X148921205Y-121328139D01*
X148278347Y-121899568D02*
X148135490Y-121970996D01*
X148135490Y-121970996D02*
X147849776Y-121970996D01*
X147849776Y-121970996D02*
X147706919Y-121899568D01*
X147706919Y-121899568D02*
X147635490Y-121756710D01*
X147635490Y-121756710D02*
X147635490Y-121685282D01*
X147635490Y-121685282D02*
X147706919Y-121542425D01*
X147706919Y-121542425D02*
X147849776Y-121470996D01*
X147849776Y-121470996D02*
X148064062Y-121470996D01*
X148064062Y-121470996D02*
X148206919Y-121399568D01*
X148206919Y-121399568D02*
X148278347Y-121256710D01*
X148278347Y-121256710D02*
X148278347Y-121185282D01*
X148278347Y-121185282D02*
X148206919Y-121042425D01*
X148206919Y-121042425D02*
X148064062Y-120970996D01*
X148064062Y-120970996D02*
X147849776Y-120970996D01*
X147849776Y-120970996D02*
X147706919Y-121042425D01*
X147064061Y-121899568D02*
X146921204Y-121970996D01*
X146921204Y-121970996D02*
X146635490Y-121970996D01*
X146635490Y-121970996D02*
X146492633Y-121899568D01*
X146492633Y-121899568D02*
X146421204Y-121756710D01*
X146421204Y-121756710D02*
X146421204Y-121685282D01*
X146421204Y-121685282D02*
X146492633Y-121542425D01*
X146492633Y-121542425D02*
X146635490Y-121470996D01*
X146635490Y-121470996D02*
X146849776Y-121470996D01*
X146849776Y-121470996D02*
X146992633Y-121399568D01*
X146992633Y-121399568D02*
X147064061Y-121256710D01*
X147064061Y-121256710D02*
X147064061Y-121185282D01*
X147064061Y-121185282D02*
X146992633Y-121042425D01*
X146992633Y-121042425D02*
X146849776Y-120970996D01*
X146849776Y-120970996D02*
X146635490Y-120970996D01*
X146635490Y-120970996D02*
X146492633Y-121042425D01*
X144135490Y-121185282D02*
X144635490Y-121185282D01*
X144635490Y-121970996D02*
X144635490Y-120470996D01*
X144635490Y-120470996D02*
X143921204Y-120470996D01*
X143349776Y-121970996D02*
X143349776Y-120970996D01*
X143349776Y-120470996D02*
X143421204Y-120542425D01*
X143421204Y-120542425D02*
X143349776Y-120613853D01*
X143349776Y-120613853D02*
X143278347Y-120542425D01*
X143278347Y-120542425D02*
X143349776Y-120470996D01*
X143349776Y-120470996D02*
X143349776Y-120613853D01*
X142421204Y-121970996D02*
X142564061Y-121899568D01*
X142564061Y-121899568D02*
X142635490Y-121756710D01*
X142635490Y-121756710D02*
X142635490Y-120470996D01*
X142064061Y-120970996D02*
X141492633Y-120970996D01*
X141849776Y-120470996D02*
X141849776Y-121756710D01*
X141849776Y-121756710D02*
X141778347Y-121899568D01*
X141778347Y-121899568D02*
X141635490Y-121970996D01*
X141635490Y-121970996D02*
X141492633Y-121970996D01*
X140421204Y-121899568D02*
X140564061Y-121970996D01*
X140564061Y-121970996D02*
X140849776Y-121970996D01*
X140849776Y-121970996D02*
X140992633Y-121899568D01*
X140992633Y-121899568D02*
X141064061Y-121756710D01*
X141064061Y-121756710D02*
X141064061Y-121185282D01*
X141064061Y-121185282D02*
X140992633Y-121042425D01*
X140992633Y-121042425D02*
X140849776Y-120970996D01*
X140849776Y-120970996D02*
X140564061Y-120970996D01*
X140564061Y-120970996D02*
X140421204Y-121042425D01*
X140421204Y-121042425D02*
X140349776Y-121185282D01*
X140349776Y-121185282D02*
X140349776Y-121328139D01*
X140349776Y-121328139D02*
X141064061Y-121470996D01*
X139706919Y-121970996D02*
X139706919Y-120970996D01*
X139706919Y-121256710D02*
X139635490Y-121113853D01*
X139635490Y-121113853D02*
X139564062Y-121042425D01*
X139564062Y-121042425D02*
X139421204Y-120970996D01*
X139421204Y-120970996D02*
X139278347Y-120970996D01*
X156635489Y-122885912D02*
X156278346Y-124385912D01*
X156278346Y-124385912D02*
X155992632Y-123314484D01*
X155992632Y-123314484D02*
X155706917Y-124385912D01*
X155706917Y-124385912D02*
X155349775Y-122885912D01*
X154135489Y-124385912D02*
X154135489Y-123600198D01*
X154135489Y-123600198D02*
X154206917Y-123457341D01*
X154206917Y-123457341D02*
X154349774Y-123385912D01*
X154349774Y-123385912D02*
X154635489Y-123385912D01*
X154635489Y-123385912D02*
X154778346Y-123457341D01*
X154135489Y-124314484D02*
X154278346Y-124385912D01*
X154278346Y-124385912D02*
X154635489Y-124385912D01*
X154635489Y-124385912D02*
X154778346Y-124314484D01*
X154778346Y-124314484D02*
X154849774Y-124171626D01*
X154849774Y-124171626D02*
X154849774Y-124028769D01*
X154849774Y-124028769D02*
X154778346Y-123885912D01*
X154778346Y-123885912D02*
X154635489Y-123814484D01*
X154635489Y-123814484D02*
X154278346Y-123814484D01*
X154278346Y-123814484D02*
X154135489Y-123743055D01*
X153564060Y-123385912D02*
X153206917Y-124385912D01*
X153206917Y-124385912D02*
X152849774Y-123385912D01*
X151706917Y-124314484D02*
X151849774Y-124385912D01*
X151849774Y-124385912D02*
X152135489Y-124385912D01*
X152135489Y-124385912D02*
X152278346Y-124314484D01*
X152278346Y-124314484D02*
X152349774Y-124171626D01*
X152349774Y-124171626D02*
X152349774Y-123600198D01*
X152349774Y-123600198D02*
X152278346Y-123457341D01*
X152278346Y-123457341D02*
X152135489Y-123385912D01*
X152135489Y-123385912D02*
X151849774Y-123385912D01*
X151849774Y-123385912D02*
X151706917Y-123457341D01*
X151706917Y-123457341D02*
X151635489Y-123600198D01*
X151635489Y-123600198D02*
X151635489Y-123743055D01*
X151635489Y-123743055D02*
X152349774Y-123885912D01*
X151206917Y-123385912D02*
X150635489Y-123385912D01*
X150992632Y-124385912D02*
X150992632Y-123100198D01*
X150992632Y-123100198D02*
X150921203Y-122957341D01*
X150921203Y-122957341D02*
X150778346Y-122885912D01*
X150778346Y-122885912D02*
X150635489Y-122885912D01*
X149921203Y-124385912D02*
X150064060Y-124314484D01*
X150064060Y-124314484D02*
X150135489Y-124243055D01*
X150135489Y-124243055D02*
X150206917Y-124100198D01*
X150206917Y-124100198D02*
X150206917Y-123671626D01*
X150206917Y-123671626D02*
X150135489Y-123528769D01*
X150135489Y-123528769D02*
X150064060Y-123457341D01*
X150064060Y-123457341D02*
X149921203Y-123385912D01*
X149921203Y-123385912D02*
X149706917Y-123385912D01*
X149706917Y-123385912D02*
X149564060Y-123457341D01*
X149564060Y-123457341D02*
X149492632Y-123528769D01*
X149492632Y-123528769D02*
X149421203Y-123671626D01*
X149421203Y-123671626D02*
X149421203Y-124100198D01*
X149421203Y-124100198D02*
X149492632Y-124243055D01*
X149492632Y-124243055D02*
X149564060Y-124314484D01*
X149564060Y-124314484D02*
X149706917Y-124385912D01*
X149706917Y-124385912D02*
X149921203Y-124385912D01*
X148778346Y-124385912D02*
X148778346Y-123385912D01*
X148778346Y-123671626D02*
X148706917Y-123528769D01*
X148706917Y-123528769D02*
X148635489Y-123457341D01*
X148635489Y-123457341D02*
X148492631Y-123385912D01*
X148492631Y-123385912D02*
X148349774Y-123385912D01*
X147849775Y-124385912D02*
X147849775Y-123385912D01*
X147849775Y-123528769D02*
X147778346Y-123457341D01*
X147778346Y-123457341D02*
X147635489Y-123385912D01*
X147635489Y-123385912D02*
X147421203Y-123385912D01*
X147421203Y-123385912D02*
X147278346Y-123457341D01*
X147278346Y-123457341D02*
X147206918Y-123600198D01*
X147206918Y-123600198D02*
X147206918Y-124385912D01*
X147206918Y-123600198D02*
X147135489Y-123457341D01*
X147135489Y-123457341D02*
X146992632Y-123385912D01*
X146992632Y-123385912D02*
X146778346Y-123385912D01*
X146778346Y-123385912D02*
X146635489Y-123457341D01*
X146635489Y-123457341D02*
X146564060Y-123600198D01*
X146564060Y-123600198D02*
X146564060Y-124385912D01*
X143921203Y-122957341D02*
X144064061Y-122885912D01*
X144064061Y-122885912D02*
X144278346Y-122885912D01*
X144278346Y-122885912D02*
X144492632Y-122957341D01*
X144492632Y-122957341D02*
X144635489Y-123100198D01*
X144635489Y-123100198D02*
X144706918Y-123243055D01*
X144706918Y-123243055D02*
X144778346Y-123528769D01*
X144778346Y-123528769D02*
X144778346Y-123743055D01*
X144778346Y-123743055D02*
X144706918Y-124028769D01*
X144706918Y-124028769D02*
X144635489Y-124171626D01*
X144635489Y-124171626D02*
X144492632Y-124314484D01*
X144492632Y-124314484D02*
X144278346Y-124385912D01*
X144278346Y-124385912D02*
X144135489Y-124385912D01*
X144135489Y-124385912D02*
X143921203Y-124314484D01*
X143921203Y-124314484D02*
X143849775Y-124243055D01*
X143849775Y-124243055D02*
X143849775Y-123743055D01*
X143849775Y-123743055D02*
X144135489Y-123743055D01*
X142635489Y-124314484D02*
X142778346Y-124385912D01*
X142778346Y-124385912D02*
X143064061Y-124385912D01*
X143064061Y-124385912D02*
X143206918Y-124314484D01*
X143206918Y-124314484D02*
X143278346Y-124171626D01*
X143278346Y-124171626D02*
X143278346Y-123600198D01*
X143278346Y-123600198D02*
X143206918Y-123457341D01*
X143206918Y-123457341D02*
X143064061Y-123385912D01*
X143064061Y-123385912D02*
X142778346Y-123385912D01*
X142778346Y-123385912D02*
X142635489Y-123457341D01*
X142635489Y-123457341D02*
X142564061Y-123600198D01*
X142564061Y-123600198D02*
X142564061Y-123743055D01*
X142564061Y-123743055D02*
X143278346Y-123885912D01*
X141921204Y-123385912D02*
X141921204Y-124385912D01*
X141921204Y-123528769D02*
X141849775Y-123457341D01*
X141849775Y-123457341D02*
X141706918Y-123385912D01*
X141706918Y-123385912D02*
X141492632Y-123385912D01*
X141492632Y-123385912D02*
X141349775Y-123457341D01*
X141349775Y-123457341D02*
X141278347Y-123600198D01*
X141278347Y-123600198D02*
X141278347Y-124385912D01*
X140564061Y-124243055D02*
X140492632Y-124314484D01*
X140492632Y-124314484D02*
X140564061Y-124385912D01*
X140564061Y-124385912D02*
X140635489Y-124314484D01*
X140635489Y-124314484D02*
X140564061Y-124243055D01*
X140564061Y-124243055D02*
X140564061Y-124385912D01*
X156492632Y-126800828D02*
X156492632Y-125300828D01*
X156492632Y-125300828D02*
X155921203Y-125300828D01*
X155921203Y-125300828D02*
X155778346Y-125372257D01*
X155778346Y-125372257D02*
X155706917Y-125443685D01*
X155706917Y-125443685D02*
X155635489Y-125586542D01*
X155635489Y-125586542D02*
X155635489Y-125800828D01*
X155635489Y-125800828D02*
X155706917Y-125943685D01*
X155706917Y-125943685D02*
X155778346Y-126015114D01*
X155778346Y-126015114D02*
X155921203Y-126086542D01*
X155921203Y-126086542D02*
X156492632Y-126086542D01*
X154778346Y-126800828D02*
X154921203Y-126729400D01*
X154921203Y-126729400D02*
X154992632Y-126657971D01*
X154992632Y-126657971D02*
X155064060Y-126515114D01*
X155064060Y-126515114D02*
X155064060Y-126086542D01*
X155064060Y-126086542D02*
X154992632Y-125943685D01*
X154992632Y-125943685D02*
X154921203Y-125872257D01*
X154921203Y-125872257D02*
X154778346Y-125800828D01*
X154778346Y-125800828D02*
X154564060Y-125800828D01*
X154564060Y-125800828D02*
X154421203Y-125872257D01*
X154421203Y-125872257D02*
X154349775Y-125943685D01*
X154349775Y-125943685D02*
X154278346Y-126086542D01*
X154278346Y-126086542D02*
X154278346Y-126515114D01*
X154278346Y-126515114D02*
X154349775Y-126657971D01*
X154349775Y-126657971D02*
X154421203Y-126729400D01*
X154421203Y-126729400D02*
X154564060Y-126800828D01*
X154564060Y-126800828D02*
X154778346Y-126800828D01*
X153778346Y-125800828D02*
X153492632Y-126800828D01*
X153492632Y-126800828D02*
X153206917Y-126086542D01*
X153206917Y-126086542D02*
X152921203Y-126800828D01*
X152921203Y-126800828D02*
X152635489Y-125800828D01*
X151492631Y-126729400D02*
X151635488Y-126800828D01*
X151635488Y-126800828D02*
X151921203Y-126800828D01*
X151921203Y-126800828D02*
X152064060Y-126729400D01*
X152064060Y-126729400D02*
X152135488Y-126586542D01*
X152135488Y-126586542D02*
X152135488Y-126015114D01*
X152135488Y-126015114D02*
X152064060Y-125872257D01*
X152064060Y-125872257D02*
X151921203Y-125800828D01*
X151921203Y-125800828D02*
X151635488Y-125800828D01*
X151635488Y-125800828D02*
X151492631Y-125872257D01*
X151492631Y-125872257D02*
X151421203Y-126015114D01*
X151421203Y-126015114D02*
X151421203Y-126157971D01*
X151421203Y-126157971D02*
X152135488Y-126300828D01*
X150778346Y-126800828D02*
X150778346Y-125800828D01*
X150778346Y-126086542D02*
X150706917Y-125943685D01*
X150706917Y-125943685D02*
X150635489Y-125872257D01*
X150635489Y-125872257D02*
X150492631Y-125800828D01*
X150492631Y-125800828D02*
X150349774Y-125800828D01*
X147849775Y-126800828D02*
X148349775Y-126086542D01*
X148706918Y-126800828D02*
X148706918Y-125300828D01*
X148706918Y-125300828D02*
X148135489Y-125300828D01*
X148135489Y-125300828D02*
X147992632Y-125372257D01*
X147992632Y-125372257D02*
X147921203Y-125443685D01*
X147921203Y-125443685D02*
X147849775Y-125586542D01*
X147849775Y-125586542D02*
X147849775Y-125800828D01*
X147849775Y-125800828D02*
X147921203Y-125943685D01*
X147921203Y-125943685D02*
X147992632Y-126015114D01*
X147992632Y-126015114D02*
X148135489Y-126086542D01*
X148135489Y-126086542D02*
X148706918Y-126086542D01*
X146635489Y-126729400D02*
X146778346Y-126800828D01*
X146778346Y-126800828D02*
X147064061Y-126800828D01*
X147064061Y-126800828D02*
X147206918Y-126729400D01*
X147206918Y-126729400D02*
X147278346Y-126586542D01*
X147278346Y-126586542D02*
X147278346Y-126015114D01*
X147278346Y-126015114D02*
X147206918Y-125872257D01*
X147206918Y-125872257D02*
X147064061Y-125800828D01*
X147064061Y-125800828D02*
X146778346Y-125800828D01*
X146778346Y-125800828D02*
X146635489Y-125872257D01*
X146635489Y-125872257D02*
X146564061Y-126015114D01*
X146564061Y-126015114D02*
X146564061Y-126157971D01*
X146564061Y-126157971D02*
X147278346Y-126300828D01*
X145278347Y-125800828D02*
X145278347Y-127015114D01*
X145278347Y-127015114D02*
X145349775Y-127157971D01*
X145349775Y-127157971D02*
X145421204Y-127229400D01*
X145421204Y-127229400D02*
X145564061Y-127300828D01*
X145564061Y-127300828D02*
X145778347Y-127300828D01*
X145778347Y-127300828D02*
X145921204Y-127229400D01*
X145278347Y-126729400D02*
X145421204Y-126800828D01*
X145421204Y-126800828D02*
X145706918Y-126800828D01*
X145706918Y-126800828D02*
X145849775Y-126729400D01*
X145849775Y-126729400D02*
X145921204Y-126657971D01*
X145921204Y-126657971D02*
X145992632Y-126515114D01*
X145992632Y-126515114D02*
X145992632Y-126086542D01*
X145992632Y-126086542D02*
X145921204Y-125943685D01*
X145921204Y-125943685D02*
X145849775Y-125872257D01*
X145849775Y-125872257D02*
X145706918Y-125800828D01*
X145706918Y-125800828D02*
X145421204Y-125800828D01*
X145421204Y-125800828D02*
X145278347Y-125872257D01*
X143921204Y-125800828D02*
X143921204Y-126800828D01*
X144564061Y-125800828D02*
X144564061Y-126586542D01*
X144564061Y-126586542D02*
X144492632Y-126729400D01*
X144492632Y-126729400D02*
X144349775Y-126800828D01*
X144349775Y-126800828D02*
X144135489Y-126800828D01*
X144135489Y-126800828D02*
X143992632Y-126729400D01*
X143992632Y-126729400D02*
X143921204Y-126657971D01*
X142992632Y-126800828D02*
X143135489Y-126729400D01*
X143135489Y-126729400D02*
X143206918Y-126586542D01*
X143206918Y-126586542D02*
X143206918Y-125300828D01*
X141778347Y-126800828D02*
X141778347Y-126015114D01*
X141778347Y-126015114D02*
X141849775Y-125872257D01*
X141849775Y-125872257D02*
X141992632Y-125800828D01*
X141992632Y-125800828D02*
X142278347Y-125800828D01*
X142278347Y-125800828D02*
X142421204Y-125872257D01*
X141778347Y-126729400D02*
X141921204Y-126800828D01*
X141921204Y-126800828D02*
X142278347Y-126800828D01*
X142278347Y-126800828D02*
X142421204Y-126729400D01*
X142421204Y-126729400D02*
X142492632Y-126586542D01*
X142492632Y-126586542D02*
X142492632Y-126443685D01*
X142492632Y-126443685D02*
X142421204Y-126300828D01*
X142421204Y-126300828D02*
X142278347Y-126229400D01*
X142278347Y-126229400D02*
X141921204Y-126229400D01*
X141921204Y-126229400D02*
X141778347Y-126157971D01*
X141278346Y-125800828D02*
X140706918Y-125800828D01*
X141064061Y-125300828D02*
X141064061Y-126586542D01*
X141064061Y-126586542D02*
X140992632Y-126729400D01*
X140992632Y-126729400D02*
X140849775Y-126800828D01*
X140849775Y-126800828D02*
X140706918Y-126800828D01*
X139992632Y-126800828D02*
X140135489Y-126729400D01*
X140135489Y-126729400D02*
X140206918Y-126657971D01*
X140206918Y-126657971D02*
X140278346Y-126515114D01*
X140278346Y-126515114D02*
X140278346Y-126086542D01*
X140278346Y-126086542D02*
X140206918Y-125943685D01*
X140206918Y-125943685D02*
X140135489Y-125872257D01*
X140135489Y-125872257D02*
X139992632Y-125800828D01*
X139992632Y-125800828D02*
X139778346Y-125800828D01*
X139778346Y-125800828D02*
X139635489Y-125872257D01*
X139635489Y-125872257D02*
X139564061Y-125943685D01*
X139564061Y-125943685D02*
X139492632Y-126086542D01*
X139492632Y-126086542D02*
X139492632Y-126515114D01*
X139492632Y-126515114D02*
X139564061Y-126657971D01*
X139564061Y-126657971D02*
X139635489Y-126729400D01*
X139635489Y-126729400D02*
X139778346Y-126800828D01*
X139778346Y-126800828D02*
X139992632Y-126800828D01*
X138849775Y-125800828D02*
X138849775Y-126800828D01*
X138849775Y-125943685D02*
X138778346Y-125872257D01*
X138778346Y-125872257D02*
X138635489Y-125800828D01*
X138635489Y-125800828D02*
X138421203Y-125800828D01*
X138421203Y-125800828D02*
X138278346Y-125872257D01*
X138278346Y-125872257D02*
X138206918Y-126015114D01*
X138206918Y-126015114D02*
X138206918Y-126800828D01*
M02*
