%TF.GenerationSoftware,KiCad,Pcbnew,8.0.5*%
%TF.CreationDate,2025-03-04T14:17:42-05:00*%
%TF.ProjectId,ELEC4907,454c4543-3439-4303-972e-6b696361645f,Rev 1*%
%TF.SameCoordinates,Original*%
%TF.FileFunction,Soldermask,Top*%
%TF.FilePolarity,Negative*%
%FSLAX46Y46*%
G04 Gerber Fmt 4.6, Leading zero omitted, Abs format (unit mm)*
G04 Created by KiCad (PCBNEW 8.0.5) date 2025-03-04 14:17:42*
%MOMM*%
%LPD*%
G01*
G04 APERTURE LIST*
G04 Aperture macros list*
%AMRoundRect*
0 Rectangle with rounded corners*
0 $1 Rounding radius*
0 $2 $3 $4 $5 $6 $7 $8 $9 X,Y pos of 4 corners*
0 Add a 4 corners polygon primitive as box body*
4,1,4,$2,$3,$4,$5,$6,$7,$8,$9,$2,$3,0*
0 Add four circle primitives for the rounded corners*
1,1,$1+$1,$2,$3*
1,1,$1+$1,$4,$5*
1,1,$1+$1,$6,$7*
1,1,$1+$1,$8,$9*
0 Add four rect primitives between the rounded corners*
20,1,$1+$1,$2,$3,$4,$5,0*
20,1,$1+$1,$4,$5,$6,$7,0*
20,1,$1+$1,$6,$7,$8,$9,0*
20,1,$1+$1,$8,$9,$2,$3,0*%
%AMFreePoly0*
4,1,13,3.494999,4.165000,3.495001,4.165000,3.495001,-4.165001,3.494999,-4.165001,3.494999,-5.399996,1.585001,-5.399996,1.585001,-4.165001,-3.495000,-4.165001,-3.495000,4.165000,1.585001,4.165000,1.585001,5.400002,3.494999,5.400002,3.494999,4.165000,3.494999,4.165000,$1*%
G04 Aperture macros list end*
%ADD10C,0.000000*%
%ADD11C,1.600000*%
%ADD12C,5.500000*%
%ADD13R,1.651000X1.651000*%
%ADD14C,1.651000*%
%ADD15RoundRect,0.102000X-0.609000X-0.609000X0.609000X-0.609000X0.609000X0.609000X-0.609000X0.609000X0*%
%ADD16C,1.422000*%
%ADD17R,1.778000X1.778000*%
%ADD18C,1.778000*%
%ADD19O,1.600000X1.600000*%
%ADD20C,1.524000*%
%ADD21R,1.600000X1.600000*%
%ADD22R,1.160000X1.160000*%
%ADD23C,1.160000*%
%ADD24RoundRect,0.102000X-0.609000X0.609000X-0.609000X-0.609000X0.609000X-0.609000X0.609000X0.609000X0*%
%ADD25C,2.006600*%
%ADD26C,1.905000*%
%ADD27R,2.000000X2.000000*%
%ADD28O,2.000000X2.000000*%
%ADD29C,1.512000*%
%ADD30R,2.400000X2.400000*%
%ADD31O,2.400000X2.400000*%
%ADD32C,1.612000*%
%ADD33R,1.320800X1.320800*%
%ADD34C,1.320800*%
%ADD35RoundRect,0.102000X0.609000X-0.609000X0.609000X0.609000X-0.609000X0.609000X-0.609000X-0.609000X0*%
%ADD36RoundRect,0.102000X1.009650X-1.009650X1.009650X1.009650X-1.009650X1.009650X-1.009650X-1.009650X0*%
%ADD37C,2.223300*%
%ADD38R,1.397000X1.397000*%
%ADD39C,1.397000*%
%ADD40R,2.200000X2.200000*%
%ADD41O,2.200000X2.200000*%
%ADD42RoundRect,0.102000X0.609000X0.609000X-0.609000X0.609000X-0.609000X-0.609000X0.609000X-0.609000X0*%
%ADD43C,2.200000*%
%ADD44FreePoly0,270.000000*%
%ADD45R,1.070000X2.160001*%
G04 APERTURE END LIST*
D10*
%TO.C,U5*%
G36*
X117972799Y-121710099D02*
G01*
X116371200Y-121710099D01*
X116371200Y-119698501D01*
X117972799Y-119698501D01*
X117972799Y-121710099D01*
G37*
G36*
X108572800Y-121710099D02*
G01*
X107071201Y-121710099D01*
X107071201Y-119698501D01*
X108572800Y-119698501D01*
X108572800Y-121710099D01*
G37*
%TD*%
D11*
%TO.C,C10*%
X120500000Y-33550000D03*
X115500000Y-33550000D03*
%TD*%
%TO.C,J5*%
X167460000Y-33572850D03*
X170000000Y-33572850D03*
%TD*%
D12*
%TO.C,GND*%
X103000000Y-126000000D03*
%TD*%
D13*
%TO.C,U4*%
X136000000Y-80000000D03*
D14*
X138540000Y-80000000D03*
X141080000Y-80000000D03*
%TD*%
D15*
%TO.C,VR3*%
X156460000Y-40572850D03*
D16*
X159000000Y-40572850D03*
X161540000Y-40572850D03*
%TD*%
D17*
%TO.C,L1*%
X160920000Y-90380000D03*
D18*
X171080000Y-105620000D03*
%TD*%
D11*
%TO.C,R12*%
X114190000Y-49550000D03*
D19*
X121810000Y-49550000D03*
%TD*%
D12*
%TO.C,GND*%
X184000000Y-126000000D03*
%TD*%
D11*
%TO.C,C12*%
X132475000Y-60532500D03*
X127475000Y-60532500D03*
%TD*%
D20*
%TO.C,C6*%
X162800000Y-58322850D03*
X162800000Y-63322850D03*
%TD*%
D21*
%TO.C,J8*%
X121730000Y-126000000D03*
D11*
X124270000Y-126000000D03*
%TD*%
%TO.C,R18*%
X112975000Y-58740000D03*
D19*
X112975000Y-66360000D03*
%TD*%
D11*
%TO.C,R23*%
X111810000Y-50137500D03*
D19*
X104190000Y-50137500D03*
%TD*%
D15*
%TO.C,PREAMP_GAIN1*%
X126460000Y-30550000D03*
D16*
X129000000Y-30550000D03*
X131540000Y-30550000D03*
%TD*%
D22*
%TO.C,IC1*%
X165481200Y-46455850D03*
D23*
X165481200Y-48995850D03*
X165481200Y-51535850D03*
X165481200Y-54075850D03*
X165481200Y-56615850D03*
X165481200Y-59155850D03*
X165481200Y-61695850D03*
X165481200Y-64235850D03*
X173421200Y-64235850D03*
X173421200Y-61695850D03*
X173421200Y-59155850D03*
X173421200Y-56615850D03*
X173421200Y-54075850D03*
X173421200Y-51535850D03*
X173421200Y-48995850D03*
X173421200Y-46455850D03*
%TD*%
D20*
%TO.C,L2*%
X127065000Y-87129100D03*
X116905000Y-102369100D03*
%TD*%
D12*
%TO.C,*%
X158000000Y-80000000D03*
%TD*%
D11*
%TO.C,J6*%
X105066000Y-79040000D03*
D21*
X105066000Y-76500000D03*
%TD*%
D24*
%TO.C,VR4*%
X172000000Y-70482850D03*
D16*
X172000000Y-73022850D03*
X172000000Y-75562850D03*
%TD*%
D12*
%TO.C,GND*%
X184000000Y-29000000D03*
%TD*%
D25*
%TO.C,J10*%
X159447300Y-32125550D03*
D26*
X156894600Y-29572850D03*
X156894600Y-34678250D03*
X162000000Y-34678250D03*
X162000000Y-29572850D03*
%TD*%
D11*
%TO.C,R8*%
X114190000Y-36412500D03*
X121810000Y-36412500D03*
%TD*%
D27*
%TO.C,C9*%
X151550656Y-53500000D03*
D28*
X151550656Y-68500000D03*
%TD*%
D29*
%TO.C,C17*%
X140750000Y-72000000D03*
X137250000Y-72000000D03*
%TD*%
D30*
%TO.C,C8*%
X157700000Y-54572850D03*
D31*
X157700000Y-72572850D03*
%TD*%
D25*
%TO.C,J3*%
X140552700Y-46102700D03*
D26*
X138000000Y-43550000D03*
X138000000Y-48655400D03*
X143105400Y-48655400D03*
X143105400Y-43550000D03*
%TD*%
D11*
%TO.C,R13*%
X114190000Y-53000000D03*
D19*
X121810000Y-53000000D03*
%TD*%
D32*
%TO.C,C2*%
X176770000Y-114625000D03*
X171770000Y-114625000D03*
%TD*%
D33*
%TO.C,C13*%
X143743200Y-38550000D03*
D34*
X138256800Y-38550000D03*
%TD*%
D11*
%TO.C,R3*%
X166000000Y-68572850D03*
D19*
X166000000Y-76192850D03*
%TD*%
D29*
%TO.C,C1*%
X153875000Y-106100000D03*
X153875000Y-109600000D03*
%TD*%
D35*
%TO.C,VR1*%
X177000000Y-41112850D03*
D16*
X177000000Y-38572850D03*
X177000000Y-36032850D03*
%TD*%
D11*
%TO.C,R22*%
X128000000Y-80620000D03*
D19*
X128000000Y-73000000D03*
%TD*%
D11*
%TO.C,R9*%
X104190000Y-43000000D03*
X111810000Y-43000000D03*
%TD*%
%TO.C,R21*%
X131000000Y-80620000D03*
D19*
X131000000Y-73000000D03*
%TD*%
D29*
%TO.C,C4*%
X107465000Y-101269100D03*
X107465000Y-97769100D03*
%TD*%
D35*
%TO.C,DC_ADJUST1*%
X108000000Y-64090000D03*
D16*
X108000000Y-61550000D03*
X108000000Y-59010000D03*
%TD*%
D11*
%TO.C,R1*%
X165190000Y-36435350D03*
D19*
X172810000Y-36435350D03*
%TD*%
D36*
%TO.C,U1*%
X154016575Y-99928600D03*
D37*
X150003375Y-98226800D03*
X154016575Y-96525000D03*
X150003375Y-94823200D03*
X154016575Y-93121400D03*
%TD*%
D11*
%TO.C,R19*%
X176380000Y-54000000D03*
D19*
X184000000Y-54000000D03*
%TD*%
D11*
%TO.C,R17*%
X136190000Y-60000000D03*
X143810000Y-60000000D03*
%TD*%
%TO.C,R4*%
X161810000Y-50572850D03*
D19*
X154190000Y-50572850D03*
%TD*%
D33*
%TO.C,C5*%
X166256800Y-41572850D03*
D34*
X171743200Y-41572850D03*
%TD*%
D11*
%TO.C,R6*%
X104190000Y-46550000D03*
X111810000Y-46550000D03*
%TD*%
D38*
%TO.C,U3*%
X126000000Y-36550000D03*
D39*
X126000000Y-39090000D03*
X126000000Y-41630000D03*
X126000000Y-44170000D03*
X126000000Y-46710000D03*
X126000000Y-49250000D03*
X126000000Y-51790000D03*
X133620000Y-51790000D03*
X133620000Y-49250000D03*
X133620000Y-46710000D03*
X133620000Y-44170000D03*
X133620000Y-41630000D03*
X133620000Y-39090000D03*
X133620000Y-36550000D03*
%TD*%
D11*
%TO.C,C11*%
X115500000Y-46392500D03*
X120500000Y-46392500D03*
%TD*%
D40*
%TO.C,D2*%
X121920000Y-106924100D03*
D41*
X121920000Y-117084100D03*
%TD*%
D11*
%TO.C,R2*%
X181550000Y-34762850D03*
D19*
X181550000Y-42382850D03*
%TD*%
D11*
%TO.C,J9*%
X177730000Y-59210350D03*
X180270000Y-59210350D03*
%TD*%
%TO.C,R10*%
X121810000Y-39687500D03*
X114190000Y-39687500D03*
%TD*%
%TO.C,R14*%
X136380000Y-52550000D03*
X144000000Y-52550000D03*
%TD*%
D40*
%TO.C,D1*%
X147155000Y-103775000D03*
D41*
X147155000Y-113935000D03*
%TD*%
D11*
%TO.C,J4*%
X110540000Y-53000000D03*
D21*
X108000000Y-53000000D03*
%TD*%
D42*
%TO.C,VR2*%
X183390000Y-49622850D03*
D16*
X180850000Y-49622850D03*
X178310000Y-49622850D03*
%TD*%
D11*
%TO.C,J11*%
X131270000Y-65000000D03*
X128730000Y-65000000D03*
%TD*%
D21*
%TO.C,J2*%
X105000000Y-83000000D03*
D11*
X105000000Y-85540000D03*
%TD*%
%TO.C,J7*%
X178750364Y-96560000D03*
D21*
X178750364Y-99100000D03*
%TD*%
D43*
%TO.C,C15*%
X120150000Y-57060000D03*
D41*
X120150000Y-82060000D03*
%TD*%
D11*
%TO.C,R20*%
X184790500Y-42418000D03*
D19*
X184790500Y-34798000D03*
%TD*%
D11*
%TO.C,C14*%
X127500000Y-56550000D03*
X132500000Y-56550000D03*
%TD*%
%TO.C,R5*%
X161810000Y-46850350D03*
D19*
X154190000Y-46850350D03*
%TD*%
D11*
%TO.C,R7*%
X114190000Y-43000000D03*
X121810000Y-43000000D03*
%TD*%
D32*
%TO.C,C3*%
X138176000Y-87416000D03*
X138176000Y-92416000D03*
%TD*%
D11*
%TO.C,R16*%
X137166400Y-33550000D03*
D19*
X144786400Y-33550000D03*
%TD*%
D12*
%TO.C,GND*%
X103000000Y-29000000D03*
%TD*%
D25*
%TO.C,J1*%
X148552700Y-81552700D03*
D26*
X146000000Y-79000000D03*
X146000000Y-84105400D03*
X151105400Y-84105400D03*
X151105400Y-79000000D03*
%TD*%
D44*
%TO.C,U5*%
X112521997Y-118164300D03*
D45*
X109121997Y-107489300D03*
X110821998Y-107489300D03*
X112516996Y-107489300D03*
X114221997Y-107489300D03*
X115921998Y-107489300D03*
%TD*%
D11*
%TO.C,R11*%
X137166400Y-30412500D03*
D19*
X144786400Y-30412500D03*
%TD*%
D11*
%TO.C,R15*%
X143835000Y-56312500D03*
X136215000Y-56312500D03*
%TD*%
D30*
%TO.C,C7*%
X177700000Y-64572850D03*
D31*
X177700000Y-82572850D03*
%TD*%
D33*
%TO.C,C16*%
X146000000Y-73000000D03*
D34*
X151486400Y-73000000D03*
%TD*%
D11*
%TO.C,J12*%
X137270000Y-64775000D03*
X134730000Y-64775000D03*
%TD*%
M02*
