M48
; DRILL file {KiCad 8.0.5} date 2025-03-04T14:17:40-0500
; FORMAT={-:-/ absolute / inch / decimal}
; #@! TF.CreationDate,2025-03-04T14:17:40-05:00
; #@! TF.GenerationSoftware,Kicad,Pcbnew,8.0.5
; #@! TF.FileFunction,Plated,1,4,PTH
FMAT,2
INCH
; #@! TA.AperFunction,Plated,PTH,ViaDrill
T1C0.0118
; #@! TA.AperFunction,Plated,PTH,ComponentDrill
T2C0.0280
; #@! TA.AperFunction,Plated,PTH,ComponentDrill
T3C0.0299
; #@! TA.AperFunction,Plated,PTH,ComponentDrill
T4C0.0300
; #@! TA.AperFunction,Plated,PTH,ComponentDrill
T5C0.0315
; #@! TA.AperFunction,Plated,PTH,ComponentDrill
T6C0.0320
; #@! TA.AperFunction,Plated,PTH,ComponentDrill
T7C0.0350
; #@! TA.AperFunction,Plated,PTH,ComponentDrill
T8C0.0354
; #@! TA.AperFunction,Plated,PTH,ComponentDrill
T9C0.0394
; #@! TA.AperFunction,Plated,PTH,ComponentDrill
T10C0.0433
; #@! TA.AperFunction,Plated,PTH,ComponentDrill
T11C0.0449
; #@! TA.AperFunction,Plated,PTH,ComponentDrill
T12C0.0450
; #@! TA.AperFunction,Plated,PTH,ComponentDrill
T13C0.0472
; #@! TA.AperFunction,Plated,PTH,ComponentDrill
T14C0.0530
; #@! TA.AperFunction,Plated,PTH,ComponentDrill
T15C0.0550
; #@! TA.AperFunction,Plated,PTH,ComponentDrill
T16C0.0590
; #@! TA.AperFunction,Plated,PTH,ComponentDrill
T17C0.1260
%
G90
G05
T1
X4.1104Y-4.1026
T2
X4.252Y-2.3232
X4.252Y-2.4232
X4.252Y-2.5232
X4.9787Y-1.2028
X5.0787Y-1.2028
X5.1787Y-1.2028
X6.1598Y-1.5974
X6.2598Y-1.5974
X6.3598Y-1.5974
X6.7717Y-2.7749
X6.7717Y-2.8749
X6.7717Y-2.9749
X6.9685Y-1.4186
X6.9685Y-1.5186
X6.9685Y-1.6186
X7.0201Y-1.9537
X7.1201Y-1.9537
X7.2201Y-1.9537
T3
X6.515Y-1.829
X6.515Y-1.929
X6.515Y-2.029
X6.515Y-2.129
X6.515Y-2.229
X6.515Y-2.329
X6.515Y-2.429
X6.515Y-2.529
X6.8276Y-1.829
X6.8276Y-1.929
X6.8276Y-2.029
X6.8276Y-2.129
X6.8276Y-2.229
X6.8276Y-2.329
X6.8276Y-2.429
X6.8276Y-2.529
T4
X6.4094Y-2.2962
X6.4094Y-2.493
T5
X4.102Y-1.6929
X4.102Y-1.8327
X4.102Y-1.9739
X4.1339Y-3.2677
X4.1339Y-3.3677
X4.1365Y-3.0118
X4.1365Y-3.1118
X4.2309Y-3.8492
X4.2309Y-3.987
X4.252Y-2.0866
X4.352Y-2.0866
X4.402Y-1.6929
X4.402Y-1.8327
X4.402Y-1.9739
X4.4478Y-2.3126
X4.4478Y-2.6126
X4.4957Y-1.4336
X4.4957Y-1.5625
X4.4957Y-1.6929
X4.4957Y-1.9508
X4.4957Y-2.0866
X4.5472Y-1.3209
X4.5472Y-1.8265
X4.7441Y-1.3209
X4.7441Y-1.8265
X4.7925Y-4.9606
X4.7957Y-1.4336
X4.7957Y-1.5625
X4.7957Y-1.6929
X4.7957Y-1.9508
X4.7957Y-2.0866
X4.8925Y-4.9606
X5.0187Y-2.3832
X5.0197Y-2.2264
X5.0394Y-2.874
X5.0394Y-3.174
X5.0681Y-2.5591
X5.1575Y-2.874
X5.1575Y-3.174
X5.1681Y-2.5591
X5.2156Y-2.3832
X5.2165Y-2.2264
X5.3043Y-2.5502
X5.3618Y-2.3622
X5.3628Y-2.217
X5.3693Y-2.0689
X5.4003Y-1.1973
X5.4003Y-1.3209
X5.4035Y-2.8346
X5.4043Y-2.5502
X5.5413Y-2.8346
X5.6618Y-2.3622
X5.6628Y-2.217
X5.6693Y-2.0689
X5.7003Y-1.1973
X5.7003Y-1.3209
X6.0581Y-4.1772
X6.0581Y-4.315
X6.0705Y-1.8445
X6.0705Y-1.9911
X6.3705Y-1.8445
X6.3705Y-1.9911
X6.5035Y-1.4345
X6.5354Y-2.6997
X6.5354Y-2.9997
X6.5929Y-1.3218
X6.6929Y-1.3218
X6.8035Y-1.4345
X6.9441Y-2.126
X6.9972Y-2.3311
X7.0374Y-3.8016
X7.0374Y-3.9016
X7.0972Y-2.3311
X7.1476Y-1.3686
X7.1476Y-1.6686
X7.2441Y-2.126
X7.2752Y-1.37
X7.2752Y-1.67
T6
X5.4432Y-1.5177
X5.6592Y-1.5177
X5.748Y-2.874
X5.964Y-2.874
X6.5455Y-1.6367
X6.7615Y-1.6367
T7
X4.9606Y-1.439
X4.9606Y-1.539
X4.9606Y-1.639
X4.9606Y-1.739
X4.9606Y-1.839
X4.9606Y-1.939
X4.9606Y-2.039
X5.2606Y-1.439
X5.2606Y-1.539
X5.2606Y-1.639
X5.2606Y-1.739
X5.2606Y-1.839
X5.2606Y-1.939
X5.2606Y-2.039
T8
X5.44Y-3.4416
X5.44Y-3.6384
X6.7626Y-4.5128
X6.9594Y-4.5128
T9
X5.9666Y-2.1063
X5.9666Y-2.6969
T10
X4.7303Y-2.2465
X4.7303Y-3.2307
X4.8Y-4.2096
X4.8Y-4.6096
X5.7935Y-4.0856
X5.7935Y-4.4856
T11
X4.6026Y-4.0303
X5.0026Y-3.4303
T12
X5.3543Y-3.1496
X5.4543Y-3.1496
X5.5543Y-3.1496
X6.3354Y-3.5583
X6.7354Y-4.1583
T13
X6.2087Y-2.1485
X6.2087Y-2.8572
X6.9961Y-2.5422
X6.9961Y-3.2509
T14
X5.9056Y-3.7332
X5.9056Y-3.8672
X6.0636Y-3.6662
X6.0636Y-3.8002
X6.0636Y-3.9342
T15
X5.4331Y-1.7146
X5.4331Y-1.9156
X5.6341Y-1.7146
X5.6341Y-1.9156
X5.748Y-3.1102
X5.748Y-3.3112
X5.949Y-3.1102
X5.949Y-3.3112
X6.177Y-1.1643
X6.177Y-1.3653
X6.378Y-1.1643
X6.378Y-1.3653
T16
X5.5336Y-1.8151
X5.8485Y-3.2107
X6.2775Y-1.2648
T17
X4.0551Y-1.1417
X4.0551Y-4.9606
X6.2205Y-3.1496
X7.2441Y-1.1417
X7.2441Y-4.9606
M30
