M48
; DRILL file {KiCad 8.0.5} date 2024-11-18T16:18:48-0500
; FORMAT={-:-/ absolute / inch / decimal}
; #@! TF.CreationDate,2024-11-18T16:18:48-05:00
; #@! TF.GenerationSoftware,Kicad,Pcbnew,8.0.5
; #@! TF.FileFunction,Plated,1,4,PTH
FMAT,2
INCH
; #@! TA.AperFunction,Plated,PTH,ViaDrill
T1C0.0118
; #@! TA.AperFunction,Plated,PTH,ComponentDrill
T2C0.0350
; #@! TA.AperFunction,Plated,PTH,ComponentDrill
T3C0.0394
; #@! TA.AperFunction,Plated,PTH,ComponentDrill
T4C0.0866
%
G90
G05
T1
X5.83Y-4.19
X6.09Y-4.41
T2
X6.48Y-3.12
X6.48Y-3.82
X6.58Y-3.12
X6.58Y-3.82
X6.68Y-3.12
X6.68Y-3.82
X6.78Y-3.12
X6.78Y-3.82
X6.88Y-1.96
X6.88Y-2.06
X6.88Y-2.16
X6.88Y-2.26
X6.88Y-2.36
X6.88Y-2.46
X6.88Y-2.56
X6.88Y-2.66
X6.88Y-2.76
X6.88Y-3.12
X6.88Y-3.82
X6.98Y-3.12
X6.98Y-3.82
X7.08Y-3.12
X7.08Y-3.82
X7.18Y-3.12
X7.18Y-3.82
X7.28Y-3.12
X7.28Y-3.82
X7.38Y-3.12
X7.38Y-3.82
X7.48Y-3.12
X7.48Y-3.82
X7.58Y-3.12
X7.58Y-3.82
T3
X5.97Y-2.2498
X5.97Y-2.3498
X5.975Y-2.62
X5.975Y-2.72
X6.265Y-2.62
X6.265Y-2.72
X6.27Y-2.2498
X6.27Y-2.3498
X6.4802Y-4.22
X6.5802Y-4.22
X6.83Y-4.23
X6.93Y-4.23
X7.03Y-4.23
X7.13Y-4.23
X7.23Y-4.23
X7.33Y-4.23
X7.43Y-4.23
X7.53Y-4.23
X7.84Y-4.19
X7.84Y-4.29
T4
X5.81Y-1.83
X6.32Y-4.39
X7.63Y-4.39
X7.84Y-1.83
M30
