%TF.GenerationSoftware,KiCad,Pcbnew,8.0.5*%
%TF.CreationDate,2024-11-18T16:18:54-05:00*%
%TF.ProjectId,CapstoneMCU,43617073-746f-46e6-954d-43552e6b6963,rev?*%
%TF.SameCoordinates,Original*%
%TF.FileFunction,Legend,Bot*%
%TF.FilePolarity,Positive*%
%FSLAX46Y46*%
G04 Gerber Fmt 4.6, Leading zero omitted, Abs format (unit mm)*
G04 Created by KiCad (PCBNEW 8.0.5) date 2024-11-18 16:18:54*
%MOMM*%
%LPD*%
G01*
G04 APERTURE LIST*
%ADD10C,0.150000*%
%ADD11C,0.200000*%
%ADD12C,0.250000*%
G04 APERTURE END LIST*
D10*
X186658668Y-84074000D02*
G75*
G02*
X187021882Y-91114854I-507968J-3556000D01*
G01*
X171196000Y-87630000D02*
X186436000Y-87630000D01*
X187960000Y-81788000D02*
G75*
G02*
X188225514Y-93396210I-1524000J-5842000D01*
G01*
D11*
X149860000Y-44704000D02*
X196850000Y-44704000D01*
X196850000Y-74168000D01*
X149860000Y-74168000D01*
X149860000Y-44704000D01*
D10*
X186436000Y-85852000D02*
G75*
G02*
X186436000Y-89408000I0J-1778000D01*
G01*
X187452000Y-83058001D02*
G75*
G02*
X187618225Y-92161862I-1016000J-4571999D01*
G01*
D12*
X196328384Y-46113638D02*
X195828384Y-46113638D01*
X195614098Y-46899352D02*
X196328384Y-46899352D01*
X196328384Y-46899352D02*
X196328384Y-45399352D01*
X196328384Y-45399352D02*
X195614098Y-45399352D01*
X194256955Y-46899352D02*
X194971241Y-46899352D01*
X194971241Y-46899352D02*
X194971241Y-45399352D01*
X193756955Y-46113638D02*
X193256955Y-46113638D01*
X193042669Y-46899352D02*
X193756955Y-46899352D01*
X193756955Y-46899352D02*
X193756955Y-45399352D01*
X193756955Y-45399352D02*
X193042669Y-45399352D01*
X191542669Y-46756495D02*
X191614097Y-46827924D01*
X191614097Y-46827924D02*
X191828383Y-46899352D01*
X191828383Y-46899352D02*
X191971240Y-46899352D01*
X191971240Y-46899352D02*
X192185526Y-46827924D01*
X192185526Y-46827924D02*
X192328383Y-46685066D01*
X192328383Y-46685066D02*
X192399812Y-46542209D01*
X192399812Y-46542209D02*
X192471240Y-46256495D01*
X192471240Y-46256495D02*
X192471240Y-46042209D01*
X192471240Y-46042209D02*
X192399812Y-45756495D01*
X192399812Y-45756495D02*
X192328383Y-45613638D01*
X192328383Y-45613638D02*
X192185526Y-45470781D01*
X192185526Y-45470781D02*
X191971240Y-45399352D01*
X191971240Y-45399352D02*
X191828383Y-45399352D01*
X191828383Y-45399352D02*
X191614097Y-45470781D01*
X191614097Y-45470781D02*
X191542669Y-45542209D01*
X190256955Y-45899352D02*
X190256955Y-46899352D01*
X190614097Y-45327924D02*
X190971240Y-46399352D01*
X190971240Y-46399352D02*
X190042669Y-46399352D01*
X189399812Y-46899352D02*
X189114098Y-46899352D01*
X189114098Y-46899352D02*
X188971241Y-46827924D01*
X188971241Y-46827924D02*
X188899812Y-46756495D01*
X188899812Y-46756495D02*
X188756955Y-46542209D01*
X188756955Y-46542209D02*
X188685526Y-46256495D01*
X188685526Y-46256495D02*
X188685526Y-45685066D01*
X188685526Y-45685066D02*
X188756955Y-45542209D01*
X188756955Y-45542209D02*
X188828384Y-45470781D01*
X188828384Y-45470781D02*
X188971241Y-45399352D01*
X188971241Y-45399352D02*
X189256955Y-45399352D01*
X189256955Y-45399352D02*
X189399812Y-45470781D01*
X189399812Y-45470781D02*
X189471241Y-45542209D01*
X189471241Y-45542209D02*
X189542669Y-45685066D01*
X189542669Y-45685066D02*
X189542669Y-46042209D01*
X189542669Y-46042209D02*
X189471241Y-46185066D01*
X189471241Y-46185066D02*
X189399812Y-46256495D01*
X189399812Y-46256495D02*
X189256955Y-46327924D01*
X189256955Y-46327924D02*
X188971241Y-46327924D01*
X188971241Y-46327924D02*
X188828384Y-46256495D01*
X188828384Y-46256495D02*
X188756955Y-46185066D01*
X188756955Y-46185066D02*
X188685526Y-46042209D01*
X187756955Y-45399352D02*
X187614098Y-45399352D01*
X187614098Y-45399352D02*
X187471241Y-45470781D01*
X187471241Y-45470781D02*
X187399813Y-45542209D01*
X187399813Y-45542209D02*
X187328384Y-45685066D01*
X187328384Y-45685066D02*
X187256955Y-45970781D01*
X187256955Y-45970781D02*
X187256955Y-46327924D01*
X187256955Y-46327924D02*
X187328384Y-46613638D01*
X187328384Y-46613638D02*
X187399813Y-46756495D01*
X187399813Y-46756495D02*
X187471241Y-46827924D01*
X187471241Y-46827924D02*
X187614098Y-46899352D01*
X187614098Y-46899352D02*
X187756955Y-46899352D01*
X187756955Y-46899352D02*
X187899813Y-46827924D01*
X187899813Y-46827924D02*
X187971241Y-46756495D01*
X187971241Y-46756495D02*
X188042670Y-46613638D01*
X188042670Y-46613638D02*
X188114098Y-46327924D01*
X188114098Y-46327924D02*
X188114098Y-45970781D01*
X188114098Y-45970781D02*
X188042670Y-45685066D01*
X188042670Y-45685066D02*
X187971241Y-45542209D01*
X187971241Y-45542209D02*
X187899813Y-45470781D01*
X187899813Y-45470781D02*
X187756955Y-45399352D01*
X186756956Y-45399352D02*
X185756956Y-45399352D01*
X185756956Y-45399352D02*
X186399813Y-46899352D01*
X183542671Y-46113638D02*
X184042671Y-46113638D01*
X184042671Y-46899352D02*
X184042671Y-45399352D01*
X184042671Y-45399352D02*
X183328385Y-45399352D01*
X182756957Y-46899352D02*
X182756957Y-45399352D01*
X182756957Y-45399352D02*
X182256957Y-46470781D01*
X182256957Y-46470781D02*
X181756957Y-45399352D01*
X181756957Y-45399352D02*
X181756957Y-46899352D01*
X180185528Y-46756495D02*
X180256956Y-46827924D01*
X180256956Y-46827924D02*
X180471242Y-46899352D01*
X180471242Y-46899352D02*
X180614099Y-46899352D01*
X180614099Y-46899352D02*
X180828385Y-46827924D01*
X180828385Y-46827924D02*
X180971242Y-46685066D01*
X180971242Y-46685066D02*
X181042671Y-46542209D01*
X181042671Y-46542209D02*
X181114099Y-46256495D01*
X181114099Y-46256495D02*
X181114099Y-46042209D01*
X181114099Y-46042209D02*
X181042671Y-45756495D01*
X181042671Y-45756495D02*
X180971242Y-45613638D01*
X180971242Y-45613638D02*
X180828385Y-45470781D01*
X180828385Y-45470781D02*
X180614099Y-45399352D01*
X180614099Y-45399352D02*
X180471242Y-45399352D01*
X180471242Y-45399352D02*
X180256956Y-45470781D01*
X180256956Y-45470781D02*
X180185528Y-45542209D01*
X179685528Y-45399352D02*
X179328385Y-46899352D01*
X179328385Y-46899352D02*
X179042671Y-45827924D01*
X179042671Y-45827924D02*
X178756956Y-46899352D01*
X178756956Y-46899352D02*
X178399814Y-45399352D01*
X175828385Y-46899352D02*
X176328385Y-46185066D01*
X176685528Y-46899352D02*
X176685528Y-45399352D01*
X176685528Y-45399352D02*
X176114099Y-45399352D01*
X176114099Y-45399352D02*
X175971242Y-45470781D01*
X175971242Y-45470781D02*
X175899813Y-45542209D01*
X175899813Y-45542209D02*
X175828385Y-45685066D01*
X175828385Y-45685066D02*
X175828385Y-45899352D01*
X175828385Y-45899352D02*
X175899813Y-46042209D01*
X175899813Y-46042209D02*
X175971242Y-46113638D01*
X175971242Y-46113638D02*
X176114099Y-46185066D01*
X176114099Y-46185066D02*
X176685528Y-46185066D01*
X174542671Y-46899352D02*
X174542671Y-46113638D01*
X174542671Y-46113638D02*
X174614099Y-45970781D01*
X174614099Y-45970781D02*
X174756956Y-45899352D01*
X174756956Y-45899352D02*
X175042671Y-45899352D01*
X175042671Y-45899352D02*
X175185528Y-45970781D01*
X174542671Y-46827924D02*
X174685528Y-46899352D01*
X174685528Y-46899352D02*
X175042671Y-46899352D01*
X175042671Y-46899352D02*
X175185528Y-46827924D01*
X175185528Y-46827924D02*
X175256956Y-46685066D01*
X175256956Y-46685066D02*
X175256956Y-46542209D01*
X175256956Y-46542209D02*
X175185528Y-46399352D01*
X175185528Y-46399352D02*
X175042671Y-46327924D01*
X175042671Y-46327924D02*
X174685528Y-46327924D01*
X174685528Y-46327924D02*
X174542671Y-46256495D01*
X173185528Y-46899352D02*
X173185528Y-45399352D01*
X173185528Y-46827924D02*
X173328385Y-46899352D01*
X173328385Y-46899352D02*
X173614099Y-46899352D01*
X173614099Y-46899352D02*
X173756956Y-46827924D01*
X173756956Y-46827924D02*
X173828385Y-46756495D01*
X173828385Y-46756495D02*
X173899813Y-46613638D01*
X173899813Y-46613638D02*
X173899813Y-46185066D01*
X173899813Y-46185066D02*
X173828385Y-46042209D01*
X173828385Y-46042209D02*
X173756956Y-45970781D01*
X173756956Y-45970781D02*
X173614099Y-45899352D01*
X173614099Y-45899352D02*
X173328385Y-45899352D01*
X173328385Y-45899352D02*
X173185528Y-45970781D01*
X171828385Y-46899352D02*
X171828385Y-46113638D01*
X171828385Y-46113638D02*
X171899813Y-45970781D01*
X171899813Y-45970781D02*
X172042670Y-45899352D01*
X172042670Y-45899352D02*
X172328385Y-45899352D01*
X172328385Y-45899352D02*
X172471242Y-45970781D01*
X171828385Y-46827924D02*
X171971242Y-46899352D01*
X171971242Y-46899352D02*
X172328385Y-46899352D01*
X172328385Y-46899352D02*
X172471242Y-46827924D01*
X172471242Y-46827924D02*
X172542670Y-46685066D01*
X172542670Y-46685066D02*
X172542670Y-46542209D01*
X172542670Y-46542209D02*
X172471242Y-46399352D01*
X172471242Y-46399352D02*
X172328385Y-46327924D01*
X172328385Y-46327924D02*
X171971242Y-46327924D01*
X171971242Y-46327924D02*
X171828385Y-46256495D01*
X171114099Y-46899352D02*
X171114099Y-45899352D01*
X171114099Y-46185066D02*
X171042670Y-46042209D01*
X171042670Y-46042209D02*
X170971242Y-45970781D01*
X170971242Y-45970781D02*
X170828384Y-45899352D01*
X170828384Y-45899352D02*
X170685527Y-45899352D01*
X168185528Y-46756495D02*
X168256956Y-46827924D01*
X168256956Y-46827924D02*
X168471242Y-46899352D01*
X168471242Y-46899352D02*
X168614099Y-46899352D01*
X168614099Y-46899352D02*
X168828385Y-46827924D01*
X168828385Y-46827924D02*
X168971242Y-46685066D01*
X168971242Y-46685066D02*
X169042671Y-46542209D01*
X169042671Y-46542209D02*
X169114099Y-46256495D01*
X169114099Y-46256495D02*
X169114099Y-46042209D01*
X169114099Y-46042209D02*
X169042671Y-45756495D01*
X169042671Y-45756495D02*
X168971242Y-45613638D01*
X168971242Y-45613638D02*
X168828385Y-45470781D01*
X168828385Y-45470781D02*
X168614099Y-45399352D01*
X168614099Y-45399352D02*
X168471242Y-45399352D01*
X168471242Y-45399352D02*
X168256956Y-45470781D01*
X168256956Y-45470781D02*
X168185528Y-45542209D01*
X166899814Y-46899352D02*
X166899814Y-46113638D01*
X166899814Y-46113638D02*
X166971242Y-45970781D01*
X166971242Y-45970781D02*
X167114099Y-45899352D01*
X167114099Y-45899352D02*
X167399814Y-45899352D01*
X167399814Y-45899352D02*
X167542671Y-45970781D01*
X166899814Y-46827924D02*
X167042671Y-46899352D01*
X167042671Y-46899352D02*
X167399814Y-46899352D01*
X167399814Y-46899352D02*
X167542671Y-46827924D01*
X167542671Y-46827924D02*
X167614099Y-46685066D01*
X167614099Y-46685066D02*
X167614099Y-46542209D01*
X167614099Y-46542209D02*
X167542671Y-46399352D01*
X167542671Y-46399352D02*
X167399814Y-46327924D01*
X167399814Y-46327924D02*
X167042671Y-46327924D01*
X167042671Y-46327924D02*
X166899814Y-46256495D01*
X166185528Y-45899352D02*
X166185528Y-47399352D01*
X166185528Y-45970781D02*
X166042671Y-45899352D01*
X166042671Y-45899352D02*
X165756956Y-45899352D01*
X165756956Y-45899352D02*
X165614099Y-45970781D01*
X165614099Y-45970781D02*
X165542671Y-46042209D01*
X165542671Y-46042209D02*
X165471242Y-46185066D01*
X165471242Y-46185066D02*
X165471242Y-46613638D01*
X165471242Y-46613638D02*
X165542671Y-46756495D01*
X165542671Y-46756495D02*
X165614099Y-46827924D01*
X165614099Y-46827924D02*
X165756956Y-46899352D01*
X165756956Y-46899352D02*
X166042671Y-46899352D01*
X166042671Y-46899352D02*
X166185528Y-46827924D01*
X164899813Y-46827924D02*
X164756956Y-46899352D01*
X164756956Y-46899352D02*
X164471242Y-46899352D01*
X164471242Y-46899352D02*
X164328385Y-46827924D01*
X164328385Y-46827924D02*
X164256956Y-46685066D01*
X164256956Y-46685066D02*
X164256956Y-46613638D01*
X164256956Y-46613638D02*
X164328385Y-46470781D01*
X164328385Y-46470781D02*
X164471242Y-46399352D01*
X164471242Y-46399352D02*
X164685528Y-46399352D01*
X164685528Y-46399352D02*
X164828385Y-46327924D01*
X164828385Y-46327924D02*
X164899813Y-46185066D01*
X164899813Y-46185066D02*
X164899813Y-46113638D01*
X164899813Y-46113638D02*
X164828385Y-45970781D01*
X164828385Y-45970781D02*
X164685528Y-45899352D01*
X164685528Y-45899352D02*
X164471242Y-45899352D01*
X164471242Y-45899352D02*
X164328385Y-45970781D01*
X163828384Y-45899352D02*
X163256956Y-45899352D01*
X163614099Y-45399352D02*
X163614099Y-46685066D01*
X163614099Y-46685066D02*
X163542670Y-46827924D01*
X163542670Y-46827924D02*
X163399813Y-46899352D01*
X163399813Y-46899352D02*
X163256956Y-46899352D01*
X162542670Y-46899352D02*
X162685527Y-46827924D01*
X162685527Y-46827924D02*
X162756956Y-46756495D01*
X162756956Y-46756495D02*
X162828384Y-46613638D01*
X162828384Y-46613638D02*
X162828384Y-46185066D01*
X162828384Y-46185066D02*
X162756956Y-46042209D01*
X162756956Y-46042209D02*
X162685527Y-45970781D01*
X162685527Y-45970781D02*
X162542670Y-45899352D01*
X162542670Y-45899352D02*
X162328384Y-45899352D01*
X162328384Y-45899352D02*
X162185527Y-45970781D01*
X162185527Y-45970781D02*
X162114099Y-46042209D01*
X162114099Y-46042209D02*
X162042670Y-46185066D01*
X162042670Y-46185066D02*
X162042670Y-46613638D01*
X162042670Y-46613638D02*
X162114099Y-46756495D01*
X162114099Y-46756495D02*
X162185527Y-46827924D01*
X162185527Y-46827924D02*
X162328384Y-46899352D01*
X162328384Y-46899352D02*
X162542670Y-46899352D01*
X161399813Y-45899352D02*
X161399813Y-46899352D01*
X161399813Y-46042209D02*
X161328384Y-45970781D01*
X161328384Y-45970781D02*
X161185527Y-45899352D01*
X161185527Y-45899352D02*
X160971241Y-45899352D01*
X160971241Y-45899352D02*
X160828384Y-45970781D01*
X160828384Y-45970781D02*
X160756956Y-46113638D01*
X160756956Y-46113638D02*
X160756956Y-46899352D01*
X159471241Y-46827924D02*
X159614098Y-46899352D01*
X159614098Y-46899352D02*
X159899813Y-46899352D01*
X159899813Y-46899352D02*
X160042670Y-46827924D01*
X160042670Y-46827924D02*
X160114098Y-46685066D01*
X160114098Y-46685066D02*
X160114098Y-46113638D01*
X160114098Y-46113638D02*
X160042670Y-45970781D01*
X160042670Y-45970781D02*
X159899813Y-45899352D01*
X159899813Y-45899352D02*
X159614098Y-45899352D01*
X159614098Y-45899352D02*
X159471241Y-45970781D01*
X159471241Y-45970781D02*
X159399813Y-46113638D01*
X159399813Y-46113638D02*
X159399813Y-46256495D01*
X159399813Y-46256495D02*
X160114098Y-46399352D01*
X195471241Y-49314268D02*
X195971241Y-48599982D01*
X196328384Y-49314268D02*
X196328384Y-47814268D01*
X196328384Y-47814268D02*
X195756955Y-47814268D01*
X195756955Y-47814268D02*
X195614098Y-47885697D01*
X195614098Y-47885697D02*
X195542669Y-47957125D01*
X195542669Y-47957125D02*
X195471241Y-48099982D01*
X195471241Y-48099982D02*
X195471241Y-48314268D01*
X195471241Y-48314268D02*
X195542669Y-48457125D01*
X195542669Y-48457125D02*
X195614098Y-48528554D01*
X195614098Y-48528554D02*
X195756955Y-48599982D01*
X195756955Y-48599982D02*
X196328384Y-48599982D01*
X194256955Y-49242840D02*
X194399812Y-49314268D01*
X194399812Y-49314268D02*
X194685527Y-49314268D01*
X194685527Y-49314268D02*
X194828384Y-49242840D01*
X194828384Y-49242840D02*
X194899812Y-49099982D01*
X194899812Y-49099982D02*
X194899812Y-48528554D01*
X194899812Y-48528554D02*
X194828384Y-48385697D01*
X194828384Y-48385697D02*
X194685527Y-48314268D01*
X194685527Y-48314268D02*
X194399812Y-48314268D01*
X194399812Y-48314268D02*
X194256955Y-48385697D01*
X194256955Y-48385697D02*
X194185527Y-48528554D01*
X194185527Y-48528554D02*
X194185527Y-48671411D01*
X194185527Y-48671411D02*
X194899812Y-48814268D01*
X193685527Y-48314268D02*
X193328384Y-49314268D01*
X193328384Y-49314268D02*
X192971241Y-48314268D01*
X192399813Y-49314268D02*
X192399813Y-48314268D01*
X192399813Y-47814268D02*
X192471241Y-47885697D01*
X192471241Y-47885697D02*
X192399813Y-47957125D01*
X192399813Y-47957125D02*
X192328384Y-47885697D01*
X192328384Y-47885697D02*
X192399813Y-47814268D01*
X192399813Y-47814268D02*
X192399813Y-47957125D01*
X191756955Y-49242840D02*
X191614098Y-49314268D01*
X191614098Y-49314268D02*
X191328384Y-49314268D01*
X191328384Y-49314268D02*
X191185527Y-49242840D01*
X191185527Y-49242840D02*
X191114098Y-49099982D01*
X191114098Y-49099982D02*
X191114098Y-49028554D01*
X191114098Y-49028554D02*
X191185527Y-48885697D01*
X191185527Y-48885697D02*
X191328384Y-48814268D01*
X191328384Y-48814268D02*
X191542670Y-48814268D01*
X191542670Y-48814268D02*
X191685527Y-48742840D01*
X191685527Y-48742840D02*
X191756955Y-48599982D01*
X191756955Y-48599982D02*
X191756955Y-48528554D01*
X191756955Y-48528554D02*
X191685527Y-48385697D01*
X191685527Y-48385697D02*
X191542670Y-48314268D01*
X191542670Y-48314268D02*
X191328384Y-48314268D01*
X191328384Y-48314268D02*
X191185527Y-48385697D01*
X190471241Y-49314268D02*
X190471241Y-48314268D01*
X190471241Y-47814268D02*
X190542669Y-47885697D01*
X190542669Y-47885697D02*
X190471241Y-47957125D01*
X190471241Y-47957125D02*
X190399812Y-47885697D01*
X190399812Y-47885697D02*
X190471241Y-47814268D01*
X190471241Y-47814268D02*
X190471241Y-47957125D01*
X189542669Y-49314268D02*
X189685526Y-49242840D01*
X189685526Y-49242840D02*
X189756955Y-49171411D01*
X189756955Y-49171411D02*
X189828383Y-49028554D01*
X189828383Y-49028554D02*
X189828383Y-48599982D01*
X189828383Y-48599982D02*
X189756955Y-48457125D01*
X189756955Y-48457125D02*
X189685526Y-48385697D01*
X189685526Y-48385697D02*
X189542669Y-48314268D01*
X189542669Y-48314268D02*
X189328383Y-48314268D01*
X189328383Y-48314268D02*
X189185526Y-48385697D01*
X189185526Y-48385697D02*
X189114098Y-48457125D01*
X189114098Y-48457125D02*
X189042669Y-48599982D01*
X189042669Y-48599982D02*
X189042669Y-49028554D01*
X189042669Y-49028554D02*
X189114098Y-49171411D01*
X189114098Y-49171411D02*
X189185526Y-49242840D01*
X189185526Y-49242840D02*
X189328383Y-49314268D01*
X189328383Y-49314268D02*
X189542669Y-49314268D01*
X188399812Y-48314268D02*
X188399812Y-49314268D01*
X188399812Y-48457125D02*
X188328383Y-48385697D01*
X188328383Y-48385697D02*
X188185526Y-48314268D01*
X188185526Y-48314268D02*
X187971240Y-48314268D01*
X187971240Y-48314268D02*
X187828383Y-48385697D01*
X187828383Y-48385697D02*
X187756955Y-48528554D01*
X187756955Y-48528554D02*
X187756955Y-49314268D01*
X185114097Y-49314268D02*
X185971240Y-49314268D01*
X185542669Y-49314268D02*
X185542669Y-47814268D01*
X185542669Y-47814268D02*
X185685526Y-48028554D01*
X185685526Y-48028554D02*
X185828383Y-48171411D01*
X185828383Y-48171411D02*
X185971240Y-48242840D01*
X196328384Y-51729184D02*
X196328384Y-50229184D01*
X196328384Y-50229184D02*
X195971241Y-50229184D01*
X195971241Y-50229184D02*
X195756955Y-50300613D01*
X195756955Y-50300613D02*
X195614098Y-50443470D01*
X195614098Y-50443470D02*
X195542669Y-50586327D01*
X195542669Y-50586327D02*
X195471241Y-50872041D01*
X195471241Y-50872041D02*
X195471241Y-51086327D01*
X195471241Y-51086327D02*
X195542669Y-51372041D01*
X195542669Y-51372041D02*
X195614098Y-51514898D01*
X195614098Y-51514898D02*
X195756955Y-51657756D01*
X195756955Y-51657756D02*
X195971241Y-51729184D01*
X195971241Y-51729184D02*
X196328384Y-51729184D01*
X194185527Y-51729184D02*
X194185527Y-50943470D01*
X194185527Y-50943470D02*
X194256955Y-50800613D01*
X194256955Y-50800613D02*
X194399812Y-50729184D01*
X194399812Y-50729184D02*
X194685527Y-50729184D01*
X194685527Y-50729184D02*
X194828384Y-50800613D01*
X194185527Y-51657756D02*
X194328384Y-51729184D01*
X194328384Y-51729184D02*
X194685527Y-51729184D01*
X194685527Y-51729184D02*
X194828384Y-51657756D01*
X194828384Y-51657756D02*
X194899812Y-51514898D01*
X194899812Y-51514898D02*
X194899812Y-51372041D01*
X194899812Y-51372041D02*
X194828384Y-51229184D01*
X194828384Y-51229184D02*
X194685527Y-51157756D01*
X194685527Y-51157756D02*
X194328384Y-51157756D01*
X194328384Y-51157756D02*
X194185527Y-51086327D01*
X193685526Y-50729184D02*
X193114098Y-50729184D01*
X193471241Y-50229184D02*
X193471241Y-51514898D01*
X193471241Y-51514898D02*
X193399812Y-51657756D01*
X193399812Y-51657756D02*
X193256955Y-51729184D01*
X193256955Y-51729184D02*
X193114098Y-51729184D01*
X192042669Y-51657756D02*
X192185526Y-51729184D01*
X192185526Y-51729184D02*
X192471241Y-51729184D01*
X192471241Y-51729184D02*
X192614098Y-51657756D01*
X192614098Y-51657756D02*
X192685526Y-51514898D01*
X192685526Y-51514898D02*
X192685526Y-50943470D01*
X192685526Y-50943470D02*
X192614098Y-50800613D01*
X192614098Y-50800613D02*
X192471241Y-50729184D01*
X192471241Y-50729184D02*
X192185526Y-50729184D01*
X192185526Y-50729184D02*
X192042669Y-50800613D01*
X192042669Y-50800613D02*
X191971241Y-50943470D01*
X191971241Y-50943470D02*
X191971241Y-51086327D01*
X191971241Y-51086327D02*
X192685526Y-51229184D01*
X191328384Y-51586327D02*
X191256955Y-51657756D01*
X191256955Y-51657756D02*
X191328384Y-51729184D01*
X191328384Y-51729184D02*
X191399812Y-51657756D01*
X191399812Y-51657756D02*
X191328384Y-51586327D01*
X191328384Y-51586327D02*
X191328384Y-51729184D01*
X191328384Y-50800613D02*
X191256955Y-50872041D01*
X191256955Y-50872041D02*
X191328384Y-50943470D01*
X191328384Y-50943470D02*
X191399812Y-50872041D01*
X191399812Y-50872041D02*
X191328384Y-50800613D01*
X191328384Y-50800613D02*
X191328384Y-50943470D01*
X196328384Y-54144100D02*
X196328384Y-52644100D01*
X196328384Y-52644100D02*
X195471241Y-54144100D01*
X195471241Y-54144100D02*
X195471241Y-52644100D01*
X194542669Y-54144100D02*
X194685526Y-54072672D01*
X194685526Y-54072672D02*
X194756955Y-54001243D01*
X194756955Y-54001243D02*
X194828383Y-53858386D01*
X194828383Y-53858386D02*
X194828383Y-53429814D01*
X194828383Y-53429814D02*
X194756955Y-53286957D01*
X194756955Y-53286957D02*
X194685526Y-53215529D01*
X194685526Y-53215529D02*
X194542669Y-53144100D01*
X194542669Y-53144100D02*
X194328383Y-53144100D01*
X194328383Y-53144100D02*
X194185526Y-53215529D01*
X194185526Y-53215529D02*
X194114098Y-53286957D01*
X194114098Y-53286957D02*
X194042669Y-53429814D01*
X194042669Y-53429814D02*
X194042669Y-53858386D01*
X194042669Y-53858386D02*
X194114098Y-54001243D01*
X194114098Y-54001243D02*
X194185526Y-54072672D01*
X194185526Y-54072672D02*
X194328383Y-54144100D01*
X194328383Y-54144100D02*
X194542669Y-54144100D01*
X193542669Y-53144100D02*
X193185526Y-54144100D01*
X193185526Y-54144100D02*
X192828383Y-53144100D01*
X190328383Y-54144100D02*
X191185526Y-54144100D01*
X190756955Y-54144100D02*
X190756955Y-52644100D01*
X190756955Y-52644100D02*
X190899812Y-52858386D01*
X190899812Y-52858386D02*
X191042669Y-53001243D01*
X191042669Y-53001243D02*
X191185526Y-53072672D01*
X188971241Y-52644100D02*
X189685527Y-52644100D01*
X189685527Y-52644100D02*
X189756955Y-53358386D01*
X189756955Y-53358386D02*
X189685527Y-53286957D01*
X189685527Y-53286957D02*
X189542670Y-53215529D01*
X189542670Y-53215529D02*
X189185527Y-53215529D01*
X189185527Y-53215529D02*
X189042670Y-53286957D01*
X189042670Y-53286957D02*
X188971241Y-53358386D01*
X188971241Y-53358386D02*
X188899812Y-53501243D01*
X188899812Y-53501243D02*
X188899812Y-53858386D01*
X188899812Y-53858386D02*
X188971241Y-54001243D01*
X188971241Y-54001243D02*
X189042670Y-54072672D01*
X189042670Y-54072672D02*
X189185527Y-54144100D01*
X189185527Y-54144100D02*
X189542670Y-54144100D01*
X189542670Y-54144100D02*
X189685527Y-54072672D01*
X189685527Y-54072672D02*
X189756955Y-54001243D01*
X188185527Y-54072672D02*
X188185527Y-54144100D01*
X188185527Y-54144100D02*
X188256956Y-54286957D01*
X188256956Y-54286957D02*
X188328384Y-54358386D01*
X186471241Y-52786957D02*
X186399813Y-52715529D01*
X186399813Y-52715529D02*
X186256956Y-52644100D01*
X186256956Y-52644100D02*
X185899813Y-52644100D01*
X185899813Y-52644100D02*
X185756956Y-52715529D01*
X185756956Y-52715529D02*
X185685527Y-52786957D01*
X185685527Y-52786957D02*
X185614098Y-52929814D01*
X185614098Y-52929814D02*
X185614098Y-53072672D01*
X185614098Y-53072672D02*
X185685527Y-53286957D01*
X185685527Y-53286957D02*
X186542670Y-54144100D01*
X186542670Y-54144100D02*
X185614098Y-54144100D01*
X184685527Y-52644100D02*
X184542670Y-52644100D01*
X184542670Y-52644100D02*
X184399813Y-52715529D01*
X184399813Y-52715529D02*
X184328385Y-52786957D01*
X184328385Y-52786957D02*
X184256956Y-52929814D01*
X184256956Y-52929814D02*
X184185527Y-53215529D01*
X184185527Y-53215529D02*
X184185527Y-53572672D01*
X184185527Y-53572672D02*
X184256956Y-53858386D01*
X184256956Y-53858386D02*
X184328385Y-54001243D01*
X184328385Y-54001243D02*
X184399813Y-54072672D01*
X184399813Y-54072672D02*
X184542670Y-54144100D01*
X184542670Y-54144100D02*
X184685527Y-54144100D01*
X184685527Y-54144100D02*
X184828385Y-54072672D01*
X184828385Y-54072672D02*
X184899813Y-54001243D01*
X184899813Y-54001243D02*
X184971242Y-53858386D01*
X184971242Y-53858386D02*
X185042670Y-53572672D01*
X185042670Y-53572672D02*
X185042670Y-53215529D01*
X185042670Y-53215529D02*
X184971242Y-52929814D01*
X184971242Y-52929814D02*
X184899813Y-52786957D01*
X184899813Y-52786957D02*
X184828385Y-52715529D01*
X184828385Y-52715529D02*
X184685527Y-52644100D01*
X183614099Y-52786957D02*
X183542671Y-52715529D01*
X183542671Y-52715529D02*
X183399814Y-52644100D01*
X183399814Y-52644100D02*
X183042671Y-52644100D01*
X183042671Y-52644100D02*
X182899814Y-52715529D01*
X182899814Y-52715529D02*
X182828385Y-52786957D01*
X182828385Y-52786957D02*
X182756956Y-52929814D01*
X182756956Y-52929814D02*
X182756956Y-53072672D01*
X182756956Y-53072672D02*
X182828385Y-53286957D01*
X182828385Y-53286957D02*
X183685528Y-54144100D01*
X183685528Y-54144100D02*
X182756956Y-54144100D01*
X181471243Y-53144100D02*
X181471243Y-54144100D01*
X181828385Y-52572672D02*
X182185528Y-53644100D01*
X182185528Y-53644100D02*
X181256957Y-53644100D01*
X196328384Y-58973932D02*
X196328384Y-57473932D01*
X196328384Y-58188218D02*
X195471241Y-58188218D01*
X195471241Y-58973932D02*
X195471241Y-57473932D01*
X194114098Y-58973932D02*
X194114098Y-58188218D01*
X194114098Y-58188218D02*
X194185526Y-58045361D01*
X194185526Y-58045361D02*
X194328383Y-57973932D01*
X194328383Y-57973932D02*
X194614098Y-57973932D01*
X194614098Y-57973932D02*
X194756955Y-58045361D01*
X194114098Y-58902504D02*
X194256955Y-58973932D01*
X194256955Y-58973932D02*
X194614098Y-58973932D01*
X194614098Y-58973932D02*
X194756955Y-58902504D01*
X194756955Y-58902504D02*
X194828383Y-58759646D01*
X194828383Y-58759646D02*
X194828383Y-58616789D01*
X194828383Y-58616789D02*
X194756955Y-58473932D01*
X194756955Y-58473932D02*
X194614098Y-58402504D01*
X194614098Y-58402504D02*
X194256955Y-58402504D01*
X194256955Y-58402504D02*
X194114098Y-58331075D01*
X193399812Y-58973932D02*
X193399812Y-57973932D01*
X193399812Y-58259646D02*
X193328383Y-58116789D01*
X193328383Y-58116789D02*
X193256955Y-58045361D01*
X193256955Y-58045361D02*
X193114097Y-57973932D01*
X193114097Y-57973932D02*
X192971240Y-57973932D01*
X191828384Y-58973932D02*
X191828384Y-57473932D01*
X191828384Y-58902504D02*
X191971241Y-58973932D01*
X191971241Y-58973932D02*
X192256955Y-58973932D01*
X192256955Y-58973932D02*
X192399812Y-58902504D01*
X192399812Y-58902504D02*
X192471241Y-58831075D01*
X192471241Y-58831075D02*
X192542669Y-58688218D01*
X192542669Y-58688218D02*
X192542669Y-58259646D01*
X192542669Y-58259646D02*
X192471241Y-58116789D01*
X192471241Y-58116789D02*
X192399812Y-58045361D01*
X192399812Y-58045361D02*
X192256955Y-57973932D01*
X192256955Y-57973932D02*
X191971241Y-57973932D01*
X191971241Y-57973932D02*
X191828384Y-58045361D01*
X191256955Y-57973932D02*
X190971241Y-58973932D01*
X190971241Y-58973932D02*
X190685526Y-58259646D01*
X190685526Y-58259646D02*
X190399812Y-58973932D01*
X190399812Y-58973932D02*
X190114098Y-57973932D01*
X188899812Y-58973932D02*
X188899812Y-58188218D01*
X188899812Y-58188218D02*
X188971240Y-58045361D01*
X188971240Y-58045361D02*
X189114097Y-57973932D01*
X189114097Y-57973932D02*
X189399812Y-57973932D01*
X189399812Y-57973932D02*
X189542669Y-58045361D01*
X188899812Y-58902504D02*
X189042669Y-58973932D01*
X189042669Y-58973932D02*
X189399812Y-58973932D01*
X189399812Y-58973932D02*
X189542669Y-58902504D01*
X189542669Y-58902504D02*
X189614097Y-58759646D01*
X189614097Y-58759646D02*
X189614097Y-58616789D01*
X189614097Y-58616789D02*
X189542669Y-58473932D01*
X189542669Y-58473932D02*
X189399812Y-58402504D01*
X189399812Y-58402504D02*
X189042669Y-58402504D01*
X189042669Y-58402504D02*
X188899812Y-58331075D01*
X188185526Y-58973932D02*
X188185526Y-57973932D01*
X188185526Y-58259646D02*
X188114097Y-58116789D01*
X188114097Y-58116789D02*
X188042669Y-58045361D01*
X188042669Y-58045361D02*
X187899811Y-57973932D01*
X187899811Y-57973932D02*
X187756954Y-57973932D01*
X186685526Y-58902504D02*
X186828383Y-58973932D01*
X186828383Y-58973932D02*
X187114098Y-58973932D01*
X187114098Y-58973932D02*
X187256955Y-58902504D01*
X187256955Y-58902504D02*
X187328383Y-58759646D01*
X187328383Y-58759646D02*
X187328383Y-58188218D01*
X187328383Y-58188218D02*
X187256955Y-58045361D01*
X187256955Y-58045361D02*
X187114098Y-57973932D01*
X187114098Y-57973932D02*
X186828383Y-57973932D01*
X186828383Y-57973932D02*
X186685526Y-58045361D01*
X186685526Y-58045361D02*
X186614098Y-58188218D01*
X186614098Y-58188218D02*
X186614098Y-58331075D01*
X186614098Y-58331075D02*
X187328383Y-58473932D01*
X196328384Y-61388848D02*
X196328384Y-59888848D01*
X196328384Y-59888848D02*
X195971241Y-59888848D01*
X195971241Y-59888848D02*
X195756955Y-59960277D01*
X195756955Y-59960277D02*
X195614098Y-60103134D01*
X195614098Y-60103134D02*
X195542669Y-60245991D01*
X195542669Y-60245991D02*
X195471241Y-60531705D01*
X195471241Y-60531705D02*
X195471241Y-60745991D01*
X195471241Y-60745991D02*
X195542669Y-61031705D01*
X195542669Y-61031705D02*
X195614098Y-61174562D01*
X195614098Y-61174562D02*
X195756955Y-61317420D01*
X195756955Y-61317420D02*
X195971241Y-61388848D01*
X195971241Y-61388848D02*
X196328384Y-61388848D01*
X194256955Y-61317420D02*
X194399812Y-61388848D01*
X194399812Y-61388848D02*
X194685527Y-61388848D01*
X194685527Y-61388848D02*
X194828384Y-61317420D01*
X194828384Y-61317420D02*
X194899812Y-61174562D01*
X194899812Y-61174562D02*
X194899812Y-60603134D01*
X194899812Y-60603134D02*
X194828384Y-60460277D01*
X194828384Y-60460277D02*
X194685527Y-60388848D01*
X194685527Y-60388848D02*
X194399812Y-60388848D01*
X194399812Y-60388848D02*
X194256955Y-60460277D01*
X194256955Y-60460277D02*
X194185527Y-60603134D01*
X194185527Y-60603134D02*
X194185527Y-60745991D01*
X194185527Y-60745991D02*
X194899812Y-60888848D01*
X193614098Y-61317420D02*
X193471241Y-61388848D01*
X193471241Y-61388848D02*
X193185527Y-61388848D01*
X193185527Y-61388848D02*
X193042670Y-61317420D01*
X193042670Y-61317420D02*
X192971241Y-61174562D01*
X192971241Y-61174562D02*
X192971241Y-61103134D01*
X192971241Y-61103134D02*
X193042670Y-60960277D01*
X193042670Y-60960277D02*
X193185527Y-60888848D01*
X193185527Y-60888848D02*
X193399813Y-60888848D01*
X193399813Y-60888848D02*
X193542670Y-60817420D01*
X193542670Y-60817420D02*
X193614098Y-60674562D01*
X193614098Y-60674562D02*
X193614098Y-60603134D01*
X193614098Y-60603134D02*
X193542670Y-60460277D01*
X193542670Y-60460277D02*
X193399813Y-60388848D01*
X193399813Y-60388848D02*
X193185527Y-60388848D01*
X193185527Y-60388848D02*
X193042670Y-60460277D01*
X192328384Y-61388848D02*
X192328384Y-60388848D01*
X192328384Y-59888848D02*
X192399812Y-59960277D01*
X192399812Y-59960277D02*
X192328384Y-60031705D01*
X192328384Y-60031705D02*
X192256955Y-59960277D01*
X192256955Y-59960277D02*
X192328384Y-59888848D01*
X192328384Y-59888848D02*
X192328384Y-60031705D01*
X190971241Y-60388848D02*
X190971241Y-61603134D01*
X190971241Y-61603134D02*
X191042669Y-61745991D01*
X191042669Y-61745991D02*
X191114098Y-61817420D01*
X191114098Y-61817420D02*
X191256955Y-61888848D01*
X191256955Y-61888848D02*
X191471241Y-61888848D01*
X191471241Y-61888848D02*
X191614098Y-61817420D01*
X190971241Y-61317420D02*
X191114098Y-61388848D01*
X191114098Y-61388848D02*
X191399812Y-61388848D01*
X191399812Y-61388848D02*
X191542669Y-61317420D01*
X191542669Y-61317420D02*
X191614098Y-61245991D01*
X191614098Y-61245991D02*
X191685526Y-61103134D01*
X191685526Y-61103134D02*
X191685526Y-60674562D01*
X191685526Y-60674562D02*
X191614098Y-60531705D01*
X191614098Y-60531705D02*
X191542669Y-60460277D01*
X191542669Y-60460277D02*
X191399812Y-60388848D01*
X191399812Y-60388848D02*
X191114098Y-60388848D01*
X191114098Y-60388848D02*
X190971241Y-60460277D01*
X190256955Y-60388848D02*
X190256955Y-61388848D01*
X190256955Y-60531705D02*
X190185526Y-60460277D01*
X190185526Y-60460277D02*
X190042669Y-60388848D01*
X190042669Y-60388848D02*
X189828383Y-60388848D01*
X189828383Y-60388848D02*
X189685526Y-60460277D01*
X189685526Y-60460277D02*
X189614098Y-60603134D01*
X189614098Y-60603134D02*
X189614098Y-61388848D01*
X188328383Y-61317420D02*
X188471240Y-61388848D01*
X188471240Y-61388848D02*
X188756955Y-61388848D01*
X188756955Y-61388848D02*
X188899812Y-61317420D01*
X188899812Y-61317420D02*
X188971240Y-61174562D01*
X188971240Y-61174562D02*
X188971240Y-60603134D01*
X188971240Y-60603134D02*
X188899812Y-60460277D01*
X188899812Y-60460277D02*
X188756955Y-60388848D01*
X188756955Y-60388848D02*
X188471240Y-60388848D01*
X188471240Y-60388848D02*
X188328383Y-60460277D01*
X188328383Y-60460277D02*
X188256955Y-60603134D01*
X188256955Y-60603134D02*
X188256955Y-60745991D01*
X188256955Y-60745991D02*
X188971240Y-60888848D01*
X187614098Y-61388848D02*
X187614098Y-60388848D01*
X187614098Y-60674562D02*
X187542669Y-60531705D01*
X187542669Y-60531705D02*
X187471241Y-60460277D01*
X187471241Y-60460277D02*
X187328383Y-60388848D01*
X187328383Y-60388848D02*
X187185526Y-60388848D01*
X186756955Y-61317420D02*
X186614098Y-61388848D01*
X186614098Y-61388848D02*
X186328384Y-61388848D01*
X186328384Y-61388848D02*
X186185527Y-61317420D01*
X186185527Y-61317420D02*
X186114098Y-61174562D01*
X186114098Y-61174562D02*
X186114098Y-61103134D01*
X186114098Y-61103134D02*
X186185527Y-60960277D01*
X186185527Y-60960277D02*
X186328384Y-60888848D01*
X186328384Y-60888848D02*
X186542670Y-60888848D01*
X186542670Y-60888848D02*
X186685527Y-60817420D01*
X186685527Y-60817420D02*
X186756955Y-60674562D01*
X186756955Y-60674562D02*
X186756955Y-60603134D01*
X186756955Y-60603134D02*
X186685527Y-60460277D01*
X186685527Y-60460277D02*
X186542670Y-60388848D01*
X186542670Y-60388848D02*
X186328384Y-60388848D01*
X186328384Y-60388848D02*
X186185527Y-60460277D01*
X185471241Y-61245991D02*
X185399812Y-61317420D01*
X185399812Y-61317420D02*
X185471241Y-61388848D01*
X185471241Y-61388848D02*
X185542669Y-61317420D01*
X185542669Y-61317420D02*
X185471241Y-61245991D01*
X185471241Y-61245991D02*
X185471241Y-61388848D01*
X185471241Y-60460277D02*
X185399812Y-60531705D01*
X185399812Y-60531705D02*
X185471241Y-60603134D01*
X185471241Y-60603134D02*
X185542669Y-60531705D01*
X185542669Y-60531705D02*
X185471241Y-60460277D01*
X185471241Y-60460277D02*
X185471241Y-60603134D01*
X196042669Y-62303764D02*
X195756955Y-62303764D01*
X195756955Y-62303764D02*
X195614098Y-62375193D01*
X195614098Y-62375193D02*
X195471241Y-62518050D01*
X195471241Y-62518050D02*
X195399812Y-62803764D01*
X195399812Y-62803764D02*
X195399812Y-63303764D01*
X195399812Y-63303764D02*
X195471241Y-63589478D01*
X195471241Y-63589478D02*
X195614098Y-63732336D01*
X195614098Y-63732336D02*
X195756955Y-63803764D01*
X195756955Y-63803764D02*
X196042669Y-63803764D01*
X196042669Y-63803764D02*
X196185527Y-63732336D01*
X196185527Y-63732336D02*
X196328384Y-63589478D01*
X196328384Y-63589478D02*
X196399812Y-63303764D01*
X196399812Y-63303764D02*
X196399812Y-62803764D01*
X196399812Y-62803764D02*
X196328384Y-62518050D01*
X196328384Y-62518050D02*
X196185527Y-62375193D01*
X196185527Y-62375193D02*
X196042669Y-62303764D01*
X194899812Y-62803764D02*
X194614098Y-63803764D01*
X194614098Y-63803764D02*
X194328383Y-63089478D01*
X194328383Y-63089478D02*
X194042669Y-63803764D01*
X194042669Y-63803764D02*
X193756955Y-62803764D01*
X192614097Y-63732336D02*
X192756954Y-63803764D01*
X192756954Y-63803764D02*
X193042669Y-63803764D01*
X193042669Y-63803764D02*
X193185526Y-63732336D01*
X193185526Y-63732336D02*
X193256954Y-63589478D01*
X193256954Y-63589478D02*
X193256954Y-63018050D01*
X193256954Y-63018050D02*
X193185526Y-62875193D01*
X193185526Y-62875193D02*
X193042669Y-62803764D01*
X193042669Y-62803764D02*
X192756954Y-62803764D01*
X192756954Y-62803764D02*
X192614097Y-62875193D01*
X192614097Y-62875193D02*
X192542669Y-63018050D01*
X192542669Y-63018050D02*
X192542669Y-63160907D01*
X192542669Y-63160907D02*
X193256954Y-63303764D01*
X191899812Y-62803764D02*
X191899812Y-63803764D01*
X191899812Y-62946621D02*
X191828383Y-62875193D01*
X191828383Y-62875193D02*
X191685526Y-62803764D01*
X191685526Y-62803764D02*
X191471240Y-62803764D01*
X191471240Y-62803764D02*
X191328383Y-62875193D01*
X191328383Y-62875193D02*
X191256955Y-63018050D01*
X191256955Y-63018050D02*
X191256955Y-63803764D01*
X189399812Y-63803764D02*
X189399812Y-62303764D01*
X189399812Y-62303764D02*
X188899812Y-63375193D01*
X188899812Y-63375193D02*
X188399812Y-62303764D01*
X188399812Y-62303764D02*
X188399812Y-63803764D01*
X187042669Y-63803764D02*
X187042669Y-63018050D01*
X187042669Y-63018050D02*
X187114097Y-62875193D01*
X187114097Y-62875193D02*
X187256954Y-62803764D01*
X187256954Y-62803764D02*
X187542669Y-62803764D01*
X187542669Y-62803764D02*
X187685526Y-62875193D01*
X187042669Y-63732336D02*
X187185526Y-63803764D01*
X187185526Y-63803764D02*
X187542669Y-63803764D01*
X187542669Y-63803764D02*
X187685526Y-63732336D01*
X187685526Y-63732336D02*
X187756954Y-63589478D01*
X187756954Y-63589478D02*
X187756954Y-63446621D01*
X187756954Y-63446621D02*
X187685526Y-63303764D01*
X187685526Y-63303764D02*
X187542669Y-63232336D01*
X187542669Y-63232336D02*
X187185526Y-63232336D01*
X187185526Y-63232336D02*
X187042669Y-63160907D01*
X185685526Y-63732336D02*
X185828383Y-63803764D01*
X185828383Y-63803764D02*
X186114097Y-63803764D01*
X186114097Y-63803764D02*
X186256954Y-63732336D01*
X186256954Y-63732336D02*
X186328383Y-63660907D01*
X186328383Y-63660907D02*
X186399811Y-63518050D01*
X186399811Y-63518050D02*
X186399811Y-63089478D01*
X186399811Y-63089478D02*
X186328383Y-62946621D01*
X186328383Y-62946621D02*
X186256954Y-62875193D01*
X186256954Y-62875193D02*
X186114097Y-62803764D01*
X186114097Y-62803764D02*
X185828383Y-62803764D01*
X185828383Y-62803764D02*
X185685526Y-62875193D01*
X185042669Y-63803764D02*
X185042669Y-62303764D01*
X184328383Y-62803764D02*
X184328383Y-63803764D01*
X184328383Y-62946621D02*
X184256954Y-62875193D01*
X184256954Y-62875193D02*
X184114097Y-62803764D01*
X184114097Y-62803764D02*
X183899811Y-62803764D01*
X183899811Y-62803764D02*
X183756954Y-62875193D01*
X183756954Y-62875193D02*
X183685526Y-63018050D01*
X183685526Y-63018050D02*
X183685526Y-63803764D01*
X183185525Y-62803764D02*
X182614097Y-62803764D01*
X182971240Y-62303764D02*
X182971240Y-63589478D01*
X182971240Y-63589478D02*
X182899811Y-63732336D01*
X182899811Y-63732336D02*
X182756954Y-63803764D01*
X182756954Y-63803764D02*
X182614097Y-63803764D01*
X181899811Y-63803764D02*
X182042668Y-63732336D01*
X182042668Y-63732336D02*
X182114097Y-63660907D01*
X182114097Y-63660907D02*
X182185525Y-63518050D01*
X182185525Y-63518050D02*
X182185525Y-63089478D01*
X182185525Y-63089478D02*
X182114097Y-62946621D01*
X182114097Y-62946621D02*
X182042668Y-62875193D01*
X182042668Y-62875193D02*
X181899811Y-62803764D01*
X181899811Y-62803764D02*
X181685525Y-62803764D01*
X181685525Y-62803764D02*
X181542668Y-62875193D01*
X181542668Y-62875193D02*
X181471240Y-62946621D01*
X181471240Y-62946621D02*
X181399811Y-63089478D01*
X181399811Y-63089478D02*
X181399811Y-63518050D01*
X181399811Y-63518050D02*
X181471240Y-63660907D01*
X181471240Y-63660907D02*
X181542668Y-63732336D01*
X181542668Y-63732336D02*
X181685525Y-63803764D01*
X181685525Y-63803764D02*
X181899811Y-63803764D01*
X180828382Y-63732336D02*
X180685525Y-63803764D01*
X180685525Y-63803764D02*
X180399811Y-63803764D01*
X180399811Y-63803764D02*
X180256954Y-63732336D01*
X180256954Y-63732336D02*
X180185525Y-63589478D01*
X180185525Y-63589478D02*
X180185525Y-63518050D01*
X180185525Y-63518050D02*
X180256954Y-63375193D01*
X180256954Y-63375193D02*
X180399811Y-63303764D01*
X180399811Y-63303764D02*
X180614097Y-63303764D01*
X180614097Y-63303764D02*
X180756954Y-63232336D01*
X180756954Y-63232336D02*
X180828382Y-63089478D01*
X180828382Y-63089478D02*
X180828382Y-63018050D01*
X180828382Y-63018050D02*
X180756954Y-62875193D01*
X180756954Y-62875193D02*
X180614097Y-62803764D01*
X180614097Y-62803764D02*
X180399811Y-62803764D01*
X180399811Y-62803764D02*
X180256954Y-62875193D01*
X179542668Y-63803764D02*
X179542668Y-62303764D01*
X178899811Y-63803764D02*
X178899811Y-63018050D01*
X178899811Y-63018050D02*
X178971239Y-62875193D01*
X178971239Y-62875193D02*
X179114096Y-62803764D01*
X179114096Y-62803764D02*
X179328382Y-62803764D01*
X179328382Y-62803764D02*
X179471239Y-62875193D01*
X179471239Y-62875193D02*
X179542668Y-62946621D01*
X195471241Y-66075823D02*
X195542669Y-66147252D01*
X195542669Y-66147252D02*
X195756955Y-66218680D01*
X195756955Y-66218680D02*
X195899812Y-66218680D01*
X195899812Y-66218680D02*
X196114098Y-66147252D01*
X196114098Y-66147252D02*
X196256955Y-66004394D01*
X196256955Y-66004394D02*
X196328384Y-65861537D01*
X196328384Y-65861537D02*
X196399812Y-65575823D01*
X196399812Y-65575823D02*
X196399812Y-65361537D01*
X196399812Y-65361537D02*
X196328384Y-65075823D01*
X196328384Y-65075823D02*
X196256955Y-64932966D01*
X196256955Y-64932966D02*
X196114098Y-64790109D01*
X196114098Y-64790109D02*
X195899812Y-64718680D01*
X195899812Y-64718680D02*
X195756955Y-64718680D01*
X195756955Y-64718680D02*
X195542669Y-64790109D01*
X195542669Y-64790109D02*
X195471241Y-64861537D01*
X194185527Y-66218680D02*
X194185527Y-65432966D01*
X194185527Y-65432966D02*
X194256955Y-65290109D01*
X194256955Y-65290109D02*
X194399812Y-65218680D01*
X194399812Y-65218680D02*
X194685527Y-65218680D01*
X194685527Y-65218680D02*
X194828384Y-65290109D01*
X194185527Y-66147252D02*
X194328384Y-66218680D01*
X194328384Y-66218680D02*
X194685527Y-66218680D01*
X194685527Y-66218680D02*
X194828384Y-66147252D01*
X194828384Y-66147252D02*
X194899812Y-66004394D01*
X194899812Y-66004394D02*
X194899812Y-65861537D01*
X194899812Y-65861537D02*
X194828384Y-65718680D01*
X194828384Y-65718680D02*
X194685527Y-65647252D01*
X194685527Y-65647252D02*
X194328384Y-65647252D01*
X194328384Y-65647252D02*
X194185527Y-65575823D01*
X193471241Y-66218680D02*
X193471241Y-65218680D01*
X193471241Y-65504394D02*
X193399812Y-65361537D01*
X193399812Y-65361537D02*
X193328384Y-65290109D01*
X193328384Y-65290109D02*
X193185526Y-65218680D01*
X193185526Y-65218680D02*
X193042669Y-65218680D01*
X192756955Y-65218680D02*
X192185527Y-65218680D01*
X192542670Y-64718680D02*
X192542670Y-66004394D01*
X192542670Y-66004394D02*
X192471241Y-66147252D01*
X192471241Y-66147252D02*
X192328384Y-66218680D01*
X192328384Y-66218680D02*
X192185527Y-66218680D01*
X191114098Y-66147252D02*
X191256955Y-66218680D01*
X191256955Y-66218680D02*
X191542670Y-66218680D01*
X191542670Y-66218680D02*
X191685527Y-66147252D01*
X191685527Y-66147252D02*
X191756955Y-66004394D01*
X191756955Y-66004394D02*
X191756955Y-65432966D01*
X191756955Y-65432966D02*
X191685527Y-65290109D01*
X191685527Y-65290109D02*
X191542670Y-65218680D01*
X191542670Y-65218680D02*
X191256955Y-65218680D01*
X191256955Y-65218680D02*
X191114098Y-65290109D01*
X191114098Y-65290109D02*
X191042670Y-65432966D01*
X191042670Y-65432966D02*
X191042670Y-65575823D01*
X191042670Y-65575823D02*
X191756955Y-65718680D01*
X190399813Y-66218680D02*
X190399813Y-65218680D01*
X190399813Y-65504394D02*
X190328384Y-65361537D01*
X190328384Y-65361537D02*
X190256956Y-65290109D01*
X190256956Y-65290109D02*
X190114098Y-65218680D01*
X190114098Y-65218680D02*
X189971241Y-65218680D01*
X187614099Y-66218680D02*
X188328385Y-66218680D01*
X188328385Y-66218680D02*
X188328385Y-64718680D01*
X187114099Y-66218680D02*
X187114099Y-65218680D01*
X187114099Y-64718680D02*
X187185527Y-64790109D01*
X187185527Y-64790109D02*
X187114099Y-64861537D01*
X187114099Y-64861537D02*
X187042670Y-64790109D01*
X187042670Y-64790109D02*
X187114099Y-64718680D01*
X187114099Y-64718680D02*
X187114099Y-64861537D01*
X186542670Y-65218680D02*
X186185527Y-66218680D01*
X186185527Y-66218680D02*
X185828384Y-65218680D01*
X184685527Y-66147252D02*
X184828384Y-66218680D01*
X184828384Y-66218680D02*
X185114099Y-66218680D01*
X185114099Y-66218680D02*
X185256956Y-66147252D01*
X185256956Y-66147252D02*
X185328384Y-66004394D01*
X185328384Y-66004394D02*
X185328384Y-65432966D01*
X185328384Y-65432966D02*
X185256956Y-65290109D01*
X185256956Y-65290109D02*
X185114099Y-65218680D01*
X185114099Y-65218680D02*
X184828384Y-65218680D01*
X184828384Y-65218680D02*
X184685527Y-65290109D01*
X184685527Y-65290109D02*
X184614099Y-65432966D01*
X184614099Y-65432966D02*
X184614099Y-65575823D01*
X184614099Y-65575823D02*
X185328384Y-65718680D01*
X183971242Y-66218680D02*
X183971242Y-65218680D01*
X183971242Y-65504394D02*
X183899813Y-65361537D01*
X183899813Y-65361537D02*
X183828385Y-65290109D01*
X183828385Y-65290109D02*
X183685527Y-65218680D01*
X183685527Y-65218680D02*
X183542670Y-65218680D01*
X183042671Y-66218680D02*
X183042671Y-65218680D01*
X183042671Y-65361537D02*
X182971242Y-65290109D01*
X182971242Y-65290109D02*
X182828385Y-65218680D01*
X182828385Y-65218680D02*
X182614099Y-65218680D01*
X182614099Y-65218680D02*
X182471242Y-65290109D01*
X182471242Y-65290109D02*
X182399814Y-65432966D01*
X182399814Y-65432966D02*
X182399814Y-66218680D01*
X182399814Y-65432966D02*
X182328385Y-65290109D01*
X182328385Y-65290109D02*
X182185528Y-65218680D01*
X182185528Y-65218680D02*
X181971242Y-65218680D01*
X181971242Y-65218680D02*
X181828385Y-65290109D01*
X181828385Y-65290109D02*
X181756956Y-65432966D01*
X181756956Y-65432966D02*
X181756956Y-66218680D01*
X180828385Y-66218680D02*
X180971242Y-66147252D01*
X180971242Y-66147252D02*
X181042671Y-66075823D01*
X181042671Y-66075823D02*
X181114099Y-65932966D01*
X181114099Y-65932966D02*
X181114099Y-65504394D01*
X181114099Y-65504394D02*
X181042671Y-65361537D01*
X181042671Y-65361537D02*
X180971242Y-65290109D01*
X180971242Y-65290109D02*
X180828385Y-65218680D01*
X180828385Y-65218680D02*
X180614099Y-65218680D01*
X180614099Y-65218680D02*
X180471242Y-65290109D01*
X180471242Y-65290109D02*
X180399814Y-65361537D01*
X180399814Y-65361537D02*
X180328385Y-65504394D01*
X180328385Y-65504394D02*
X180328385Y-65932966D01*
X180328385Y-65932966D02*
X180399814Y-66075823D01*
X180399814Y-66075823D02*
X180471242Y-66147252D01*
X180471242Y-66147252D02*
X180614099Y-66218680D01*
X180614099Y-66218680D02*
X180828385Y-66218680D01*
X179685528Y-66218680D02*
X179685528Y-65218680D01*
X179685528Y-65504394D02*
X179614099Y-65361537D01*
X179614099Y-65361537D02*
X179542671Y-65290109D01*
X179542671Y-65290109D02*
X179399813Y-65218680D01*
X179399813Y-65218680D02*
X179256956Y-65218680D01*
X178185528Y-66147252D02*
X178328385Y-66218680D01*
X178328385Y-66218680D02*
X178614100Y-66218680D01*
X178614100Y-66218680D02*
X178756957Y-66147252D01*
X178756957Y-66147252D02*
X178828385Y-66004394D01*
X178828385Y-66004394D02*
X178828385Y-65432966D01*
X178828385Y-65432966D02*
X178756957Y-65290109D01*
X178756957Y-65290109D02*
X178614100Y-65218680D01*
X178614100Y-65218680D02*
X178328385Y-65218680D01*
X178328385Y-65218680D02*
X178185528Y-65290109D01*
X178185528Y-65290109D02*
X178114100Y-65432966D01*
X178114100Y-65432966D02*
X178114100Y-65575823D01*
X178114100Y-65575823D02*
X178828385Y-65718680D01*
X195828384Y-70262798D02*
X195614098Y-70334226D01*
X195614098Y-70334226D02*
X195542669Y-70405655D01*
X195542669Y-70405655D02*
X195471241Y-70548512D01*
X195471241Y-70548512D02*
X195471241Y-70762798D01*
X195471241Y-70762798D02*
X195542669Y-70905655D01*
X195542669Y-70905655D02*
X195614098Y-70977084D01*
X195614098Y-70977084D02*
X195756955Y-71048512D01*
X195756955Y-71048512D02*
X196328384Y-71048512D01*
X196328384Y-71048512D02*
X196328384Y-69548512D01*
X196328384Y-69548512D02*
X195828384Y-69548512D01*
X195828384Y-69548512D02*
X195685527Y-69619941D01*
X195685527Y-69619941D02*
X195614098Y-69691369D01*
X195614098Y-69691369D02*
X195542669Y-69834226D01*
X195542669Y-69834226D02*
X195542669Y-69977084D01*
X195542669Y-69977084D02*
X195614098Y-70119941D01*
X195614098Y-70119941D02*
X195685527Y-70191369D01*
X195685527Y-70191369D02*
X195828384Y-70262798D01*
X195828384Y-70262798D02*
X196328384Y-70262798D01*
X194614098Y-71048512D02*
X194756955Y-70977084D01*
X194756955Y-70977084D02*
X194828384Y-70905655D01*
X194828384Y-70905655D02*
X194899812Y-70762798D01*
X194899812Y-70762798D02*
X194899812Y-70334226D01*
X194899812Y-70334226D02*
X194828384Y-70191369D01*
X194828384Y-70191369D02*
X194756955Y-70119941D01*
X194756955Y-70119941D02*
X194614098Y-70048512D01*
X194614098Y-70048512D02*
X194399812Y-70048512D01*
X194399812Y-70048512D02*
X194256955Y-70119941D01*
X194256955Y-70119941D02*
X194185527Y-70191369D01*
X194185527Y-70191369D02*
X194114098Y-70334226D01*
X194114098Y-70334226D02*
X194114098Y-70762798D01*
X194114098Y-70762798D02*
X194185527Y-70905655D01*
X194185527Y-70905655D02*
X194256955Y-70977084D01*
X194256955Y-70977084D02*
X194399812Y-71048512D01*
X194399812Y-71048512D02*
X194614098Y-71048512D01*
X192828384Y-71048512D02*
X192828384Y-70262798D01*
X192828384Y-70262798D02*
X192899812Y-70119941D01*
X192899812Y-70119941D02*
X193042669Y-70048512D01*
X193042669Y-70048512D02*
X193328384Y-70048512D01*
X193328384Y-70048512D02*
X193471241Y-70119941D01*
X192828384Y-70977084D02*
X192971241Y-71048512D01*
X192971241Y-71048512D02*
X193328384Y-71048512D01*
X193328384Y-71048512D02*
X193471241Y-70977084D01*
X193471241Y-70977084D02*
X193542669Y-70834226D01*
X193542669Y-70834226D02*
X193542669Y-70691369D01*
X193542669Y-70691369D02*
X193471241Y-70548512D01*
X193471241Y-70548512D02*
X193328384Y-70477084D01*
X193328384Y-70477084D02*
X192971241Y-70477084D01*
X192971241Y-70477084D02*
X192828384Y-70405655D01*
X192114098Y-71048512D02*
X192114098Y-70048512D01*
X192114098Y-70334226D02*
X192042669Y-70191369D01*
X192042669Y-70191369D02*
X191971241Y-70119941D01*
X191971241Y-70119941D02*
X191828383Y-70048512D01*
X191828383Y-70048512D02*
X191685526Y-70048512D01*
X190542670Y-71048512D02*
X190542670Y-69548512D01*
X190542670Y-70977084D02*
X190685527Y-71048512D01*
X190685527Y-71048512D02*
X190971241Y-71048512D01*
X190971241Y-71048512D02*
X191114098Y-70977084D01*
X191114098Y-70977084D02*
X191185527Y-70905655D01*
X191185527Y-70905655D02*
X191256955Y-70762798D01*
X191256955Y-70762798D02*
X191256955Y-70334226D01*
X191256955Y-70334226D02*
X191185527Y-70191369D01*
X191185527Y-70191369D02*
X191114098Y-70119941D01*
X191114098Y-70119941D02*
X190971241Y-70048512D01*
X190971241Y-70048512D02*
X190685527Y-70048512D01*
X190685527Y-70048512D02*
X190542670Y-70119941D01*
X188685527Y-71048512D02*
X188685527Y-69548512D01*
X188685527Y-69548512D02*
X188328384Y-69548512D01*
X188328384Y-69548512D02*
X188114098Y-69619941D01*
X188114098Y-69619941D02*
X187971241Y-69762798D01*
X187971241Y-69762798D02*
X187899812Y-69905655D01*
X187899812Y-69905655D02*
X187828384Y-70191369D01*
X187828384Y-70191369D02*
X187828384Y-70405655D01*
X187828384Y-70405655D02*
X187899812Y-70691369D01*
X187899812Y-70691369D02*
X187971241Y-70834226D01*
X187971241Y-70834226D02*
X188114098Y-70977084D01*
X188114098Y-70977084D02*
X188328384Y-71048512D01*
X188328384Y-71048512D02*
X188685527Y-71048512D01*
X186614098Y-70977084D02*
X186756955Y-71048512D01*
X186756955Y-71048512D02*
X187042670Y-71048512D01*
X187042670Y-71048512D02*
X187185527Y-70977084D01*
X187185527Y-70977084D02*
X187256955Y-70834226D01*
X187256955Y-70834226D02*
X187256955Y-70262798D01*
X187256955Y-70262798D02*
X187185527Y-70119941D01*
X187185527Y-70119941D02*
X187042670Y-70048512D01*
X187042670Y-70048512D02*
X186756955Y-70048512D01*
X186756955Y-70048512D02*
X186614098Y-70119941D01*
X186614098Y-70119941D02*
X186542670Y-70262798D01*
X186542670Y-70262798D02*
X186542670Y-70405655D01*
X186542670Y-70405655D02*
X187256955Y-70548512D01*
X185971241Y-70977084D02*
X185828384Y-71048512D01*
X185828384Y-71048512D02*
X185542670Y-71048512D01*
X185542670Y-71048512D02*
X185399813Y-70977084D01*
X185399813Y-70977084D02*
X185328384Y-70834226D01*
X185328384Y-70834226D02*
X185328384Y-70762798D01*
X185328384Y-70762798D02*
X185399813Y-70619941D01*
X185399813Y-70619941D02*
X185542670Y-70548512D01*
X185542670Y-70548512D02*
X185756956Y-70548512D01*
X185756956Y-70548512D02*
X185899813Y-70477084D01*
X185899813Y-70477084D02*
X185971241Y-70334226D01*
X185971241Y-70334226D02*
X185971241Y-70262798D01*
X185971241Y-70262798D02*
X185899813Y-70119941D01*
X185899813Y-70119941D02*
X185756956Y-70048512D01*
X185756956Y-70048512D02*
X185542670Y-70048512D01*
X185542670Y-70048512D02*
X185399813Y-70119941D01*
X184685527Y-71048512D02*
X184685527Y-70048512D01*
X184685527Y-69548512D02*
X184756955Y-69619941D01*
X184756955Y-69619941D02*
X184685527Y-69691369D01*
X184685527Y-69691369D02*
X184614098Y-69619941D01*
X184614098Y-69619941D02*
X184685527Y-69548512D01*
X184685527Y-69548512D02*
X184685527Y-69691369D01*
X183328384Y-70048512D02*
X183328384Y-71262798D01*
X183328384Y-71262798D02*
X183399812Y-71405655D01*
X183399812Y-71405655D02*
X183471241Y-71477084D01*
X183471241Y-71477084D02*
X183614098Y-71548512D01*
X183614098Y-71548512D02*
X183828384Y-71548512D01*
X183828384Y-71548512D02*
X183971241Y-71477084D01*
X183328384Y-70977084D02*
X183471241Y-71048512D01*
X183471241Y-71048512D02*
X183756955Y-71048512D01*
X183756955Y-71048512D02*
X183899812Y-70977084D01*
X183899812Y-70977084D02*
X183971241Y-70905655D01*
X183971241Y-70905655D02*
X184042669Y-70762798D01*
X184042669Y-70762798D02*
X184042669Y-70334226D01*
X184042669Y-70334226D02*
X183971241Y-70191369D01*
X183971241Y-70191369D02*
X183899812Y-70119941D01*
X183899812Y-70119941D02*
X183756955Y-70048512D01*
X183756955Y-70048512D02*
X183471241Y-70048512D01*
X183471241Y-70048512D02*
X183328384Y-70119941D01*
X182614098Y-70048512D02*
X182614098Y-71048512D01*
X182614098Y-70191369D02*
X182542669Y-70119941D01*
X182542669Y-70119941D02*
X182399812Y-70048512D01*
X182399812Y-70048512D02*
X182185526Y-70048512D01*
X182185526Y-70048512D02*
X182042669Y-70119941D01*
X182042669Y-70119941D02*
X181971241Y-70262798D01*
X181971241Y-70262798D02*
X181971241Y-71048512D01*
X179614098Y-70262798D02*
X179399812Y-70334226D01*
X179399812Y-70334226D02*
X179328383Y-70405655D01*
X179328383Y-70405655D02*
X179256955Y-70548512D01*
X179256955Y-70548512D02*
X179256955Y-70762798D01*
X179256955Y-70762798D02*
X179328383Y-70905655D01*
X179328383Y-70905655D02*
X179399812Y-70977084D01*
X179399812Y-70977084D02*
X179542669Y-71048512D01*
X179542669Y-71048512D02*
X180114098Y-71048512D01*
X180114098Y-71048512D02*
X180114098Y-69548512D01*
X180114098Y-69548512D02*
X179614098Y-69548512D01*
X179614098Y-69548512D02*
X179471241Y-69619941D01*
X179471241Y-69619941D02*
X179399812Y-69691369D01*
X179399812Y-69691369D02*
X179328383Y-69834226D01*
X179328383Y-69834226D02*
X179328383Y-69977084D01*
X179328383Y-69977084D02*
X179399812Y-70119941D01*
X179399812Y-70119941D02*
X179471241Y-70191369D01*
X179471241Y-70191369D02*
X179614098Y-70262798D01*
X179614098Y-70262798D02*
X180114098Y-70262798D01*
X178756955Y-70048512D02*
X178399812Y-71048512D01*
X178042669Y-70048512D02*
X178399812Y-71048512D01*
X178399812Y-71048512D02*
X178542669Y-71405655D01*
X178542669Y-71405655D02*
X178614098Y-71477084D01*
X178614098Y-71477084D02*
X178756955Y-71548512D01*
X177471241Y-70905655D02*
X177399812Y-70977084D01*
X177399812Y-70977084D02*
X177471241Y-71048512D01*
X177471241Y-71048512D02*
X177542669Y-70977084D01*
X177542669Y-70977084D02*
X177471241Y-70905655D01*
X177471241Y-70905655D02*
X177471241Y-71048512D01*
X177471241Y-70119941D02*
X177399812Y-70191369D01*
X177399812Y-70191369D02*
X177471241Y-70262798D01*
X177471241Y-70262798D02*
X177542669Y-70191369D01*
X177542669Y-70191369D02*
X177471241Y-70119941D01*
X177471241Y-70119941D02*
X177471241Y-70262798D01*
X196042669Y-71963428D02*
X195756955Y-71963428D01*
X195756955Y-71963428D02*
X195614098Y-72034857D01*
X195614098Y-72034857D02*
X195471241Y-72177714D01*
X195471241Y-72177714D02*
X195399812Y-72463428D01*
X195399812Y-72463428D02*
X195399812Y-72963428D01*
X195399812Y-72963428D02*
X195471241Y-73249142D01*
X195471241Y-73249142D02*
X195614098Y-73392000D01*
X195614098Y-73392000D02*
X195756955Y-73463428D01*
X195756955Y-73463428D02*
X196042669Y-73463428D01*
X196042669Y-73463428D02*
X196185527Y-73392000D01*
X196185527Y-73392000D02*
X196328384Y-73249142D01*
X196328384Y-73249142D02*
X196399812Y-72963428D01*
X196399812Y-72963428D02*
X196399812Y-72463428D01*
X196399812Y-72463428D02*
X196328384Y-72177714D01*
X196328384Y-72177714D02*
X196185527Y-72034857D01*
X196185527Y-72034857D02*
X196042669Y-71963428D01*
X194899812Y-72463428D02*
X194614098Y-73463428D01*
X194614098Y-73463428D02*
X194328383Y-72749142D01*
X194328383Y-72749142D02*
X194042669Y-73463428D01*
X194042669Y-73463428D02*
X193756955Y-72463428D01*
X192614097Y-73392000D02*
X192756954Y-73463428D01*
X192756954Y-73463428D02*
X193042669Y-73463428D01*
X193042669Y-73463428D02*
X193185526Y-73392000D01*
X193185526Y-73392000D02*
X193256954Y-73249142D01*
X193256954Y-73249142D02*
X193256954Y-72677714D01*
X193256954Y-72677714D02*
X193185526Y-72534857D01*
X193185526Y-72534857D02*
X193042669Y-72463428D01*
X193042669Y-72463428D02*
X192756954Y-72463428D01*
X192756954Y-72463428D02*
X192614097Y-72534857D01*
X192614097Y-72534857D02*
X192542669Y-72677714D01*
X192542669Y-72677714D02*
X192542669Y-72820571D01*
X192542669Y-72820571D02*
X193256954Y-72963428D01*
X191899812Y-72463428D02*
X191899812Y-73463428D01*
X191899812Y-72606285D02*
X191828383Y-72534857D01*
X191828383Y-72534857D02*
X191685526Y-72463428D01*
X191685526Y-72463428D02*
X191471240Y-72463428D01*
X191471240Y-72463428D02*
X191328383Y-72534857D01*
X191328383Y-72534857D02*
X191256955Y-72677714D01*
X191256955Y-72677714D02*
X191256955Y-73463428D01*
X189399812Y-73463428D02*
X189399812Y-71963428D01*
X189399812Y-71963428D02*
X188899812Y-73034857D01*
X188899812Y-73034857D02*
X188399812Y-71963428D01*
X188399812Y-71963428D02*
X188399812Y-73463428D01*
X187042669Y-73463428D02*
X187042669Y-72677714D01*
X187042669Y-72677714D02*
X187114097Y-72534857D01*
X187114097Y-72534857D02*
X187256954Y-72463428D01*
X187256954Y-72463428D02*
X187542669Y-72463428D01*
X187542669Y-72463428D02*
X187685526Y-72534857D01*
X187042669Y-73392000D02*
X187185526Y-73463428D01*
X187185526Y-73463428D02*
X187542669Y-73463428D01*
X187542669Y-73463428D02*
X187685526Y-73392000D01*
X187685526Y-73392000D02*
X187756954Y-73249142D01*
X187756954Y-73249142D02*
X187756954Y-73106285D01*
X187756954Y-73106285D02*
X187685526Y-72963428D01*
X187685526Y-72963428D02*
X187542669Y-72892000D01*
X187542669Y-72892000D02*
X187185526Y-72892000D01*
X187185526Y-72892000D02*
X187042669Y-72820571D01*
X185685526Y-73392000D02*
X185828383Y-73463428D01*
X185828383Y-73463428D02*
X186114097Y-73463428D01*
X186114097Y-73463428D02*
X186256954Y-73392000D01*
X186256954Y-73392000D02*
X186328383Y-73320571D01*
X186328383Y-73320571D02*
X186399811Y-73177714D01*
X186399811Y-73177714D02*
X186399811Y-72749142D01*
X186399811Y-72749142D02*
X186328383Y-72606285D01*
X186328383Y-72606285D02*
X186256954Y-72534857D01*
X186256954Y-72534857D02*
X186114097Y-72463428D01*
X186114097Y-72463428D02*
X185828383Y-72463428D01*
X185828383Y-72463428D02*
X185685526Y-72534857D01*
X185042669Y-73463428D02*
X185042669Y-71963428D01*
X184328383Y-72463428D02*
X184328383Y-73463428D01*
X184328383Y-72606285D02*
X184256954Y-72534857D01*
X184256954Y-72534857D02*
X184114097Y-72463428D01*
X184114097Y-72463428D02*
X183899811Y-72463428D01*
X183899811Y-72463428D02*
X183756954Y-72534857D01*
X183756954Y-72534857D02*
X183685526Y-72677714D01*
X183685526Y-72677714D02*
X183685526Y-73463428D01*
X183185525Y-72463428D02*
X182614097Y-72463428D01*
X182971240Y-71963428D02*
X182971240Y-73249142D01*
X182971240Y-73249142D02*
X182899811Y-73392000D01*
X182899811Y-73392000D02*
X182756954Y-73463428D01*
X182756954Y-73463428D02*
X182614097Y-73463428D01*
X181899811Y-73463428D02*
X182042668Y-73392000D01*
X182042668Y-73392000D02*
X182114097Y-73320571D01*
X182114097Y-73320571D02*
X182185525Y-73177714D01*
X182185525Y-73177714D02*
X182185525Y-72749142D01*
X182185525Y-72749142D02*
X182114097Y-72606285D01*
X182114097Y-72606285D02*
X182042668Y-72534857D01*
X182042668Y-72534857D02*
X181899811Y-72463428D01*
X181899811Y-72463428D02*
X181685525Y-72463428D01*
X181685525Y-72463428D02*
X181542668Y-72534857D01*
X181542668Y-72534857D02*
X181471240Y-72606285D01*
X181471240Y-72606285D02*
X181399811Y-72749142D01*
X181399811Y-72749142D02*
X181399811Y-73177714D01*
X181399811Y-73177714D02*
X181471240Y-73320571D01*
X181471240Y-73320571D02*
X181542668Y-73392000D01*
X181542668Y-73392000D02*
X181685525Y-73463428D01*
X181685525Y-73463428D02*
X181899811Y-73463428D01*
X180828382Y-73392000D02*
X180685525Y-73463428D01*
X180685525Y-73463428D02*
X180399811Y-73463428D01*
X180399811Y-73463428D02*
X180256954Y-73392000D01*
X180256954Y-73392000D02*
X180185525Y-73249142D01*
X180185525Y-73249142D02*
X180185525Y-73177714D01*
X180185525Y-73177714D02*
X180256954Y-73034857D01*
X180256954Y-73034857D02*
X180399811Y-72963428D01*
X180399811Y-72963428D02*
X180614097Y-72963428D01*
X180614097Y-72963428D02*
X180756954Y-72892000D01*
X180756954Y-72892000D02*
X180828382Y-72749142D01*
X180828382Y-72749142D02*
X180828382Y-72677714D01*
X180828382Y-72677714D02*
X180756954Y-72534857D01*
X180756954Y-72534857D02*
X180614097Y-72463428D01*
X180614097Y-72463428D02*
X180399811Y-72463428D01*
X180399811Y-72463428D02*
X180256954Y-72534857D01*
X179542668Y-73463428D02*
X179542668Y-71963428D01*
X178899811Y-73463428D02*
X178899811Y-72677714D01*
X178899811Y-72677714D02*
X178971239Y-72534857D01*
X178971239Y-72534857D02*
X179114096Y-72463428D01*
X179114096Y-72463428D02*
X179328382Y-72463428D01*
X179328382Y-72463428D02*
X179471239Y-72534857D01*
X179471239Y-72534857D02*
X179542668Y-72606285D01*
M02*
