%TF.GenerationSoftware,KiCad,Pcbnew,8.0.5*%
%TF.CreationDate,2024-11-18T16:18:54-05:00*%
%TF.ProjectId,CapstoneMCU,43617073-746f-46e6-954d-43552e6b6963,rev?*%
%TF.SameCoordinates,Original*%
%TF.FileFunction,Soldermask,Bot*%
%TF.FilePolarity,Negative*%
%FSLAX46Y46*%
G04 Gerber Fmt 4.6, Leading zero omitted, Abs format (unit mm)*
G04 Created by KiCad (PCBNEW 8.0.5) date 2024-11-18 16:18:54*
%MOMM*%
%LPD*%
G01*
G04 APERTURE LIST*
%ADD10R,1.700000X1.700000*%
%ADD11O,1.700000X1.700000*%
%ADD12C,3.500000*%
%ADD13C,1.752600*%
%ADD14C,1.600000*%
G04 APERTURE END LIST*
D10*
%TO.C,3V3*%
X159131000Y-66548000D03*
D11*
X159131000Y-69088000D03*
%TD*%
D10*
%TO.C,5V*%
X159258000Y-57145000D03*
D11*
X159258000Y-59685000D03*
%TD*%
D12*
%TO.C,REF\u002A\u002A*%
X160528000Y-111506000D03*
%TD*%
%TO.C,REF\u002A\u002A*%
X147574000Y-46482000D03*
%TD*%
%TO.C,REF\u002A\u002A*%
X199136000Y-46482000D03*
%TD*%
D10*
%TO.C,3V3*%
X151765000Y-66548000D03*
D11*
X151765000Y-69088000D03*
%TD*%
D10*
%TO.C,5V*%
X151638000Y-57145000D03*
D11*
X151638000Y-59685000D03*
%TD*%
D13*
%TO.C,U1*%
X164592000Y-97028000D03*
X167132000Y-97028000D03*
X169672000Y-97028000D03*
X172212000Y-97028000D03*
X174752000Y-97028000D03*
X177292000Y-97028000D03*
X179832000Y-97028000D03*
X182372000Y-97028000D03*
X184912000Y-97028000D03*
X187452000Y-97028000D03*
X189992000Y-97028000D03*
X192532000Y-97028000D03*
X164592000Y-79248000D03*
X167132000Y-79248000D03*
X169672000Y-79248000D03*
X172212000Y-79248000D03*
X174752000Y-79248000D03*
X177292000Y-79248000D03*
X179832000Y-79248000D03*
X182372000Y-79248000D03*
X184912000Y-79248000D03*
X187452000Y-79248000D03*
X189992000Y-79248000D03*
X192532000Y-79248000D03*
%TD*%
D12*
%TO.C,REF\u002A\u002A*%
X193802000Y-111506000D03*
%TD*%
D10*
%TO.C,USART*%
X199136000Y-108966000D03*
D11*
X199136000Y-106426000D03*
%TD*%
D10*
%TO.C,GPIO*%
X173482000Y-107442000D03*
D11*
X176022000Y-107442000D03*
X178562000Y-107442000D03*
X181102000Y-107442000D03*
X183642000Y-107442000D03*
X186182000Y-107442000D03*
X188722000Y-107442000D03*
X191262000Y-107442000D03*
%TD*%
D10*
%TO.C,FILTER OUTPUT*%
X167137000Y-107188000D03*
D11*
X164597000Y-107188000D03*
%TD*%
D14*
%TO.C,U2*%
X174752000Y-49784000D03*
X174752000Y-52324000D03*
X174752000Y-54864000D03*
X174752000Y-57404000D03*
X174752000Y-59944000D03*
X174752000Y-62484000D03*
X174752000Y-65024000D03*
X174752000Y-67564000D03*
X174752000Y-70104000D03*
%TD*%
M02*
