%TF.GenerationSoftware,KiCad,Pcbnew,8.0.5*%
%TF.CreationDate,2024-11-18T16:18:53-05:00*%
%TF.ProjectId,CapstoneMCU,43617073-746f-46e6-954d-43552e6b6963,rev?*%
%TF.SameCoordinates,Original*%
%TF.FileFunction,Copper,L3,Inr*%
%TF.FilePolarity,Positive*%
%FSLAX46Y46*%
G04 Gerber Fmt 4.6, Leading zero omitted, Abs format (unit mm)*
G04 Created by KiCad (PCBNEW 8.0.5) date 2024-11-18 16:18:53*
%MOMM*%
%LPD*%
G01*
G04 APERTURE LIST*
%TA.AperFunction,ComponentPad*%
%ADD10R,1.700000X1.700000*%
%TD*%
%TA.AperFunction,ComponentPad*%
%ADD11O,1.700000X1.700000*%
%TD*%
%TA.AperFunction,ComponentPad*%
%ADD12C,3.500000*%
%TD*%
%TA.AperFunction,ComponentPad*%
%ADD13C,1.651000*%
%TD*%
%TA.AperFunction,ComponentPad*%
%ADD14C,1.600000*%
%TD*%
%TA.AperFunction,ViaPad*%
%ADD15C,0.600000*%
%TD*%
G04 APERTURE END LIST*
D10*
%TO.N,/3V3*%
%TO.C,3V3*%
X159131000Y-66548000D03*
D11*
%TO.N,/GND*%
X159131000Y-69088000D03*
%TD*%
D10*
%TO.N,/5V*%
%TO.C,5V*%
X159258000Y-57145000D03*
D11*
%TO.N,/GND*%
X159258000Y-59685000D03*
%TD*%
D12*
%TO.N,/GND*%
%TO.C,REF\u002A\u002A*%
X160528000Y-111506000D03*
%TD*%
%TO.N,/GND*%
%TO.C,REF\u002A\u002A*%
X147574000Y-46482000D03*
%TD*%
%TO.N,/GND*%
%TO.C,REF\u002A\u002A*%
X199136000Y-46482000D03*
%TD*%
D10*
%TO.N,/3V3*%
%TO.C,3V3*%
X151765000Y-66548000D03*
D11*
%TO.N,/GND*%
X151765000Y-69088000D03*
%TD*%
D10*
%TO.N,/5V*%
%TO.C,5V*%
X151638000Y-57145000D03*
D11*
%TO.N,/GND*%
X151638000Y-59685000D03*
%TD*%
D13*
%TO.N,/GND*%
%TO.C,U1*%
X164592000Y-97028000D03*
%TO.N,/PB15{slash}SCL*%
X167132000Y-97028000D03*
%TO.N,/PA15{slash}SDA*%
X169672000Y-97028000D03*
%TO.N,/PB4{slash}A4*%
X172212000Y-97028000D03*
%TO.N,/PB3{slash}A3*%
X174752000Y-97028000D03*
%TO.N,unconnected-(U1-PB7-Pad6)*%
X177292000Y-97028000D03*
%TO.N,unconnected-(U1-PB6-Pad7)*%
X179832000Y-97028000D03*
%TO.N,/PA0*%
X182372000Y-97028000D03*
%TO.N,/PC0*%
X184912000Y-97028000D03*
%TO.N,/PC1*%
X187452000Y-97028000D03*
%TO.N,/USART_RX*%
X189992000Y-97028000D03*
%TO.N,/USART_TX*%
X192532000Y-97028000D03*
%TO.N,unconnected-(U1-5V-Pad13)*%
X164592000Y-79248000D03*
%TO.N,/VCC_JTAG*%
X167132000Y-79248000D03*
%TO.N,/SWDIO*%
X169672000Y-79248000D03*
%TO.N,/SWCLK*%
X172212000Y-79248000D03*
%TO.N,unconnected-(U1-RST-Pad17)*%
X174752000Y-79248000D03*
%TO.N,/GND*%
X177292000Y-79248000D03*
%TO.N,/MOSI*%
X179832000Y-79248000D03*
%TO.N,/MISO*%
X182372000Y-79248000D03*
%TO.N,/NSS*%
X184912000Y-79248000D03*
%TO.N,/SCK*%
X187452000Y-79248000D03*
%TO.N,/PB10*%
X189992000Y-79248000D03*
%TO.N,/PA9*%
X192532000Y-79248000D03*
%TD*%
D12*
%TO.N,/GND*%
%TO.C,REF\u002A\u002A*%
X193802000Y-111506000D03*
%TD*%
D10*
%TO.N,/USART_RX*%
%TO.C,USART*%
X199136000Y-108966000D03*
D11*
%TO.N,/USART_TX*%
X199136000Y-106426000D03*
%TD*%
D10*
%TO.N,/PB15{slash}SCL*%
%TO.C,GPIO*%
X173482000Y-107442000D03*
D11*
%TO.N,/PA15{slash}SDA*%
X176022000Y-107442000D03*
%TO.N,/PB3{slash}A3*%
X178562000Y-107442000D03*
%TO.N,/PA0*%
X181102000Y-107442000D03*
%TO.N,/PC0*%
X183642000Y-107442000D03*
%TO.N,/PC1*%
X186182000Y-107442000D03*
%TO.N,/PB10*%
X188722000Y-107442000D03*
%TO.N,/PA9*%
X191262000Y-107442000D03*
%TD*%
D10*
%TO.N,/PB4{slash}A4*%
%TO.C,FILTER OUTPUT*%
X167137000Y-107188000D03*
D11*
%TO.N,/GND*%
X164597000Y-107188000D03*
%TD*%
D14*
%TO.N,/3V3*%
%TO.C,U2*%
X174752000Y-49784000D03*
%TO.N,/GND*%
X174752000Y-52324000D03*
%TO.N,/SCK*%
X174752000Y-54864000D03*
%TO.N,/MISO*%
X174752000Y-57404000D03*
%TO.N,/MOSI*%
X174752000Y-59944000D03*
%TO.N,/NSS*%
X174752000Y-62484000D03*
%TO.N,unconnected-(U2-D1-Pad7)*%
X174752000Y-65024000D03*
%TO.N,unconnected-(U2-DATA2-Pad8)*%
X174752000Y-67564000D03*
%TO.N,unconnected-(U2-DET-Pad9)*%
X174752000Y-70104000D03*
%TD*%
D15*
%TO.N,/GND*%
X154686000Y-112014000D03*
%TO.N,/VCC_JTAG*%
X148082000Y-106426000D03*
%TD*%
%TA.AperFunction,Conductor*%
%TO.N,/GND*%
G36*
X202635039Y-43199685D02*
G01*
X202680794Y-43252489D01*
X202692000Y-43304000D01*
X202692000Y-114938000D01*
X202672315Y-115005039D01*
X202619511Y-115050794D01*
X202568000Y-115062000D01*
X144650000Y-115062000D01*
X144582961Y-115042315D01*
X144537206Y-114989511D01*
X144526000Y-114938000D01*
X144526000Y-106425996D01*
X147276435Y-106425996D01*
X147276435Y-106426003D01*
X147296630Y-106605249D01*
X147296631Y-106605254D01*
X147356211Y-106775523D01*
X147427931Y-106889664D01*
X147452184Y-106928262D01*
X147579738Y-107055816D01*
X147732478Y-107151789D01*
X147889079Y-107206586D01*
X147902745Y-107211368D01*
X147902750Y-107211369D01*
X148081996Y-107231565D01*
X148082000Y-107231565D01*
X148082004Y-107231565D01*
X148261249Y-107211369D01*
X148261252Y-107211368D01*
X148261255Y-107211368D01*
X148431522Y-107151789D01*
X148584262Y-107055816D01*
X148702079Y-106937999D01*
X163266364Y-106937999D01*
X163266364Y-106938000D01*
X164163988Y-106938000D01*
X164131075Y-106995007D01*
X164097000Y-107122174D01*
X164097000Y-107253826D01*
X164131075Y-107380993D01*
X164163988Y-107438000D01*
X163266364Y-107438000D01*
X163323567Y-107651486D01*
X163323570Y-107651492D01*
X163423399Y-107865578D01*
X163558894Y-108059082D01*
X163725917Y-108226105D01*
X163919421Y-108361600D01*
X164133507Y-108461429D01*
X164133516Y-108461433D01*
X164347000Y-108518634D01*
X164347000Y-107621012D01*
X164404007Y-107653925D01*
X164531174Y-107688000D01*
X164662826Y-107688000D01*
X164789993Y-107653925D01*
X164847000Y-107621012D01*
X164847000Y-108518633D01*
X165060483Y-108461433D01*
X165060492Y-108461429D01*
X165274578Y-108361600D01*
X165468078Y-108226108D01*
X165590133Y-108104053D01*
X165651456Y-108070568D01*
X165721148Y-108075552D01*
X165777082Y-108117423D01*
X165793997Y-108148401D01*
X165843202Y-108280328D01*
X165843206Y-108280335D01*
X165929452Y-108395544D01*
X165929455Y-108395547D01*
X166044664Y-108481793D01*
X166044671Y-108481797D01*
X166179517Y-108532091D01*
X166179516Y-108532091D01*
X166186444Y-108532835D01*
X166239127Y-108538500D01*
X168034872Y-108538499D01*
X168094483Y-108532091D01*
X168229331Y-108481796D01*
X168344546Y-108395546D01*
X168430796Y-108280331D01*
X168481091Y-108145483D01*
X168487500Y-108085873D01*
X168487499Y-106544135D01*
X172131500Y-106544135D01*
X172131500Y-108339870D01*
X172131501Y-108339876D01*
X172137908Y-108399483D01*
X172188202Y-108534328D01*
X172188206Y-108534335D01*
X172274452Y-108649544D01*
X172274455Y-108649547D01*
X172389664Y-108735793D01*
X172389671Y-108735797D01*
X172524517Y-108786091D01*
X172524516Y-108786091D01*
X172531444Y-108786835D01*
X172584127Y-108792500D01*
X174379872Y-108792499D01*
X174439483Y-108786091D01*
X174574331Y-108735796D01*
X174689546Y-108649546D01*
X174775796Y-108534331D01*
X174824810Y-108402916D01*
X174866681Y-108346984D01*
X174932145Y-108322566D01*
X175000418Y-108337417D01*
X175028673Y-108358569D01*
X175150599Y-108480495D01*
X175233436Y-108538498D01*
X175344165Y-108616032D01*
X175344167Y-108616033D01*
X175344170Y-108616035D01*
X175558337Y-108715903D01*
X175786592Y-108777063D01*
X175963034Y-108792500D01*
X176021999Y-108797659D01*
X176022000Y-108797659D01*
X176022001Y-108797659D01*
X176080966Y-108792500D01*
X176257408Y-108777063D01*
X176485663Y-108715903D01*
X176699830Y-108616035D01*
X176893401Y-108480495D01*
X177060495Y-108313401D01*
X177190425Y-108127842D01*
X177245002Y-108084217D01*
X177314500Y-108077023D01*
X177376855Y-108108546D01*
X177393575Y-108127842D01*
X177523500Y-108313395D01*
X177523505Y-108313401D01*
X177690599Y-108480495D01*
X177773436Y-108538498D01*
X177884165Y-108616032D01*
X177884167Y-108616033D01*
X177884170Y-108616035D01*
X178098337Y-108715903D01*
X178326592Y-108777063D01*
X178503034Y-108792500D01*
X178561999Y-108797659D01*
X178562000Y-108797659D01*
X178562001Y-108797659D01*
X178620966Y-108792500D01*
X178797408Y-108777063D01*
X179025663Y-108715903D01*
X179239830Y-108616035D01*
X179433401Y-108480495D01*
X179600495Y-108313401D01*
X179730425Y-108127842D01*
X179785002Y-108084217D01*
X179854500Y-108077023D01*
X179916855Y-108108546D01*
X179933575Y-108127842D01*
X180063500Y-108313395D01*
X180063505Y-108313401D01*
X180230599Y-108480495D01*
X180313436Y-108538498D01*
X180424165Y-108616032D01*
X180424167Y-108616033D01*
X180424170Y-108616035D01*
X180638337Y-108715903D01*
X180866592Y-108777063D01*
X181043034Y-108792500D01*
X181101999Y-108797659D01*
X181102000Y-108797659D01*
X181102001Y-108797659D01*
X181160966Y-108792500D01*
X181337408Y-108777063D01*
X181565663Y-108715903D01*
X181779830Y-108616035D01*
X181973401Y-108480495D01*
X182140495Y-108313401D01*
X182270425Y-108127842D01*
X182325002Y-108084217D01*
X182394500Y-108077023D01*
X182456855Y-108108546D01*
X182473575Y-108127842D01*
X182603500Y-108313395D01*
X182603505Y-108313401D01*
X182770599Y-108480495D01*
X182853436Y-108538498D01*
X182964165Y-108616032D01*
X182964167Y-108616033D01*
X182964170Y-108616035D01*
X183178337Y-108715903D01*
X183406592Y-108777063D01*
X183583034Y-108792500D01*
X183641999Y-108797659D01*
X183642000Y-108797659D01*
X183642001Y-108797659D01*
X183700966Y-108792500D01*
X183877408Y-108777063D01*
X184105663Y-108715903D01*
X184319830Y-108616035D01*
X184513401Y-108480495D01*
X184680495Y-108313401D01*
X184810425Y-108127842D01*
X184865002Y-108084217D01*
X184934500Y-108077023D01*
X184996855Y-108108546D01*
X185013575Y-108127842D01*
X185143500Y-108313395D01*
X185143505Y-108313401D01*
X185310599Y-108480495D01*
X185393436Y-108538498D01*
X185504165Y-108616032D01*
X185504167Y-108616033D01*
X185504170Y-108616035D01*
X185718337Y-108715903D01*
X185946592Y-108777063D01*
X186123034Y-108792500D01*
X186181999Y-108797659D01*
X186182000Y-108797659D01*
X186182001Y-108797659D01*
X186240966Y-108792500D01*
X186417408Y-108777063D01*
X186645663Y-108715903D01*
X186859830Y-108616035D01*
X187053401Y-108480495D01*
X187220495Y-108313401D01*
X187350425Y-108127842D01*
X187405002Y-108084217D01*
X187474500Y-108077023D01*
X187536855Y-108108546D01*
X187553575Y-108127842D01*
X187683500Y-108313395D01*
X187683505Y-108313401D01*
X187850599Y-108480495D01*
X187933436Y-108538498D01*
X188044165Y-108616032D01*
X188044167Y-108616033D01*
X188044170Y-108616035D01*
X188258337Y-108715903D01*
X188486592Y-108777063D01*
X188663034Y-108792500D01*
X188721999Y-108797659D01*
X188722000Y-108797659D01*
X188722001Y-108797659D01*
X188780966Y-108792500D01*
X188957408Y-108777063D01*
X189185663Y-108715903D01*
X189399830Y-108616035D01*
X189593401Y-108480495D01*
X189760495Y-108313401D01*
X189890425Y-108127842D01*
X189945002Y-108084217D01*
X190014500Y-108077023D01*
X190076855Y-108108546D01*
X190093575Y-108127842D01*
X190223500Y-108313395D01*
X190223505Y-108313401D01*
X190390599Y-108480495D01*
X190473436Y-108538498D01*
X190584165Y-108616032D01*
X190584167Y-108616033D01*
X190584170Y-108616035D01*
X190798337Y-108715903D01*
X191026592Y-108777063D01*
X191203034Y-108792500D01*
X191261999Y-108797659D01*
X191262000Y-108797659D01*
X191262001Y-108797659D01*
X191320966Y-108792500D01*
X191497408Y-108777063D01*
X191725663Y-108715903D01*
X191939830Y-108616035D01*
X192133401Y-108480495D01*
X192300495Y-108313401D01*
X192436035Y-108119830D01*
X192535903Y-107905663D01*
X192597063Y-107677408D01*
X192617659Y-107442000D01*
X192597063Y-107206592D01*
X192535903Y-106978337D01*
X192436035Y-106764171D01*
X192430425Y-106756158D01*
X192300494Y-106570597D01*
X192155895Y-106425999D01*
X197780341Y-106425999D01*
X197780341Y-106426000D01*
X197800936Y-106661403D01*
X197800938Y-106661413D01*
X197862094Y-106889655D01*
X197862096Y-106889659D01*
X197862097Y-106889663D01*
X197903450Y-106978344D01*
X197961965Y-107103830D01*
X197961967Y-107103834D01*
X198051406Y-107231565D01*
X198097501Y-107297396D01*
X198097506Y-107297402D01*
X198219430Y-107419326D01*
X198252915Y-107480649D01*
X198247931Y-107550341D01*
X198206059Y-107606274D01*
X198175083Y-107623189D01*
X198043669Y-107672203D01*
X198043664Y-107672206D01*
X197928455Y-107758452D01*
X197928452Y-107758455D01*
X197842206Y-107873664D01*
X197842202Y-107873671D01*
X197791908Y-108008517D01*
X197786472Y-108059082D01*
X197785501Y-108068123D01*
X197785500Y-108068135D01*
X197785500Y-109863870D01*
X197785501Y-109863876D01*
X197791908Y-109923483D01*
X197842202Y-110058328D01*
X197842206Y-110058335D01*
X197928452Y-110173544D01*
X197928455Y-110173547D01*
X198043664Y-110259793D01*
X198043671Y-110259797D01*
X198178517Y-110310091D01*
X198178516Y-110310091D01*
X198185444Y-110310835D01*
X198238127Y-110316500D01*
X200033872Y-110316499D01*
X200093483Y-110310091D01*
X200228331Y-110259796D01*
X200343546Y-110173546D01*
X200429796Y-110058331D01*
X200480091Y-109923483D01*
X200486500Y-109863873D01*
X200486499Y-108068128D01*
X200480091Y-108008517D01*
X200444850Y-107914032D01*
X200429797Y-107873671D01*
X200429793Y-107873664D01*
X200343547Y-107758455D01*
X200343544Y-107758452D01*
X200228335Y-107672206D01*
X200228328Y-107672202D01*
X200096917Y-107623189D01*
X200040983Y-107581318D01*
X200016566Y-107515853D01*
X200031418Y-107447580D01*
X200052563Y-107419332D01*
X200174495Y-107297401D01*
X200310035Y-107103830D01*
X200409903Y-106889663D01*
X200471063Y-106661408D01*
X200491659Y-106426000D01*
X200471063Y-106190592D01*
X200409903Y-105962337D01*
X200310035Y-105748171D01*
X200276454Y-105700211D01*
X200174494Y-105554597D01*
X200007402Y-105387506D01*
X200007395Y-105387501D01*
X199813834Y-105251967D01*
X199813830Y-105251965D01*
X199813828Y-105251964D01*
X199599663Y-105152097D01*
X199599659Y-105152096D01*
X199599655Y-105152094D01*
X199371413Y-105090938D01*
X199371403Y-105090936D01*
X199136001Y-105070341D01*
X199135999Y-105070341D01*
X198900596Y-105090936D01*
X198900586Y-105090938D01*
X198672344Y-105152094D01*
X198672335Y-105152098D01*
X198458171Y-105251964D01*
X198458169Y-105251965D01*
X198264597Y-105387505D01*
X198097505Y-105554597D01*
X197961965Y-105748169D01*
X197961964Y-105748171D01*
X197862098Y-105962335D01*
X197862096Y-105962341D01*
X197800938Y-106190586D01*
X197800936Y-106190596D01*
X197780341Y-106425999D01*
X192155895Y-106425999D01*
X192133402Y-106403506D01*
X192133395Y-106403501D01*
X191939834Y-106267967D01*
X191939830Y-106267965D01*
X191894334Y-106246750D01*
X191725663Y-106168097D01*
X191725659Y-106168096D01*
X191725655Y-106168094D01*
X191497413Y-106106938D01*
X191497403Y-106106936D01*
X191262001Y-106086341D01*
X191261999Y-106086341D01*
X191026596Y-106106936D01*
X191026586Y-106106938D01*
X190798344Y-106168094D01*
X190798335Y-106168098D01*
X190584171Y-106267964D01*
X190584169Y-106267965D01*
X190390597Y-106403505D01*
X190223505Y-106570597D01*
X190093575Y-106756158D01*
X190038998Y-106799783D01*
X189969500Y-106806977D01*
X189907145Y-106775454D01*
X189890425Y-106756158D01*
X189760494Y-106570597D01*
X189593402Y-106403506D01*
X189593395Y-106403501D01*
X189399834Y-106267967D01*
X189399830Y-106267965D01*
X189354334Y-106246750D01*
X189185663Y-106168097D01*
X189185659Y-106168096D01*
X189185655Y-106168094D01*
X188957413Y-106106938D01*
X188957403Y-106106936D01*
X188722001Y-106086341D01*
X188721999Y-106086341D01*
X188486596Y-106106936D01*
X188486586Y-106106938D01*
X188258344Y-106168094D01*
X188258335Y-106168098D01*
X188044171Y-106267964D01*
X188044169Y-106267965D01*
X187850597Y-106403505D01*
X187683505Y-106570597D01*
X187553575Y-106756158D01*
X187498998Y-106799783D01*
X187429500Y-106806977D01*
X187367145Y-106775454D01*
X187350425Y-106756158D01*
X187220494Y-106570597D01*
X187053402Y-106403506D01*
X187053395Y-106403501D01*
X186859834Y-106267967D01*
X186859830Y-106267965D01*
X186814334Y-106246750D01*
X186645663Y-106168097D01*
X186645659Y-106168096D01*
X186645655Y-106168094D01*
X186417413Y-106106938D01*
X186417403Y-106106936D01*
X186182001Y-106086341D01*
X186181999Y-106086341D01*
X185946596Y-106106936D01*
X185946586Y-106106938D01*
X185718344Y-106168094D01*
X185718335Y-106168098D01*
X185504171Y-106267964D01*
X185504169Y-106267965D01*
X185310597Y-106403505D01*
X185143505Y-106570597D01*
X185013575Y-106756158D01*
X184958998Y-106799783D01*
X184889500Y-106806977D01*
X184827145Y-106775454D01*
X184810425Y-106756158D01*
X184680494Y-106570597D01*
X184513402Y-106403506D01*
X184513395Y-106403501D01*
X184319834Y-106267967D01*
X184319830Y-106267965D01*
X184274334Y-106246750D01*
X184105663Y-106168097D01*
X184105659Y-106168096D01*
X184105655Y-106168094D01*
X183877413Y-106106938D01*
X183877403Y-106106936D01*
X183642001Y-106086341D01*
X183641999Y-106086341D01*
X183406596Y-106106936D01*
X183406586Y-106106938D01*
X183178344Y-106168094D01*
X183178335Y-106168098D01*
X182964171Y-106267964D01*
X182964169Y-106267965D01*
X182770597Y-106403505D01*
X182603505Y-106570597D01*
X182473575Y-106756158D01*
X182418998Y-106799783D01*
X182349500Y-106806977D01*
X182287145Y-106775454D01*
X182270425Y-106756158D01*
X182140494Y-106570597D01*
X181973402Y-106403506D01*
X181973395Y-106403501D01*
X181779834Y-106267967D01*
X181779830Y-106267965D01*
X181734334Y-106246750D01*
X181565663Y-106168097D01*
X181565659Y-106168096D01*
X181565655Y-106168094D01*
X181337413Y-106106938D01*
X181337403Y-106106936D01*
X181102001Y-106086341D01*
X181101999Y-106086341D01*
X180866596Y-106106936D01*
X180866586Y-106106938D01*
X180638344Y-106168094D01*
X180638335Y-106168098D01*
X180424171Y-106267964D01*
X180424169Y-106267965D01*
X180230597Y-106403505D01*
X180063505Y-106570597D01*
X179933575Y-106756158D01*
X179878998Y-106799783D01*
X179809500Y-106806977D01*
X179747145Y-106775454D01*
X179730425Y-106756158D01*
X179600494Y-106570597D01*
X179433402Y-106403506D01*
X179433395Y-106403501D01*
X179239834Y-106267967D01*
X179239830Y-106267965D01*
X179194334Y-106246750D01*
X179025663Y-106168097D01*
X179025659Y-106168096D01*
X179025655Y-106168094D01*
X178797413Y-106106938D01*
X178797403Y-106106936D01*
X178562001Y-106086341D01*
X178561999Y-106086341D01*
X178326596Y-106106936D01*
X178326586Y-106106938D01*
X178098344Y-106168094D01*
X178098335Y-106168098D01*
X177884171Y-106267964D01*
X177884169Y-106267965D01*
X177690597Y-106403505D01*
X177523505Y-106570597D01*
X177393575Y-106756158D01*
X177338998Y-106799783D01*
X177269500Y-106806977D01*
X177207145Y-106775454D01*
X177190425Y-106756158D01*
X177060494Y-106570597D01*
X176893402Y-106403506D01*
X176893395Y-106403501D01*
X176699834Y-106267967D01*
X176699830Y-106267965D01*
X176654334Y-106246750D01*
X176485663Y-106168097D01*
X176485659Y-106168096D01*
X176485655Y-106168094D01*
X176257413Y-106106938D01*
X176257403Y-106106936D01*
X176022001Y-106086341D01*
X176021999Y-106086341D01*
X175786596Y-106106936D01*
X175786586Y-106106938D01*
X175558344Y-106168094D01*
X175558335Y-106168098D01*
X175344171Y-106267964D01*
X175344169Y-106267965D01*
X175150600Y-106403503D01*
X175028673Y-106525430D01*
X174967350Y-106558914D01*
X174897658Y-106553930D01*
X174841725Y-106512058D01*
X174824810Y-106481081D01*
X174775797Y-106349671D01*
X174775793Y-106349664D01*
X174689547Y-106234455D01*
X174689544Y-106234452D01*
X174574335Y-106148206D01*
X174574328Y-106148202D01*
X174439482Y-106097908D01*
X174439483Y-106097908D01*
X174379883Y-106091501D01*
X174379881Y-106091500D01*
X174379873Y-106091500D01*
X174379864Y-106091500D01*
X172584129Y-106091500D01*
X172584123Y-106091501D01*
X172524516Y-106097908D01*
X172389671Y-106148202D01*
X172389664Y-106148206D01*
X172274455Y-106234452D01*
X172274452Y-106234455D01*
X172188206Y-106349664D01*
X172188202Y-106349671D01*
X172137908Y-106484517D01*
X172131501Y-106544116D01*
X172131500Y-106544135D01*
X168487499Y-106544135D01*
X168487499Y-106290128D01*
X168481091Y-106230517D01*
X168480002Y-106227598D01*
X168430797Y-106095671D01*
X168430793Y-106095664D01*
X168344547Y-105980455D01*
X168344544Y-105980452D01*
X168229335Y-105894206D01*
X168229328Y-105894202D01*
X168094482Y-105843908D01*
X168094483Y-105843908D01*
X168034883Y-105837501D01*
X168034881Y-105837500D01*
X168034873Y-105837500D01*
X168034864Y-105837500D01*
X166239129Y-105837500D01*
X166239123Y-105837501D01*
X166179516Y-105843908D01*
X166044671Y-105894202D01*
X166044664Y-105894206D01*
X165929455Y-105980452D01*
X165929452Y-105980455D01*
X165843206Y-106095664D01*
X165843202Y-106095671D01*
X165793997Y-106227598D01*
X165752126Y-106283532D01*
X165686661Y-106307949D01*
X165618388Y-106293097D01*
X165590134Y-106271946D01*
X165468082Y-106149894D01*
X165274578Y-106014399D01*
X165060492Y-105914570D01*
X165060486Y-105914567D01*
X164847000Y-105857364D01*
X164847000Y-106754988D01*
X164789993Y-106722075D01*
X164662826Y-106688000D01*
X164531174Y-106688000D01*
X164404007Y-106722075D01*
X164347000Y-106754988D01*
X164347000Y-105857364D01*
X164346999Y-105857364D01*
X164133513Y-105914567D01*
X164133507Y-105914570D01*
X163919422Y-106014399D01*
X163919420Y-106014400D01*
X163725926Y-106149886D01*
X163725920Y-106149891D01*
X163558891Y-106316920D01*
X163558886Y-106316926D01*
X163423400Y-106510420D01*
X163423399Y-106510422D01*
X163323570Y-106724507D01*
X163323567Y-106724513D01*
X163266364Y-106937999D01*
X148702079Y-106937999D01*
X148711816Y-106928262D01*
X148807789Y-106775522D01*
X148867368Y-106605255D01*
X148871273Y-106570597D01*
X148887565Y-106426003D01*
X148887565Y-106425996D01*
X148867369Y-106246750D01*
X148867368Y-106246745D01*
X148833477Y-106149891D01*
X148807789Y-106076478D01*
X148711816Y-105923738D01*
X148584262Y-105796184D01*
X148507847Y-105748169D01*
X148431523Y-105700211D01*
X148261254Y-105640631D01*
X148261249Y-105640630D01*
X148082004Y-105620435D01*
X148081996Y-105620435D01*
X147902750Y-105640630D01*
X147902745Y-105640631D01*
X147732476Y-105700211D01*
X147579737Y-105796184D01*
X147452184Y-105923737D01*
X147356211Y-106076476D01*
X147296631Y-106246745D01*
X147296630Y-106246750D01*
X147276435Y-106425996D01*
X144526000Y-106425996D01*
X144526000Y-96777999D01*
X163286729Y-96777999D01*
X163286729Y-96778000D01*
X164223073Y-96778000D01*
X164177792Y-96856429D01*
X164147500Y-96969480D01*
X164147500Y-97086520D01*
X164177792Y-97199571D01*
X164223073Y-97278000D01*
X163286729Y-97278000D01*
X163341678Y-97483074D01*
X163341681Y-97483080D01*
X163439699Y-97693281D01*
X163572730Y-97883269D01*
X163736730Y-98047269D01*
X163926718Y-98180300D01*
X164136919Y-98278318D01*
X164136925Y-98278321D01*
X164341999Y-98333270D01*
X164342000Y-98333270D01*
X164342000Y-97396927D01*
X164420429Y-97442208D01*
X164533480Y-97472500D01*
X164650520Y-97472500D01*
X164763571Y-97442208D01*
X164842000Y-97396927D01*
X164842000Y-98333270D01*
X165047074Y-98278321D01*
X165047080Y-98278318D01*
X165257281Y-98180300D01*
X165447269Y-98047269D01*
X165611269Y-97883269D01*
X165744300Y-97693282D01*
X165749337Y-97682479D01*
X165795505Y-97630036D01*
X165862697Y-97610879D01*
X165929580Y-97631090D01*
X165974103Y-97682466D01*
X165979264Y-97693533D01*
X166112345Y-97883592D01*
X166276408Y-98047655D01*
X166466467Y-98180736D01*
X166676749Y-98278792D01*
X166900863Y-98338843D01*
X167085772Y-98355020D01*
X167131999Y-98359065D01*
X167132000Y-98359065D01*
X167132001Y-98359065D01*
X167170522Y-98355694D01*
X167363137Y-98338843D01*
X167587251Y-98278792D01*
X167797533Y-98180736D01*
X167987592Y-98047655D01*
X168151655Y-97883592D01*
X168284736Y-97693533D01*
X168289617Y-97683064D01*
X168335788Y-97630624D01*
X168402981Y-97611471D01*
X168469863Y-97631685D01*
X168514382Y-97683064D01*
X168519264Y-97693533D01*
X168652345Y-97883592D01*
X168816408Y-98047655D01*
X169006467Y-98180736D01*
X169216749Y-98278792D01*
X169440863Y-98338843D01*
X169625772Y-98355020D01*
X169671999Y-98359065D01*
X169672000Y-98359065D01*
X169672001Y-98359065D01*
X169710522Y-98355694D01*
X169903137Y-98338843D01*
X170127251Y-98278792D01*
X170337533Y-98180736D01*
X170527592Y-98047655D01*
X170691655Y-97883592D01*
X170824736Y-97693533D01*
X170829617Y-97683064D01*
X170875788Y-97630624D01*
X170942981Y-97611471D01*
X171009863Y-97631685D01*
X171054382Y-97683064D01*
X171059264Y-97693533D01*
X171192345Y-97883592D01*
X171356408Y-98047655D01*
X171546467Y-98180736D01*
X171756749Y-98278792D01*
X171980863Y-98338843D01*
X172165772Y-98355020D01*
X172211999Y-98359065D01*
X172212000Y-98359065D01*
X172212001Y-98359065D01*
X172250522Y-98355694D01*
X172443137Y-98338843D01*
X172667251Y-98278792D01*
X172877533Y-98180736D01*
X173067592Y-98047655D01*
X173231655Y-97883592D01*
X173364736Y-97693533D01*
X173369617Y-97683064D01*
X173415788Y-97630624D01*
X173482981Y-97611471D01*
X173549863Y-97631685D01*
X173594382Y-97683064D01*
X173599264Y-97693533D01*
X173732345Y-97883592D01*
X173896408Y-98047655D01*
X174086467Y-98180736D01*
X174296749Y-98278792D01*
X174520863Y-98338843D01*
X174705772Y-98355020D01*
X174751999Y-98359065D01*
X174752000Y-98359065D01*
X174752001Y-98359065D01*
X174790522Y-98355694D01*
X174983137Y-98338843D01*
X175207251Y-98278792D01*
X175417533Y-98180736D01*
X175607592Y-98047655D01*
X175771655Y-97883592D01*
X175904736Y-97693533D01*
X175909617Y-97683064D01*
X175955788Y-97630624D01*
X176022981Y-97611471D01*
X176089863Y-97631685D01*
X176134382Y-97683064D01*
X176139264Y-97693533D01*
X176272345Y-97883592D01*
X176436408Y-98047655D01*
X176626467Y-98180736D01*
X176836749Y-98278792D01*
X177060863Y-98338843D01*
X177245772Y-98355020D01*
X177291999Y-98359065D01*
X177292000Y-98359065D01*
X177292001Y-98359065D01*
X177330522Y-98355694D01*
X177523137Y-98338843D01*
X177747251Y-98278792D01*
X177957533Y-98180736D01*
X178147592Y-98047655D01*
X178311655Y-97883592D01*
X178444736Y-97693533D01*
X178449617Y-97683064D01*
X178495788Y-97630624D01*
X178562981Y-97611471D01*
X178629863Y-97631685D01*
X178674382Y-97683064D01*
X178679264Y-97693533D01*
X178812345Y-97883592D01*
X178976408Y-98047655D01*
X179166467Y-98180736D01*
X179376749Y-98278792D01*
X179600863Y-98338843D01*
X179785772Y-98355020D01*
X179831999Y-98359065D01*
X179832000Y-98359065D01*
X179832001Y-98359065D01*
X179870522Y-98355694D01*
X180063137Y-98338843D01*
X180287251Y-98278792D01*
X180497533Y-98180736D01*
X180687592Y-98047655D01*
X180851655Y-97883592D01*
X180984736Y-97693533D01*
X180989617Y-97683064D01*
X181035788Y-97630624D01*
X181102981Y-97611471D01*
X181169863Y-97631685D01*
X181214382Y-97683064D01*
X181219264Y-97693533D01*
X181352345Y-97883592D01*
X181516408Y-98047655D01*
X181706467Y-98180736D01*
X181916749Y-98278792D01*
X182140863Y-98338843D01*
X182325772Y-98355020D01*
X182371999Y-98359065D01*
X182372000Y-98359065D01*
X182372001Y-98359065D01*
X182410522Y-98355694D01*
X182603137Y-98338843D01*
X182827251Y-98278792D01*
X183037533Y-98180736D01*
X183227592Y-98047655D01*
X183391655Y-97883592D01*
X183524736Y-97693533D01*
X183529617Y-97683064D01*
X183575788Y-97630624D01*
X183642981Y-97611471D01*
X183709863Y-97631685D01*
X183754382Y-97683064D01*
X183759264Y-97693533D01*
X183892345Y-97883592D01*
X184056408Y-98047655D01*
X184246467Y-98180736D01*
X184456749Y-98278792D01*
X184680863Y-98338843D01*
X184865772Y-98355020D01*
X184911999Y-98359065D01*
X184912000Y-98359065D01*
X184912001Y-98359065D01*
X184950522Y-98355694D01*
X185143137Y-98338843D01*
X185367251Y-98278792D01*
X185577533Y-98180736D01*
X185767592Y-98047655D01*
X185931655Y-97883592D01*
X186064736Y-97693533D01*
X186069617Y-97683064D01*
X186115788Y-97630624D01*
X186182981Y-97611471D01*
X186249863Y-97631685D01*
X186294382Y-97683064D01*
X186299264Y-97693533D01*
X186432345Y-97883592D01*
X186596408Y-98047655D01*
X186786467Y-98180736D01*
X186996749Y-98278792D01*
X187220863Y-98338843D01*
X187405772Y-98355020D01*
X187451999Y-98359065D01*
X187452000Y-98359065D01*
X187452001Y-98359065D01*
X187490522Y-98355694D01*
X187683137Y-98338843D01*
X187907251Y-98278792D01*
X188117533Y-98180736D01*
X188307592Y-98047655D01*
X188471655Y-97883592D01*
X188604736Y-97693533D01*
X188609617Y-97683064D01*
X188655788Y-97630624D01*
X188722981Y-97611471D01*
X188789863Y-97631685D01*
X188834382Y-97683064D01*
X188839264Y-97693533D01*
X188972345Y-97883592D01*
X189136408Y-98047655D01*
X189326467Y-98180736D01*
X189536749Y-98278792D01*
X189760863Y-98338843D01*
X189945772Y-98355020D01*
X189991999Y-98359065D01*
X189992000Y-98359065D01*
X189992001Y-98359065D01*
X190030522Y-98355694D01*
X190223137Y-98338843D01*
X190447251Y-98278792D01*
X190657533Y-98180736D01*
X190847592Y-98047655D01*
X191011655Y-97883592D01*
X191144736Y-97693533D01*
X191149617Y-97683064D01*
X191195788Y-97630624D01*
X191262981Y-97611471D01*
X191329863Y-97631685D01*
X191374382Y-97683064D01*
X191379264Y-97693533D01*
X191512345Y-97883592D01*
X191676408Y-98047655D01*
X191866467Y-98180736D01*
X192076749Y-98278792D01*
X192300863Y-98338843D01*
X192485772Y-98355020D01*
X192531999Y-98359065D01*
X192532000Y-98359065D01*
X192532001Y-98359065D01*
X192570522Y-98355694D01*
X192763137Y-98338843D01*
X192987251Y-98278792D01*
X193197533Y-98180736D01*
X193387592Y-98047655D01*
X193551655Y-97883592D01*
X193684736Y-97693533D01*
X193782792Y-97483251D01*
X193842843Y-97259137D01*
X193863065Y-97028000D01*
X193842843Y-96796863D01*
X193782792Y-96572749D01*
X193684736Y-96362468D01*
X193684734Y-96362465D01*
X193684733Y-96362463D01*
X193551654Y-96172406D01*
X193387596Y-96008349D01*
X193387592Y-96008345D01*
X193235544Y-95901880D01*
X193197532Y-95875263D01*
X193092392Y-95826236D01*
X192987251Y-95777208D01*
X192987247Y-95777207D01*
X192987243Y-95777205D01*
X192763142Y-95717158D01*
X192763132Y-95717156D01*
X192532001Y-95696935D01*
X192531999Y-95696935D01*
X192300867Y-95717156D01*
X192300857Y-95717158D01*
X192076756Y-95777205D01*
X192076747Y-95777209D01*
X191866467Y-95875264D01*
X191866463Y-95875266D01*
X191676406Y-96008345D01*
X191512345Y-96172406D01*
X191379266Y-96362463D01*
X191379264Y-96362467D01*
X191374382Y-96372938D01*
X191328209Y-96425377D01*
X191261016Y-96444529D01*
X191194135Y-96424313D01*
X191149618Y-96372938D01*
X191144736Y-96362468D01*
X191144734Y-96362465D01*
X191144733Y-96362463D01*
X191011654Y-96172406D01*
X190847596Y-96008349D01*
X190847592Y-96008345D01*
X190695544Y-95901880D01*
X190657532Y-95875263D01*
X190552392Y-95826236D01*
X190447251Y-95777208D01*
X190447247Y-95777207D01*
X190447243Y-95777205D01*
X190223142Y-95717158D01*
X190223132Y-95717156D01*
X189992001Y-95696935D01*
X189991999Y-95696935D01*
X189760867Y-95717156D01*
X189760857Y-95717158D01*
X189536756Y-95777205D01*
X189536747Y-95777209D01*
X189326467Y-95875264D01*
X189326463Y-95875266D01*
X189136406Y-96008345D01*
X188972345Y-96172406D01*
X188839266Y-96362463D01*
X188839264Y-96362467D01*
X188834382Y-96372938D01*
X188788209Y-96425377D01*
X188721016Y-96444529D01*
X188654135Y-96424313D01*
X188609618Y-96372938D01*
X188604736Y-96362468D01*
X188604734Y-96362465D01*
X188604733Y-96362463D01*
X188471654Y-96172406D01*
X188307596Y-96008349D01*
X188307592Y-96008345D01*
X188155544Y-95901880D01*
X188117532Y-95875263D01*
X188012392Y-95826236D01*
X187907251Y-95777208D01*
X187907247Y-95777207D01*
X187907243Y-95777205D01*
X187683142Y-95717158D01*
X187683132Y-95717156D01*
X187452001Y-95696935D01*
X187451999Y-95696935D01*
X187220867Y-95717156D01*
X187220857Y-95717158D01*
X186996756Y-95777205D01*
X186996747Y-95777209D01*
X186786467Y-95875264D01*
X186786463Y-95875266D01*
X186596406Y-96008345D01*
X186432345Y-96172406D01*
X186299266Y-96362463D01*
X186299264Y-96362467D01*
X186294382Y-96372938D01*
X186248209Y-96425377D01*
X186181016Y-96444529D01*
X186114135Y-96424313D01*
X186069618Y-96372938D01*
X186064736Y-96362468D01*
X186064734Y-96362465D01*
X186064733Y-96362463D01*
X185931654Y-96172406D01*
X185767596Y-96008349D01*
X185767592Y-96008345D01*
X185615544Y-95901880D01*
X185577532Y-95875263D01*
X185472392Y-95826236D01*
X185367251Y-95777208D01*
X185367247Y-95777207D01*
X185367243Y-95777205D01*
X185143142Y-95717158D01*
X185143132Y-95717156D01*
X184912001Y-95696935D01*
X184911999Y-95696935D01*
X184680867Y-95717156D01*
X184680857Y-95717158D01*
X184456756Y-95777205D01*
X184456747Y-95777209D01*
X184246467Y-95875264D01*
X184246463Y-95875266D01*
X184056406Y-96008345D01*
X183892345Y-96172406D01*
X183759266Y-96362463D01*
X183759264Y-96362467D01*
X183754382Y-96372938D01*
X183708209Y-96425377D01*
X183641016Y-96444529D01*
X183574135Y-96424313D01*
X183529618Y-96372938D01*
X183524736Y-96362468D01*
X183524734Y-96362465D01*
X183524733Y-96362463D01*
X183391654Y-96172406D01*
X183227596Y-96008349D01*
X183227592Y-96008345D01*
X183075544Y-95901880D01*
X183037532Y-95875263D01*
X182932392Y-95826236D01*
X182827251Y-95777208D01*
X182827247Y-95777207D01*
X182827243Y-95777205D01*
X182603142Y-95717158D01*
X182603132Y-95717156D01*
X182372001Y-95696935D01*
X182371999Y-95696935D01*
X182140867Y-95717156D01*
X182140857Y-95717158D01*
X181916756Y-95777205D01*
X181916747Y-95777209D01*
X181706467Y-95875264D01*
X181706463Y-95875266D01*
X181516406Y-96008345D01*
X181352345Y-96172406D01*
X181219266Y-96362463D01*
X181219264Y-96362467D01*
X181214382Y-96372938D01*
X181168209Y-96425377D01*
X181101016Y-96444529D01*
X181034135Y-96424313D01*
X180989618Y-96372938D01*
X180984736Y-96362468D01*
X180984734Y-96362465D01*
X180984733Y-96362463D01*
X180851654Y-96172406D01*
X180687596Y-96008349D01*
X180687592Y-96008345D01*
X180535544Y-95901880D01*
X180497532Y-95875263D01*
X180392392Y-95826236D01*
X180287251Y-95777208D01*
X180287247Y-95777207D01*
X180287243Y-95777205D01*
X180063142Y-95717158D01*
X180063132Y-95717156D01*
X179832001Y-95696935D01*
X179831999Y-95696935D01*
X179600867Y-95717156D01*
X179600857Y-95717158D01*
X179376756Y-95777205D01*
X179376747Y-95777209D01*
X179166467Y-95875264D01*
X179166463Y-95875266D01*
X178976406Y-96008345D01*
X178812345Y-96172406D01*
X178679266Y-96362463D01*
X178679264Y-96362467D01*
X178674382Y-96372938D01*
X178628209Y-96425377D01*
X178561016Y-96444529D01*
X178494135Y-96424313D01*
X178449618Y-96372938D01*
X178444736Y-96362468D01*
X178444734Y-96362465D01*
X178444733Y-96362463D01*
X178311654Y-96172406D01*
X178147596Y-96008349D01*
X178147592Y-96008345D01*
X177995544Y-95901880D01*
X177957532Y-95875263D01*
X177852392Y-95826236D01*
X177747251Y-95777208D01*
X177747247Y-95777207D01*
X177747243Y-95777205D01*
X177523142Y-95717158D01*
X177523132Y-95717156D01*
X177292001Y-95696935D01*
X177291999Y-95696935D01*
X177060867Y-95717156D01*
X177060857Y-95717158D01*
X176836756Y-95777205D01*
X176836747Y-95777209D01*
X176626467Y-95875264D01*
X176626463Y-95875266D01*
X176436406Y-96008345D01*
X176272345Y-96172406D01*
X176139266Y-96362463D01*
X176139264Y-96362467D01*
X176134382Y-96372938D01*
X176088209Y-96425377D01*
X176021016Y-96444529D01*
X175954135Y-96424313D01*
X175909618Y-96372938D01*
X175904736Y-96362468D01*
X175904734Y-96362465D01*
X175904733Y-96362463D01*
X175771654Y-96172406D01*
X175607596Y-96008349D01*
X175607592Y-96008345D01*
X175455544Y-95901880D01*
X175417532Y-95875263D01*
X175312392Y-95826236D01*
X175207251Y-95777208D01*
X175207247Y-95777207D01*
X175207243Y-95777205D01*
X174983142Y-95717158D01*
X174983132Y-95717156D01*
X174752001Y-95696935D01*
X174751999Y-95696935D01*
X174520867Y-95717156D01*
X174520857Y-95717158D01*
X174296756Y-95777205D01*
X174296747Y-95777209D01*
X174086467Y-95875264D01*
X174086463Y-95875266D01*
X173896406Y-96008345D01*
X173732345Y-96172406D01*
X173599266Y-96362463D01*
X173599264Y-96362467D01*
X173594382Y-96372938D01*
X173548209Y-96425377D01*
X173481016Y-96444529D01*
X173414135Y-96424313D01*
X173369618Y-96372938D01*
X173364736Y-96362468D01*
X173364734Y-96362465D01*
X173364733Y-96362463D01*
X173231654Y-96172406D01*
X173067596Y-96008349D01*
X173067592Y-96008345D01*
X172915544Y-95901880D01*
X172877532Y-95875263D01*
X172772392Y-95826236D01*
X172667251Y-95777208D01*
X172667247Y-95777207D01*
X172667243Y-95777205D01*
X172443142Y-95717158D01*
X172443132Y-95717156D01*
X172212001Y-95696935D01*
X172211999Y-95696935D01*
X171980867Y-95717156D01*
X171980857Y-95717158D01*
X171756756Y-95777205D01*
X171756747Y-95777209D01*
X171546467Y-95875264D01*
X171546463Y-95875266D01*
X171356406Y-96008345D01*
X171192345Y-96172406D01*
X171059266Y-96362463D01*
X171059264Y-96362467D01*
X171054382Y-96372938D01*
X171008209Y-96425377D01*
X170941016Y-96444529D01*
X170874135Y-96424313D01*
X170829618Y-96372938D01*
X170824736Y-96362468D01*
X170824734Y-96362465D01*
X170824733Y-96362463D01*
X170691654Y-96172406D01*
X170527596Y-96008349D01*
X170527592Y-96008345D01*
X170375544Y-95901880D01*
X170337532Y-95875263D01*
X170232392Y-95826236D01*
X170127251Y-95777208D01*
X170127247Y-95777207D01*
X170127243Y-95777205D01*
X169903142Y-95717158D01*
X169903132Y-95717156D01*
X169672001Y-95696935D01*
X169671999Y-95696935D01*
X169440867Y-95717156D01*
X169440857Y-95717158D01*
X169216756Y-95777205D01*
X169216747Y-95777209D01*
X169006467Y-95875264D01*
X169006463Y-95875266D01*
X168816406Y-96008345D01*
X168652345Y-96172406D01*
X168519266Y-96362463D01*
X168519264Y-96362467D01*
X168514382Y-96372938D01*
X168468209Y-96425377D01*
X168401016Y-96444529D01*
X168334135Y-96424313D01*
X168289618Y-96372938D01*
X168284736Y-96362468D01*
X168284734Y-96362465D01*
X168284733Y-96362463D01*
X168151654Y-96172406D01*
X167987596Y-96008349D01*
X167987592Y-96008345D01*
X167835544Y-95901880D01*
X167797532Y-95875263D01*
X167692392Y-95826236D01*
X167587251Y-95777208D01*
X167587247Y-95777207D01*
X167587243Y-95777205D01*
X167363142Y-95717158D01*
X167363132Y-95717156D01*
X167132001Y-95696935D01*
X167131999Y-95696935D01*
X166900867Y-95717156D01*
X166900857Y-95717158D01*
X166676756Y-95777205D01*
X166676747Y-95777209D01*
X166466467Y-95875264D01*
X166466463Y-95875266D01*
X166276406Y-96008345D01*
X166112345Y-96172406D01*
X165979266Y-96362463D01*
X165979260Y-96362474D01*
X165974101Y-96373537D01*
X165927925Y-96425973D01*
X165860730Y-96445120D01*
X165793850Y-96424899D01*
X165749339Y-96373526D01*
X165744297Y-96362713D01*
X165611273Y-96172735D01*
X165611268Y-96172729D01*
X165447269Y-96008730D01*
X165257281Y-95875699D01*
X165047081Y-95777681D01*
X164842000Y-95722728D01*
X164842000Y-96659072D01*
X164763571Y-96613792D01*
X164650520Y-96583500D01*
X164533480Y-96583500D01*
X164420429Y-96613792D01*
X164342000Y-96659072D01*
X164342000Y-95722728D01*
X164136918Y-95777681D01*
X163926718Y-95875699D01*
X163926714Y-95875701D01*
X163736735Y-96008726D01*
X163736729Y-96008731D01*
X163572731Y-96172729D01*
X163572726Y-96172735D01*
X163439701Y-96362714D01*
X163439699Y-96362718D01*
X163341681Y-96572919D01*
X163341678Y-96572925D01*
X163286729Y-96777999D01*
X144526000Y-96777999D01*
X144526000Y-79247999D01*
X163260935Y-79247999D01*
X163260935Y-79248000D01*
X163281156Y-79479132D01*
X163281158Y-79479142D01*
X163341205Y-79703243D01*
X163341207Y-79703247D01*
X163341208Y-79703251D01*
X163390236Y-79808392D01*
X163439263Y-79913532D01*
X163439264Y-79913533D01*
X163572345Y-80103592D01*
X163736408Y-80267655D01*
X163926467Y-80400736D01*
X164136749Y-80498792D01*
X164360863Y-80558843D01*
X164545772Y-80575020D01*
X164591999Y-80579065D01*
X164592000Y-80579065D01*
X164592001Y-80579065D01*
X164630522Y-80575694D01*
X164823137Y-80558843D01*
X165047251Y-80498792D01*
X165257533Y-80400736D01*
X165447592Y-80267655D01*
X165611655Y-80103592D01*
X165744736Y-79913533D01*
X165749617Y-79903064D01*
X165795788Y-79850624D01*
X165862981Y-79831471D01*
X165929863Y-79851685D01*
X165974382Y-79903064D01*
X165979264Y-79913533D01*
X166112345Y-80103592D01*
X166276408Y-80267655D01*
X166466467Y-80400736D01*
X166676749Y-80498792D01*
X166900863Y-80558843D01*
X167085772Y-80575020D01*
X167131999Y-80579065D01*
X167132000Y-80579065D01*
X167132001Y-80579065D01*
X167170522Y-80575694D01*
X167363137Y-80558843D01*
X167587251Y-80498792D01*
X167797533Y-80400736D01*
X167987592Y-80267655D01*
X168151655Y-80103592D01*
X168284736Y-79913533D01*
X168289617Y-79903064D01*
X168335788Y-79850624D01*
X168402981Y-79831471D01*
X168469863Y-79851685D01*
X168514382Y-79903064D01*
X168519264Y-79913533D01*
X168652345Y-80103592D01*
X168816408Y-80267655D01*
X169006467Y-80400736D01*
X169216749Y-80498792D01*
X169440863Y-80558843D01*
X169625772Y-80575020D01*
X169671999Y-80579065D01*
X169672000Y-80579065D01*
X169672001Y-80579065D01*
X169710522Y-80575694D01*
X169903137Y-80558843D01*
X170127251Y-80498792D01*
X170337533Y-80400736D01*
X170527592Y-80267655D01*
X170691655Y-80103592D01*
X170824736Y-79913533D01*
X170829617Y-79903064D01*
X170875788Y-79850624D01*
X170942981Y-79831471D01*
X171009863Y-79851685D01*
X171054382Y-79903064D01*
X171059264Y-79913533D01*
X171192345Y-80103592D01*
X171356408Y-80267655D01*
X171546467Y-80400736D01*
X171756749Y-80498792D01*
X171980863Y-80558843D01*
X172165772Y-80575020D01*
X172211999Y-80579065D01*
X172212000Y-80579065D01*
X172212001Y-80579065D01*
X172250522Y-80575694D01*
X172443137Y-80558843D01*
X172667251Y-80498792D01*
X172877533Y-80400736D01*
X173067592Y-80267655D01*
X173231655Y-80103592D01*
X173364736Y-79913533D01*
X173369617Y-79903064D01*
X173415788Y-79850624D01*
X173482981Y-79831471D01*
X173549863Y-79851685D01*
X173594382Y-79903064D01*
X173599264Y-79913533D01*
X173732345Y-80103592D01*
X173896408Y-80267655D01*
X174086467Y-80400736D01*
X174296749Y-80498792D01*
X174520863Y-80558843D01*
X174705772Y-80575020D01*
X174751999Y-80579065D01*
X174752000Y-80579065D01*
X174752001Y-80579065D01*
X174790522Y-80575694D01*
X174983137Y-80558843D01*
X175207251Y-80498792D01*
X175417533Y-80400736D01*
X175607592Y-80267655D01*
X175771655Y-80103592D01*
X175904736Y-79913533D01*
X175909893Y-79902472D01*
X175956064Y-79850033D01*
X176023257Y-79830879D01*
X176090138Y-79851093D01*
X176134659Y-79902473D01*
X176139698Y-79913279D01*
X176139698Y-79913280D01*
X176272730Y-80103269D01*
X176436730Y-80267269D01*
X176626718Y-80400300D01*
X176836919Y-80498318D01*
X176836925Y-80498321D01*
X177041999Y-80553270D01*
X177042000Y-80553270D01*
X177042000Y-79616927D01*
X177120429Y-79662208D01*
X177233480Y-79692500D01*
X177350520Y-79692500D01*
X177463571Y-79662208D01*
X177542000Y-79616927D01*
X177542000Y-80553270D01*
X177747074Y-80498321D01*
X177747080Y-80498318D01*
X177957281Y-80400300D01*
X178147269Y-80267269D01*
X178311269Y-80103269D01*
X178444300Y-79913282D01*
X178449337Y-79902479D01*
X178495505Y-79850036D01*
X178562697Y-79830879D01*
X178629580Y-79851090D01*
X178674103Y-79902466D01*
X178679264Y-79913533D01*
X178812345Y-80103592D01*
X178976408Y-80267655D01*
X179166467Y-80400736D01*
X179376749Y-80498792D01*
X179600863Y-80558843D01*
X179785772Y-80575020D01*
X179831999Y-80579065D01*
X179832000Y-80579065D01*
X179832001Y-80579065D01*
X179870522Y-80575694D01*
X180063137Y-80558843D01*
X180287251Y-80498792D01*
X180497533Y-80400736D01*
X180687592Y-80267655D01*
X180851655Y-80103592D01*
X180984736Y-79913533D01*
X180989617Y-79903064D01*
X181035788Y-79850624D01*
X181102981Y-79831471D01*
X181169863Y-79851685D01*
X181214382Y-79903064D01*
X181219264Y-79913533D01*
X181352345Y-80103592D01*
X181516408Y-80267655D01*
X181706467Y-80400736D01*
X181916749Y-80498792D01*
X182140863Y-80558843D01*
X182325772Y-80575020D01*
X182371999Y-80579065D01*
X182372000Y-80579065D01*
X182372001Y-80579065D01*
X182410522Y-80575694D01*
X182603137Y-80558843D01*
X182827251Y-80498792D01*
X183037533Y-80400736D01*
X183227592Y-80267655D01*
X183391655Y-80103592D01*
X183524736Y-79913533D01*
X183529617Y-79903064D01*
X183575788Y-79850624D01*
X183642981Y-79831471D01*
X183709863Y-79851685D01*
X183754382Y-79903064D01*
X183759264Y-79913533D01*
X183892345Y-80103592D01*
X184056408Y-80267655D01*
X184246467Y-80400736D01*
X184456749Y-80498792D01*
X184680863Y-80558843D01*
X184865772Y-80575020D01*
X184911999Y-80579065D01*
X184912000Y-80579065D01*
X184912001Y-80579065D01*
X184950522Y-80575694D01*
X185143137Y-80558843D01*
X185367251Y-80498792D01*
X185577533Y-80400736D01*
X185767592Y-80267655D01*
X185931655Y-80103592D01*
X186064736Y-79913533D01*
X186069617Y-79903064D01*
X186115788Y-79850624D01*
X186182981Y-79831471D01*
X186249863Y-79851685D01*
X186294382Y-79903064D01*
X186299264Y-79913533D01*
X186432345Y-80103592D01*
X186596408Y-80267655D01*
X186786467Y-80400736D01*
X186996749Y-80498792D01*
X187220863Y-80558843D01*
X187405772Y-80575020D01*
X187451999Y-80579065D01*
X187452000Y-80579065D01*
X187452001Y-80579065D01*
X187490522Y-80575694D01*
X187683137Y-80558843D01*
X187907251Y-80498792D01*
X188117533Y-80400736D01*
X188307592Y-80267655D01*
X188471655Y-80103592D01*
X188604736Y-79913533D01*
X188609617Y-79903064D01*
X188655788Y-79850624D01*
X188722981Y-79831471D01*
X188789863Y-79851685D01*
X188834382Y-79903064D01*
X188839264Y-79913533D01*
X188972345Y-80103592D01*
X189136408Y-80267655D01*
X189326467Y-80400736D01*
X189536749Y-80498792D01*
X189760863Y-80558843D01*
X189945772Y-80575020D01*
X189991999Y-80579065D01*
X189992000Y-80579065D01*
X189992001Y-80579065D01*
X190030522Y-80575694D01*
X190223137Y-80558843D01*
X190447251Y-80498792D01*
X190657533Y-80400736D01*
X190847592Y-80267655D01*
X191011655Y-80103592D01*
X191144736Y-79913533D01*
X191149617Y-79903064D01*
X191195788Y-79850624D01*
X191262981Y-79831471D01*
X191329863Y-79851685D01*
X191374382Y-79903064D01*
X191379264Y-79913533D01*
X191512345Y-80103592D01*
X191676408Y-80267655D01*
X191866467Y-80400736D01*
X192076749Y-80498792D01*
X192300863Y-80558843D01*
X192485772Y-80575020D01*
X192531999Y-80579065D01*
X192532000Y-80579065D01*
X192532001Y-80579065D01*
X192570522Y-80575694D01*
X192763137Y-80558843D01*
X192987251Y-80498792D01*
X193197533Y-80400736D01*
X193387592Y-80267655D01*
X193551655Y-80103592D01*
X193684736Y-79913533D01*
X193782792Y-79703251D01*
X193842843Y-79479137D01*
X193863065Y-79248000D01*
X193842843Y-79016863D01*
X193782792Y-78792749D01*
X193684736Y-78582468D01*
X193684734Y-78582465D01*
X193684733Y-78582463D01*
X193551654Y-78392406D01*
X193387596Y-78228349D01*
X193387592Y-78228345D01*
X193235544Y-78121880D01*
X193197532Y-78095263D01*
X193092392Y-78046236D01*
X192987251Y-77997208D01*
X192987247Y-77997207D01*
X192987243Y-77997205D01*
X192763142Y-77937158D01*
X192763132Y-77937156D01*
X192532001Y-77916935D01*
X192531999Y-77916935D01*
X192300867Y-77937156D01*
X192300857Y-77937158D01*
X192076756Y-77997205D01*
X192076747Y-77997209D01*
X191866467Y-78095264D01*
X191866463Y-78095266D01*
X191676406Y-78228345D01*
X191512345Y-78392406D01*
X191379266Y-78582463D01*
X191379264Y-78582467D01*
X191374382Y-78592938D01*
X191328209Y-78645377D01*
X191261016Y-78664529D01*
X191194135Y-78644313D01*
X191149618Y-78592938D01*
X191144736Y-78582468D01*
X191144734Y-78582465D01*
X191144733Y-78582463D01*
X191011654Y-78392406D01*
X190847596Y-78228349D01*
X190847592Y-78228345D01*
X190695544Y-78121880D01*
X190657532Y-78095263D01*
X190552392Y-78046236D01*
X190447251Y-77997208D01*
X190447247Y-77997207D01*
X190447243Y-77997205D01*
X190223142Y-77937158D01*
X190223132Y-77937156D01*
X189992001Y-77916935D01*
X189991999Y-77916935D01*
X189760867Y-77937156D01*
X189760857Y-77937158D01*
X189536756Y-77997205D01*
X189536747Y-77997209D01*
X189326467Y-78095264D01*
X189326463Y-78095266D01*
X189136406Y-78228345D01*
X188972345Y-78392406D01*
X188839266Y-78582463D01*
X188839264Y-78582467D01*
X188834382Y-78592938D01*
X188788209Y-78645377D01*
X188721016Y-78664529D01*
X188654135Y-78644313D01*
X188609618Y-78592938D01*
X188604736Y-78582468D01*
X188604734Y-78582465D01*
X188604733Y-78582463D01*
X188471654Y-78392406D01*
X188307596Y-78228349D01*
X188307592Y-78228345D01*
X188155544Y-78121880D01*
X188117532Y-78095263D01*
X188012392Y-78046236D01*
X187907251Y-77997208D01*
X187907247Y-77997207D01*
X187907243Y-77997205D01*
X187683142Y-77937158D01*
X187683132Y-77937156D01*
X187452001Y-77916935D01*
X187451999Y-77916935D01*
X187220867Y-77937156D01*
X187220857Y-77937158D01*
X186996756Y-77997205D01*
X186996747Y-77997209D01*
X186786467Y-78095264D01*
X186786463Y-78095266D01*
X186596406Y-78228345D01*
X186432345Y-78392406D01*
X186299266Y-78582463D01*
X186299264Y-78582467D01*
X186294382Y-78592938D01*
X186248209Y-78645377D01*
X186181016Y-78664529D01*
X186114135Y-78644313D01*
X186069618Y-78592938D01*
X186064736Y-78582468D01*
X186064734Y-78582465D01*
X186064733Y-78582463D01*
X185931654Y-78392406D01*
X185767596Y-78228349D01*
X185767592Y-78228345D01*
X185615544Y-78121880D01*
X185577532Y-78095263D01*
X185472392Y-78046236D01*
X185367251Y-77997208D01*
X185367247Y-77997207D01*
X185367243Y-77997205D01*
X185143142Y-77937158D01*
X185143132Y-77937156D01*
X184912001Y-77916935D01*
X184911999Y-77916935D01*
X184680867Y-77937156D01*
X184680857Y-77937158D01*
X184456756Y-77997205D01*
X184456747Y-77997209D01*
X184246467Y-78095264D01*
X184246463Y-78095266D01*
X184056406Y-78228345D01*
X183892345Y-78392406D01*
X183759266Y-78582463D01*
X183759264Y-78582467D01*
X183754382Y-78592938D01*
X183708209Y-78645377D01*
X183641016Y-78664529D01*
X183574135Y-78644313D01*
X183529618Y-78592938D01*
X183524736Y-78582468D01*
X183524734Y-78582465D01*
X183524733Y-78582463D01*
X183391654Y-78392406D01*
X183227596Y-78228349D01*
X183227592Y-78228345D01*
X183075544Y-78121880D01*
X183037532Y-78095263D01*
X182932392Y-78046236D01*
X182827251Y-77997208D01*
X182827247Y-77997207D01*
X182827243Y-77997205D01*
X182603142Y-77937158D01*
X182603132Y-77937156D01*
X182372001Y-77916935D01*
X182371999Y-77916935D01*
X182140867Y-77937156D01*
X182140857Y-77937158D01*
X181916756Y-77997205D01*
X181916747Y-77997209D01*
X181706467Y-78095264D01*
X181706463Y-78095266D01*
X181516406Y-78228345D01*
X181352345Y-78392406D01*
X181219266Y-78582463D01*
X181219264Y-78582467D01*
X181214382Y-78592938D01*
X181168209Y-78645377D01*
X181101016Y-78664529D01*
X181034135Y-78644313D01*
X180989618Y-78592938D01*
X180984736Y-78582468D01*
X180984734Y-78582465D01*
X180984733Y-78582463D01*
X180851654Y-78392406D01*
X180687596Y-78228349D01*
X180687592Y-78228345D01*
X180535544Y-78121880D01*
X180497532Y-78095263D01*
X180392392Y-78046236D01*
X180287251Y-77997208D01*
X180287247Y-77997207D01*
X180287243Y-77997205D01*
X180063142Y-77937158D01*
X180063132Y-77937156D01*
X179832001Y-77916935D01*
X179831999Y-77916935D01*
X179600867Y-77937156D01*
X179600857Y-77937158D01*
X179376756Y-77997205D01*
X179376747Y-77997209D01*
X179166467Y-78095264D01*
X179166463Y-78095266D01*
X178976406Y-78228345D01*
X178812345Y-78392406D01*
X178679266Y-78582463D01*
X178679260Y-78582474D01*
X178674101Y-78593537D01*
X178627925Y-78645973D01*
X178560730Y-78665120D01*
X178493850Y-78644899D01*
X178449339Y-78593526D01*
X178444297Y-78582713D01*
X178311273Y-78392735D01*
X178311268Y-78392729D01*
X178147269Y-78228730D01*
X177957281Y-78095699D01*
X177747081Y-77997681D01*
X177542000Y-77942728D01*
X177542000Y-78879072D01*
X177463571Y-78833792D01*
X177350520Y-78803500D01*
X177233480Y-78803500D01*
X177120429Y-78833792D01*
X177042000Y-78879072D01*
X177042000Y-77942728D01*
X176836918Y-77997681D01*
X176626718Y-78095699D01*
X176626714Y-78095701D01*
X176436735Y-78228726D01*
X176436729Y-78228731D01*
X176272731Y-78392729D01*
X176272726Y-78392735D01*
X176139701Y-78582714D01*
X176139700Y-78582716D01*
X176134657Y-78593532D01*
X176088483Y-78645970D01*
X176021289Y-78665120D01*
X175954408Y-78644903D01*
X175909895Y-78593531D01*
X175908243Y-78589990D01*
X175904736Y-78582468D01*
X175904734Y-78582465D01*
X175904733Y-78582463D01*
X175771654Y-78392406D01*
X175607596Y-78228349D01*
X175607592Y-78228345D01*
X175455544Y-78121880D01*
X175417532Y-78095263D01*
X175312392Y-78046236D01*
X175207251Y-77997208D01*
X175207247Y-77997207D01*
X175207243Y-77997205D01*
X174983142Y-77937158D01*
X174983132Y-77937156D01*
X174752001Y-77916935D01*
X174751999Y-77916935D01*
X174520867Y-77937156D01*
X174520857Y-77937158D01*
X174296756Y-77997205D01*
X174296747Y-77997209D01*
X174086467Y-78095264D01*
X174086463Y-78095266D01*
X173896406Y-78228345D01*
X173732345Y-78392406D01*
X173599266Y-78582463D01*
X173599264Y-78582467D01*
X173594382Y-78592938D01*
X173548209Y-78645377D01*
X173481016Y-78664529D01*
X173414135Y-78644313D01*
X173369618Y-78592938D01*
X173364736Y-78582468D01*
X173364734Y-78582465D01*
X173364733Y-78582463D01*
X173231654Y-78392406D01*
X173067596Y-78228349D01*
X173067592Y-78228345D01*
X172915544Y-78121880D01*
X172877532Y-78095263D01*
X172772392Y-78046236D01*
X172667251Y-77997208D01*
X172667247Y-77997207D01*
X172667243Y-77997205D01*
X172443142Y-77937158D01*
X172443132Y-77937156D01*
X172212001Y-77916935D01*
X172211999Y-77916935D01*
X171980867Y-77937156D01*
X171980857Y-77937158D01*
X171756756Y-77997205D01*
X171756747Y-77997209D01*
X171546467Y-78095264D01*
X171546463Y-78095266D01*
X171356406Y-78228345D01*
X171192345Y-78392406D01*
X171059266Y-78582463D01*
X171059264Y-78582467D01*
X171054382Y-78592938D01*
X171008209Y-78645377D01*
X170941016Y-78664529D01*
X170874135Y-78644313D01*
X170829618Y-78592938D01*
X170824736Y-78582468D01*
X170824734Y-78582465D01*
X170824733Y-78582463D01*
X170691654Y-78392406D01*
X170527596Y-78228349D01*
X170527592Y-78228345D01*
X170375544Y-78121880D01*
X170337532Y-78095263D01*
X170232392Y-78046236D01*
X170127251Y-77997208D01*
X170127247Y-77997207D01*
X170127243Y-77997205D01*
X169903142Y-77937158D01*
X169903132Y-77937156D01*
X169672001Y-77916935D01*
X169671999Y-77916935D01*
X169440867Y-77937156D01*
X169440857Y-77937158D01*
X169216756Y-77997205D01*
X169216747Y-77997209D01*
X169006467Y-78095264D01*
X169006463Y-78095266D01*
X168816406Y-78228345D01*
X168652345Y-78392406D01*
X168519266Y-78582463D01*
X168519264Y-78582467D01*
X168514382Y-78592938D01*
X168468209Y-78645377D01*
X168401016Y-78664529D01*
X168334135Y-78644313D01*
X168289618Y-78592938D01*
X168284736Y-78582468D01*
X168284734Y-78582465D01*
X168284733Y-78582463D01*
X168151654Y-78392406D01*
X167987596Y-78228349D01*
X167987592Y-78228345D01*
X167835544Y-78121880D01*
X167797532Y-78095263D01*
X167692392Y-78046236D01*
X167587251Y-77997208D01*
X167587247Y-77997207D01*
X167587243Y-77997205D01*
X167363142Y-77937158D01*
X167363132Y-77937156D01*
X167132001Y-77916935D01*
X167131999Y-77916935D01*
X166900867Y-77937156D01*
X166900857Y-77937158D01*
X166676756Y-77997205D01*
X166676747Y-77997209D01*
X166466467Y-78095264D01*
X166466463Y-78095266D01*
X166276406Y-78228345D01*
X166112345Y-78392406D01*
X165979266Y-78582463D01*
X165979264Y-78582467D01*
X165974382Y-78592938D01*
X165928209Y-78645377D01*
X165861016Y-78664529D01*
X165794135Y-78644313D01*
X165749618Y-78592938D01*
X165744736Y-78582468D01*
X165744734Y-78582465D01*
X165744733Y-78582463D01*
X165611654Y-78392406D01*
X165447596Y-78228349D01*
X165447592Y-78228345D01*
X165295544Y-78121880D01*
X165257532Y-78095263D01*
X165152392Y-78046236D01*
X165047251Y-77997208D01*
X165047247Y-77997207D01*
X165047243Y-77997205D01*
X164823142Y-77937158D01*
X164823132Y-77937156D01*
X164592001Y-77916935D01*
X164591999Y-77916935D01*
X164360867Y-77937156D01*
X164360857Y-77937158D01*
X164136756Y-77997205D01*
X164136747Y-77997209D01*
X163926467Y-78095264D01*
X163926463Y-78095266D01*
X163736406Y-78228345D01*
X163572345Y-78392406D01*
X163439266Y-78582463D01*
X163439264Y-78582467D01*
X163341209Y-78792747D01*
X163341205Y-78792756D01*
X163281158Y-79016857D01*
X163281156Y-79016867D01*
X163260935Y-79247999D01*
X144526000Y-79247999D01*
X144526000Y-65650135D01*
X150414500Y-65650135D01*
X150414500Y-67445870D01*
X150414501Y-67445876D01*
X150420908Y-67505483D01*
X150471202Y-67640328D01*
X150471206Y-67640335D01*
X150557452Y-67755544D01*
X150557455Y-67755547D01*
X150672664Y-67841793D01*
X150672671Y-67841797D01*
X150672674Y-67841798D01*
X150804598Y-67891002D01*
X150860531Y-67932873D01*
X150884949Y-67998337D01*
X150870098Y-68066610D01*
X150848947Y-68094865D01*
X150726886Y-68216926D01*
X150591400Y-68410420D01*
X150591399Y-68410422D01*
X150491570Y-68624507D01*
X150491567Y-68624513D01*
X150434364Y-68837999D01*
X150434364Y-68838000D01*
X151331988Y-68838000D01*
X151299075Y-68895007D01*
X151265000Y-69022174D01*
X151265000Y-69153826D01*
X151299075Y-69280993D01*
X151331988Y-69338000D01*
X150434364Y-69338000D01*
X150491567Y-69551486D01*
X150491570Y-69551492D01*
X150591399Y-69765578D01*
X150726894Y-69959082D01*
X150893917Y-70126105D01*
X151087421Y-70261600D01*
X151301507Y-70361429D01*
X151301516Y-70361433D01*
X151515000Y-70418634D01*
X151515000Y-69521012D01*
X151572007Y-69553925D01*
X151699174Y-69588000D01*
X151830826Y-69588000D01*
X151957993Y-69553925D01*
X152015000Y-69521012D01*
X152015000Y-70418633D01*
X152228483Y-70361433D01*
X152228492Y-70361429D01*
X152442578Y-70261600D01*
X152636082Y-70126105D01*
X152803105Y-69959082D01*
X152938600Y-69765578D01*
X153038429Y-69551492D01*
X153038432Y-69551486D01*
X153095636Y-69338000D01*
X152198012Y-69338000D01*
X152230925Y-69280993D01*
X152265000Y-69153826D01*
X152265000Y-69022174D01*
X152230925Y-68895007D01*
X152198012Y-68838000D01*
X153095636Y-68838000D01*
X153095635Y-68837999D01*
X153038432Y-68624513D01*
X153038429Y-68624507D01*
X152938600Y-68410422D01*
X152938599Y-68410420D01*
X152803113Y-68216926D01*
X152803108Y-68216920D01*
X152681053Y-68094865D01*
X152647568Y-68033542D01*
X152652552Y-67963850D01*
X152694424Y-67907917D01*
X152725400Y-67891002D01*
X152857331Y-67841796D01*
X152972546Y-67755546D01*
X153058796Y-67640331D01*
X153109091Y-67505483D01*
X153115500Y-67445873D01*
X153115499Y-65650135D01*
X157780500Y-65650135D01*
X157780500Y-67445870D01*
X157780501Y-67445876D01*
X157786908Y-67505483D01*
X157837202Y-67640328D01*
X157837206Y-67640335D01*
X157923452Y-67755544D01*
X157923455Y-67755547D01*
X158038664Y-67841793D01*
X158038671Y-67841797D01*
X158038674Y-67841798D01*
X158170598Y-67891002D01*
X158226531Y-67932873D01*
X158250949Y-67998337D01*
X158236098Y-68066610D01*
X158214947Y-68094865D01*
X158092886Y-68216926D01*
X157957400Y-68410420D01*
X157957399Y-68410422D01*
X157857570Y-68624507D01*
X157857567Y-68624513D01*
X157800364Y-68837999D01*
X157800364Y-68838000D01*
X158697988Y-68838000D01*
X158665075Y-68895007D01*
X158631000Y-69022174D01*
X158631000Y-69153826D01*
X158665075Y-69280993D01*
X158697988Y-69338000D01*
X157800364Y-69338000D01*
X157857567Y-69551486D01*
X157857570Y-69551492D01*
X157957399Y-69765578D01*
X158092894Y-69959082D01*
X158259917Y-70126105D01*
X158453421Y-70261600D01*
X158667507Y-70361429D01*
X158667516Y-70361433D01*
X158881000Y-70418634D01*
X158881000Y-69521012D01*
X158938007Y-69553925D01*
X159065174Y-69588000D01*
X159196826Y-69588000D01*
X159323993Y-69553925D01*
X159381000Y-69521012D01*
X159381000Y-70418633D01*
X159594483Y-70361433D01*
X159594492Y-70361429D01*
X159808578Y-70261600D01*
X160002082Y-70126105D01*
X160169105Y-69959082D01*
X160304600Y-69765578D01*
X160404429Y-69551492D01*
X160404432Y-69551486D01*
X160461636Y-69338000D01*
X159564012Y-69338000D01*
X159596925Y-69280993D01*
X159631000Y-69153826D01*
X159631000Y-69022174D01*
X159596925Y-68895007D01*
X159564012Y-68838000D01*
X160461636Y-68838000D01*
X160461635Y-68837999D01*
X160404432Y-68624513D01*
X160404429Y-68624507D01*
X160304600Y-68410422D01*
X160304599Y-68410420D01*
X160169113Y-68216926D01*
X160169108Y-68216920D01*
X160047053Y-68094865D01*
X160013568Y-68033542D01*
X160018552Y-67963850D01*
X160060424Y-67907917D01*
X160091400Y-67891002D01*
X160223331Y-67841796D01*
X160338546Y-67755546D01*
X160424796Y-67640331D01*
X160475091Y-67505483D01*
X160481500Y-67445873D01*
X160481499Y-65650128D01*
X160475091Y-65590517D01*
X160430326Y-65470497D01*
X160424797Y-65455671D01*
X160424793Y-65455664D01*
X160338547Y-65340455D01*
X160338544Y-65340452D01*
X160223335Y-65254206D01*
X160223328Y-65254202D01*
X160088482Y-65203908D01*
X160088483Y-65203908D01*
X160028883Y-65197501D01*
X160028881Y-65197500D01*
X160028873Y-65197500D01*
X160028864Y-65197500D01*
X158233129Y-65197500D01*
X158233123Y-65197501D01*
X158173516Y-65203908D01*
X158038671Y-65254202D01*
X158038664Y-65254206D01*
X157923455Y-65340452D01*
X157923452Y-65340455D01*
X157837206Y-65455664D01*
X157837202Y-65455671D01*
X157786908Y-65590517D01*
X157780501Y-65650116D01*
X157780501Y-65650123D01*
X157780500Y-65650135D01*
X153115499Y-65650135D01*
X153115499Y-65650128D01*
X153109091Y-65590517D01*
X153064326Y-65470497D01*
X153058797Y-65455671D01*
X153058793Y-65455664D01*
X152972547Y-65340455D01*
X152972544Y-65340452D01*
X152857335Y-65254206D01*
X152857328Y-65254202D01*
X152722482Y-65203908D01*
X152722483Y-65203908D01*
X152662883Y-65197501D01*
X152662881Y-65197500D01*
X152662873Y-65197500D01*
X152662864Y-65197500D01*
X150867129Y-65197500D01*
X150867123Y-65197501D01*
X150807516Y-65203908D01*
X150672671Y-65254202D01*
X150672664Y-65254206D01*
X150557455Y-65340452D01*
X150557452Y-65340455D01*
X150471206Y-65455664D01*
X150471202Y-65455671D01*
X150420908Y-65590517D01*
X150414501Y-65650116D01*
X150414501Y-65650123D01*
X150414500Y-65650135D01*
X144526000Y-65650135D01*
X144526000Y-56247135D01*
X150287500Y-56247135D01*
X150287500Y-58042870D01*
X150287501Y-58042876D01*
X150293908Y-58102483D01*
X150344202Y-58237328D01*
X150344206Y-58237335D01*
X150430452Y-58352544D01*
X150430455Y-58352547D01*
X150545664Y-58438793D01*
X150545671Y-58438797D01*
X150545674Y-58438798D01*
X150677598Y-58488002D01*
X150733531Y-58529873D01*
X150757949Y-58595337D01*
X150743098Y-58663610D01*
X150721947Y-58691865D01*
X150599886Y-58813926D01*
X150464400Y-59007420D01*
X150464399Y-59007422D01*
X150364570Y-59221507D01*
X150364567Y-59221513D01*
X150307364Y-59434999D01*
X150307364Y-59435000D01*
X151204988Y-59435000D01*
X151172075Y-59492007D01*
X151138000Y-59619174D01*
X151138000Y-59750826D01*
X151172075Y-59877993D01*
X151204988Y-59935000D01*
X150307364Y-59935000D01*
X150364567Y-60148486D01*
X150364570Y-60148492D01*
X150464399Y-60362578D01*
X150599894Y-60556082D01*
X150766917Y-60723105D01*
X150960421Y-60858600D01*
X151174507Y-60958429D01*
X151174516Y-60958433D01*
X151388000Y-61015634D01*
X151388000Y-60118012D01*
X151445007Y-60150925D01*
X151572174Y-60185000D01*
X151703826Y-60185000D01*
X151830993Y-60150925D01*
X151888000Y-60118012D01*
X151888000Y-61015633D01*
X152101483Y-60958433D01*
X152101492Y-60958429D01*
X152315578Y-60858600D01*
X152509082Y-60723105D01*
X152676105Y-60556082D01*
X152811600Y-60362578D01*
X152911429Y-60148492D01*
X152911432Y-60148486D01*
X152968636Y-59935000D01*
X152071012Y-59935000D01*
X152103925Y-59877993D01*
X152138000Y-59750826D01*
X152138000Y-59619174D01*
X152103925Y-59492007D01*
X152071012Y-59435000D01*
X152968636Y-59435000D01*
X152968635Y-59434999D01*
X152911432Y-59221513D01*
X152911429Y-59221507D01*
X152811600Y-59007422D01*
X152811599Y-59007420D01*
X152676113Y-58813926D01*
X152676108Y-58813920D01*
X152554053Y-58691865D01*
X152520568Y-58630542D01*
X152525552Y-58560850D01*
X152567424Y-58504917D01*
X152598400Y-58488002D01*
X152730331Y-58438796D01*
X152845546Y-58352546D01*
X152931796Y-58237331D01*
X152982091Y-58102483D01*
X152988500Y-58042873D01*
X152988499Y-56247135D01*
X157907500Y-56247135D01*
X157907500Y-58042870D01*
X157907501Y-58042876D01*
X157913908Y-58102483D01*
X157964202Y-58237328D01*
X157964206Y-58237335D01*
X158050452Y-58352544D01*
X158050455Y-58352547D01*
X158165664Y-58438793D01*
X158165671Y-58438797D01*
X158165674Y-58438798D01*
X158297598Y-58488002D01*
X158353531Y-58529873D01*
X158377949Y-58595337D01*
X158363098Y-58663610D01*
X158341947Y-58691865D01*
X158219886Y-58813926D01*
X158084400Y-59007420D01*
X158084399Y-59007422D01*
X157984570Y-59221507D01*
X157984567Y-59221513D01*
X157927364Y-59434999D01*
X157927364Y-59435000D01*
X158824988Y-59435000D01*
X158792075Y-59492007D01*
X158758000Y-59619174D01*
X158758000Y-59750826D01*
X158792075Y-59877993D01*
X158824988Y-59935000D01*
X157927364Y-59935000D01*
X157984567Y-60148486D01*
X157984570Y-60148492D01*
X158084399Y-60362578D01*
X158219894Y-60556082D01*
X158386917Y-60723105D01*
X158580421Y-60858600D01*
X158794507Y-60958429D01*
X158794516Y-60958433D01*
X159008000Y-61015634D01*
X159008000Y-60118012D01*
X159065007Y-60150925D01*
X159192174Y-60185000D01*
X159323826Y-60185000D01*
X159450993Y-60150925D01*
X159508000Y-60118012D01*
X159508000Y-61015633D01*
X159721483Y-60958433D01*
X159721492Y-60958429D01*
X159935578Y-60858600D01*
X160129082Y-60723105D01*
X160296105Y-60556082D01*
X160431600Y-60362578D01*
X160531429Y-60148492D01*
X160531432Y-60148486D01*
X160588636Y-59935000D01*
X159691012Y-59935000D01*
X159723925Y-59877993D01*
X159758000Y-59750826D01*
X159758000Y-59619174D01*
X159723925Y-59492007D01*
X159691012Y-59435000D01*
X160588636Y-59435000D01*
X160588635Y-59434999D01*
X160531432Y-59221513D01*
X160531429Y-59221507D01*
X160431600Y-59007422D01*
X160431599Y-59007420D01*
X160296113Y-58813926D01*
X160296108Y-58813920D01*
X160174053Y-58691865D01*
X160140568Y-58630542D01*
X160145552Y-58560850D01*
X160187424Y-58504917D01*
X160218400Y-58488002D01*
X160350331Y-58438796D01*
X160465546Y-58352546D01*
X160551796Y-58237331D01*
X160602091Y-58102483D01*
X160608500Y-58042873D01*
X160608499Y-56247128D01*
X160602091Y-56187517D01*
X160582497Y-56134984D01*
X160551797Y-56052671D01*
X160551793Y-56052664D01*
X160465547Y-55937455D01*
X160465544Y-55937452D01*
X160350335Y-55851206D01*
X160350328Y-55851202D01*
X160215482Y-55800908D01*
X160215483Y-55800908D01*
X160155883Y-55794501D01*
X160155881Y-55794500D01*
X160155873Y-55794500D01*
X160155864Y-55794500D01*
X158360129Y-55794500D01*
X158360123Y-55794501D01*
X158300516Y-55800908D01*
X158165671Y-55851202D01*
X158165664Y-55851206D01*
X158050455Y-55937452D01*
X158050452Y-55937455D01*
X157964206Y-56052664D01*
X157964202Y-56052671D01*
X157913908Y-56187517D01*
X157912366Y-56201865D01*
X157907501Y-56247123D01*
X157907500Y-56247135D01*
X152988499Y-56247135D01*
X152988499Y-56247128D01*
X152982091Y-56187517D01*
X152962497Y-56134984D01*
X152931797Y-56052671D01*
X152931793Y-56052664D01*
X152845547Y-55937455D01*
X152845544Y-55937452D01*
X152730335Y-55851206D01*
X152730328Y-55851202D01*
X152595482Y-55800908D01*
X152595483Y-55800908D01*
X152535883Y-55794501D01*
X152535881Y-55794500D01*
X152535873Y-55794500D01*
X152535864Y-55794500D01*
X150740129Y-55794500D01*
X150740123Y-55794501D01*
X150680516Y-55800908D01*
X150545671Y-55851202D01*
X150545664Y-55851206D01*
X150430455Y-55937452D01*
X150430452Y-55937455D01*
X150344206Y-56052664D01*
X150344202Y-56052671D01*
X150293908Y-56187517D01*
X150292366Y-56201865D01*
X150287501Y-56247123D01*
X150287500Y-56247135D01*
X144526000Y-56247135D01*
X144526000Y-49783998D01*
X173446532Y-49783998D01*
X173446532Y-49784001D01*
X173466364Y-50010686D01*
X173466366Y-50010697D01*
X173525258Y-50230488D01*
X173525261Y-50230497D01*
X173621431Y-50436732D01*
X173621432Y-50436734D01*
X173751954Y-50623141D01*
X173912858Y-50784045D01*
X173912861Y-50784047D01*
X174099266Y-50914568D01*
X174157865Y-50941893D01*
X174210305Y-50988065D01*
X174229457Y-51055258D01*
X174209242Y-51122139D01*
X174157867Y-51166657D01*
X174099513Y-51193868D01*
X174099512Y-51193868D01*
X174026526Y-51244973D01*
X174026526Y-51244974D01*
X174667905Y-51886352D01*
X174580429Y-51909792D01*
X174479070Y-51968311D01*
X174396311Y-52051070D01*
X174337792Y-52152429D01*
X174314352Y-52239904D01*
X173672974Y-51598526D01*
X173672973Y-51598526D01*
X173621868Y-51671512D01*
X173621866Y-51671516D01*
X173525734Y-51877673D01*
X173525730Y-51877682D01*
X173466860Y-52097389D01*
X173466858Y-52097400D01*
X173447034Y-52323997D01*
X173447034Y-52324002D01*
X173466858Y-52550599D01*
X173466860Y-52550610D01*
X173525730Y-52770317D01*
X173525735Y-52770331D01*
X173621863Y-52976478D01*
X173672974Y-53049472D01*
X174314352Y-52408094D01*
X174337792Y-52495571D01*
X174396311Y-52596930D01*
X174479070Y-52679689D01*
X174580429Y-52738208D01*
X174667905Y-52761647D01*
X174026526Y-53403025D01*
X174099513Y-53454132D01*
X174099521Y-53454136D01*
X174157864Y-53481342D01*
X174210304Y-53527514D01*
X174229456Y-53594707D01*
X174209241Y-53661589D01*
X174157866Y-53706105D01*
X174099272Y-53733428D01*
X174099265Y-53733432D01*
X173912858Y-53863954D01*
X173751954Y-54024858D01*
X173621432Y-54211265D01*
X173621431Y-54211267D01*
X173525261Y-54417502D01*
X173525258Y-54417511D01*
X173466366Y-54637302D01*
X173466364Y-54637313D01*
X173446532Y-54863998D01*
X173446532Y-54864001D01*
X173466364Y-55090686D01*
X173466366Y-55090697D01*
X173525258Y-55310488D01*
X173525261Y-55310497D01*
X173621431Y-55516732D01*
X173621432Y-55516734D01*
X173751954Y-55703141D01*
X173912858Y-55864045D01*
X173912861Y-55864047D01*
X174099266Y-55994568D01*
X174157275Y-56021618D01*
X174209714Y-56067791D01*
X174228866Y-56134984D01*
X174208650Y-56201865D01*
X174157275Y-56246381D01*
X174155677Y-56247127D01*
X174099267Y-56273431D01*
X174099265Y-56273432D01*
X173912858Y-56403954D01*
X173751954Y-56564858D01*
X173621432Y-56751265D01*
X173621431Y-56751267D01*
X173525261Y-56957502D01*
X173525258Y-56957511D01*
X173466366Y-57177302D01*
X173466364Y-57177313D01*
X173446532Y-57403998D01*
X173446532Y-57404001D01*
X173466364Y-57630686D01*
X173466366Y-57630697D01*
X173525258Y-57850488D01*
X173525261Y-57850497D01*
X173621431Y-58056732D01*
X173621432Y-58056734D01*
X173751954Y-58243141D01*
X173912858Y-58404045D01*
X173912861Y-58404047D01*
X174099266Y-58534568D01*
X174155628Y-58560850D01*
X174157275Y-58561618D01*
X174209714Y-58607791D01*
X174228866Y-58674984D01*
X174208650Y-58741865D01*
X174157275Y-58786382D01*
X174099267Y-58813431D01*
X174099265Y-58813432D01*
X173912858Y-58943954D01*
X173751954Y-59104858D01*
X173621432Y-59291265D01*
X173621431Y-59291267D01*
X173525261Y-59497502D01*
X173525258Y-59497511D01*
X173466366Y-59717302D01*
X173466364Y-59717313D01*
X173446532Y-59943998D01*
X173446532Y-59944001D01*
X173466364Y-60170686D01*
X173466366Y-60170697D01*
X173525258Y-60390488D01*
X173525261Y-60390497D01*
X173621431Y-60596732D01*
X173621432Y-60596734D01*
X173751954Y-60783141D01*
X173912858Y-60944045D01*
X173959693Y-60976839D01*
X174099266Y-61074568D01*
X174157275Y-61101618D01*
X174209714Y-61147791D01*
X174228866Y-61214984D01*
X174208650Y-61281865D01*
X174157275Y-61326382D01*
X174099267Y-61353431D01*
X174099265Y-61353432D01*
X173912858Y-61483954D01*
X173751954Y-61644858D01*
X173621432Y-61831265D01*
X173621431Y-61831267D01*
X173525261Y-62037502D01*
X173525258Y-62037511D01*
X173466366Y-62257302D01*
X173466364Y-62257313D01*
X173446532Y-62483998D01*
X173446532Y-62484001D01*
X173466364Y-62710686D01*
X173466366Y-62710697D01*
X173525258Y-62930488D01*
X173525261Y-62930497D01*
X173621431Y-63136732D01*
X173621432Y-63136734D01*
X173751954Y-63323141D01*
X173912858Y-63484045D01*
X173912861Y-63484047D01*
X174099266Y-63614568D01*
X174157275Y-63641618D01*
X174209714Y-63687791D01*
X174228866Y-63754984D01*
X174208650Y-63821865D01*
X174157275Y-63866382D01*
X174099267Y-63893431D01*
X174099265Y-63893432D01*
X173912858Y-64023954D01*
X173751954Y-64184858D01*
X173621432Y-64371265D01*
X173621431Y-64371267D01*
X173525261Y-64577502D01*
X173525258Y-64577511D01*
X173466366Y-64797302D01*
X173466364Y-64797313D01*
X173446532Y-65023998D01*
X173446532Y-65024001D01*
X173466364Y-65250686D01*
X173466366Y-65250697D01*
X173525258Y-65470488D01*
X173525261Y-65470497D01*
X173621431Y-65676732D01*
X173621432Y-65676734D01*
X173751954Y-65863141D01*
X173912858Y-66024045D01*
X173912861Y-66024047D01*
X174099266Y-66154568D01*
X174157275Y-66181618D01*
X174209714Y-66227791D01*
X174228866Y-66294984D01*
X174208650Y-66361865D01*
X174157275Y-66406382D01*
X174099267Y-66433431D01*
X174099265Y-66433432D01*
X173912858Y-66563954D01*
X173751954Y-66724858D01*
X173621432Y-66911265D01*
X173621431Y-66911267D01*
X173525261Y-67117502D01*
X173525258Y-67117511D01*
X173466366Y-67337302D01*
X173466364Y-67337313D01*
X173446532Y-67563998D01*
X173446532Y-67564001D01*
X173466364Y-67790686D01*
X173466366Y-67790697D01*
X173525258Y-68010488D01*
X173525261Y-68010497D01*
X173621431Y-68216732D01*
X173621432Y-68216734D01*
X173751954Y-68403141D01*
X173912858Y-68564045D01*
X173912861Y-68564047D01*
X174099266Y-68694568D01*
X174157275Y-68721618D01*
X174209714Y-68767791D01*
X174228866Y-68834984D01*
X174208650Y-68901865D01*
X174157275Y-68946382D01*
X174099267Y-68973431D01*
X174099265Y-68973432D01*
X173912858Y-69103954D01*
X173751954Y-69264858D01*
X173621432Y-69451265D01*
X173621431Y-69451267D01*
X173525261Y-69657502D01*
X173525258Y-69657511D01*
X173466366Y-69877302D01*
X173466364Y-69877313D01*
X173446532Y-70103998D01*
X173446532Y-70104001D01*
X173466364Y-70330686D01*
X173466366Y-70330697D01*
X173525258Y-70550488D01*
X173525261Y-70550497D01*
X173621431Y-70756732D01*
X173621432Y-70756734D01*
X173751954Y-70943141D01*
X173912858Y-71104045D01*
X173912861Y-71104047D01*
X174099266Y-71234568D01*
X174305504Y-71330739D01*
X174525308Y-71389635D01*
X174687230Y-71403801D01*
X174751998Y-71409468D01*
X174752000Y-71409468D01*
X174752002Y-71409468D01*
X174808673Y-71404509D01*
X174978692Y-71389635D01*
X175198496Y-71330739D01*
X175404734Y-71234568D01*
X175591139Y-71104047D01*
X175752047Y-70943139D01*
X175882568Y-70756734D01*
X175978739Y-70550496D01*
X176037635Y-70330692D01*
X176057468Y-70104000D01*
X176037635Y-69877308D01*
X175978739Y-69657504D01*
X175882568Y-69451266D01*
X175752047Y-69264861D01*
X175752045Y-69264858D01*
X175591141Y-69103954D01*
X175404734Y-68973432D01*
X175404728Y-68973429D01*
X175346725Y-68946382D01*
X175294285Y-68900210D01*
X175275133Y-68833017D01*
X175295348Y-68766135D01*
X175346725Y-68721618D01*
X175404734Y-68694568D01*
X175591139Y-68564047D01*
X175752047Y-68403139D01*
X175882568Y-68216734D01*
X175978739Y-68010496D01*
X176037635Y-67790692D01*
X176057468Y-67564000D01*
X176037635Y-67337308D01*
X175978739Y-67117504D01*
X175882568Y-66911266D01*
X175752047Y-66724861D01*
X175752045Y-66724858D01*
X175591141Y-66563954D01*
X175404734Y-66433432D01*
X175404728Y-66433429D01*
X175346725Y-66406382D01*
X175294285Y-66360210D01*
X175275133Y-66293017D01*
X175295348Y-66226135D01*
X175346725Y-66181618D01*
X175404734Y-66154568D01*
X175591139Y-66024047D01*
X175752047Y-65863139D01*
X175882568Y-65676734D01*
X175978739Y-65470496D01*
X176037635Y-65250692D01*
X176057468Y-65024000D01*
X176037635Y-64797308D01*
X175978739Y-64577504D01*
X175882568Y-64371266D01*
X175752047Y-64184861D01*
X175752045Y-64184858D01*
X175591141Y-64023954D01*
X175404734Y-63893432D01*
X175404728Y-63893429D01*
X175346725Y-63866382D01*
X175294285Y-63820210D01*
X175275133Y-63753017D01*
X175295348Y-63686135D01*
X175346725Y-63641618D01*
X175404734Y-63614568D01*
X175591139Y-63484047D01*
X175752047Y-63323139D01*
X175882568Y-63136734D01*
X175978739Y-62930496D01*
X176037635Y-62710692D01*
X176057468Y-62484000D01*
X176037635Y-62257308D01*
X175978739Y-62037504D01*
X175882568Y-61831266D01*
X175752047Y-61644861D01*
X175752045Y-61644858D01*
X175591141Y-61483954D01*
X175404734Y-61353432D01*
X175404728Y-61353429D01*
X175346725Y-61326382D01*
X175294285Y-61280210D01*
X175275133Y-61213017D01*
X175295348Y-61146135D01*
X175346725Y-61101618D01*
X175404734Y-61074568D01*
X175591139Y-60944047D01*
X175752047Y-60783139D01*
X175882568Y-60596734D01*
X175978739Y-60390496D01*
X176037635Y-60170692D01*
X176057468Y-59944000D01*
X176037635Y-59717308D01*
X175978739Y-59497504D01*
X175882568Y-59291266D01*
X175752047Y-59104861D01*
X175752045Y-59104858D01*
X175591141Y-58943954D01*
X175404734Y-58813432D01*
X175404728Y-58813429D01*
X175346725Y-58786382D01*
X175294285Y-58740210D01*
X175275133Y-58673017D01*
X175295348Y-58606135D01*
X175346725Y-58561618D01*
X175348372Y-58560850D01*
X175404734Y-58534568D01*
X175591139Y-58404047D01*
X175752047Y-58243139D01*
X175882568Y-58056734D01*
X175978739Y-57850496D01*
X176037635Y-57630692D01*
X176057468Y-57404000D01*
X176037635Y-57177308D01*
X175978739Y-56957504D01*
X175882568Y-56751266D01*
X175752047Y-56564861D01*
X175752045Y-56564858D01*
X175591141Y-56403954D01*
X175404734Y-56273432D01*
X175404728Y-56273429D01*
X175348323Y-56247127D01*
X175346724Y-56246381D01*
X175294285Y-56200210D01*
X175275133Y-56133017D01*
X175295348Y-56066135D01*
X175346725Y-56021618D01*
X175404734Y-55994568D01*
X175591139Y-55864047D01*
X175752047Y-55703139D01*
X175882568Y-55516734D01*
X175978739Y-55310496D01*
X176037635Y-55090692D01*
X176057468Y-54864000D01*
X176037635Y-54637308D01*
X175978739Y-54417504D01*
X175882568Y-54211266D01*
X175752047Y-54024861D01*
X175752045Y-54024858D01*
X175591141Y-53863954D01*
X175404735Y-53733433D01*
X175404736Y-53733433D01*
X175404734Y-53733432D01*
X175346132Y-53706105D01*
X175293694Y-53659933D01*
X175274543Y-53592739D01*
X175294759Y-53525858D01*
X175346135Y-53481341D01*
X175404482Y-53454133D01*
X175477471Y-53403024D01*
X174836094Y-52761647D01*
X174923571Y-52738208D01*
X175024930Y-52679689D01*
X175107689Y-52596930D01*
X175166208Y-52495571D01*
X175189647Y-52408094D01*
X175831024Y-53049471D01*
X175882136Y-52976478D01*
X175978264Y-52770331D01*
X175978269Y-52770317D01*
X176037139Y-52550610D01*
X176037141Y-52550599D01*
X176056966Y-52324002D01*
X176056966Y-52323997D01*
X176037141Y-52097400D01*
X176037139Y-52097389D01*
X175978269Y-51877682D01*
X175978264Y-51877668D01*
X175882136Y-51671521D01*
X175882132Y-51671513D01*
X175831025Y-51598526D01*
X175189647Y-52239904D01*
X175166208Y-52152429D01*
X175107689Y-52051070D01*
X175024930Y-51968311D01*
X174923571Y-51909792D01*
X174836094Y-51886352D01*
X175477472Y-51244974D01*
X175404480Y-51193864D01*
X175346134Y-51166657D01*
X175293695Y-51120484D01*
X175274543Y-51053291D01*
X175294759Y-50986410D01*
X175346134Y-50941893D01*
X175404734Y-50914568D01*
X175591139Y-50784047D01*
X175752047Y-50623139D01*
X175882568Y-50436734D01*
X175978739Y-50230496D01*
X176037635Y-50010692D01*
X176057468Y-49784000D01*
X176037635Y-49557308D01*
X175978739Y-49337504D01*
X175882568Y-49131266D01*
X175752047Y-48944861D01*
X175752045Y-48944858D01*
X175591141Y-48783954D01*
X175404734Y-48653432D01*
X175404732Y-48653431D01*
X175198497Y-48557261D01*
X175198488Y-48557258D01*
X174978697Y-48498366D01*
X174978693Y-48498365D01*
X174978692Y-48498365D01*
X174978691Y-48498364D01*
X174978686Y-48498364D01*
X174752002Y-48478532D01*
X174751998Y-48478532D01*
X174525313Y-48498364D01*
X174525302Y-48498366D01*
X174305511Y-48557258D01*
X174305502Y-48557261D01*
X174099267Y-48653431D01*
X174099265Y-48653432D01*
X173912858Y-48783954D01*
X173751954Y-48944858D01*
X173621432Y-49131265D01*
X173621431Y-49131267D01*
X173525261Y-49337502D01*
X173525258Y-49337511D01*
X173466366Y-49557302D01*
X173466364Y-49557313D01*
X173446532Y-49783998D01*
X144526000Y-49783998D01*
X144526000Y-43304000D01*
X144545685Y-43236961D01*
X144598489Y-43191206D01*
X144650000Y-43180000D01*
X202568000Y-43180000D01*
X202635039Y-43199685D01*
G37*
%TD.AperFunction*%
%TD*%
M02*
