%TF.GenerationSoftware,KiCad,Pcbnew,8.0.5*%
%TF.CreationDate,2024-11-18T16:45:28-05:00*%
%TF.ProjectId,ELEC4907,454c4543-3439-4303-972e-6b696361645f,rev?*%
%TF.SameCoordinates,Original*%
%TF.FileFunction,Copper,L4,Bot*%
%TF.FilePolarity,Positive*%
%FSLAX46Y46*%
G04 Gerber Fmt 4.6, Leading zero omitted, Abs format (unit mm)*
G04 Created by KiCad (PCBNEW 8.0.5) date 2024-11-18 16:45:28*
%MOMM*%
%LPD*%
G01*
G04 APERTURE LIST*
%TA.AperFunction,ComponentPad*%
%ADD10C,1.600000*%
%TD*%
%TA.AperFunction,ComponentPad*%
%ADD11C,5.500000*%
%TD*%
%TA.AperFunction,ComponentPad*%
%ADD12R,1.218000X1.218000*%
%TD*%
%TA.AperFunction,ComponentPad*%
%ADD13C,1.218000*%
%TD*%
%TA.AperFunction,ComponentPad*%
%ADD14O,1.600000X1.600000*%
%TD*%
%TA.AperFunction,ComponentPad*%
%ADD15C,1.524000*%
%TD*%
%TA.AperFunction,ComponentPad*%
%ADD16R,1.600000X1.600000*%
%TD*%
%TA.AperFunction,ComponentPad*%
%ADD17R,1.160000X1.160000*%
%TD*%
%TA.AperFunction,ComponentPad*%
%ADD18C,1.160000*%
%TD*%
%TA.AperFunction,ComponentPad*%
%ADD19R,2.000000X2.000000*%
%TD*%
%TA.AperFunction,ComponentPad*%
%ADD20O,2.000000X2.000000*%
%TD*%
%TA.AperFunction,ComponentPad*%
%ADD21R,2.400000X2.400000*%
%TD*%
%TA.AperFunction,ComponentPad*%
%ADD22O,2.400000X2.400000*%
%TD*%
%TA.AperFunction,ComponentPad*%
%ADD23C,1.408000*%
%TD*%
%TA.AperFunction,ComponentPad*%
%ADD24R,1.320800X1.320800*%
%TD*%
%TA.AperFunction,ComponentPad*%
%ADD25C,1.320800*%
%TD*%
%TA.AperFunction,ComponentPad*%
%ADD26C,1.308000*%
%TD*%
%TA.AperFunction,ComponentPad*%
%ADD27R,2.019300X2.019300*%
%TD*%
%TA.AperFunction,ComponentPad*%
%ADD28C,2.019300*%
%TD*%
%TA.AperFunction,ComponentPad*%
%ADD29R,1.397000X1.397000*%
%TD*%
%TA.AperFunction,ComponentPad*%
%ADD30C,1.397000*%
%TD*%
%TA.AperFunction,ComponentPad*%
%ADD31R,2.200000X2.200000*%
%TD*%
%TA.AperFunction,ComponentPad*%
%ADD32O,2.200000X2.200000*%
%TD*%
%TA.AperFunction,ComponentPad*%
%ADD33C,2.200000*%
%TD*%
%TA.AperFunction,ViaPad*%
%ADD34C,1.000000*%
%TD*%
%TA.AperFunction,Profile*%
%ADD35C,0.200000*%
%TD*%
G04 APERTURE END LIST*
D10*
%TO.P,C10,1*%
%TO.N,/Filter/STAGE1_OUT*%
X136500000Y-40000000D03*
%TO.P,C10,2*%
%TO.N,Net-(C10-Pad2)*%
X131500000Y-40000000D03*
%TD*%
%TO.P,J5,1,Pin_1*%
%TO.N,Net-(J5-Pin_1)*%
X187800000Y-30150000D03*
%TO.P,J5,2,Pin_2*%
%TO.N,/Waveform_Generator/Triangular_Waveform*%
X190340000Y-30150000D03*
%TD*%
D11*
%TO.P,GND,1*%
%TO.N,GND*%
X103000000Y-148000000D03*
%TD*%
D12*
%TO.P,Amplitude Adjust,1*%
%TO.N,Net-(C9-Pad1)*%
X190144400Y-46821200D03*
D13*
%TO.P,Amplitude Adjust,2*%
X192684400Y-46821200D03*
%TO.P,Amplitude Adjust,3*%
%TO.N,Net-(IC1-MO)*%
X195224400Y-46821200D03*
%TD*%
D10*
%TO.P,R12,1*%
%TO.N,/Filter/VREF*%
X130190000Y-56000000D03*
D14*
%TO.P,R12,2*%
%TO.N,Net-(U3-IN_B-)*%
X137810000Y-56000000D03*
%TD*%
D11*
%TO.P,GND,1*%
%TO.N,GND*%
X222000000Y-148000000D03*
%TD*%
D10*
%TO.P,C12,1*%
%TO.N,/Filter/VoutLPF*%
X148475000Y-66982500D03*
%TO.P,C12,2*%
%TO.N,Net-(C12-Pad2)*%
X143475000Y-66982500D03*
%TD*%
D15*
%TO.P,C6,1*%
%TO.N,Net-(IC1-TC1)*%
X198800000Y-59750000D03*
%TO.P,C6,2*%
%TO.N,Net-(IC1-TC2)*%
X198800000Y-64750000D03*
%TD*%
D16*
%TO.P,J8,1,Pin_1*%
%TO.N,/Filter/Vcc*%
X117094000Y-147021000D03*
D10*
%TO.P,J8,2,Pin_2*%
%TO.N,GND*%
X119634000Y-147021000D03*
%TD*%
%TO.P,R18,1*%
%TO.N,/Filter/VREF*%
X128975000Y-78200000D03*
D14*
%TO.P,R18,2*%
%TO.N,GND*%
X128975000Y-85820000D03*
%TD*%
D12*
%TO.P,PREAMP_GAIN1,1*%
%TO.N,/Filter/PRE_OUT*%
X154437400Y-32000000D03*
D13*
%TO.P,PREAMP_GAIN1,2*%
%TO.N,Net-(U3-IN_D-)*%
X156977400Y-32000000D03*
%TO.P,PREAMP_GAIN1,3*%
X159517400Y-32000000D03*
%TD*%
D17*
%TO.P,IC1,1,AMSI*%
%TO.N,GND*%
X201481200Y-47883000D03*
D18*
%TO.P,IC1,2,STO*%
%TO.N,Net-(IC1-STO)*%
X201481200Y-50423000D03*
%TO.P,IC1,3,MO*%
%TO.N,Net-(IC1-MO)*%
X201481200Y-52963000D03*
%TO.P,IC1,4,VCC*%
%TO.N,/Filter/Vcc*%
X201481200Y-55503000D03*
%TO.P,IC1,5,TC1*%
%TO.N,Net-(IC1-TC1)*%
X201481200Y-58043000D03*
%TO.P,IC1,6,TC2*%
%TO.N,Net-(IC1-TC2)*%
X201481200Y-60583000D03*
%TO.P,IC1,7,TR1*%
%TO.N,Net-(IC1-TR1)*%
X201481200Y-63123000D03*
%TO.P,IC1,8,TR2*%
%TO.N,unconnected-(IC1-TR2-Pad8)*%
X201481200Y-65663000D03*
%TO.P,IC1,9,FSKI*%
%TO.N,unconnected-(IC1-FSKI-Pad9)*%
X209421200Y-65663000D03*
%TO.P,IC1,10,BIAS*%
%TO.N,Net-(IC1-BIAS)*%
X209421200Y-63123000D03*
%TO.P,IC1,11,SYNCO*%
%TO.N,unconnected-(IC1-SYNCO-Pad11)*%
X209421200Y-60583000D03*
%TO.P,IC1,12,GND*%
%TO.N,GND*%
X209421200Y-58043000D03*
%TO.P,IC1,13,WAVEA1*%
%TO.N,unconnected-(IC1-WAVEA1-Pad13)*%
X209421200Y-55503000D03*
%TO.P,IC1,14,WAVEA2*%
%TO.N,unconnected-(IC1-WAVEA2-Pad14)*%
X209421200Y-52963000D03*
%TO.P,IC1,15,SYMA1*%
%TO.N,Net-(IC1-SYMA1)*%
X209421200Y-50423000D03*
%TO.P,IC1,16,SYMA2*%
%TO.N,Net-(IC1-SYMA2)*%
X209421200Y-47883000D03*
%TD*%
D11*
%TO.P,,1*%
%TO.N,GND*%
X162500000Y-88900000D03*
%TD*%
D10*
%TO.P,J6,1,Pin_1*%
%TO.N,GND*%
X153365000Y-147000000D03*
D16*
%TO.P,J6,2,Pin_2*%
%TO.N,/Power_Regulation/5V0*%
X150825000Y-147000000D03*
%TD*%
D12*
%TO.P,Frequency Adjust,1*%
%TO.N,GND*%
X206190000Y-74450000D03*
D13*
%TO.P,Frequency Adjust,2*%
X203650000Y-74450000D03*
%TO.P,Frequency Adjust,3*%
%TO.N,Net-(R3-Pad2)*%
X201110000Y-74450000D03*
%TD*%
D11*
%TO.P,GND,1*%
%TO.N,GND*%
X222000000Y-29000000D03*
%TD*%
D10*
%TO.P,R8,1*%
%TO.N,Net-(U3-IN_A-)*%
X130190000Y-42862500D03*
%TO.P,R8,2*%
%TO.N,/Filter/STAGE1_OUT*%
X137810000Y-42862500D03*
%TD*%
D19*
%TO.P,C9,1*%
%TO.N,Net-(C9-Pad1)*%
X185596000Y-46816200D03*
D20*
%TO.P,C9,2*%
%TO.N,GND*%
X170596000Y-46816200D03*
%TD*%
D21*
%TO.P,C8,1*%
%TO.N,/Filter/Vcc*%
X198507600Y-55542600D03*
D22*
%TO.P,C8,2*%
%TO.N,GND*%
X180507600Y-55542600D03*
%TD*%
D10*
%TO.P,J1,1,Pin_1*%
%TO.N,GND*%
X171450000Y-30000000D03*
D16*
%TO.P,J1,2,Pin_2*%
%TO.N,/Filter/VinLPF*%
X168910000Y-30000000D03*
%TD*%
D10*
%TO.P,R13,1*%
%TO.N,Net-(U3-IN_B-)*%
X130190000Y-59450000D03*
D14*
%TO.P,R13,2*%
%TO.N,/Filter/VoutLPF*%
X137810000Y-59450000D03*
%TD*%
D23*
%TO.P,C2,1*%
%TO.N,/Power_Regulation/3V3*%
X218625000Y-107230000D03*
%TO.P,C2,2*%
%TO.N,GND*%
X218625000Y-112230000D03*
%TD*%
D24*
%TO.P,C13,1*%
%TO.N,/Filter/VinLPF*%
X159976400Y-48856600D03*
D25*
%TO.P,C13,2*%
%TO.N,Net-(U3-IN_D+)*%
X154490000Y-48856600D03*
%TD*%
D10*
%TO.P,R3,1*%
%TO.N,Net-(IC1-TR1)*%
X195362500Y-69690000D03*
D14*
%TO.P,R3,2*%
%TO.N,Net-(R3-Pad2)*%
X195362500Y-77310000D03*
%TD*%
D26*
%TO.P,C1,1*%
%TO.N,/Filter/Vcc*%
X210100000Y-130125000D03*
%TO.P,C1,2*%
%TO.N,GND*%
X213600000Y-130125000D03*
%TD*%
D12*
%TO.P,DC Bias,1*%
%TO.N,Net-(R2-Pad1)*%
X214531400Y-38029500D03*
D13*
%TO.P,DC Bias,2*%
X217071400Y-38029500D03*
%TO.P,DC Bias,3*%
%TO.N,/Waveform_Generator/Triangular_Waveform*%
X219611400Y-38029500D03*
%TD*%
D10*
%TO.P,R9,1*%
%TO.N,/Filter/VREF*%
X120190000Y-49450000D03*
%TO.P,R9,2*%
%TO.N,Net-(C10-Pad2)*%
X127810000Y-49450000D03*
%TD*%
%TO.P,J3,1,Pin_1*%
%TO.N,GND*%
X209270000Y-29500000D03*
D16*
%TO.P,J3,2,Pin_2*%
%TO.N,/Waveform_Generator/Triangular_Waveform*%
X206730000Y-29500000D03*
%TD*%
D26*
%TO.P,C4,1*%
%TO.N,/Filter/Vcc*%
X142000000Y-120000000D03*
%TO.P,C4,2*%
%TO.N,GND*%
X142000000Y-116500000D03*
%TD*%
D12*
%TO.P,DC_ADJUST1,1*%
%TO.N,/Filter/Vcc*%
X114920000Y-78000000D03*
D13*
%TO.P,DC_ADJUST1,2*%
%TO.N,/Filter/VREF*%
X117460000Y-78000000D03*
%TO.P,DC_ADJUST1,3*%
X120000000Y-78000000D03*
%TD*%
D10*
%TO.P,R1,1*%
%TO.N,/Filter/Vcc*%
X200715000Y-35537500D03*
D14*
%TO.P,R1,2*%
%TO.N,/Waveform_Generator/Triangular_Waveform*%
X208335000Y-35537500D03*
%TD*%
D27*
%TO.P,U1,1,VIN*%
%TO.N,/Filter/Vcc*%
X203928600Y-129983425D03*
D28*
%TO.P,U1,2,OUTPUT*%
%TO.N,/Power_Regulation/3V3_UNREG*%
X202226800Y-133996625D03*
%TO.P,U1,3,GND*%
%TO.N,GND*%
X200525000Y-129983425D03*
%TO.P,U1,4,FB*%
%TO.N,/Power_Regulation/3V3*%
X198823200Y-133996625D03*
%TO.P,U1,5,ON/OFF*%
%TO.N,GND*%
X197121400Y-129983425D03*
%TD*%
D10*
%TO.P,R17,1*%
%TO.N,/Filter/VREF*%
X152190000Y-66450000D03*
%TO.P,R17,2*%
%TO.N,Net-(C12-Pad2)*%
X159810000Y-66450000D03*
%TD*%
%TO.P,R4,1*%
%TO.N,/Filter/Vcc*%
X196695800Y-51108800D03*
D14*
%TO.P,R4,2*%
%TO.N,Net-(C9-Pad1)*%
X189075800Y-51108800D03*
%TD*%
D24*
%TO.P,C5,1*%
%TO.N,Net-(IC1-STO)*%
X202690200Y-40847200D03*
D25*
%TO.P,C5,2*%
%TO.N,Net-(J5-Pin_1)*%
X208176600Y-40847200D03*
%TD*%
D10*
%TO.P,R6,1*%
%TO.N,/Filter/PRE_OUT*%
X120190000Y-53000000D03*
%TO.P,R6,2*%
%TO.N,Net-(C10-Pad2)*%
X127810000Y-53000000D03*
%TD*%
D29*
%TO.P,U3,1,OUT_A*%
%TO.N,/Filter/STAGE1_OUT*%
X142000000Y-43000000D03*
D30*
%TO.P,U3,2,IN_A-*%
%TO.N,Net-(U3-IN_A-)*%
X142000000Y-45540000D03*
%TO.P,U3,3,IN_A+*%
%TO.N,Net-(U3-IN_A+)*%
X142000000Y-48080000D03*
%TO.P,U3,4,V+*%
%TO.N,/Filter/Vcc*%
X142000000Y-50620000D03*
%TO.P,U3,5,IN_B+*%
%TO.N,Net-(U3-IN_B+)*%
X142000000Y-53160000D03*
%TO.P,U3,6,IN_B-*%
%TO.N,Net-(U3-IN_B-)*%
X142000000Y-55700000D03*
%TO.P,U3,7,OUT_B*%
%TO.N,/Filter/VoutLPF*%
X142000000Y-58240000D03*
%TO.P,U3,8,OUT_C*%
%TO.N,unconnected-(U3-OUT_C-Pad8)*%
X149620000Y-58240000D03*
%TO.P,U3,9,IN_C-*%
%TO.N,unconnected-(U3-IN_C--Pad9)*%
X149620000Y-55700000D03*
%TO.P,U3,10,IN_C+*%
%TO.N,unconnected-(U3-IN_C+-Pad10)*%
X149620000Y-53160000D03*
%TO.P,U3,11,V-*%
%TO.N,GND*%
X149620000Y-50620000D03*
%TO.P,U3,12,IN_D+*%
%TO.N,Net-(U3-IN_D+)*%
X149620000Y-48080000D03*
%TO.P,U3,13,IN_D-*%
%TO.N,Net-(U3-IN_D-)*%
X149620000Y-45540000D03*
%TO.P,U3,14,OUT_D*%
%TO.N,/Filter/PRE_OUT*%
X149620000Y-43000000D03*
%TD*%
D10*
%TO.P,C11,1*%
%TO.N,/Filter/VREF*%
X131500000Y-52842500D03*
%TO.P,C11,2*%
%TO.N,Net-(U3-IN_A+)*%
X136500000Y-52842500D03*
%TD*%
D31*
%TO.P,D2,1,K*%
%TO.N,/Power_Regulation/5V0_UNREG*%
X153000000Y-125655000D03*
D32*
%TO.P,D2,2,A*%
%TO.N,GND*%
X153000000Y-135815000D03*
%TD*%
D10*
%TO.P,R2,1*%
%TO.N,Net-(R2-Pad1)*%
X220795000Y-42850000D03*
D14*
%TO.P,R2,2*%
%TO.N,GND*%
X213175000Y-42850000D03*
%TD*%
D10*
%TO.P,R10,1*%
%TO.N,/Filter/VREF*%
X137810000Y-46137500D03*
%TO.P,R10,2*%
%TO.N,Net-(U3-IN_A-)*%
X130190000Y-46137500D03*
%TD*%
%TO.P,R14,1*%
%TO.N,/Filter/STAGE1_OUT*%
X152380000Y-59000000D03*
%TO.P,R14,2*%
%TO.N,Net-(C12-Pad2)*%
X160000000Y-59000000D03*
%TD*%
D31*
%TO.P,D1,1,K*%
%TO.N,/Power_Regulation/3V3_UNREG*%
X207775000Y-136845000D03*
D32*
%TO.P,D1,2,A*%
%TO.N,GND*%
X217935000Y-136845000D03*
%TD*%
D10*
%TO.P,J4,1,Pin_1*%
%TO.N,GND*%
X107000000Y-60540000D03*
D16*
%TO.P,J4,2,Pin_2*%
%TO.N,/Filter/VoutLPF*%
X107000000Y-58000000D03*
%TD*%
D12*
%TO.P,Symmetry Adjust,1*%
%TO.N,Net-(IC1-SYMA2)*%
X219390000Y-51050000D03*
D13*
%TO.P,Symmetry Adjust,2*%
%TO.N,GND*%
X216850000Y-51050000D03*
%TO.P,Symmetry Adjust,3*%
%TO.N,Net-(IC1-SYMA1)*%
X214310000Y-51050000D03*
%TD*%
D16*
%TO.P,J2,1,Pin_1*%
%TO.N,/Power_Regulation/5V0*%
X159880000Y-147066000D03*
D10*
%TO.P,J2,2,Pin_2*%
%TO.N,GND*%
X162420000Y-147066000D03*
%TD*%
%TO.P,J7,1,Pin_1*%
%TO.N,GND*%
X201090000Y-147000000D03*
D16*
%TO.P,J7,2,Pin_2*%
%TO.N,/Power_Regulation/3V3*%
X198550000Y-147000000D03*
%TD*%
D33*
%TO.P,C15,1*%
%TO.N,/Filter/VREF*%
X136150000Y-69900000D03*
D32*
%TO.P,C15,2*%
%TO.N,GND*%
X136150000Y-94900000D03*
%TD*%
D10*
%TO.P,C14,1*%
%TO.N,/Filter/VREF*%
X143500000Y-63000000D03*
%TO.P,C14,2*%
%TO.N,Net-(U3-IN_B+)*%
X148500000Y-63000000D03*
%TD*%
%TO.P,R5,1*%
%TO.N,Net-(C9-Pad1)*%
X185494400Y-50905600D03*
D14*
%TO.P,R5,2*%
%TO.N,GND*%
X177874400Y-50905600D03*
%TD*%
D10*
%TO.P,R7,1*%
%TO.N,Net-(C10-Pad2)*%
X130190000Y-49450000D03*
%TO.P,R7,2*%
%TO.N,Net-(U3-IN_A+)*%
X137810000Y-49450000D03*
%TD*%
D15*
%TO.P,L1,1*%
%TO.N,/Power_Regulation/3V3_UNREG*%
X197025000Y-122075000D03*
%TO.P,L1,2*%
%TO.N,/Power_Regulation/3V3*%
X207185000Y-106835000D03*
%TD*%
D23*
%TO.P,C3,1*%
%TO.N,/Power_Regulation/5V0*%
X173225000Y-105650900D03*
%TO.P,C3,2*%
%TO.N,GND*%
X173225000Y-110650900D03*
%TD*%
D10*
%TO.P,R16,1*%
%TO.N,Net-(U3-IN_D+)*%
X153166400Y-41862500D03*
D14*
%TO.P,R16,2*%
%TO.N,/Filter/VREF*%
X160786400Y-41862500D03*
%TD*%
D11*
%TO.P,GND,1*%
%TO.N,GND*%
X103000000Y-29000000D03*
%TD*%
D15*
%TO.P,L2,1*%
%TO.N,/Power_Regulation/5V0*%
X161455000Y-105785000D03*
%TO.P,L2,2*%
%TO.N,/Power_Regulation/5V0_UNREG*%
X151295000Y-121025000D03*
%TD*%
D10*
%TO.P,R11,1*%
%TO.N,Net-(U3-IN_D-)*%
X153166400Y-36862500D03*
D14*
%TO.P,R11,2*%
%TO.N,/Filter/VREF*%
X160786400Y-36862500D03*
%TD*%
D10*
%TO.P,R15,1*%
%TO.N,Net-(C12-Pad2)*%
X159835000Y-62762500D03*
%TO.P,R15,2*%
%TO.N,Net-(U3-IN_B+)*%
X152215000Y-62762500D03*
%TD*%
D21*
%TO.P,C7,1*%
%TO.N,Net-(IC1-BIAS)*%
X214286800Y-63114600D03*
D22*
%TO.P,C7,2*%
%TO.N,GND*%
X214286800Y-81114600D03*
%TD*%
D34*
%TO.N,/Power_Regulation/5V0*%
X138938000Y-122936000D03*
%TD*%
%TA.AperFunction,Conductor*%
%TO.N,/Power_Regulation/3V3*%
G36*
X220943039Y-102669685D02*
G01*
X220988794Y-102722489D01*
X221000000Y-102774000D01*
X221000000Y-139798638D01*
X220980315Y-139865677D01*
X220963681Y-139886319D01*
X210986319Y-149863681D01*
X210924996Y-149897166D01*
X210898638Y-149900000D01*
X195001362Y-149900000D01*
X194934323Y-149880315D01*
X194913681Y-149863681D01*
X192336319Y-147286319D01*
X192302834Y-147224996D01*
X192300000Y-147198638D01*
X192300000Y-146152155D01*
X197250000Y-146152155D01*
X197250000Y-146750000D01*
X198234314Y-146750000D01*
X198229920Y-146754394D01*
X198177259Y-146845606D01*
X198150000Y-146947339D01*
X198150000Y-147052661D01*
X198177259Y-147154394D01*
X198229920Y-147245606D01*
X198234314Y-147250000D01*
X197250000Y-147250000D01*
X197250000Y-147847844D01*
X197256401Y-147907372D01*
X197256403Y-147907379D01*
X197306645Y-148042086D01*
X197306649Y-148042093D01*
X197392809Y-148157187D01*
X197392812Y-148157190D01*
X197507906Y-148243350D01*
X197507913Y-148243354D01*
X197642620Y-148293596D01*
X197642627Y-148293598D01*
X197702155Y-148299999D01*
X197702172Y-148300000D01*
X198300000Y-148300000D01*
X198300000Y-147315686D01*
X198304394Y-147320080D01*
X198395606Y-147372741D01*
X198497339Y-147400000D01*
X198602661Y-147400000D01*
X198704394Y-147372741D01*
X198795606Y-147320080D01*
X198800000Y-147315686D01*
X198800000Y-148300000D01*
X199397828Y-148300000D01*
X199397844Y-148299999D01*
X199457372Y-148293598D01*
X199457379Y-148293596D01*
X199592086Y-148243354D01*
X199592093Y-148243350D01*
X199707187Y-148157190D01*
X199707190Y-148157187D01*
X199793350Y-148042093D01*
X199793354Y-148042086D01*
X199843596Y-147907380D01*
X199847424Y-147871781D01*
X199874162Y-147807230D01*
X199931555Y-147767382D01*
X200001380Y-147764888D01*
X200061469Y-147800540D01*
X200072289Y-147813912D01*
X200089956Y-147839143D01*
X200250858Y-148000045D01*
X200250861Y-148000047D01*
X200437266Y-148130568D01*
X200643504Y-148226739D01*
X200863308Y-148285635D01*
X201025230Y-148299801D01*
X201089998Y-148305468D01*
X201090000Y-148305468D01*
X201090002Y-148305468D01*
X201152511Y-148299999D01*
X201316692Y-148285635D01*
X201536496Y-148226739D01*
X201742734Y-148130568D01*
X201929139Y-148000047D01*
X202090047Y-147839139D01*
X202220568Y-147652734D01*
X202316739Y-147446496D01*
X202375635Y-147226692D01*
X202395468Y-147000000D01*
X202375635Y-146773308D01*
X202316739Y-146553504D01*
X202220568Y-146347266D01*
X202090047Y-146160861D01*
X202090045Y-146160858D01*
X201929141Y-145999954D01*
X201742734Y-145869432D01*
X201742732Y-145869431D01*
X201536497Y-145773261D01*
X201536488Y-145773258D01*
X201316697Y-145714366D01*
X201316693Y-145714365D01*
X201316692Y-145714365D01*
X201316691Y-145714364D01*
X201316686Y-145714364D01*
X201090002Y-145694532D01*
X201089998Y-145694532D01*
X200863313Y-145714364D01*
X200863302Y-145714366D01*
X200643511Y-145773258D01*
X200643502Y-145773261D01*
X200437267Y-145869431D01*
X200437265Y-145869432D01*
X200250858Y-145999954D01*
X200089951Y-146160861D01*
X200072287Y-146186088D01*
X200017710Y-146229712D01*
X199948211Y-146236904D01*
X199885857Y-146205380D01*
X199850445Y-146145150D01*
X199847425Y-146128218D01*
X199843598Y-146092627D01*
X199843596Y-146092620D01*
X199793354Y-145957913D01*
X199793350Y-145957906D01*
X199707190Y-145842812D01*
X199707187Y-145842809D01*
X199592093Y-145756649D01*
X199592086Y-145756645D01*
X199457379Y-145706403D01*
X199457372Y-145706401D01*
X199397844Y-145700000D01*
X198800000Y-145700000D01*
X198800000Y-146684314D01*
X198795606Y-146679920D01*
X198704394Y-146627259D01*
X198602661Y-146600000D01*
X198497339Y-146600000D01*
X198395606Y-146627259D01*
X198304394Y-146679920D01*
X198300000Y-146684314D01*
X198300000Y-145700000D01*
X197702155Y-145700000D01*
X197642627Y-145706401D01*
X197642620Y-145706403D01*
X197507913Y-145756645D01*
X197507906Y-145756649D01*
X197392812Y-145842809D01*
X197392809Y-145842812D01*
X197306649Y-145957906D01*
X197306645Y-145957913D01*
X197256403Y-146092620D01*
X197256401Y-146092627D01*
X197250000Y-146152155D01*
X192300000Y-146152155D01*
X192300000Y-135697135D01*
X206174500Y-135697135D01*
X206174500Y-137992870D01*
X206174501Y-137992876D01*
X206180908Y-138052483D01*
X206231202Y-138187328D01*
X206231206Y-138187335D01*
X206317452Y-138302544D01*
X206317455Y-138302547D01*
X206432664Y-138388793D01*
X206432671Y-138388797D01*
X206567517Y-138439091D01*
X206567516Y-138439091D01*
X206574444Y-138439835D01*
X206627127Y-138445500D01*
X208922872Y-138445499D01*
X208982483Y-138439091D01*
X209117331Y-138388796D01*
X209232546Y-138302546D01*
X209318796Y-138187331D01*
X209369091Y-138052483D01*
X209375500Y-137992873D01*
X209375499Y-136845000D01*
X216329551Y-136845000D01*
X216349317Y-137096151D01*
X216408126Y-137341110D01*
X216504533Y-137573859D01*
X216636160Y-137788653D01*
X216636161Y-137788656D01*
X216636164Y-137788659D01*
X216799776Y-137980224D01*
X216948066Y-138106875D01*
X216991343Y-138143838D01*
X216991346Y-138143839D01*
X217206140Y-138275466D01*
X217438889Y-138371873D01*
X217683852Y-138430683D01*
X217935000Y-138450449D01*
X218186148Y-138430683D01*
X218431111Y-138371873D01*
X218663859Y-138275466D01*
X218878659Y-138143836D01*
X219070224Y-137980224D01*
X219233836Y-137788659D01*
X219365466Y-137573859D01*
X219461873Y-137341111D01*
X219520683Y-137096148D01*
X219540449Y-136845000D01*
X219520683Y-136593852D01*
X219461873Y-136348889D01*
X219365466Y-136116141D01*
X219365466Y-136116140D01*
X219233839Y-135901346D01*
X219233838Y-135901343D01*
X219196875Y-135858066D01*
X219070224Y-135709776D01*
X218943571Y-135601604D01*
X218878656Y-135546161D01*
X218878653Y-135546160D01*
X218663859Y-135414533D01*
X218431110Y-135318126D01*
X218186151Y-135259317D01*
X217935000Y-135239551D01*
X217683848Y-135259317D01*
X217438889Y-135318126D01*
X217206140Y-135414533D01*
X216991346Y-135546160D01*
X216991343Y-135546161D01*
X216799776Y-135709776D01*
X216636161Y-135901343D01*
X216636160Y-135901346D01*
X216504533Y-136116140D01*
X216408126Y-136348889D01*
X216349317Y-136593848D01*
X216329551Y-136845000D01*
X209375499Y-136845000D01*
X209375499Y-135697128D01*
X209369091Y-135637517D01*
X209335017Y-135546161D01*
X209318797Y-135502671D01*
X209318793Y-135502664D01*
X209232547Y-135387455D01*
X209232544Y-135387452D01*
X209117335Y-135301206D01*
X209117328Y-135301202D01*
X208982482Y-135250908D01*
X208982483Y-135250908D01*
X208922883Y-135244501D01*
X208922881Y-135244500D01*
X208922873Y-135244500D01*
X208922864Y-135244500D01*
X206627129Y-135244500D01*
X206627123Y-135244501D01*
X206567516Y-135250908D01*
X206432671Y-135301202D01*
X206432664Y-135301206D01*
X206317455Y-135387452D01*
X206317452Y-135387455D01*
X206231206Y-135502664D01*
X206231202Y-135502671D01*
X206180908Y-135637517D01*
X206174501Y-135697116D01*
X206174501Y-135697123D01*
X206174500Y-135697135D01*
X192300000Y-135697135D01*
X192300000Y-133996625D01*
X197308882Y-133996625D01*
X197327526Y-134233520D01*
X197382996Y-134464570D01*
X197473932Y-134684111D01*
X197591047Y-134875224D01*
X198204478Y-134261793D01*
X198226706Y-134315457D01*
X198300369Y-134425701D01*
X198394124Y-134519456D01*
X198504368Y-134593119D01*
X198558030Y-134615346D01*
X197944599Y-135228776D01*
X198135713Y-135345892D01*
X198355254Y-135436828D01*
X198586304Y-135492298D01*
X198823200Y-135510942D01*
X199060095Y-135492298D01*
X199291145Y-135436828D01*
X199510686Y-135345892D01*
X199701799Y-135228777D01*
X199701799Y-135228776D01*
X199088369Y-134615346D01*
X199142032Y-134593119D01*
X199252276Y-134519456D01*
X199346031Y-134425701D01*
X199419694Y-134315457D01*
X199441921Y-134261794D01*
X200055351Y-134875224D01*
X200055352Y-134875224D01*
X200172467Y-134684111D01*
X200263403Y-134464570D01*
X200318873Y-134233520D01*
X200337517Y-133996625D01*
X200711980Y-133996625D01*
X200730630Y-134233598D01*
X200786120Y-134464730D01*
X200786120Y-134464731D01*
X200877082Y-134684335D01*
X200877084Y-134684338D01*
X201001281Y-134887008D01*
X201001282Y-134887010D01*
X201001283Y-134887012D01*
X201001285Y-134887014D01*
X201155661Y-135067764D01*
X201336411Y-135222140D01*
X201336413Y-135222141D01*
X201336414Y-135222142D01*
X201336416Y-135222143D01*
X201539086Y-135346340D01*
X201539089Y-135346342D01*
X201758694Y-135437304D01*
X201957044Y-135484923D01*
X201989830Y-135492795D01*
X202226800Y-135511445D01*
X202463770Y-135492795D01*
X202694905Y-135437304D01*
X202694906Y-135437304D01*
X202914510Y-135346342D01*
X202914511Y-135346341D01*
X202914514Y-135346340D01*
X203117189Y-135222140D01*
X203297939Y-135067764D01*
X203452315Y-134887014D01*
X203576515Y-134684339D01*
X203576517Y-134684335D01*
X203667479Y-134464731D01*
X203667479Y-134464730D01*
X203694981Y-134350178D01*
X203722970Y-134233595D01*
X203741620Y-133996625D01*
X203722970Y-133759655D01*
X203667479Y-133528520D01*
X203667479Y-133528519D01*
X203667479Y-133528518D01*
X203576517Y-133308914D01*
X203576515Y-133308911D01*
X203452318Y-133106241D01*
X203452317Y-133106239D01*
X203452316Y-133106238D01*
X203452315Y-133106236D01*
X203297939Y-132925486D01*
X203117189Y-132771110D01*
X203117187Y-132771108D01*
X203117185Y-132771107D01*
X203117183Y-132771106D01*
X202914513Y-132646909D01*
X202914510Y-132646907D01*
X202694905Y-132555945D01*
X202463773Y-132500455D01*
X202226800Y-132481805D01*
X201989826Y-132500455D01*
X201758694Y-132555945D01*
X201758693Y-132555945D01*
X201539089Y-132646907D01*
X201539086Y-132646909D01*
X201336416Y-132771106D01*
X201336414Y-132771107D01*
X201155661Y-132925486D01*
X201001282Y-133106239D01*
X201001281Y-133106241D01*
X200877084Y-133308911D01*
X200877082Y-133308914D01*
X200786120Y-133528518D01*
X200786120Y-133528519D01*
X200730630Y-133759651D01*
X200711980Y-133996625D01*
X200337517Y-133996625D01*
X200318873Y-133759729D01*
X200263403Y-133528679D01*
X200172467Y-133309138D01*
X200055351Y-133118024D01*
X199441921Y-133731455D01*
X199419694Y-133677793D01*
X199346031Y-133567549D01*
X199252276Y-133473794D01*
X199142032Y-133400131D01*
X199088369Y-133377903D01*
X199701799Y-132764472D01*
X199510686Y-132647357D01*
X199291145Y-132556421D01*
X199060095Y-132500951D01*
X198823200Y-132482307D01*
X198586304Y-132500951D01*
X198355254Y-132556421D01*
X198135713Y-132647357D01*
X197944599Y-132764472D01*
X198558030Y-133377903D01*
X198504368Y-133400131D01*
X198394124Y-133473794D01*
X198300369Y-133567549D01*
X198226706Y-133677793D01*
X198204478Y-133731455D01*
X197591047Y-133118024D01*
X197473932Y-133309138D01*
X197382996Y-133528679D01*
X197327526Y-133759729D01*
X197308882Y-133996625D01*
X192300000Y-133996625D01*
X192300000Y-129983425D01*
X195606580Y-129983425D01*
X195625230Y-130220398D01*
X195680720Y-130451530D01*
X195680720Y-130451531D01*
X195771682Y-130671135D01*
X195771684Y-130671138D01*
X195895881Y-130873808D01*
X195895882Y-130873810D01*
X195895883Y-130873812D01*
X195895885Y-130873814D01*
X196050261Y-131054564D01*
X196231011Y-131208940D01*
X196274199Y-131235406D01*
X196433686Y-131333140D01*
X196433689Y-131333142D01*
X196653294Y-131424104D01*
X196851644Y-131471723D01*
X196884430Y-131479595D01*
X197121400Y-131498245D01*
X197358370Y-131479595D01*
X197589505Y-131424104D01*
X197589506Y-131424104D01*
X197809110Y-131333142D01*
X197809111Y-131333141D01*
X197809114Y-131333140D01*
X198011789Y-131208940D01*
X198192539Y-131054564D01*
X198346915Y-130873814D01*
X198471115Y-130671139D01*
X198523843Y-130543841D01*
X198562079Y-130451531D01*
X198562079Y-130451530D01*
X198617569Y-130220398D01*
X198617570Y-130220395D01*
X198636220Y-129983425D01*
X199010180Y-129983425D01*
X199028830Y-130220398D01*
X199084320Y-130451530D01*
X199084320Y-130451531D01*
X199175282Y-130671135D01*
X199175284Y-130671138D01*
X199299481Y-130873808D01*
X199299482Y-130873810D01*
X199299483Y-130873812D01*
X199299485Y-130873814D01*
X199453861Y-131054564D01*
X199634611Y-131208940D01*
X199677799Y-131235406D01*
X199837286Y-131333140D01*
X199837289Y-131333142D01*
X200056894Y-131424104D01*
X200255244Y-131471723D01*
X200288030Y-131479595D01*
X200525000Y-131498245D01*
X200761970Y-131479595D01*
X200993105Y-131424104D01*
X200993106Y-131424104D01*
X201212710Y-131333142D01*
X201212711Y-131333141D01*
X201212714Y-131333140D01*
X201415389Y-131208940D01*
X201596139Y-131054564D01*
X201750515Y-130873814D01*
X201874715Y-130671139D01*
X201927443Y-130543841D01*
X201965679Y-130451531D01*
X201965679Y-130451530D01*
X202021169Y-130220398D01*
X202021170Y-130220395D01*
X202039820Y-129983425D01*
X202021170Y-129746455D01*
X201965679Y-129515320D01*
X201965679Y-129515319D01*
X201965679Y-129515318D01*
X201874717Y-129295714D01*
X201874715Y-129295711D01*
X201750518Y-129093041D01*
X201750517Y-129093039D01*
X201750516Y-129093038D01*
X201750515Y-129093036D01*
X201607775Y-128925910D01*
X202418450Y-128925910D01*
X202418450Y-131040945D01*
X202418451Y-131040951D01*
X202424858Y-131100558D01*
X202475152Y-131235403D01*
X202475156Y-131235410D01*
X202561402Y-131350619D01*
X202561405Y-131350622D01*
X202676614Y-131436868D01*
X202676621Y-131436872D01*
X202811467Y-131487166D01*
X202811466Y-131487166D01*
X202818394Y-131487910D01*
X202871077Y-131493575D01*
X204986122Y-131493574D01*
X205045733Y-131487166D01*
X205180581Y-131436871D01*
X205295796Y-131350621D01*
X205382046Y-131235406D01*
X205432341Y-131100558D01*
X205438750Y-131040948D01*
X205438750Y-130124999D01*
X208940554Y-130124999D01*
X208940554Y-130125000D01*
X208960295Y-130338047D01*
X208960296Y-130338050D01*
X209018846Y-130543835D01*
X209018849Y-130543840D01*
X209114219Y-130735370D01*
X209243159Y-130906114D01*
X209401278Y-131050258D01*
X209401283Y-131050261D01*
X209401286Y-131050263D01*
X209583186Y-131162891D01*
X209583187Y-131162891D01*
X209583190Y-131162893D01*
X209782703Y-131240185D01*
X209993020Y-131279500D01*
X209993022Y-131279500D01*
X210206978Y-131279500D01*
X210206980Y-131279500D01*
X210417297Y-131240185D01*
X210616810Y-131162893D01*
X210798722Y-131050258D01*
X210956841Y-130906114D01*
X211085781Y-130735370D01*
X211181151Y-130543840D01*
X211181151Y-130543837D01*
X211181153Y-130543835D01*
X211239703Y-130338050D01*
X211239704Y-130338047D01*
X211259446Y-130125000D01*
X211259446Y-130124999D01*
X212440554Y-130124999D01*
X212440554Y-130125000D01*
X212460295Y-130338047D01*
X212460296Y-130338050D01*
X212518846Y-130543835D01*
X212518849Y-130543840D01*
X212614219Y-130735370D01*
X212743159Y-130906114D01*
X212901278Y-131050258D01*
X212901283Y-131050261D01*
X212901286Y-131050263D01*
X213083186Y-131162891D01*
X213083187Y-131162891D01*
X213083190Y-131162893D01*
X213282703Y-131240185D01*
X213493020Y-131279500D01*
X213493022Y-131279500D01*
X213706978Y-131279500D01*
X213706980Y-131279500D01*
X213917297Y-131240185D01*
X214116810Y-131162893D01*
X214298722Y-131050258D01*
X214456841Y-130906114D01*
X214585781Y-130735370D01*
X214681151Y-130543840D01*
X214681151Y-130543837D01*
X214681153Y-130543835D01*
X214739703Y-130338050D01*
X214739704Y-130338047D01*
X214759446Y-130125000D01*
X214759446Y-130124999D01*
X214739704Y-129911952D01*
X214739703Y-129911949D01*
X214681153Y-129706164D01*
X214681150Y-129706158D01*
X214585781Y-129514630D01*
X214456841Y-129343886D01*
X214298722Y-129199742D01*
X214298716Y-129199738D01*
X214298713Y-129199736D01*
X214116813Y-129087108D01*
X214116807Y-129087106D01*
X213917297Y-129009815D01*
X213706980Y-128970500D01*
X213493020Y-128970500D01*
X213282703Y-129009815D01*
X213156533Y-129058693D01*
X213083192Y-129087106D01*
X213083186Y-129087108D01*
X212901286Y-129199736D01*
X212901283Y-129199738D01*
X212901279Y-129199740D01*
X212901278Y-129199742D01*
X212743159Y-129343886D01*
X212743158Y-129343887D01*
X212614219Y-129514629D01*
X212518849Y-129706158D01*
X212518846Y-129706164D01*
X212460296Y-129911949D01*
X212460295Y-129911952D01*
X212440554Y-130124999D01*
X211259446Y-130124999D01*
X211239704Y-129911952D01*
X211239703Y-129911949D01*
X211181153Y-129706164D01*
X211181150Y-129706158D01*
X211085781Y-129514630D01*
X210956841Y-129343886D01*
X210798722Y-129199742D01*
X210798716Y-129199738D01*
X210798713Y-129199736D01*
X210616813Y-129087108D01*
X210616807Y-129087106D01*
X210417297Y-129009815D01*
X210206980Y-128970500D01*
X209993020Y-128970500D01*
X209782703Y-129009815D01*
X209656533Y-129058693D01*
X209583192Y-129087106D01*
X209583186Y-129087108D01*
X209401286Y-129199736D01*
X209401283Y-129199738D01*
X209401279Y-129199740D01*
X209401278Y-129199742D01*
X209243159Y-129343886D01*
X209243158Y-129343887D01*
X209114219Y-129514629D01*
X209018849Y-129706158D01*
X209018846Y-129706164D01*
X208960296Y-129911949D01*
X208960295Y-129911952D01*
X208940554Y-130124999D01*
X205438750Y-130124999D01*
X205438749Y-128925903D01*
X205432341Y-128866292D01*
X205382046Y-128731444D01*
X205382045Y-128731443D01*
X205382043Y-128731439D01*
X205295797Y-128616230D01*
X205295794Y-128616227D01*
X205180585Y-128529981D01*
X205180578Y-128529977D01*
X205045732Y-128479683D01*
X205045733Y-128479683D01*
X204986133Y-128473276D01*
X204986131Y-128473275D01*
X204986123Y-128473275D01*
X204986114Y-128473275D01*
X202871079Y-128473275D01*
X202871073Y-128473276D01*
X202811466Y-128479683D01*
X202676621Y-128529977D01*
X202676614Y-128529981D01*
X202561405Y-128616227D01*
X202561402Y-128616230D01*
X202475156Y-128731439D01*
X202475152Y-128731446D01*
X202424858Y-128866292D01*
X202419914Y-128912286D01*
X202418451Y-128925898D01*
X202418450Y-128925910D01*
X201607775Y-128925910D01*
X201596139Y-128912286D01*
X201415389Y-128757910D01*
X201415387Y-128757908D01*
X201415385Y-128757907D01*
X201415383Y-128757906D01*
X201212713Y-128633709D01*
X201212710Y-128633707D01*
X200993105Y-128542745D01*
X200761973Y-128487255D01*
X200525000Y-128468605D01*
X200288026Y-128487255D01*
X200056894Y-128542745D01*
X200056893Y-128542745D01*
X199837289Y-128633707D01*
X199837286Y-128633709D01*
X199634616Y-128757906D01*
X199634614Y-128757907D01*
X199453861Y-128912286D01*
X199299482Y-129093039D01*
X199299481Y-129093041D01*
X199175284Y-129295711D01*
X199175282Y-129295714D01*
X199084320Y-129515318D01*
X199084320Y-129515319D01*
X199028830Y-129746451D01*
X199010180Y-129983425D01*
X198636220Y-129983425D01*
X198617570Y-129746455D01*
X198562079Y-129515320D01*
X198562079Y-129515319D01*
X198562079Y-129515318D01*
X198471117Y-129295714D01*
X198471115Y-129295711D01*
X198346918Y-129093041D01*
X198346917Y-129093039D01*
X198346916Y-129093038D01*
X198346915Y-129093036D01*
X198192539Y-128912286D01*
X198011789Y-128757910D01*
X198011787Y-128757908D01*
X198011785Y-128757907D01*
X198011783Y-128757906D01*
X197809113Y-128633709D01*
X197809110Y-128633707D01*
X197589505Y-128542745D01*
X197358373Y-128487255D01*
X197121400Y-128468605D01*
X196884426Y-128487255D01*
X196653294Y-128542745D01*
X196653293Y-128542745D01*
X196433689Y-128633707D01*
X196433686Y-128633709D01*
X196231016Y-128757906D01*
X196231014Y-128757907D01*
X196050261Y-128912286D01*
X195895882Y-129093039D01*
X195895881Y-129093041D01*
X195771684Y-129295711D01*
X195771682Y-129295714D01*
X195680720Y-129515318D01*
X195680720Y-129515319D01*
X195625230Y-129746451D01*
X195606580Y-129983425D01*
X192300000Y-129983425D01*
X192300000Y-122074997D01*
X195757677Y-122074997D01*
X195757677Y-122075002D01*
X195776929Y-122295062D01*
X195776930Y-122295070D01*
X195834104Y-122508445D01*
X195834105Y-122508447D01*
X195834106Y-122508450D01*
X195927466Y-122708662D01*
X195927468Y-122708666D01*
X196054170Y-122889615D01*
X196054175Y-122889621D01*
X196210378Y-123045824D01*
X196210384Y-123045829D01*
X196391333Y-123172531D01*
X196391335Y-123172532D01*
X196391338Y-123172534D01*
X196591550Y-123265894D01*
X196804932Y-123323070D01*
X196962123Y-123336822D01*
X197024998Y-123342323D01*
X197025000Y-123342323D01*
X197025002Y-123342323D01*
X197080017Y-123337509D01*
X197245068Y-123323070D01*
X197458450Y-123265894D01*
X197658662Y-123172534D01*
X197839620Y-123045826D01*
X197995826Y-122889620D01*
X198122534Y-122708662D01*
X198215894Y-122508450D01*
X198273070Y-122295068D01*
X198292323Y-122075000D01*
X198273070Y-121854932D01*
X198215894Y-121641550D01*
X198122534Y-121441339D01*
X197995826Y-121260380D01*
X197839620Y-121104174D01*
X197839616Y-121104171D01*
X197839615Y-121104170D01*
X197658666Y-120977468D01*
X197658662Y-120977466D01*
X197658660Y-120977465D01*
X197458450Y-120884106D01*
X197458447Y-120884105D01*
X197458445Y-120884104D01*
X197245070Y-120826930D01*
X197245062Y-120826929D01*
X197025002Y-120807677D01*
X197024998Y-120807677D01*
X196804937Y-120826929D01*
X196804929Y-120826930D01*
X196591554Y-120884104D01*
X196591548Y-120884107D01*
X196391340Y-120977465D01*
X196391338Y-120977466D01*
X196210377Y-121104175D01*
X196054175Y-121260377D01*
X195927466Y-121441338D01*
X195927465Y-121441340D01*
X195834107Y-121641548D01*
X195834104Y-121641554D01*
X195776930Y-121854929D01*
X195776929Y-121854937D01*
X195757677Y-122074997D01*
X192300000Y-122074997D01*
X192300000Y-112229999D01*
X217415340Y-112229999D01*
X217415340Y-112230000D01*
X217435936Y-112452273D01*
X217435937Y-112452276D01*
X217497023Y-112666975D01*
X217497026Y-112666980D01*
X217596526Y-112866804D01*
X217731050Y-113044943D01*
X217896017Y-113195330D01*
X217896024Y-113195334D01*
X217896025Y-113195335D01*
X218085804Y-113312841D01*
X218085805Y-113312841D01*
X218085808Y-113312843D01*
X218293961Y-113393482D01*
X218513387Y-113434500D01*
X218513389Y-113434500D01*
X218736611Y-113434500D01*
X218736613Y-113434500D01*
X218956039Y-113393482D01*
X219164192Y-113312843D01*
X219353983Y-113195330D01*
X219518950Y-113044943D01*
X219653474Y-112866804D01*
X219752974Y-112666980D01*
X219752974Y-112666977D01*
X219752976Y-112666975D01*
X219814062Y-112452276D01*
X219814063Y-112452273D01*
X219834660Y-112230000D01*
X219834660Y-112229999D01*
X219814063Y-112007726D01*
X219814062Y-112007723D01*
X219752976Y-111793024D01*
X219752973Y-111793018D01*
X219653474Y-111593196D01*
X219518950Y-111415057D01*
X219353983Y-111264670D01*
X219353979Y-111264667D01*
X219353974Y-111264664D01*
X219164195Y-111147158D01*
X219164189Y-111147156D01*
X218956039Y-111066518D01*
X218736613Y-111025500D01*
X218513387Y-111025500D01*
X218293961Y-111066518D01*
X218162328Y-111117512D01*
X218085810Y-111147156D01*
X218085804Y-111147158D01*
X217896025Y-111264664D01*
X217896015Y-111264671D01*
X217731051Y-111415055D01*
X217596526Y-111593195D01*
X217497026Y-111793018D01*
X217497023Y-111793024D01*
X217435937Y-112007723D01*
X217435936Y-112007726D01*
X217415340Y-112229999D01*
X192300000Y-112229999D01*
X192300000Y-106834999D01*
X205918179Y-106834999D01*
X205918179Y-106835000D01*
X205937424Y-107054976D01*
X205937426Y-107054986D01*
X205994575Y-107268270D01*
X205994580Y-107268284D01*
X206087898Y-107468405D01*
X206087901Y-107468411D01*
X206133258Y-107533187D01*
X206133259Y-107533188D01*
X206804000Y-106862447D01*
X206804000Y-106885160D01*
X206829964Y-106982061D01*
X206880124Y-107068940D01*
X206951060Y-107139876D01*
X207037939Y-107190036D01*
X207134840Y-107216000D01*
X207157553Y-107216000D01*
X206486810Y-107886740D01*
X206551590Y-107932099D01*
X206551592Y-107932100D01*
X206751715Y-108025419D01*
X206751729Y-108025424D01*
X206965013Y-108082573D01*
X206965023Y-108082575D01*
X207184999Y-108101821D01*
X207185001Y-108101821D01*
X207404976Y-108082575D01*
X207404986Y-108082573D01*
X207618270Y-108025424D01*
X207618284Y-108025419D01*
X207818407Y-107932100D01*
X207818417Y-107932094D01*
X207883188Y-107886741D01*
X207212448Y-107216000D01*
X207235160Y-107216000D01*
X207332061Y-107190036D01*
X207418940Y-107139876D01*
X207489876Y-107068940D01*
X207540036Y-106982061D01*
X207566000Y-106885160D01*
X207566000Y-106862447D01*
X208236741Y-107533188D01*
X208282094Y-107468417D01*
X208282100Y-107468407D01*
X208375419Y-107268284D01*
X208375424Y-107268270D01*
X208385679Y-107229999D01*
X217415842Y-107229999D01*
X217415842Y-107230000D01*
X217436429Y-107452181D01*
X217497493Y-107666795D01*
X217497498Y-107666808D01*
X217596953Y-107866540D01*
X217613282Y-107888163D01*
X218182861Y-107318584D01*
X218205667Y-107403694D01*
X218264910Y-107506306D01*
X218348694Y-107590090D01*
X218451306Y-107649333D01*
X218536414Y-107672137D01*
X217968766Y-108239785D01*
X218086031Y-108312393D01*
X218086032Y-108312394D01*
X218294095Y-108392997D01*
X218513435Y-108434000D01*
X218736565Y-108434000D01*
X218955904Y-108392997D01*
X219163967Y-108312394D01*
X219163971Y-108312392D01*
X219281231Y-108239786D01*
X219281231Y-108239785D01*
X218713585Y-107672137D01*
X218798694Y-107649333D01*
X218901306Y-107590090D01*
X218985090Y-107506306D01*
X219044333Y-107403694D01*
X219067138Y-107318585D01*
X219636716Y-107888163D01*
X219653049Y-107866536D01*
X219653053Y-107866529D01*
X219752499Y-107666813D01*
X219752506Y-107666795D01*
X219813570Y-107452181D01*
X219834158Y-107230000D01*
X219834158Y-107229999D01*
X219813570Y-107007818D01*
X219752506Y-106793204D01*
X219752501Y-106793191D01*
X219653046Y-106593458D01*
X219636716Y-106571836D01*
X219067138Y-107141414D01*
X219044333Y-107056306D01*
X218985090Y-106953694D01*
X218901306Y-106869910D01*
X218798694Y-106810667D01*
X218713584Y-106787861D01*
X219281232Y-106220213D01*
X219163966Y-106147605D01*
X219163965Y-106147604D01*
X218955904Y-106067002D01*
X218736565Y-106026000D01*
X218513435Y-106026000D01*
X218294095Y-106067002D01*
X218086034Y-106147604D01*
X218086028Y-106147607D01*
X217968767Y-106220212D01*
X217968766Y-106220213D01*
X218536415Y-106787861D01*
X218451306Y-106810667D01*
X218348694Y-106869910D01*
X218264910Y-106953694D01*
X218205667Y-107056306D01*
X218182861Y-107141415D01*
X217613282Y-106571836D01*
X217613281Y-106571836D01*
X217596953Y-106593458D01*
X217497498Y-106793191D01*
X217497493Y-106793204D01*
X217436429Y-107007818D01*
X217415842Y-107229999D01*
X208385679Y-107229999D01*
X208432573Y-107054986D01*
X208432575Y-107054976D01*
X208451821Y-106835000D01*
X208451821Y-106834999D01*
X208432575Y-106615023D01*
X208432573Y-106615013D01*
X208375424Y-106401729D01*
X208375420Y-106401720D01*
X208282096Y-106201586D01*
X208236741Y-106136811D01*
X208236740Y-106136810D01*
X207566000Y-106807551D01*
X207566000Y-106784840D01*
X207540036Y-106687939D01*
X207489876Y-106601060D01*
X207418940Y-106530124D01*
X207332061Y-106479964D01*
X207235160Y-106454000D01*
X207212448Y-106454000D01*
X207883188Y-105783259D01*
X207883187Y-105783258D01*
X207818411Y-105737901D01*
X207818405Y-105737898D01*
X207618284Y-105644580D01*
X207618270Y-105644575D01*
X207404986Y-105587426D01*
X207404976Y-105587424D01*
X207185001Y-105568179D01*
X207184999Y-105568179D01*
X206965023Y-105587424D01*
X206965013Y-105587426D01*
X206751729Y-105644575D01*
X206751720Y-105644579D01*
X206551590Y-105737901D01*
X206486811Y-105783258D01*
X207157553Y-106454000D01*
X207134840Y-106454000D01*
X207037939Y-106479964D01*
X206951060Y-106530124D01*
X206880124Y-106601060D01*
X206829964Y-106687939D01*
X206804000Y-106784840D01*
X206804000Y-106807552D01*
X206133258Y-106136811D01*
X206087901Y-106201590D01*
X205994579Y-106401720D01*
X205994575Y-106401729D01*
X205937426Y-106615013D01*
X205937424Y-106615023D01*
X205918179Y-106834999D01*
X192300000Y-106834999D01*
X192300000Y-102774000D01*
X192319685Y-102706961D01*
X192372489Y-102661206D01*
X192424000Y-102650000D01*
X220876000Y-102650000D01*
X220943039Y-102669685D01*
G37*
%TD.AperFunction*%
%TD*%
%TA.AperFunction,Conductor*%
%TO.N,/Filter/VREF*%
G36*
X162943039Y-29019685D02*
G01*
X162988794Y-29072489D01*
X163000000Y-29124000D01*
X163000000Y-81876000D01*
X162980315Y-81943039D01*
X162927511Y-81988794D01*
X162876000Y-82000000D01*
X110124000Y-82000000D01*
X110056961Y-81980315D01*
X110011206Y-81927511D01*
X110000000Y-81876000D01*
X110000000Y-77343135D01*
X113810500Y-77343135D01*
X113810500Y-78656870D01*
X113810501Y-78656876D01*
X113816908Y-78716483D01*
X113867202Y-78851328D01*
X113867206Y-78851335D01*
X113953452Y-78966544D01*
X113953455Y-78966547D01*
X114068664Y-79052793D01*
X114068671Y-79052797D01*
X114203517Y-79103091D01*
X114203516Y-79103091D01*
X114210444Y-79103835D01*
X114263127Y-79109500D01*
X115576872Y-79109499D01*
X115636483Y-79103091D01*
X115771331Y-79052796D01*
X115886546Y-78966546D01*
X115972796Y-78851331D01*
X116023091Y-78716483D01*
X116029500Y-78656873D01*
X116029499Y-77999999D01*
X116346249Y-77999999D01*
X116346249Y-78000000D01*
X116365212Y-78204646D01*
X116421459Y-78402336D01*
X116513066Y-78586307D01*
X116513074Y-78586320D01*
X116516108Y-78590337D01*
X117105000Y-78001445D01*
X117105000Y-78046737D01*
X117129193Y-78137025D01*
X117175930Y-78217975D01*
X117242025Y-78284070D01*
X117322975Y-78330807D01*
X117413263Y-78355000D01*
X117458553Y-78355000D01*
X116872774Y-78940777D01*
X116963557Y-78996988D01*
X116963558Y-78996989D01*
X117155205Y-79071232D01*
X117357238Y-79109000D01*
X117562762Y-79109000D01*
X117764794Y-79071232D01*
X117956441Y-78996989D01*
X117956445Y-78996987D01*
X118047223Y-78940778D01*
X118047223Y-78940777D01*
X117461448Y-78355000D01*
X117506737Y-78355000D01*
X117597025Y-78330807D01*
X117677975Y-78284070D01*
X117744070Y-78217975D01*
X117790807Y-78137025D01*
X117815000Y-78046737D01*
X117815000Y-78001447D01*
X118403889Y-78590336D01*
X118403890Y-78590336D01*
X118406931Y-78586311D01*
X118498540Y-78402336D01*
X118554787Y-78204646D01*
X118573751Y-78000000D01*
X118573751Y-77999999D01*
X118886249Y-77999999D01*
X118886249Y-78000000D01*
X118905212Y-78204646D01*
X118961459Y-78402336D01*
X119053066Y-78586307D01*
X119053074Y-78586320D01*
X119056108Y-78590337D01*
X119645000Y-78001445D01*
X119645000Y-78046737D01*
X119669193Y-78137025D01*
X119715930Y-78217975D01*
X119782025Y-78284070D01*
X119862975Y-78330807D01*
X119953263Y-78355000D01*
X119998553Y-78355000D01*
X119412774Y-78940777D01*
X119503557Y-78996988D01*
X119503558Y-78996989D01*
X119695205Y-79071232D01*
X119897238Y-79109000D01*
X120102762Y-79109000D01*
X120304794Y-79071232D01*
X120496441Y-78996989D01*
X120496445Y-78996987D01*
X120587223Y-78940778D01*
X120587223Y-78940777D01*
X120001448Y-78355000D01*
X120046737Y-78355000D01*
X120137025Y-78330807D01*
X120217975Y-78284070D01*
X120284070Y-78217975D01*
X120330807Y-78137025D01*
X120355000Y-78046737D01*
X120355000Y-78001447D01*
X120943889Y-78590336D01*
X120943890Y-78590336D01*
X120946931Y-78586311D01*
X121038540Y-78402336D01*
X121094787Y-78204646D01*
X121095218Y-78199997D01*
X127670034Y-78199997D01*
X127670034Y-78200002D01*
X127689858Y-78426599D01*
X127689860Y-78426610D01*
X127748730Y-78646317D01*
X127748735Y-78646331D01*
X127844863Y-78852478D01*
X127895974Y-78925472D01*
X128575000Y-78246446D01*
X128575000Y-78252661D01*
X128602259Y-78354394D01*
X128654920Y-78445606D01*
X128729394Y-78520080D01*
X128820606Y-78572741D01*
X128922339Y-78600000D01*
X128928553Y-78600000D01*
X128249526Y-79279025D01*
X128322513Y-79330132D01*
X128322521Y-79330136D01*
X128528668Y-79426264D01*
X128528682Y-79426269D01*
X128748389Y-79485139D01*
X128748400Y-79485141D01*
X128974998Y-79504966D01*
X128975002Y-79504966D01*
X129201599Y-79485141D01*
X129201610Y-79485139D01*
X129421317Y-79426269D01*
X129421331Y-79426264D01*
X129627478Y-79330136D01*
X129700471Y-79279024D01*
X129021447Y-78600000D01*
X129027661Y-78600000D01*
X129129394Y-78572741D01*
X129220606Y-78520080D01*
X129295080Y-78445606D01*
X129347741Y-78354394D01*
X129375000Y-78252661D01*
X129375000Y-78246447D01*
X130054024Y-78925471D01*
X130105136Y-78852478D01*
X130201264Y-78646331D01*
X130201269Y-78646317D01*
X130260139Y-78426610D01*
X130260141Y-78426599D01*
X130279966Y-78200002D01*
X130279966Y-78199997D01*
X130260141Y-77973400D01*
X130260139Y-77973389D01*
X130201269Y-77753682D01*
X130201264Y-77753668D01*
X130105136Y-77547521D01*
X130105132Y-77547513D01*
X130054025Y-77474526D01*
X129375000Y-78153551D01*
X129375000Y-78147339D01*
X129347741Y-78045606D01*
X129295080Y-77954394D01*
X129220606Y-77879920D01*
X129129394Y-77827259D01*
X129027661Y-77800000D01*
X129021448Y-77800000D01*
X129700472Y-77120974D01*
X129627478Y-77069863D01*
X129421331Y-76973735D01*
X129421317Y-76973730D01*
X129201610Y-76914860D01*
X129201599Y-76914858D01*
X128975002Y-76895034D01*
X128974998Y-76895034D01*
X128748400Y-76914858D01*
X128748389Y-76914860D01*
X128528682Y-76973730D01*
X128528673Y-76973734D01*
X128322516Y-77069866D01*
X128322512Y-77069868D01*
X128249526Y-77120973D01*
X128249526Y-77120974D01*
X128928553Y-77800000D01*
X128922339Y-77800000D01*
X128820606Y-77827259D01*
X128729394Y-77879920D01*
X128654920Y-77954394D01*
X128602259Y-78045606D01*
X128575000Y-78147339D01*
X128575000Y-78153552D01*
X127895974Y-77474526D01*
X127895973Y-77474526D01*
X127844868Y-77547512D01*
X127844866Y-77547516D01*
X127748734Y-77753673D01*
X127748730Y-77753682D01*
X127689860Y-77973389D01*
X127689858Y-77973400D01*
X127670034Y-78199997D01*
X121095218Y-78199997D01*
X121113751Y-78000000D01*
X121113751Y-77999999D01*
X121094787Y-77795353D01*
X121038540Y-77597663D01*
X120946930Y-77413688D01*
X120946929Y-77413685D01*
X120943889Y-77409661D01*
X120355000Y-77998551D01*
X120355000Y-77953263D01*
X120330807Y-77862975D01*
X120284070Y-77782025D01*
X120217975Y-77715930D01*
X120137025Y-77669193D01*
X120046737Y-77645000D01*
X120001447Y-77645000D01*
X120587224Y-77059221D01*
X120496439Y-77003010D01*
X120304794Y-76928767D01*
X120102762Y-76891000D01*
X119897238Y-76891000D01*
X119695205Y-76928767D01*
X119503559Y-77003010D01*
X119503552Y-77003014D01*
X119412775Y-77059220D01*
X119412774Y-77059221D01*
X119998554Y-77645000D01*
X119953263Y-77645000D01*
X119862975Y-77669193D01*
X119782025Y-77715930D01*
X119715930Y-77782025D01*
X119669193Y-77862975D01*
X119645000Y-77953263D01*
X119645000Y-77998553D01*
X119056108Y-77409662D01*
X119053068Y-77413688D01*
X119053066Y-77413692D01*
X118961459Y-77597663D01*
X118905212Y-77795353D01*
X118886249Y-77999999D01*
X118573751Y-77999999D01*
X118554787Y-77795353D01*
X118498540Y-77597663D01*
X118406930Y-77413688D01*
X118406929Y-77413685D01*
X118403889Y-77409661D01*
X117815000Y-77998551D01*
X117815000Y-77953263D01*
X117790807Y-77862975D01*
X117744070Y-77782025D01*
X117677975Y-77715930D01*
X117597025Y-77669193D01*
X117506737Y-77645000D01*
X117461447Y-77645000D01*
X118047224Y-77059221D01*
X117956439Y-77003010D01*
X117764794Y-76928767D01*
X117562762Y-76891000D01*
X117357238Y-76891000D01*
X117155205Y-76928767D01*
X116963559Y-77003010D01*
X116963552Y-77003014D01*
X116872775Y-77059220D01*
X116872774Y-77059221D01*
X117458554Y-77645000D01*
X117413263Y-77645000D01*
X117322975Y-77669193D01*
X117242025Y-77715930D01*
X117175930Y-77782025D01*
X117129193Y-77862975D01*
X117105000Y-77953263D01*
X117105000Y-77998554D01*
X116516108Y-77409662D01*
X116513068Y-77413688D01*
X116513066Y-77413692D01*
X116421459Y-77597663D01*
X116365212Y-77795353D01*
X116346249Y-77999999D01*
X116029499Y-77999999D01*
X116029499Y-77343128D01*
X116023091Y-77283517D01*
X115972796Y-77148669D01*
X115972795Y-77148668D01*
X115972793Y-77148664D01*
X115886547Y-77033455D01*
X115886544Y-77033452D01*
X115771335Y-76947206D01*
X115771328Y-76947202D01*
X115636482Y-76896908D01*
X115636483Y-76896908D01*
X115576883Y-76890501D01*
X115576881Y-76890500D01*
X115576873Y-76890500D01*
X115576864Y-76890500D01*
X114263129Y-76890500D01*
X114263123Y-76890501D01*
X114203516Y-76896908D01*
X114068671Y-76947202D01*
X114068664Y-76947206D01*
X113953455Y-77033452D01*
X113953452Y-77033455D01*
X113867206Y-77148664D01*
X113867202Y-77148671D01*
X113816908Y-77283517D01*
X113810501Y-77343116D01*
X113810501Y-77343123D01*
X113810500Y-77343135D01*
X110000000Y-77343135D01*
X110000000Y-69900000D01*
X134545052Y-69900000D01*
X134564812Y-70151072D01*
X134623603Y-70395956D01*
X134719980Y-70628631D01*
X134851568Y-70843362D01*
X134852266Y-70844179D01*
X135626212Y-70070234D01*
X135637482Y-70112292D01*
X135709890Y-70237708D01*
X135812292Y-70340110D01*
X135937708Y-70412518D01*
X135979765Y-70423787D01*
X135205819Y-71197732D01*
X135205819Y-71197733D01*
X135206634Y-71198429D01*
X135421368Y-71330019D01*
X135654043Y-71426396D01*
X135898927Y-71485187D01*
X136150000Y-71504947D01*
X136401072Y-71485187D01*
X136645956Y-71426396D01*
X136878631Y-71330019D01*
X137093361Y-71198432D01*
X137093363Y-71198430D01*
X137094180Y-71197732D01*
X136320234Y-70423787D01*
X136362292Y-70412518D01*
X136487708Y-70340110D01*
X136590110Y-70237708D01*
X136662518Y-70112292D01*
X136673787Y-70070235D01*
X137447732Y-70844180D01*
X137448430Y-70843363D01*
X137448432Y-70843361D01*
X137580019Y-70628631D01*
X137676396Y-70395956D01*
X137735187Y-70151072D01*
X137754947Y-69900000D01*
X137735187Y-69648927D01*
X137676396Y-69404043D01*
X137580019Y-69171368D01*
X137448429Y-68956634D01*
X137447733Y-68955819D01*
X137447732Y-68955819D01*
X136673787Y-69729764D01*
X136662518Y-69687708D01*
X136590110Y-69562292D01*
X136487708Y-69459890D01*
X136362292Y-69387482D01*
X136320234Y-69376212D01*
X137094179Y-68602266D01*
X137093362Y-68601568D01*
X136878631Y-68469980D01*
X136645956Y-68373603D01*
X136401072Y-68314812D01*
X136150000Y-68295052D01*
X135898927Y-68314812D01*
X135654043Y-68373603D01*
X135421368Y-68469980D01*
X135206637Y-68601567D01*
X135205819Y-68602266D01*
X135979765Y-69376212D01*
X135937708Y-69387482D01*
X135812292Y-69459890D01*
X135709890Y-69562292D01*
X135637482Y-69687708D01*
X135626212Y-69729765D01*
X134852266Y-68955819D01*
X134851567Y-68956637D01*
X134719980Y-69171368D01*
X134623603Y-69404043D01*
X134564812Y-69648927D01*
X134545052Y-69900000D01*
X110000000Y-69900000D01*
X110000000Y-66982498D01*
X142169532Y-66982498D01*
X142169532Y-66982501D01*
X142189364Y-67209186D01*
X142189366Y-67209197D01*
X142248258Y-67428988D01*
X142248261Y-67428997D01*
X142344431Y-67635232D01*
X142344432Y-67635234D01*
X142474954Y-67821641D01*
X142635858Y-67982545D01*
X142635861Y-67982547D01*
X142822266Y-68113068D01*
X143028504Y-68209239D01*
X143248308Y-68268135D01*
X143410230Y-68282301D01*
X143474998Y-68287968D01*
X143475000Y-68287968D01*
X143475002Y-68287968D01*
X143531673Y-68283009D01*
X143701692Y-68268135D01*
X143921496Y-68209239D01*
X144127734Y-68113068D01*
X144314139Y-67982547D01*
X144475047Y-67821639D01*
X144605568Y-67635234D01*
X144701739Y-67428996D01*
X144760635Y-67209192D01*
X144780468Y-66982500D01*
X144780468Y-66982498D01*
X147169532Y-66982498D01*
X147169532Y-66982501D01*
X147189364Y-67209186D01*
X147189366Y-67209197D01*
X147248258Y-67428988D01*
X147248261Y-67428997D01*
X147344431Y-67635232D01*
X147344432Y-67635234D01*
X147474954Y-67821641D01*
X147635858Y-67982545D01*
X147635861Y-67982547D01*
X147822266Y-68113068D01*
X148028504Y-68209239D01*
X148248308Y-68268135D01*
X148410230Y-68282301D01*
X148474998Y-68287968D01*
X148475000Y-68287968D01*
X148475002Y-68287968D01*
X148531673Y-68283009D01*
X148701692Y-68268135D01*
X148921496Y-68209239D01*
X149127734Y-68113068D01*
X149314139Y-67982547D01*
X149475047Y-67821639D01*
X149605568Y-67635234D01*
X149701739Y-67428996D01*
X149760635Y-67209192D01*
X149780468Y-66982500D01*
X149760635Y-66755808D01*
X149701739Y-66536004D01*
X149661633Y-66449997D01*
X150885034Y-66449997D01*
X150885034Y-66450002D01*
X150904858Y-66676599D01*
X150904860Y-66676610D01*
X150963730Y-66896317D01*
X150963735Y-66896331D01*
X151059863Y-67102478D01*
X151110974Y-67175472D01*
X151790000Y-66496446D01*
X151790000Y-66502661D01*
X151817259Y-66604394D01*
X151869920Y-66695606D01*
X151944394Y-66770080D01*
X152035606Y-66822741D01*
X152137339Y-66850000D01*
X152143553Y-66850000D01*
X151464526Y-67529025D01*
X151537513Y-67580132D01*
X151537521Y-67580136D01*
X151743668Y-67676264D01*
X151743682Y-67676269D01*
X151963389Y-67735139D01*
X151963400Y-67735141D01*
X152189998Y-67754966D01*
X152190002Y-67754966D01*
X152416599Y-67735141D01*
X152416610Y-67735139D01*
X152636317Y-67676269D01*
X152636331Y-67676264D01*
X152842478Y-67580136D01*
X152915471Y-67529024D01*
X152236447Y-66850000D01*
X152242661Y-66850000D01*
X152344394Y-66822741D01*
X152435606Y-66770080D01*
X152510080Y-66695606D01*
X152562741Y-66604394D01*
X152590000Y-66502661D01*
X152590000Y-66496447D01*
X153269024Y-67175471D01*
X153320136Y-67102478D01*
X153416264Y-66896331D01*
X153416269Y-66896317D01*
X153475139Y-66676610D01*
X153475141Y-66676599D01*
X153494966Y-66450002D01*
X153494966Y-66449998D01*
X158504532Y-66449998D01*
X158504532Y-66450001D01*
X158524364Y-66676686D01*
X158524366Y-66676697D01*
X158583258Y-66896488D01*
X158583261Y-66896497D01*
X158679431Y-67102732D01*
X158679432Y-67102734D01*
X158809954Y-67289141D01*
X158970858Y-67450045D01*
X158970861Y-67450047D01*
X159157266Y-67580568D01*
X159363504Y-67676739D01*
X159583308Y-67735635D01*
X159745230Y-67749801D01*
X159809998Y-67755468D01*
X159810000Y-67755468D01*
X159810002Y-67755468D01*
X159866673Y-67750509D01*
X160036692Y-67735635D01*
X160256496Y-67676739D01*
X160462734Y-67580568D01*
X160649139Y-67450047D01*
X160810047Y-67289139D01*
X160940568Y-67102734D01*
X161036739Y-66896496D01*
X161095635Y-66676692D01*
X161115468Y-66450000D01*
X161095635Y-66223308D01*
X161036739Y-66003504D01*
X160940568Y-65797266D01*
X160810047Y-65610861D01*
X160810045Y-65610858D01*
X160649141Y-65449954D01*
X160462734Y-65319432D01*
X160462732Y-65319431D01*
X160256497Y-65223261D01*
X160256488Y-65223258D01*
X160036697Y-65164366D01*
X160036693Y-65164365D01*
X160036692Y-65164365D01*
X160036691Y-65164364D01*
X160036686Y-65164364D01*
X159810002Y-65144532D01*
X159809998Y-65144532D01*
X159583313Y-65164364D01*
X159583302Y-65164366D01*
X159363511Y-65223258D01*
X159363502Y-65223261D01*
X159157267Y-65319431D01*
X159157265Y-65319432D01*
X158970858Y-65449954D01*
X158809954Y-65610858D01*
X158679432Y-65797265D01*
X158679431Y-65797267D01*
X158583261Y-66003502D01*
X158583258Y-66003511D01*
X158524366Y-66223302D01*
X158524364Y-66223313D01*
X158504532Y-66449998D01*
X153494966Y-66449998D01*
X153494966Y-66449997D01*
X153475141Y-66223400D01*
X153475139Y-66223389D01*
X153416269Y-66003682D01*
X153416264Y-66003668D01*
X153320136Y-65797521D01*
X153320132Y-65797513D01*
X153269025Y-65724526D01*
X152590000Y-66403551D01*
X152590000Y-66397339D01*
X152562741Y-66295606D01*
X152510080Y-66204394D01*
X152435606Y-66129920D01*
X152344394Y-66077259D01*
X152242661Y-66050000D01*
X152236448Y-66050000D01*
X152915472Y-65370974D01*
X152842478Y-65319863D01*
X152636331Y-65223735D01*
X152636317Y-65223730D01*
X152416610Y-65164860D01*
X152416599Y-65164858D01*
X152190002Y-65145034D01*
X152189998Y-65145034D01*
X151963400Y-65164858D01*
X151963389Y-65164860D01*
X151743682Y-65223730D01*
X151743673Y-65223734D01*
X151537516Y-65319866D01*
X151537512Y-65319868D01*
X151464526Y-65370973D01*
X151464526Y-65370974D01*
X152143553Y-66050000D01*
X152137339Y-66050000D01*
X152035606Y-66077259D01*
X151944394Y-66129920D01*
X151869920Y-66204394D01*
X151817259Y-66295606D01*
X151790000Y-66397339D01*
X151790000Y-66403552D01*
X151110974Y-65724526D01*
X151110973Y-65724526D01*
X151059868Y-65797512D01*
X151059866Y-65797516D01*
X150963734Y-66003673D01*
X150963730Y-66003682D01*
X150904860Y-66223389D01*
X150904858Y-66223400D01*
X150885034Y-66449997D01*
X149661633Y-66449997D01*
X149605568Y-66329766D01*
X149475047Y-66143361D01*
X149475045Y-66143358D01*
X149314141Y-65982454D01*
X149127734Y-65851932D01*
X149127732Y-65851931D01*
X148921497Y-65755761D01*
X148921488Y-65755758D01*
X148701697Y-65696866D01*
X148701693Y-65696865D01*
X148701692Y-65696865D01*
X148701691Y-65696864D01*
X148701686Y-65696864D01*
X148475002Y-65677032D01*
X148474998Y-65677032D01*
X148248313Y-65696864D01*
X148248302Y-65696866D01*
X148028511Y-65755758D01*
X148028502Y-65755761D01*
X147822267Y-65851931D01*
X147822265Y-65851932D01*
X147635858Y-65982454D01*
X147474954Y-66143358D01*
X147344432Y-66329765D01*
X147344431Y-66329767D01*
X147248261Y-66536002D01*
X147248258Y-66536011D01*
X147189366Y-66755802D01*
X147189364Y-66755813D01*
X147169532Y-66982498D01*
X144780468Y-66982498D01*
X144760635Y-66755808D01*
X144701739Y-66536004D01*
X144605568Y-66329766D01*
X144475047Y-66143361D01*
X144475045Y-66143358D01*
X144314141Y-65982454D01*
X144127734Y-65851932D01*
X144127732Y-65851931D01*
X143921497Y-65755761D01*
X143921488Y-65755758D01*
X143701697Y-65696866D01*
X143701693Y-65696865D01*
X143701692Y-65696865D01*
X143701691Y-65696864D01*
X143701686Y-65696864D01*
X143475002Y-65677032D01*
X143474998Y-65677032D01*
X143248313Y-65696864D01*
X143248302Y-65696866D01*
X143028511Y-65755758D01*
X143028502Y-65755761D01*
X142822267Y-65851931D01*
X142822265Y-65851932D01*
X142635858Y-65982454D01*
X142474954Y-66143358D01*
X142344432Y-66329765D01*
X142344431Y-66329767D01*
X142248261Y-66536002D01*
X142248258Y-66536011D01*
X142189366Y-66755802D01*
X142189364Y-66755813D01*
X142169532Y-66982498D01*
X110000000Y-66982498D01*
X110000000Y-62999997D01*
X142195034Y-62999997D01*
X142195034Y-63000002D01*
X142214858Y-63226599D01*
X142214860Y-63226610D01*
X142273730Y-63446317D01*
X142273735Y-63446331D01*
X142369863Y-63652478D01*
X142420974Y-63725472D01*
X143100000Y-63046446D01*
X143100000Y-63052661D01*
X143127259Y-63154394D01*
X143179920Y-63245606D01*
X143254394Y-63320080D01*
X143345606Y-63372741D01*
X143447339Y-63400000D01*
X143453553Y-63400000D01*
X142774526Y-64079025D01*
X142847513Y-64130132D01*
X142847521Y-64130136D01*
X143053668Y-64226264D01*
X143053682Y-64226269D01*
X143273389Y-64285139D01*
X143273400Y-64285141D01*
X143499998Y-64304966D01*
X143500002Y-64304966D01*
X143726599Y-64285141D01*
X143726610Y-64285139D01*
X143946317Y-64226269D01*
X143946331Y-64226264D01*
X144152478Y-64130136D01*
X144225471Y-64079024D01*
X143546447Y-63400000D01*
X143552661Y-63400000D01*
X143654394Y-63372741D01*
X143745606Y-63320080D01*
X143820080Y-63245606D01*
X143872741Y-63154394D01*
X143900000Y-63052661D01*
X143900000Y-63046447D01*
X144579024Y-63725471D01*
X144630136Y-63652478D01*
X144726264Y-63446331D01*
X144726269Y-63446317D01*
X144785139Y-63226610D01*
X144785141Y-63226599D01*
X144804966Y-63000002D01*
X144804966Y-62999998D01*
X147194532Y-62999998D01*
X147194532Y-63000001D01*
X147214364Y-63226686D01*
X147214366Y-63226697D01*
X147273258Y-63446488D01*
X147273261Y-63446497D01*
X147369431Y-63652732D01*
X147369432Y-63652734D01*
X147499954Y-63839141D01*
X147660858Y-64000045D01*
X147660861Y-64000047D01*
X147847266Y-64130568D01*
X148053504Y-64226739D01*
X148273308Y-64285635D01*
X148435230Y-64299801D01*
X148499998Y-64305468D01*
X148500000Y-64305468D01*
X148500002Y-64305468D01*
X148556673Y-64300509D01*
X148726692Y-64285635D01*
X148946496Y-64226739D01*
X149152734Y-64130568D01*
X149339139Y-64000047D01*
X149500047Y-63839139D01*
X149630568Y-63652734D01*
X149726739Y-63446496D01*
X149785635Y-63226692D01*
X149805468Y-63000000D01*
X149804522Y-62989192D01*
X149785635Y-62773313D01*
X149785635Y-62773308D01*
X149782738Y-62762498D01*
X150909532Y-62762498D01*
X150909532Y-62762501D01*
X150929364Y-62989186D01*
X150929366Y-62989197D01*
X150988258Y-63208988D01*
X150988261Y-63208997D01*
X151084431Y-63415232D01*
X151084432Y-63415234D01*
X151214954Y-63601641D01*
X151375858Y-63762545D01*
X151375861Y-63762547D01*
X151562266Y-63893068D01*
X151768504Y-63989239D01*
X151988308Y-64048135D01*
X152150230Y-64062301D01*
X152214998Y-64067968D01*
X152215000Y-64067968D01*
X152215002Y-64067968D01*
X152271673Y-64063009D01*
X152441692Y-64048135D01*
X152661496Y-63989239D01*
X152867734Y-63893068D01*
X153054139Y-63762547D01*
X153215047Y-63601639D01*
X153345568Y-63415234D01*
X153441739Y-63208996D01*
X153500635Y-62989192D01*
X153520468Y-62762500D01*
X153520468Y-62762498D01*
X158529532Y-62762498D01*
X158529532Y-62762501D01*
X158549364Y-62989186D01*
X158549366Y-62989197D01*
X158608258Y-63208988D01*
X158608261Y-63208997D01*
X158704431Y-63415232D01*
X158704432Y-63415234D01*
X158834954Y-63601641D01*
X158995858Y-63762545D01*
X158995861Y-63762547D01*
X159182266Y-63893068D01*
X159388504Y-63989239D01*
X159608308Y-64048135D01*
X159770230Y-64062301D01*
X159834998Y-64067968D01*
X159835000Y-64067968D01*
X159835002Y-64067968D01*
X159891673Y-64063009D01*
X160061692Y-64048135D01*
X160281496Y-63989239D01*
X160487734Y-63893068D01*
X160674139Y-63762547D01*
X160835047Y-63601639D01*
X160965568Y-63415234D01*
X161061739Y-63208996D01*
X161120635Y-62989192D01*
X161140468Y-62762500D01*
X161120635Y-62535808D01*
X161070182Y-62347513D01*
X161061741Y-62316011D01*
X161061738Y-62316002D01*
X160989394Y-62160861D01*
X160965568Y-62109766D01*
X160835047Y-61923361D01*
X160835045Y-61923358D01*
X160674141Y-61762454D01*
X160487734Y-61631932D01*
X160487732Y-61631931D01*
X160281497Y-61535761D01*
X160281488Y-61535758D01*
X160061697Y-61476866D01*
X160061693Y-61476865D01*
X160061692Y-61476865D01*
X160061691Y-61476864D01*
X160061686Y-61476864D01*
X159835002Y-61457032D01*
X159834998Y-61457032D01*
X159608313Y-61476864D01*
X159608302Y-61476866D01*
X159388511Y-61535758D01*
X159388502Y-61535761D01*
X159182267Y-61631931D01*
X159182265Y-61631932D01*
X158995858Y-61762454D01*
X158834954Y-61923358D01*
X158704432Y-62109765D01*
X158704431Y-62109767D01*
X158608261Y-62316002D01*
X158608258Y-62316011D01*
X158549366Y-62535802D01*
X158549364Y-62535813D01*
X158529532Y-62762498D01*
X153520468Y-62762498D01*
X153500635Y-62535808D01*
X153450182Y-62347513D01*
X153441741Y-62316011D01*
X153441738Y-62316002D01*
X153369394Y-62160861D01*
X153345568Y-62109766D01*
X153215047Y-61923361D01*
X153215045Y-61923358D01*
X153054141Y-61762454D01*
X152867734Y-61631932D01*
X152867732Y-61631931D01*
X152661497Y-61535761D01*
X152661488Y-61535758D01*
X152441697Y-61476866D01*
X152441693Y-61476865D01*
X152441692Y-61476865D01*
X152441691Y-61476864D01*
X152441686Y-61476864D01*
X152215002Y-61457032D01*
X152214998Y-61457032D01*
X151988313Y-61476864D01*
X151988302Y-61476866D01*
X151768511Y-61535758D01*
X151768502Y-61535761D01*
X151562267Y-61631931D01*
X151562265Y-61631932D01*
X151375858Y-61762454D01*
X151214954Y-61923358D01*
X151084432Y-62109765D01*
X151084431Y-62109767D01*
X150988261Y-62316002D01*
X150988258Y-62316011D01*
X150929366Y-62535802D01*
X150929364Y-62535813D01*
X150909532Y-62762498D01*
X149782738Y-62762498D01*
X149726739Y-62553504D01*
X149630568Y-62347266D01*
X149500047Y-62160861D01*
X149500045Y-62160858D01*
X149339141Y-61999954D01*
X149152734Y-61869432D01*
X149152732Y-61869431D01*
X148946497Y-61773261D01*
X148946488Y-61773258D01*
X148726697Y-61714366D01*
X148726693Y-61714365D01*
X148726692Y-61714365D01*
X148726691Y-61714364D01*
X148726686Y-61714364D01*
X148500002Y-61694532D01*
X148499998Y-61694532D01*
X148273313Y-61714364D01*
X148273302Y-61714366D01*
X148053511Y-61773258D01*
X148053502Y-61773261D01*
X147847267Y-61869431D01*
X147847265Y-61869432D01*
X147660858Y-61999954D01*
X147499954Y-62160858D01*
X147369432Y-62347265D01*
X147369431Y-62347267D01*
X147273261Y-62553502D01*
X147273258Y-62553511D01*
X147214366Y-62773302D01*
X147214364Y-62773313D01*
X147194532Y-62999998D01*
X144804966Y-62999998D01*
X144804966Y-62999997D01*
X144785141Y-62773400D01*
X144785139Y-62773389D01*
X144726269Y-62553682D01*
X144726264Y-62553668D01*
X144630136Y-62347521D01*
X144630132Y-62347513D01*
X144579025Y-62274526D01*
X143900000Y-62953551D01*
X143900000Y-62947339D01*
X143872741Y-62845606D01*
X143820080Y-62754394D01*
X143745606Y-62679920D01*
X143654394Y-62627259D01*
X143552661Y-62600000D01*
X143546448Y-62600000D01*
X144225472Y-61920974D01*
X144152478Y-61869863D01*
X143946331Y-61773735D01*
X143946317Y-61773730D01*
X143726610Y-61714860D01*
X143726599Y-61714858D01*
X143500002Y-61695034D01*
X143499998Y-61695034D01*
X143273400Y-61714858D01*
X143273389Y-61714860D01*
X143053682Y-61773730D01*
X143053673Y-61773734D01*
X142847516Y-61869866D01*
X142847512Y-61869868D01*
X142774526Y-61920973D01*
X142774526Y-61920974D01*
X143453553Y-62600000D01*
X143447339Y-62600000D01*
X143345606Y-62627259D01*
X143254394Y-62679920D01*
X143179920Y-62754394D01*
X143127259Y-62845606D01*
X143100000Y-62947339D01*
X143100000Y-62953552D01*
X142420974Y-62274526D01*
X142420973Y-62274526D01*
X142369868Y-62347512D01*
X142369866Y-62347516D01*
X142273734Y-62553673D01*
X142273730Y-62553682D01*
X142214860Y-62773389D01*
X142214858Y-62773400D01*
X142195034Y-62999997D01*
X110000000Y-62999997D01*
X110000000Y-59449998D01*
X128884532Y-59449998D01*
X128884532Y-59450001D01*
X128904364Y-59676686D01*
X128904366Y-59676697D01*
X128963258Y-59896488D01*
X128963261Y-59896497D01*
X129059431Y-60102732D01*
X129059432Y-60102734D01*
X129189954Y-60289141D01*
X129350858Y-60450045D01*
X129350861Y-60450047D01*
X129537266Y-60580568D01*
X129743504Y-60676739D01*
X129963308Y-60735635D01*
X130125230Y-60749801D01*
X130189998Y-60755468D01*
X130190000Y-60755468D01*
X130190002Y-60755468D01*
X130246673Y-60750509D01*
X130416692Y-60735635D01*
X130636496Y-60676739D01*
X130842734Y-60580568D01*
X131029139Y-60450047D01*
X131190047Y-60289139D01*
X131320568Y-60102734D01*
X131416739Y-59896496D01*
X131475635Y-59676692D01*
X131495468Y-59450000D01*
X131495468Y-59449998D01*
X136504532Y-59449998D01*
X136504532Y-59450001D01*
X136524364Y-59676686D01*
X136524366Y-59676697D01*
X136583258Y-59896488D01*
X136583261Y-59896497D01*
X136679431Y-60102732D01*
X136679432Y-60102734D01*
X136809954Y-60289141D01*
X136970858Y-60450045D01*
X136970861Y-60450047D01*
X137157266Y-60580568D01*
X137363504Y-60676739D01*
X137583308Y-60735635D01*
X137745230Y-60749801D01*
X137809998Y-60755468D01*
X137810000Y-60755468D01*
X137810002Y-60755468D01*
X137866673Y-60750509D01*
X138036692Y-60735635D01*
X138256496Y-60676739D01*
X138462734Y-60580568D01*
X138649139Y-60450047D01*
X138810047Y-60289139D01*
X138940568Y-60102734D01*
X139036739Y-59896496D01*
X139095635Y-59676692D01*
X139115468Y-59450000D01*
X139115161Y-59446496D01*
X139103911Y-59317900D01*
X139095635Y-59223308D01*
X139036739Y-59003504D01*
X138940568Y-58797266D01*
X138810047Y-58610861D01*
X138810045Y-58610858D01*
X138649141Y-58449954D01*
X138462734Y-58319432D01*
X138462732Y-58319431D01*
X138256497Y-58223261D01*
X138256488Y-58223258D01*
X138036697Y-58164366D01*
X138036693Y-58164365D01*
X138036692Y-58164365D01*
X138036691Y-58164364D01*
X138036686Y-58164364D01*
X137810002Y-58144532D01*
X137809998Y-58144532D01*
X137583313Y-58164364D01*
X137583302Y-58164366D01*
X137363511Y-58223258D01*
X137363502Y-58223261D01*
X137157267Y-58319431D01*
X137157265Y-58319432D01*
X136970858Y-58449954D01*
X136809954Y-58610858D01*
X136679432Y-58797265D01*
X136679431Y-58797267D01*
X136583261Y-59003502D01*
X136583258Y-59003511D01*
X136524366Y-59223302D01*
X136524364Y-59223313D01*
X136504532Y-59449998D01*
X131495468Y-59449998D01*
X131495161Y-59446496D01*
X131483911Y-59317900D01*
X131475635Y-59223308D01*
X131416739Y-59003504D01*
X131320568Y-58797266D01*
X131190047Y-58610861D01*
X131190045Y-58610858D01*
X131029141Y-58449954D01*
X130842734Y-58319432D01*
X130842732Y-58319431D01*
X130636497Y-58223261D01*
X130636488Y-58223258D01*
X130416697Y-58164366D01*
X130416693Y-58164365D01*
X130416692Y-58164365D01*
X130416691Y-58164364D01*
X130416686Y-58164364D01*
X130190002Y-58144532D01*
X130189998Y-58144532D01*
X129963313Y-58164364D01*
X129963302Y-58164366D01*
X129743511Y-58223258D01*
X129743502Y-58223261D01*
X129537267Y-58319431D01*
X129537265Y-58319432D01*
X129350858Y-58449954D01*
X129189954Y-58610858D01*
X129059432Y-58797265D01*
X129059431Y-58797267D01*
X128963261Y-59003502D01*
X128963258Y-59003511D01*
X128904366Y-59223302D01*
X128904364Y-59223313D01*
X128884532Y-59449998D01*
X110000000Y-59449998D01*
X110000000Y-55999997D01*
X128885034Y-55999997D01*
X128885034Y-56000002D01*
X128904858Y-56226599D01*
X128904860Y-56226610D01*
X128963730Y-56446317D01*
X128963735Y-56446331D01*
X129059863Y-56652478D01*
X129110974Y-56725472D01*
X129790000Y-56046446D01*
X129790000Y-56052661D01*
X129817259Y-56154394D01*
X129869920Y-56245606D01*
X129944394Y-56320080D01*
X130035606Y-56372741D01*
X130137339Y-56400000D01*
X130143553Y-56400000D01*
X129464526Y-57079025D01*
X129537513Y-57130132D01*
X129537521Y-57130136D01*
X129743668Y-57226264D01*
X129743682Y-57226269D01*
X129963389Y-57285139D01*
X129963400Y-57285141D01*
X130189998Y-57304966D01*
X130190002Y-57304966D01*
X130416599Y-57285141D01*
X130416610Y-57285139D01*
X130636317Y-57226269D01*
X130636331Y-57226264D01*
X130842478Y-57130136D01*
X130915471Y-57079024D01*
X130236447Y-56400000D01*
X130242661Y-56400000D01*
X130344394Y-56372741D01*
X130435606Y-56320080D01*
X130510080Y-56245606D01*
X130562741Y-56154394D01*
X130590000Y-56052661D01*
X130590000Y-56046447D01*
X131269024Y-56725471D01*
X131320136Y-56652478D01*
X131416264Y-56446331D01*
X131416269Y-56446317D01*
X131475139Y-56226610D01*
X131475141Y-56226599D01*
X131494966Y-56000002D01*
X131494966Y-55999998D01*
X136504532Y-55999998D01*
X136504532Y-56000001D01*
X136524364Y-56226686D01*
X136524366Y-56226697D01*
X136583258Y-56446488D01*
X136583261Y-56446497D01*
X136679431Y-56652732D01*
X136679432Y-56652734D01*
X136809954Y-56839141D01*
X136970858Y-57000045D01*
X136970861Y-57000047D01*
X137157266Y-57130568D01*
X137363504Y-57226739D01*
X137583308Y-57285635D01*
X137745230Y-57299801D01*
X137809998Y-57305468D01*
X137810000Y-57305468D01*
X137810002Y-57305468D01*
X137866673Y-57300509D01*
X138036692Y-57285635D01*
X138256496Y-57226739D01*
X138462734Y-57130568D01*
X138649139Y-57000047D01*
X138810047Y-56839139D01*
X138940568Y-56652734D01*
X139036739Y-56446496D01*
X139095635Y-56226692D01*
X139115468Y-56000000D01*
X139095635Y-55773308D01*
X139036739Y-55553504D01*
X138940568Y-55347266D01*
X138810047Y-55160861D01*
X138810045Y-55160858D01*
X138649141Y-54999954D01*
X138462734Y-54869432D01*
X138462732Y-54869431D01*
X138256497Y-54773261D01*
X138256488Y-54773258D01*
X138036697Y-54714366D01*
X138036693Y-54714365D01*
X138036692Y-54714365D01*
X138036691Y-54714364D01*
X138036686Y-54714364D01*
X137810002Y-54694532D01*
X137809998Y-54694532D01*
X137583313Y-54714364D01*
X137583302Y-54714366D01*
X137363511Y-54773258D01*
X137363502Y-54773261D01*
X137157267Y-54869431D01*
X137157265Y-54869432D01*
X136970858Y-54999954D01*
X136809954Y-55160858D01*
X136679432Y-55347265D01*
X136679431Y-55347267D01*
X136583261Y-55553502D01*
X136583258Y-55553511D01*
X136524366Y-55773302D01*
X136524364Y-55773313D01*
X136504532Y-55999998D01*
X131494966Y-55999998D01*
X131494966Y-55999997D01*
X131475141Y-55773400D01*
X131475139Y-55773389D01*
X131416269Y-55553682D01*
X131416264Y-55553668D01*
X131320136Y-55347521D01*
X131320132Y-55347513D01*
X131269025Y-55274526D01*
X130590000Y-55953551D01*
X130590000Y-55947339D01*
X130562741Y-55845606D01*
X130510080Y-55754394D01*
X130435606Y-55679920D01*
X130344394Y-55627259D01*
X130242661Y-55600000D01*
X130236448Y-55600000D01*
X130915472Y-54920974D01*
X130842478Y-54869863D01*
X130636331Y-54773735D01*
X130636317Y-54773730D01*
X130416610Y-54714860D01*
X130416599Y-54714858D01*
X130190002Y-54695034D01*
X130189998Y-54695034D01*
X129963400Y-54714858D01*
X129963389Y-54714860D01*
X129743682Y-54773730D01*
X129743673Y-54773734D01*
X129537516Y-54869866D01*
X129537512Y-54869868D01*
X129464526Y-54920973D01*
X129464526Y-54920974D01*
X130143553Y-55600000D01*
X130137339Y-55600000D01*
X130035606Y-55627259D01*
X129944394Y-55679920D01*
X129869920Y-55754394D01*
X129817259Y-55845606D01*
X129790000Y-55947339D01*
X129790000Y-55953552D01*
X129110974Y-55274526D01*
X129110973Y-55274526D01*
X129059868Y-55347512D01*
X129059866Y-55347516D01*
X128963734Y-55553673D01*
X128963730Y-55553682D01*
X128904860Y-55773389D01*
X128904858Y-55773400D01*
X128885034Y-55999997D01*
X110000000Y-55999997D01*
X110000000Y-52999998D01*
X118884532Y-52999998D01*
X118884532Y-53000001D01*
X118904364Y-53226686D01*
X118904366Y-53226697D01*
X118963258Y-53446488D01*
X118963261Y-53446497D01*
X119059431Y-53652732D01*
X119059432Y-53652734D01*
X119189954Y-53839141D01*
X119350858Y-54000045D01*
X119350861Y-54000047D01*
X119537266Y-54130568D01*
X119743504Y-54226739D01*
X119963308Y-54285635D01*
X120125230Y-54299801D01*
X120189998Y-54305468D01*
X120190000Y-54305468D01*
X120190002Y-54305468D01*
X120246673Y-54300509D01*
X120416692Y-54285635D01*
X120636496Y-54226739D01*
X120842734Y-54130568D01*
X121029139Y-54000047D01*
X121190047Y-53839139D01*
X121320568Y-53652734D01*
X121416739Y-53446496D01*
X121475635Y-53226692D01*
X121495468Y-53000000D01*
X121495468Y-52999998D01*
X126504532Y-52999998D01*
X126504532Y-53000001D01*
X126524364Y-53226686D01*
X126524366Y-53226697D01*
X126583258Y-53446488D01*
X126583261Y-53446497D01*
X126679431Y-53652732D01*
X126679432Y-53652734D01*
X126809954Y-53839141D01*
X126970858Y-54000045D01*
X126970861Y-54000047D01*
X127157266Y-54130568D01*
X127363504Y-54226739D01*
X127583308Y-54285635D01*
X127745230Y-54299801D01*
X127809998Y-54305468D01*
X127810000Y-54305468D01*
X127810002Y-54305468D01*
X127866673Y-54300509D01*
X128036692Y-54285635D01*
X128256496Y-54226739D01*
X128462734Y-54130568D01*
X128649139Y-54000047D01*
X128810047Y-53839139D01*
X128940568Y-53652734D01*
X129036739Y-53446496D01*
X129095635Y-53226692D01*
X129115468Y-53000000D01*
X129101688Y-52842497D01*
X130195034Y-52842497D01*
X130195034Y-52842502D01*
X130214858Y-53069099D01*
X130214860Y-53069110D01*
X130273730Y-53288817D01*
X130273735Y-53288831D01*
X130369863Y-53494978D01*
X130420974Y-53567972D01*
X131100000Y-52888946D01*
X131100000Y-52895161D01*
X131127259Y-52996894D01*
X131179920Y-53088106D01*
X131254394Y-53162580D01*
X131345606Y-53215241D01*
X131447339Y-53242500D01*
X131453553Y-53242500D01*
X130774526Y-53921525D01*
X130847513Y-53972632D01*
X130847521Y-53972636D01*
X131053668Y-54068764D01*
X131053682Y-54068769D01*
X131273389Y-54127639D01*
X131273400Y-54127641D01*
X131499998Y-54147466D01*
X131500002Y-54147466D01*
X131726599Y-54127641D01*
X131726610Y-54127639D01*
X131946317Y-54068769D01*
X131946331Y-54068764D01*
X132152478Y-53972636D01*
X132225471Y-53921524D01*
X131546447Y-53242500D01*
X131552661Y-53242500D01*
X131654394Y-53215241D01*
X131745606Y-53162580D01*
X131820080Y-53088106D01*
X131872741Y-52996894D01*
X131900000Y-52895161D01*
X131900000Y-52888947D01*
X132579024Y-53567971D01*
X132630136Y-53494978D01*
X132726264Y-53288831D01*
X132726269Y-53288817D01*
X132785139Y-53069110D01*
X132785141Y-53069099D01*
X132804966Y-52842502D01*
X132804966Y-52842498D01*
X135194532Y-52842498D01*
X135194532Y-52842501D01*
X135214364Y-53069186D01*
X135214366Y-53069197D01*
X135273258Y-53288988D01*
X135273261Y-53288997D01*
X135369431Y-53495232D01*
X135369432Y-53495234D01*
X135499954Y-53681641D01*
X135660858Y-53842545D01*
X135660861Y-53842547D01*
X135847266Y-53973068D01*
X136053504Y-54069239D01*
X136273308Y-54128135D01*
X136435230Y-54142301D01*
X136499998Y-54147968D01*
X136500000Y-54147968D01*
X136500002Y-54147968D01*
X136556673Y-54143009D01*
X136726692Y-54128135D01*
X136946496Y-54069239D01*
X137152734Y-53973068D01*
X137339139Y-53842547D01*
X137500047Y-53681639D01*
X137630568Y-53495234D01*
X137726739Y-53288996D01*
X137785635Y-53069192D01*
X137805468Y-52842500D01*
X137785635Y-52615808D01*
X137726739Y-52396004D01*
X137630568Y-52189766D01*
X137500047Y-52003361D01*
X137500045Y-52003358D01*
X137339141Y-51842454D01*
X137152734Y-51711932D01*
X137152732Y-51711931D01*
X136946497Y-51615761D01*
X136946488Y-51615758D01*
X136726697Y-51556866D01*
X136726693Y-51556865D01*
X136726692Y-51556865D01*
X136726691Y-51556864D01*
X136726686Y-51556864D01*
X136500002Y-51537032D01*
X136499998Y-51537032D01*
X136273313Y-51556864D01*
X136273302Y-51556866D01*
X136053511Y-51615758D01*
X136053502Y-51615761D01*
X135847267Y-51711931D01*
X135847265Y-51711932D01*
X135660858Y-51842454D01*
X135499954Y-52003358D01*
X135369432Y-52189765D01*
X135369431Y-52189767D01*
X135273261Y-52396002D01*
X135273258Y-52396011D01*
X135214366Y-52615802D01*
X135214364Y-52615813D01*
X135194532Y-52842498D01*
X132804966Y-52842498D01*
X132804966Y-52842497D01*
X132785141Y-52615900D01*
X132785139Y-52615889D01*
X132726269Y-52396182D01*
X132726264Y-52396168D01*
X132630136Y-52190021D01*
X132630132Y-52190013D01*
X132579025Y-52117026D01*
X131900000Y-52796051D01*
X131900000Y-52789839D01*
X131872741Y-52688106D01*
X131820080Y-52596894D01*
X131745606Y-52522420D01*
X131654394Y-52469759D01*
X131552661Y-52442500D01*
X131546448Y-52442500D01*
X132225472Y-51763474D01*
X132152478Y-51712363D01*
X131946331Y-51616235D01*
X131946317Y-51616230D01*
X131726610Y-51557360D01*
X131726599Y-51557358D01*
X131500002Y-51537534D01*
X131499998Y-51537534D01*
X131273400Y-51557358D01*
X131273389Y-51557360D01*
X131053682Y-51616230D01*
X131053673Y-51616234D01*
X130847516Y-51712366D01*
X130847512Y-51712368D01*
X130774526Y-51763473D01*
X130774526Y-51763474D01*
X131453553Y-52442500D01*
X131447339Y-52442500D01*
X131345606Y-52469759D01*
X131254394Y-52522420D01*
X131179920Y-52596894D01*
X131127259Y-52688106D01*
X131100000Y-52789839D01*
X131100000Y-52796052D01*
X130420974Y-52117026D01*
X130420973Y-52117026D01*
X130369868Y-52190012D01*
X130369866Y-52190016D01*
X130273734Y-52396173D01*
X130273730Y-52396182D01*
X130214860Y-52615889D01*
X130214858Y-52615900D01*
X130195034Y-52842497D01*
X129101688Y-52842497D01*
X129095635Y-52773308D01*
X129036739Y-52553504D01*
X128940568Y-52347266D01*
X128810047Y-52160861D01*
X128810045Y-52160858D01*
X128649141Y-51999954D01*
X128462734Y-51869432D01*
X128462732Y-51869431D01*
X128256497Y-51773261D01*
X128256488Y-51773258D01*
X128036697Y-51714366D01*
X128036693Y-51714365D01*
X128036692Y-51714365D01*
X128036691Y-51714364D01*
X128036686Y-51714364D01*
X127810002Y-51694532D01*
X127809998Y-51694532D01*
X127583313Y-51714364D01*
X127583302Y-51714366D01*
X127363511Y-51773258D01*
X127363502Y-51773261D01*
X127157267Y-51869431D01*
X127157265Y-51869432D01*
X126970858Y-51999954D01*
X126809954Y-52160858D01*
X126679432Y-52347265D01*
X126679431Y-52347267D01*
X126583261Y-52553502D01*
X126583258Y-52553511D01*
X126524366Y-52773302D01*
X126524364Y-52773313D01*
X126504532Y-52999998D01*
X121495468Y-52999998D01*
X121475635Y-52773308D01*
X121416739Y-52553504D01*
X121320568Y-52347266D01*
X121190047Y-52160861D01*
X121190045Y-52160858D01*
X121029141Y-51999954D01*
X120842734Y-51869432D01*
X120842732Y-51869431D01*
X120636497Y-51773261D01*
X120636488Y-51773258D01*
X120416697Y-51714366D01*
X120416693Y-51714365D01*
X120416692Y-51714365D01*
X120416691Y-51714364D01*
X120416686Y-51714364D01*
X120190002Y-51694532D01*
X120189998Y-51694532D01*
X119963313Y-51714364D01*
X119963302Y-51714366D01*
X119743511Y-51773258D01*
X119743502Y-51773261D01*
X119537267Y-51869431D01*
X119537265Y-51869432D01*
X119350858Y-51999954D01*
X119189954Y-52160858D01*
X119059432Y-52347265D01*
X119059431Y-52347267D01*
X118963261Y-52553502D01*
X118963258Y-52553511D01*
X118904366Y-52773302D01*
X118904364Y-52773313D01*
X118884532Y-52999998D01*
X110000000Y-52999998D01*
X110000000Y-49449997D01*
X118885034Y-49449997D01*
X118885034Y-49450002D01*
X118904858Y-49676599D01*
X118904860Y-49676610D01*
X118963730Y-49896317D01*
X118963735Y-49896331D01*
X119059863Y-50102478D01*
X119110974Y-50175472D01*
X119790000Y-49496446D01*
X119790000Y-49502661D01*
X119817259Y-49604394D01*
X119869920Y-49695606D01*
X119944394Y-49770080D01*
X120035606Y-49822741D01*
X120137339Y-49850000D01*
X120143553Y-49850000D01*
X119464526Y-50529025D01*
X119537513Y-50580132D01*
X119537521Y-50580136D01*
X119743668Y-50676264D01*
X119743682Y-50676269D01*
X119963389Y-50735139D01*
X119963400Y-50735141D01*
X120189998Y-50754966D01*
X120190002Y-50754966D01*
X120416599Y-50735141D01*
X120416610Y-50735139D01*
X120636317Y-50676269D01*
X120636331Y-50676264D01*
X120842478Y-50580136D01*
X120915471Y-50529024D01*
X120236447Y-49850000D01*
X120242661Y-49850000D01*
X120344394Y-49822741D01*
X120435606Y-49770080D01*
X120510080Y-49695606D01*
X120562741Y-49604394D01*
X120590000Y-49502661D01*
X120590000Y-49496447D01*
X121269024Y-50175471D01*
X121320136Y-50102478D01*
X121416264Y-49896331D01*
X121416269Y-49896317D01*
X121475139Y-49676610D01*
X121475141Y-49676599D01*
X121494966Y-49450002D01*
X121494966Y-49449998D01*
X126504532Y-49449998D01*
X126504532Y-49450001D01*
X126524364Y-49676686D01*
X126524366Y-49676697D01*
X126583258Y-49896488D01*
X126583261Y-49896497D01*
X126679431Y-50102732D01*
X126679432Y-50102734D01*
X126809954Y-50289141D01*
X126970858Y-50450045D01*
X126970861Y-50450047D01*
X127157266Y-50580568D01*
X127363504Y-50676739D01*
X127583308Y-50735635D01*
X127745230Y-50749801D01*
X127809998Y-50755468D01*
X127810000Y-50755468D01*
X127810002Y-50755468D01*
X127866673Y-50750509D01*
X128036692Y-50735635D01*
X128256496Y-50676739D01*
X128462734Y-50580568D01*
X128649139Y-50450047D01*
X128810047Y-50289139D01*
X128898426Y-50162919D01*
X128953001Y-50119295D01*
X129022499Y-50112101D01*
X129084854Y-50143623D01*
X129101570Y-50162915D01*
X129181816Y-50277518D01*
X129189955Y-50289142D01*
X129350858Y-50450045D01*
X129350861Y-50450047D01*
X129537266Y-50580568D01*
X129743504Y-50676739D01*
X129963308Y-50735635D01*
X130125230Y-50749801D01*
X130189998Y-50755468D01*
X130190000Y-50755468D01*
X130190002Y-50755468D01*
X130246673Y-50750509D01*
X130416692Y-50735635D01*
X130636496Y-50676739D01*
X130842734Y-50580568D01*
X131029139Y-50450047D01*
X131190047Y-50289139D01*
X131320568Y-50102734D01*
X131416739Y-49896496D01*
X131475635Y-49676692D01*
X131495468Y-49450000D01*
X131495468Y-49449998D01*
X136504532Y-49449998D01*
X136504532Y-49450001D01*
X136524364Y-49676686D01*
X136524366Y-49676697D01*
X136583258Y-49896488D01*
X136583261Y-49896497D01*
X136679431Y-50102732D01*
X136679432Y-50102734D01*
X136809954Y-50289141D01*
X136970858Y-50450045D01*
X136970861Y-50450047D01*
X137157266Y-50580568D01*
X137363504Y-50676739D01*
X137583308Y-50735635D01*
X137745230Y-50749801D01*
X137809998Y-50755468D01*
X137810000Y-50755468D01*
X137810002Y-50755468D01*
X137866673Y-50750509D01*
X138036692Y-50735635D01*
X138256496Y-50676739D01*
X138462734Y-50580568D01*
X138649139Y-50450047D01*
X138810047Y-50289139D01*
X138940568Y-50102734D01*
X139036739Y-49896496D01*
X139095635Y-49676692D01*
X139115468Y-49450000D01*
X139095635Y-49223308D01*
X139036739Y-49003504D01*
X138940568Y-48797266D01*
X138810047Y-48610861D01*
X138810045Y-48610858D01*
X138649141Y-48449954D01*
X138462734Y-48319432D01*
X138462732Y-48319431D01*
X138256497Y-48223261D01*
X138256488Y-48223258D01*
X138036697Y-48164366D01*
X138036693Y-48164365D01*
X138036692Y-48164365D01*
X138036691Y-48164364D01*
X138036686Y-48164364D01*
X137810002Y-48144532D01*
X137809998Y-48144532D01*
X137583313Y-48164364D01*
X137583302Y-48164366D01*
X137363511Y-48223258D01*
X137363502Y-48223261D01*
X137157267Y-48319431D01*
X137157265Y-48319432D01*
X136970858Y-48449954D01*
X136809954Y-48610858D01*
X136679432Y-48797265D01*
X136679431Y-48797267D01*
X136583261Y-49003502D01*
X136583258Y-49003511D01*
X136524366Y-49223302D01*
X136524364Y-49223313D01*
X136504532Y-49449998D01*
X131495468Y-49449998D01*
X131475635Y-49223308D01*
X131416739Y-49003504D01*
X131320568Y-48797266D01*
X131190047Y-48610861D01*
X131190045Y-48610858D01*
X131029141Y-48449954D01*
X130842734Y-48319432D01*
X130842732Y-48319431D01*
X130636497Y-48223261D01*
X130636488Y-48223258D01*
X130416697Y-48164366D01*
X130416693Y-48164365D01*
X130416692Y-48164365D01*
X130416691Y-48164364D01*
X130416686Y-48164364D01*
X130190002Y-48144532D01*
X130189998Y-48144532D01*
X129963313Y-48164364D01*
X129963302Y-48164366D01*
X129743511Y-48223258D01*
X129743502Y-48223261D01*
X129537267Y-48319431D01*
X129537265Y-48319432D01*
X129350858Y-48449954D01*
X129189954Y-48610858D01*
X129101575Y-48737079D01*
X129046999Y-48780704D01*
X128977500Y-48787898D01*
X128915145Y-48756376D01*
X128898425Y-48737079D01*
X128810045Y-48610858D01*
X128649141Y-48449954D01*
X128462734Y-48319432D01*
X128462732Y-48319431D01*
X128256497Y-48223261D01*
X128256488Y-48223258D01*
X128036697Y-48164366D01*
X128036693Y-48164365D01*
X128036692Y-48164365D01*
X128036691Y-48164364D01*
X128036686Y-48164364D01*
X127810002Y-48144532D01*
X127809998Y-48144532D01*
X127583313Y-48164364D01*
X127583302Y-48164366D01*
X127363511Y-48223258D01*
X127363502Y-48223261D01*
X127157267Y-48319431D01*
X127157265Y-48319432D01*
X126970858Y-48449954D01*
X126809954Y-48610858D01*
X126679432Y-48797265D01*
X126679431Y-48797267D01*
X126583261Y-49003502D01*
X126583258Y-49003511D01*
X126524366Y-49223302D01*
X126524364Y-49223313D01*
X126504532Y-49449998D01*
X121494966Y-49449998D01*
X121494966Y-49449997D01*
X121475141Y-49223400D01*
X121475139Y-49223389D01*
X121416269Y-49003682D01*
X121416264Y-49003668D01*
X121320136Y-48797521D01*
X121320132Y-48797513D01*
X121269025Y-48724526D01*
X120590000Y-49403551D01*
X120590000Y-49397339D01*
X120562741Y-49295606D01*
X120510080Y-49204394D01*
X120435606Y-49129920D01*
X120344394Y-49077259D01*
X120242661Y-49050000D01*
X120236448Y-49050000D01*
X120915472Y-48370974D01*
X120842478Y-48319863D01*
X120636331Y-48223735D01*
X120636317Y-48223730D01*
X120416610Y-48164860D01*
X120416599Y-48164858D01*
X120190002Y-48145034D01*
X120189998Y-48145034D01*
X119963400Y-48164858D01*
X119963389Y-48164860D01*
X119743682Y-48223730D01*
X119743673Y-48223734D01*
X119537516Y-48319866D01*
X119537512Y-48319868D01*
X119464526Y-48370973D01*
X119464526Y-48370974D01*
X120143553Y-49050000D01*
X120137339Y-49050000D01*
X120035606Y-49077259D01*
X119944394Y-49129920D01*
X119869920Y-49204394D01*
X119817259Y-49295606D01*
X119790000Y-49397339D01*
X119790000Y-49403552D01*
X119110974Y-48724526D01*
X119110973Y-48724526D01*
X119059868Y-48797512D01*
X119059866Y-48797516D01*
X118963734Y-49003673D01*
X118963730Y-49003682D01*
X118904860Y-49223389D01*
X118904858Y-49223400D01*
X118885034Y-49449997D01*
X110000000Y-49449997D01*
X110000000Y-46137498D01*
X128884532Y-46137498D01*
X128884532Y-46137501D01*
X128904364Y-46364186D01*
X128904366Y-46364197D01*
X128963258Y-46583988D01*
X128963261Y-46583997D01*
X129059431Y-46790232D01*
X129059432Y-46790234D01*
X129189954Y-46976641D01*
X129350858Y-47137545D01*
X129350861Y-47137547D01*
X129537266Y-47268068D01*
X129743504Y-47364239D01*
X129963308Y-47423135D01*
X130125230Y-47437301D01*
X130189998Y-47442968D01*
X130190000Y-47442968D01*
X130190002Y-47442968D01*
X130246673Y-47438009D01*
X130416692Y-47423135D01*
X130636496Y-47364239D01*
X130842734Y-47268068D01*
X131029139Y-47137547D01*
X131190047Y-46976639D01*
X131320568Y-46790234D01*
X131416739Y-46583996D01*
X131475635Y-46364192D01*
X131495468Y-46137500D01*
X131495468Y-46137497D01*
X136505034Y-46137497D01*
X136505034Y-46137502D01*
X136524858Y-46364099D01*
X136524860Y-46364110D01*
X136583730Y-46583817D01*
X136583735Y-46583831D01*
X136679863Y-46789978D01*
X136730974Y-46862972D01*
X137410000Y-46183946D01*
X137410000Y-46190161D01*
X137437259Y-46291894D01*
X137489920Y-46383106D01*
X137564394Y-46457580D01*
X137655606Y-46510241D01*
X137757339Y-46537500D01*
X137763553Y-46537500D01*
X137084526Y-47216525D01*
X137157513Y-47267632D01*
X137157521Y-47267636D01*
X137363668Y-47363764D01*
X137363682Y-47363769D01*
X137583389Y-47422639D01*
X137583400Y-47422641D01*
X137809998Y-47442466D01*
X137810002Y-47442466D01*
X138036599Y-47422641D01*
X138036610Y-47422639D01*
X138256317Y-47363769D01*
X138256331Y-47363764D01*
X138462478Y-47267636D01*
X138535471Y-47216524D01*
X137856447Y-46537500D01*
X137862661Y-46537500D01*
X137964394Y-46510241D01*
X138055606Y-46457580D01*
X138130080Y-46383106D01*
X138182741Y-46291894D01*
X138210000Y-46190161D01*
X138210000Y-46183947D01*
X138889024Y-46862971D01*
X138940136Y-46789978D01*
X139036264Y-46583831D01*
X139036269Y-46583817D01*
X139095139Y-46364110D01*
X139095141Y-46364099D01*
X139114966Y-46137502D01*
X139114966Y-46137497D01*
X139095141Y-45910900D01*
X139095139Y-45910889D01*
X139036269Y-45691182D01*
X139036264Y-45691168D01*
X138965773Y-45539999D01*
X140795863Y-45539999D01*
X140795863Y-45540000D01*
X140816365Y-45761259D01*
X140816366Y-45761261D01*
X140877174Y-45974979D01*
X140877180Y-45974994D01*
X140976222Y-46173896D01*
X141110133Y-46351224D01*
X141274344Y-46500921D01*
X141274346Y-46500923D01*
X141463266Y-46617897D01*
X141463272Y-46617900D01*
X141505693Y-46634333D01*
X141660675Y-46694374D01*
X141716074Y-46736946D01*
X141739665Y-46802713D01*
X141723954Y-46870793D01*
X141673930Y-46919572D01*
X141660684Y-46925621D01*
X141581371Y-46956348D01*
X141463272Y-47002099D01*
X141463266Y-47002102D01*
X141274346Y-47119076D01*
X141274344Y-47119078D01*
X141110133Y-47268775D01*
X140976222Y-47446103D01*
X140877180Y-47645005D01*
X140877174Y-47645020D01*
X140816366Y-47858738D01*
X140816365Y-47858740D01*
X140795863Y-48079999D01*
X140795863Y-48080000D01*
X140816365Y-48301259D01*
X140816366Y-48301261D01*
X140877174Y-48514979D01*
X140877180Y-48514994D01*
X140976222Y-48713896D01*
X141110133Y-48891224D01*
X141274344Y-49040921D01*
X141274346Y-49040923D01*
X141463266Y-49157897D01*
X141463272Y-49157900D01*
X141505693Y-49174333D01*
X141660675Y-49234374D01*
X141716074Y-49276946D01*
X141739665Y-49342713D01*
X141723954Y-49410793D01*
X141673930Y-49459572D01*
X141660684Y-49465621D01*
X141581371Y-49496348D01*
X141463272Y-49542099D01*
X141463266Y-49542102D01*
X141274346Y-49659076D01*
X141274344Y-49659078D01*
X141110133Y-49808775D01*
X140976222Y-49986103D01*
X140877180Y-50185005D01*
X140877174Y-50185020D01*
X140816366Y-50398738D01*
X140816365Y-50398740D01*
X140795863Y-50619999D01*
X140795863Y-50620000D01*
X140816365Y-50841259D01*
X140816366Y-50841261D01*
X140877174Y-51054979D01*
X140877180Y-51054994D01*
X140976222Y-51253896D01*
X141110133Y-51431224D01*
X141274344Y-51580921D01*
X141274346Y-51580923D01*
X141463266Y-51697897D01*
X141463272Y-51697900D01*
X141505693Y-51714333D01*
X141660675Y-51774374D01*
X141716074Y-51816946D01*
X141739665Y-51882713D01*
X141723954Y-51950793D01*
X141673930Y-51999572D01*
X141660684Y-52005621D01*
X141581371Y-52036348D01*
X141463272Y-52082099D01*
X141463266Y-52082102D01*
X141274346Y-52199076D01*
X141274344Y-52199078D01*
X141110133Y-52348775D01*
X140976222Y-52526103D01*
X140877180Y-52725005D01*
X140877174Y-52725020D01*
X140816366Y-52938738D01*
X140816365Y-52938740D01*
X140795863Y-53159999D01*
X140795863Y-53160000D01*
X140816365Y-53381259D01*
X140816366Y-53381261D01*
X140877174Y-53594979D01*
X140877180Y-53594994D01*
X140976222Y-53793896D01*
X141110133Y-53971224D01*
X141274344Y-54120921D01*
X141274346Y-54120923D01*
X141463266Y-54237897D01*
X141463272Y-54237900D01*
X141505693Y-54254333D01*
X141660675Y-54314374D01*
X141716074Y-54356946D01*
X141739665Y-54422713D01*
X141723954Y-54490793D01*
X141673930Y-54539572D01*
X141660684Y-54545621D01*
X141581371Y-54576348D01*
X141463272Y-54622099D01*
X141463266Y-54622102D01*
X141274346Y-54739076D01*
X141274344Y-54739078D01*
X141110133Y-54888775D01*
X140976222Y-55066103D01*
X140877180Y-55265005D01*
X140877174Y-55265020D01*
X140816366Y-55478738D01*
X140816365Y-55478740D01*
X140795863Y-55699999D01*
X140795863Y-55700000D01*
X140816365Y-55921259D01*
X140816366Y-55921261D01*
X140877174Y-56134979D01*
X140877180Y-56134994D01*
X140976222Y-56333896D01*
X141110133Y-56511224D01*
X141274344Y-56660921D01*
X141274346Y-56660923D01*
X141463266Y-56777897D01*
X141463272Y-56777900D01*
X141505693Y-56794333D01*
X141660675Y-56854374D01*
X141716074Y-56896946D01*
X141739665Y-56962713D01*
X141723954Y-57030793D01*
X141673930Y-57079572D01*
X141660684Y-57085621D01*
X141581371Y-57116348D01*
X141463272Y-57162099D01*
X141463266Y-57162102D01*
X141274346Y-57279076D01*
X141274344Y-57279078D01*
X141110133Y-57428775D01*
X140976222Y-57606103D01*
X140877180Y-57805005D01*
X140877174Y-57805020D01*
X140816366Y-58018738D01*
X140816365Y-58018740D01*
X140795863Y-58239999D01*
X140795863Y-58240000D01*
X140816365Y-58461259D01*
X140816366Y-58461261D01*
X140877174Y-58674979D01*
X140877180Y-58674994D01*
X140976222Y-58873896D01*
X141110133Y-59051224D01*
X141274344Y-59200921D01*
X141274346Y-59200923D01*
X141463266Y-59317897D01*
X141463272Y-59317900D01*
X141492206Y-59329109D01*
X141670472Y-59398170D01*
X141888896Y-59439000D01*
X141888899Y-59439000D01*
X142111101Y-59439000D01*
X142111104Y-59439000D01*
X142329528Y-59398170D01*
X142536730Y-59317899D01*
X142725655Y-59200922D01*
X142889868Y-59051222D01*
X143023778Y-58873896D01*
X143122824Y-58674984D01*
X143183634Y-58461260D01*
X143204137Y-58240000D01*
X143195290Y-58144532D01*
X143183634Y-58018740D01*
X143183633Y-58018738D01*
X143178288Y-57999954D01*
X143122824Y-57805016D01*
X143107010Y-57773258D01*
X143067810Y-57694532D01*
X143023778Y-57606104D01*
X142889868Y-57428778D01*
X142889866Y-57428775D01*
X142725655Y-57279078D01*
X142725653Y-57279076D01*
X142536733Y-57162102D01*
X142536727Y-57162100D01*
X142339322Y-57085624D01*
X142283925Y-57043054D01*
X142260334Y-56977287D01*
X142276045Y-56909207D01*
X142326069Y-56860428D01*
X142339308Y-56854380D01*
X142536730Y-56777899D01*
X142725655Y-56660922D01*
X142889868Y-56511222D01*
X143023778Y-56333896D01*
X143122824Y-56134984D01*
X143183634Y-55921260D01*
X143204137Y-55700000D01*
X143197396Y-55627259D01*
X143183634Y-55478740D01*
X143183633Y-55478738D01*
X143146296Y-55347513D01*
X143122824Y-55265016D01*
X143023778Y-55066104D01*
X142914181Y-54920974D01*
X142889866Y-54888775D01*
X142725655Y-54739078D01*
X142725653Y-54739076D01*
X142536733Y-54622102D01*
X142536727Y-54622100D01*
X142339322Y-54545624D01*
X142283925Y-54503054D01*
X142260334Y-54437287D01*
X142276045Y-54369207D01*
X142326069Y-54320428D01*
X142339308Y-54314380D01*
X142536730Y-54237899D01*
X142725655Y-54120922D01*
X142889868Y-53971222D01*
X143023778Y-53793896D01*
X143122824Y-53594984D01*
X143183634Y-53381260D01*
X143204137Y-53160000D01*
X143183634Y-52938740D01*
X143122824Y-52725016D01*
X143023778Y-52526104D01*
X142889868Y-52348778D01*
X142889866Y-52348775D01*
X142725655Y-52199078D01*
X142725653Y-52199076D01*
X142536733Y-52082102D01*
X142536727Y-52082100D01*
X142339322Y-52005624D01*
X142283925Y-51963054D01*
X142260334Y-51897287D01*
X142276045Y-51829207D01*
X142326069Y-51780428D01*
X142339308Y-51774380D01*
X142536730Y-51697899D01*
X142725655Y-51580922D01*
X142889868Y-51431222D01*
X143023778Y-51253896D01*
X143122824Y-51054984D01*
X143183634Y-50841260D01*
X143204137Y-50620000D01*
X143183634Y-50398740D01*
X143122824Y-50185016D01*
X143118071Y-50175471D01*
X143039411Y-50017500D01*
X143023778Y-49986104D01*
X142920997Y-49850000D01*
X142889866Y-49808775D01*
X142725655Y-49659078D01*
X142725653Y-49659076D01*
X142536733Y-49542102D01*
X142536727Y-49542100D01*
X142339322Y-49465624D01*
X142283925Y-49423054D01*
X142260334Y-49357287D01*
X142276045Y-49289207D01*
X142326069Y-49240428D01*
X142339308Y-49234380D01*
X142536730Y-49157899D01*
X142725655Y-49040922D01*
X142889868Y-48891222D01*
X143023778Y-48713896D01*
X143122824Y-48514984D01*
X143183634Y-48301260D01*
X143204137Y-48080000D01*
X143203317Y-48071156D01*
X143183634Y-47858740D01*
X143183633Y-47858738D01*
X143153378Y-47752404D01*
X143122824Y-47645016D01*
X143023778Y-47446104D01*
X142889868Y-47268778D01*
X142889866Y-47268775D01*
X142725655Y-47119078D01*
X142725653Y-47119076D01*
X142536733Y-47002102D01*
X142536727Y-47002100D01*
X142339322Y-46925624D01*
X142283925Y-46883054D01*
X142260334Y-46817287D01*
X142276045Y-46749207D01*
X142326069Y-46700428D01*
X142339308Y-46694380D01*
X142536730Y-46617899D01*
X142725655Y-46500922D01*
X142889868Y-46351222D01*
X143023778Y-46173896D01*
X143122824Y-45974984D01*
X143183634Y-45761260D01*
X143204137Y-45540000D01*
X143183634Y-45318740D01*
X143122824Y-45105016D01*
X143099648Y-45058473D01*
X143073984Y-45006931D01*
X143023778Y-44906104D01*
X142889868Y-44728778D01*
X142889866Y-44728775D01*
X142725655Y-44579078D01*
X142725653Y-44579076D01*
X142536733Y-44462102D01*
X142536727Y-44462099D01*
X142476134Y-44438626D01*
X142420733Y-44396053D01*
X142397142Y-44330286D01*
X142412853Y-44262206D01*
X142462877Y-44213427D01*
X142520927Y-44198999D01*
X142746372Y-44198999D01*
X142805983Y-44192591D01*
X142940831Y-44142296D01*
X143056046Y-44056046D01*
X143142296Y-43940831D01*
X143192591Y-43805983D01*
X143199000Y-43746373D01*
X143198999Y-42999999D01*
X148415863Y-42999999D01*
X148415863Y-43000000D01*
X148436365Y-43221259D01*
X148436366Y-43221261D01*
X148497174Y-43434979D01*
X148497180Y-43434994D01*
X148596222Y-43633896D01*
X148730133Y-43811224D01*
X148894344Y-43960921D01*
X148894346Y-43960923D01*
X149083266Y-44077897D01*
X149083272Y-44077900D01*
X149112539Y-44089238D01*
X149280675Y-44154374D01*
X149336074Y-44196946D01*
X149359665Y-44262713D01*
X149343954Y-44330793D01*
X149293930Y-44379572D01*
X149280684Y-44385621D01*
X149201371Y-44416348D01*
X149083272Y-44462099D01*
X149083266Y-44462102D01*
X148894346Y-44579076D01*
X148894344Y-44579078D01*
X148730133Y-44728775D01*
X148596222Y-44906103D01*
X148497180Y-45105005D01*
X148497174Y-45105020D01*
X148436366Y-45318738D01*
X148436365Y-45318740D01*
X148415863Y-45539999D01*
X148415863Y-45540000D01*
X148436365Y-45761259D01*
X148436366Y-45761261D01*
X148497174Y-45974979D01*
X148497180Y-45974994D01*
X148596222Y-46173896D01*
X148730133Y-46351224D01*
X148894344Y-46500921D01*
X148894346Y-46500923D01*
X149083266Y-46617897D01*
X149083272Y-46617900D01*
X149125693Y-46634333D01*
X149280675Y-46694374D01*
X149336074Y-46736946D01*
X149359665Y-46802713D01*
X149343954Y-46870793D01*
X149293930Y-46919572D01*
X149280684Y-46925621D01*
X149201371Y-46956348D01*
X149083272Y-47002099D01*
X149083266Y-47002102D01*
X148894346Y-47119076D01*
X148894344Y-47119078D01*
X148730133Y-47268775D01*
X148596222Y-47446103D01*
X148497180Y-47645005D01*
X148497174Y-47645020D01*
X148436366Y-47858738D01*
X148436365Y-47858740D01*
X148415863Y-48079999D01*
X148415863Y-48080000D01*
X148436365Y-48301259D01*
X148436366Y-48301261D01*
X148497174Y-48514979D01*
X148497180Y-48514994D01*
X148596222Y-48713896D01*
X148730133Y-48891224D01*
X148894344Y-49040921D01*
X148894346Y-49040923D01*
X149083266Y-49157897D01*
X149083272Y-49157900D01*
X149125693Y-49174333D01*
X149280675Y-49234374D01*
X149336074Y-49276946D01*
X149359665Y-49342713D01*
X149343954Y-49410793D01*
X149293930Y-49459572D01*
X149280684Y-49465621D01*
X149201371Y-49496348D01*
X149083272Y-49542099D01*
X149083266Y-49542102D01*
X148894346Y-49659076D01*
X148894344Y-49659078D01*
X148730133Y-49808775D01*
X148596222Y-49986103D01*
X148497180Y-50185005D01*
X148497174Y-50185020D01*
X148436366Y-50398738D01*
X148436365Y-50398740D01*
X148415863Y-50619999D01*
X148415863Y-50620000D01*
X148436365Y-50841259D01*
X148436366Y-50841261D01*
X148497174Y-51054979D01*
X148497180Y-51054994D01*
X148596222Y-51253896D01*
X148730133Y-51431224D01*
X148894344Y-51580921D01*
X148894346Y-51580923D01*
X149083266Y-51697897D01*
X149083272Y-51697900D01*
X149125693Y-51714333D01*
X149280675Y-51774374D01*
X149336074Y-51816946D01*
X149359665Y-51882713D01*
X149343954Y-51950793D01*
X149293930Y-51999572D01*
X149280684Y-52005621D01*
X149201371Y-52036348D01*
X149083272Y-52082099D01*
X149083266Y-52082102D01*
X148894346Y-52199076D01*
X148894344Y-52199078D01*
X148730133Y-52348775D01*
X148596222Y-52526103D01*
X148497180Y-52725005D01*
X148497174Y-52725020D01*
X148436366Y-52938738D01*
X148436365Y-52938740D01*
X148415863Y-53159999D01*
X148415863Y-53160000D01*
X148436365Y-53381259D01*
X148436366Y-53381261D01*
X148497174Y-53594979D01*
X148497180Y-53594994D01*
X148596222Y-53793896D01*
X148730133Y-53971224D01*
X148894344Y-54120921D01*
X148894346Y-54120923D01*
X149083266Y-54237897D01*
X149083272Y-54237900D01*
X149125693Y-54254333D01*
X149280675Y-54314374D01*
X149336074Y-54356946D01*
X149359665Y-54422713D01*
X149343954Y-54490793D01*
X149293930Y-54539572D01*
X149280684Y-54545621D01*
X149201371Y-54576348D01*
X149083272Y-54622099D01*
X149083266Y-54622102D01*
X148894346Y-54739076D01*
X148894344Y-54739078D01*
X148730133Y-54888775D01*
X148596222Y-55066103D01*
X148497180Y-55265005D01*
X148497174Y-55265020D01*
X148436366Y-55478738D01*
X148436365Y-55478740D01*
X148415863Y-55699999D01*
X148415863Y-55700000D01*
X148436365Y-55921259D01*
X148436366Y-55921261D01*
X148497174Y-56134979D01*
X148497180Y-56134994D01*
X148596222Y-56333896D01*
X148730133Y-56511224D01*
X148894344Y-56660921D01*
X148894346Y-56660923D01*
X149083266Y-56777897D01*
X149083272Y-56777900D01*
X149125693Y-56794333D01*
X149280675Y-56854374D01*
X149336074Y-56896946D01*
X149359665Y-56962713D01*
X149343954Y-57030793D01*
X149293930Y-57079572D01*
X149280684Y-57085621D01*
X149201371Y-57116348D01*
X149083272Y-57162099D01*
X149083266Y-57162102D01*
X148894346Y-57279076D01*
X148894344Y-57279078D01*
X148730133Y-57428775D01*
X148596222Y-57606103D01*
X148497180Y-57805005D01*
X148497174Y-57805020D01*
X148436366Y-58018738D01*
X148436365Y-58018740D01*
X148415863Y-58239999D01*
X148415863Y-58240000D01*
X148436365Y-58461259D01*
X148436366Y-58461261D01*
X148497174Y-58674979D01*
X148497180Y-58674994D01*
X148596222Y-58873896D01*
X148730133Y-59051224D01*
X148894344Y-59200921D01*
X148894346Y-59200923D01*
X149083266Y-59317897D01*
X149083272Y-59317900D01*
X149112206Y-59329109D01*
X149290472Y-59398170D01*
X149508896Y-59439000D01*
X149508899Y-59439000D01*
X149731101Y-59439000D01*
X149731104Y-59439000D01*
X149949528Y-59398170D01*
X150156730Y-59317899D01*
X150345655Y-59200922D01*
X150509868Y-59051222D01*
X150548550Y-58999998D01*
X151074532Y-58999998D01*
X151074532Y-59000001D01*
X151094364Y-59226686D01*
X151094366Y-59226697D01*
X151153258Y-59446488D01*
X151153261Y-59446497D01*
X151249431Y-59652732D01*
X151249432Y-59652734D01*
X151379954Y-59839141D01*
X151540858Y-60000045D01*
X151540861Y-60000047D01*
X151727266Y-60130568D01*
X151933504Y-60226739D01*
X152153308Y-60285635D01*
X152315230Y-60299801D01*
X152379998Y-60305468D01*
X152380000Y-60305468D01*
X152380002Y-60305468D01*
X152436673Y-60300509D01*
X152606692Y-60285635D01*
X152826496Y-60226739D01*
X153032734Y-60130568D01*
X153219139Y-60000047D01*
X153380047Y-59839139D01*
X153510568Y-59652734D01*
X153606739Y-59446496D01*
X153665635Y-59226692D01*
X153685161Y-59003511D01*
X153685468Y-59000001D01*
X153685468Y-58999998D01*
X158694532Y-58999998D01*
X158694532Y-59000001D01*
X158714364Y-59226686D01*
X158714366Y-59226697D01*
X158773258Y-59446488D01*
X158773261Y-59446497D01*
X158869431Y-59652732D01*
X158869432Y-59652734D01*
X158999954Y-59839141D01*
X159160858Y-60000045D01*
X159160861Y-60000047D01*
X159347266Y-60130568D01*
X159553504Y-60226739D01*
X159773308Y-60285635D01*
X159935230Y-60299801D01*
X159999998Y-60305468D01*
X160000000Y-60305468D01*
X160000002Y-60305468D01*
X160056673Y-60300509D01*
X160226692Y-60285635D01*
X160446496Y-60226739D01*
X160652734Y-60130568D01*
X160839139Y-60000047D01*
X161000047Y-59839139D01*
X161130568Y-59652734D01*
X161226739Y-59446496D01*
X161285635Y-59226692D01*
X161305161Y-59003511D01*
X161305468Y-59000001D01*
X161305468Y-58999998D01*
X161285635Y-58773313D01*
X161285635Y-58773308D01*
X161226739Y-58553504D01*
X161130568Y-58347266D01*
X161000047Y-58160861D01*
X161000045Y-58160858D01*
X160839141Y-57999954D01*
X160652734Y-57869432D01*
X160652732Y-57869431D01*
X160446497Y-57773261D01*
X160446488Y-57773258D01*
X160226697Y-57714366D01*
X160226693Y-57714365D01*
X160226692Y-57714365D01*
X160226691Y-57714364D01*
X160226686Y-57714364D01*
X160000002Y-57694532D01*
X159999998Y-57694532D01*
X159773313Y-57714364D01*
X159773302Y-57714366D01*
X159553511Y-57773258D01*
X159553502Y-57773261D01*
X159347267Y-57869431D01*
X159347265Y-57869432D01*
X159160858Y-57999954D01*
X158999954Y-58160858D01*
X158869432Y-58347265D01*
X158869431Y-58347267D01*
X158773261Y-58553502D01*
X158773258Y-58553511D01*
X158714366Y-58773302D01*
X158714364Y-58773313D01*
X158694532Y-58999998D01*
X153685468Y-58999998D01*
X153665635Y-58773313D01*
X153665635Y-58773308D01*
X153606739Y-58553504D01*
X153510568Y-58347266D01*
X153380047Y-58160861D01*
X153380045Y-58160858D01*
X153219141Y-57999954D01*
X153032734Y-57869432D01*
X153032732Y-57869431D01*
X152826497Y-57773261D01*
X152826488Y-57773258D01*
X152606697Y-57714366D01*
X152606693Y-57714365D01*
X152606692Y-57714365D01*
X152606691Y-57714364D01*
X152606686Y-57714364D01*
X152380002Y-57694532D01*
X152379998Y-57694532D01*
X152153313Y-57714364D01*
X152153302Y-57714366D01*
X151933511Y-57773258D01*
X151933502Y-57773261D01*
X151727267Y-57869431D01*
X151727265Y-57869432D01*
X151540858Y-57999954D01*
X151379954Y-58160858D01*
X151249432Y-58347265D01*
X151249431Y-58347267D01*
X151153261Y-58553502D01*
X151153258Y-58553511D01*
X151094366Y-58773302D01*
X151094364Y-58773313D01*
X151074532Y-58999998D01*
X150548550Y-58999998D01*
X150643778Y-58873896D01*
X150742824Y-58674984D01*
X150803634Y-58461260D01*
X150824137Y-58240000D01*
X150815290Y-58144532D01*
X150803634Y-58018740D01*
X150803633Y-58018738D01*
X150798288Y-57999954D01*
X150742824Y-57805016D01*
X150727010Y-57773258D01*
X150687810Y-57694532D01*
X150643778Y-57606104D01*
X150509868Y-57428778D01*
X150509866Y-57428775D01*
X150345655Y-57279078D01*
X150345653Y-57279076D01*
X150156733Y-57162102D01*
X150156727Y-57162100D01*
X149959322Y-57085624D01*
X149903925Y-57043054D01*
X149880334Y-56977287D01*
X149896045Y-56909207D01*
X149946069Y-56860428D01*
X149959308Y-56854380D01*
X150156730Y-56777899D01*
X150345655Y-56660922D01*
X150509868Y-56511222D01*
X150643778Y-56333896D01*
X150742824Y-56134984D01*
X150803634Y-55921260D01*
X150824137Y-55700000D01*
X150817396Y-55627259D01*
X150803634Y-55478740D01*
X150803633Y-55478738D01*
X150766296Y-55347513D01*
X150742824Y-55265016D01*
X150643778Y-55066104D01*
X150534181Y-54920974D01*
X150509866Y-54888775D01*
X150345655Y-54739078D01*
X150345653Y-54739076D01*
X150156733Y-54622102D01*
X150156727Y-54622100D01*
X149959322Y-54545624D01*
X149903925Y-54503054D01*
X149880334Y-54437287D01*
X149896045Y-54369207D01*
X149946069Y-54320428D01*
X149959308Y-54314380D01*
X150156730Y-54237899D01*
X150345655Y-54120922D01*
X150509868Y-53971222D01*
X150643778Y-53793896D01*
X150742824Y-53594984D01*
X150803634Y-53381260D01*
X150824137Y-53160000D01*
X150803634Y-52938740D01*
X150742824Y-52725016D01*
X150643778Y-52526104D01*
X150509868Y-52348778D01*
X150509866Y-52348775D01*
X150345655Y-52199078D01*
X150345653Y-52199076D01*
X150156733Y-52082102D01*
X150156727Y-52082100D01*
X149959322Y-52005624D01*
X149903925Y-51963054D01*
X149880334Y-51897287D01*
X149896045Y-51829207D01*
X149946069Y-51780428D01*
X149959308Y-51774380D01*
X150156730Y-51697899D01*
X150345655Y-51580922D01*
X150509868Y-51431222D01*
X150643778Y-51253896D01*
X150742824Y-51054984D01*
X150803634Y-50841260D01*
X150824137Y-50620000D01*
X150803634Y-50398740D01*
X150742824Y-50185016D01*
X150738071Y-50175471D01*
X150659411Y-50017500D01*
X150643778Y-49986104D01*
X150540997Y-49850000D01*
X150509866Y-49808775D01*
X150345655Y-49659078D01*
X150345653Y-49659076D01*
X150156733Y-49542102D01*
X150156727Y-49542100D01*
X149959322Y-49465624D01*
X149903925Y-49423054D01*
X149880334Y-49357287D01*
X149896045Y-49289207D01*
X149946069Y-49240428D01*
X149959308Y-49234380D01*
X150156730Y-49157899D01*
X150345655Y-49040922D01*
X150509868Y-48891222D01*
X150536014Y-48856599D01*
X153324127Y-48856599D01*
X153324127Y-48856600D01*
X153343977Y-49070828D01*
X153402855Y-49277759D01*
X153402860Y-49277772D01*
X153498751Y-49470346D01*
X153498753Y-49470349D01*
X153498755Y-49470353D01*
X153498758Y-49470357D01*
X153498760Y-49470360D01*
X153552935Y-49542099D01*
X153628409Y-49642044D01*
X153628412Y-49642046D01*
X153628414Y-49642049D01*
X153787402Y-49786985D01*
X153787404Y-49786986D01*
X153787405Y-49786987D01*
X153970326Y-49900247D01*
X154170944Y-49977967D01*
X154382427Y-50017500D01*
X154382429Y-50017500D01*
X154597571Y-50017500D01*
X154597573Y-50017500D01*
X154809056Y-49977967D01*
X155009674Y-49900247D01*
X155192595Y-49786987D01*
X155351591Y-49642044D01*
X155481245Y-49470353D01*
X155577144Y-49277762D01*
X155636022Y-49070829D01*
X155655873Y-48856600D01*
X155636022Y-48642371D01*
X155577144Y-48435438D01*
X155545044Y-48370973D01*
X155481248Y-48242853D01*
X155481247Y-48242852D01*
X155481245Y-48242847D01*
X155409873Y-48148335D01*
X158815500Y-48148335D01*
X158815500Y-49564870D01*
X158815501Y-49564876D01*
X158821908Y-49624483D01*
X158872202Y-49759328D01*
X158872206Y-49759335D01*
X158958452Y-49874544D01*
X158958455Y-49874547D01*
X159073664Y-49960793D01*
X159073671Y-49960797D01*
X159208517Y-50011091D01*
X159208516Y-50011091D01*
X159215444Y-50011835D01*
X159268127Y-50017500D01*
X160684672Y-50017499D01*
X160744283Y-50011091D01*
X160879131Y-49960796D01*
X160994346Y-49874546D01*
X161080596Y-49759331D01*
X161130891Y-49624483D01*
X161137300Y-49564873D01*
X161137299Y-48148328D01*
X161130891Y-48088717D01*
X161127639Y-48079999D01*
X161080597Y-47953871D01*
X161080593Y-47953864D01*
X160994347Y-47838655D01*
X160994344Y-47838652D01*
X160879135Y-47752406D01*
X160879128Y-47752402D01*
X160744282Y-47702108D01*
X160744283Y-47702108D01*
X160684683Y-47695701D01*
X160684681Y-47695700D01*
X160684673Y-47695700D01*
X160684664Y-47695700D01*
X159268129Y-47695700D01*
X159268123Y-47695701D01*
X159208516Y-47702108D01*
X159073671Y-47752402D01*
X159073664Y-47752406D01*
X158958455Y-47838652D01*
X158958452Y-47838655D01*
X158872206Y-47953864D01*
X158872202Y-47953871D01*
X158821908Y-48088717D01*
X158815908Y-48144532D01*
X158815501Y-48148323D01*
X158815500Y-48148335D01*
X155409873Y-48148335D01*
X155351591Y-48071156D01*
X155351587Y-48071152D01*
X155351585Y-48071150D01*
X155192597Y-47926214D01*
X155083619Y-47858738D01*
X155009674Y-47812953D01*
X154809056Y-47735233D01*
X154597573Y-47695700D01*
X154382427Y-47695700D01*
X154170944Y-47735233D01*
X154044075Y-47784382D01*
X153970328Y-47812952D01*
X153970327Y-47812952D01*
X153787402Y-47926214D01*
X153628414Y-48071150D01*
X153628407Y-48071158D01*
X153498760Y-48242839D01*
X153498751Y-48242853D01*
X153402860Y-48435427D01*
X153402855Y-48435440D01*
X153343977Y-48642371D01*
X153324127Y-48856599D01*
X150536014Y-48856599D01*
X150643778Y-48713896D01*
X150742824Y-48514984D01*
X150803634Y-48301260D01*
X150824137Y-48080000D01*
X150823317Y-48071156D01*
X150803634Y-47858740D01*
X150803633Y-47858738D01*
X150773378Y-47752404D01*
X150742824Y-47645016D01*
X150643778Y-47446104D01*
X150509868Y-47268778D01*
X150509866Y-47268775D01*
X150345655Y-47119078D01*
X150345653Y-47119076D01*
X150156733Y-47002102D01*
X150156727Y-47002100D01*
X149959322Y-46925624D01*
X149903925Y-46883054D01*
X149880334Y-46817287D01*
X149896045Y-46749207D01*
X149946069Y-46700428D01*
X149959308Y-46694380D01*
X150156730Y-46617899D01*
X150345655Y-46500922D01*
X150509868Y-46351222D01*
X150643778Y-46173896D01*
X150742824Y-45974984D01*
X150803634Y-45761260D01*
X150824137Y-45540000D01*
X150803634Y-45318740D01*
X150742824Y-45105016D01*
X150719648Y-45058473D01*
X150693984Y-45006931D01*
X150643778Y-44906104D01*
X150509868Y-44728778D01*
X150509866Y-44728775D01*
X150345655Y-44579078D01*
X150345653Y-44579076D01*
X150156733Y-44462102D01*
X150156727Y-44462100D01*
X149959322Y-44385624D01*
X149903925Y-44343054D01*
X149880334Y-44277287D01*
X149896045Y-44209207D01*
X149946069Y-44160428D01*
X149959308Y-44154380D01*
X150156730Y-44077899D01*
X150345655Y-43960922D01*
X150509868Y-43811222D01*
X150643778Y-43633896D01*
X150742824Y-43434984D01*
X150803634Y-43221260D01*
X150824137Y-43000000D01*
X150823454Y-42992634D01*
X150803634Y-42778740D01*
X150803633Y-42778738D01*
X150781696Y-42701639D01*
X150742824Y-42565016D01*
X150643778Y-42366104D01*
X150525718Y-42209767D01*
X150509866Y-42188775D01*
X150345655Y-42039078D01*
X150345653Y-42039076D01*
X150156733Y-41922102D01*
X150156727Y-41922099D01*
X150049080Y-41880397D01*
X150002878Y-41862498D01*
X151860932Y-41862498D01*
X151860932Y-41862501D01*
X151880764Y-42089186D01*
X151880766Y-42089197D01*
X151939658Y-42308988D01*
X151939661Y-42308997D01*
X152035831Y-42515232D01*
X152035832Y-42515234D01*
X152166354Y-42701641D01*
X152327258Y-42862545D01*
X152327261Y-42862547D01*
X152513666Y-42993068D01*
X152719904Y-43089239D01*
X152939708Y-43148135D01*
X153101630Y-43162301D01*
X153166398Y-43167968D01*
X153166400Y-43167968D01*
X153166402Y-43167968D01*
X153223073Y-43163009D01*
X153393092Y-43148135D01*
X153612896Y-43089239D01*
X153819134Y-42993068D01*
X154005539Y-42862547D01*
X154166447Y-42701639D01*
X154296968Y-42515234D01*
X154393139Y-42308996D01*
X154452035Y-42089192D01*
X154471868Y-41862500D01*
X154471448Y-41857704D01*
X154452035Y-41635813D01*
X154452035Y-41635808D01*
X154445789Y-41612499D01*
X159507527Y-41612499D01*
X159507528Y-41612500D01*
X160470714Y-41612500D01*
X160466320Y-41616894D01*
X160413659Y-41708106D01*
X160386400Y-41809839D01*
X160386400Y-41915161D01*
X160413659Y-42016894D01*
X160466320Y-42108106D01*
X160470714Y-42112500D01*
X159507528Y-42112500D01*
X159560130Y-42308817D01*
X159560134Y-42308826D01*
X159656265Y-42514982D01*
X159786742Y-42701320D01*
X159947579Y-42862157D01*
X160133917Y-42992634D01*
X160340073Y-43088765D01*
X160340082Y-43088769D01*
X160536399Y-43141372D01*
X160536400Y-43141371D01*
X160536400Y-42178186D01*
X160540794Y-42182580D01*
X160632006Y-42235241D01*
X160733739Y-42262500D01*
X160839061Y-42262500D01*
X160940794Y-42235241D01*
X161032006Y-42182580D01*
X161036400Y-42178186D01*
X161036400Y-43141372D01*
X161232717Y-43088769D01*
X161232726Y-43088765D01*
X161438882Y-42992634D01*
X161625220Y-42862157D01*
X161786057Y-42701320D01*
X161916534Y-42514982D01*
X162012665Y-42308826D01*
X162012669Y-42308817D01*
X162065272Y-42112500D01*
X161102086Y-42112500D01*
X161106480Y-42108106D01*
X161159141Y-42016894D01*
X161186400Y-41915161D01*
X161186400Y-41809839D01*
X161159141Y-41708106D01*
X161106480Y-41616894D01*
X161102086Y-41612500D01*
X162065272Y-41612500D01*
X162065272Y-41612499D01*
X162012669Y-41416182D01*
X162012665Y-41416173D01*
X161916534Y-41210017D01*
X161786057Y-41023679D01*
X161625220Y-40862842D01*
X161438882Y-40732365D01*
X161232728Y-40636234D01*
X161036400Y-40583627D01*
X161036400Y-41546814D01*
X161032006Y-41542420D01*
X160940794Y-41489759D01*
X160839061Y-41462500D01*
X160733739Y-41462500D01*
X160632006Y-41489759D01*
X160540794Y-41542420D01*
X160536400Y-41546814D01*
X160536400Y-40583627D01*
X160340071Y-40636234D01*
X160133917Y-40732365D01*
X159947579Y-40862842D01*
X159786742Y-41023679D01*
X159656265Y-41210017D01*
X159560134Y-41416173D01*
X159560130Y-41416182D01*
X159507527Y-41612499D01*
X154445789Y-41612499D01*
X154393139Y-41416004D01*
X154296968Y-41209766D01*
X154166447Y-41023361D01*
X154166445Y-41023358D01*
X154005541Y-40862454D01*
X153819134Y-40731932D01*
X153819132Y-40731931D01*
X153612897Y-40635761D01*
X153612888Y-40635758D01*
X153393097Y-40576866D01*
X153393093Y-40576865D01*
X153393092Y-40576865D01*
X153393091Y-40576864D01*
X153393086Y-40576864D01*
X153166402Y-40557032D01*
X153166398Y-40557032D01*
X152939713Y-40576864D01*
X152939702Y-40576866D01*
X152719911Y-40635758D01*
X152719902Y-40635761D01*
X152513667Y-40731931D01*
X152513665Y-40731932D01*
X152327258Y-40862454D01*
X152166354Y-41023358D01*
X152035832Y-41209765D01*
X152035831Y-41209767D01*
X151939661Y-41416002D01*
X151939658Y-41416011D01*
X151880766Y-41635802D01*
X151880764Y-41635813D01*
X151860932Y-41862498D01*
X150002878Y-41862498D01*
X149949528Y-41841830D01*
X149731104Y-41801000D01*
X149508896Y-41801000D01*
X149290472Y-41841830D01*
X149249502Y-41857702D01*
X149083272Y-41922099D01*
X149083266Y-41922102D01*
X148894346Y-42039076D01*
X148894344Y-42039078D01*
X148730133Y-42188775D01*
X148596222Y-42366103D01*
X148497180Y-42565005D01*
X148497174Y-42565020D01*
X148436366Y-42778738D01*
X148436365Y-42778740D01*
X148415863Y-42999999D01*
X143198999Y-42999999D01*
X143198999Y-42253628D01*
X143192591Y-42194017D01*
X143188325Y-42182580D01*
X143142297Y-42059171D01*
X143142293Y-42059164D01*
X143056047Y-41943955D01*
X143056044Y-41943952D01*
X142940835Y-41857706D01*
X142940828Y-41857702D01*
X142805982Y-41807408D01*
X142805983Y-41807408D01*
X142746383Y-41801001D01*
X142746381Y-41801000D01*
X142746373Y-41801000D01*
X142746364Y-41801000D01*
X141253629Y-41801000D01*
X141253623Y-41801001D01*
X141194016Y-41807408D01*
X141059171Y-41857702D01*
X141059164Y-41857706D01*
X140943955Y-41943952D01*
X140943952Y-41943955D01*
X140857706Y-42059164D01*
X140857702Y-42059171D01*
X140807408Y-42194017D01*
X140801001Y-42253616D01*
X140801001Y-42253623D01*
X140801000Y-42253635D01*
X140801000Y-43746370D01*
X140801001Y-43746376D01*
X140807408Y-43805983D01*
X140857702Y-43940828D01*
X140857706Y-43940835D01*
X140943952Y-44056044D01*
X140943955Y-44056047D01*
X141059164Y-44142293D01*
X141059171Y-44142297D01*
X141194017Y-44192591D01*
X141194016Y-44192591D01*
X141200944Y-44193335D01*
X141253627Y-44199000D01*
X141479071Y-44198999D01*
X141546109Y-44218683D01*
X141591864Y-44271487D01*
X141601808Y-44340646D01*
X141572783Y-44404201D01*
X141523865Y-44438625D01*
X141463278Y-44462096D01*
X141463266Y-44462102D01*
X141274346Y-44579076D01*
X141274344Y-44579078D01*
X141110133Y-44728775D01*
X140976222Y-44906103D01*
X140877180Y-45105005D01*
X140877174Y-45105020D01*
X140816366Y-45318738D01*
X140816365Y-45318740D01*
X140795863Y-45539999D01*
X138965773Y-45539999D01*
X138940136Y-45485021D01*
X138940132Y-45485013D01*
X138889025Y-45412026D01*
X138210000Y-46091051D01*
X138210000Y-46084839D01*
X138182741Y-45983106D01*
X138130080Y-45891894D01*
X138055606Y-45817420D01*
X137964394Y-45764759D01*
X137862661Y-45737500D01*
X137856448Y-45737500D01*
X138535472Y-45058474D01*
X138462478Y-45007363D01*
X138256331Y-44911235D01*
X138256317Y-44911230D01*
X138036610Y-44852360D01*
X138036599Y-44852358D01*
X137810002Y-44832534D01*
X137809998Y-44832534D01*
X137583400Y-44852358D01*
X137583389Y-44852360D01*
X137363682Y-44911230D01*
X137363673Y-44911234D01*
X137157516Y-45007366D01*
X137157512Y-45007368D01*
X137084526Y-45058473D01*
X137084526Y-45058474D01*
X137763553Y-45737500D01*
X137757339Y-45737500D01*
X137655606Y-45764759D01*
X137564394Y-45817420D01*
X137489920Y-45891894D01*
X137437259Y-45983106D01*
X137410000Y-46084839D01*
X137410000Y-46091052D01*
X136730974Y-45412026D01*
X136730973Y-45412026D01*
X136679868Y-45485012D01*
X136679866Y-45485016D01*
X136583734Y-45691173D01*
X136583730Y-45691182D01*
X136524860Y-45910889D01*
X136524858Y-45910900D01*
X136505034Y-46137497D01*
X131495468Y-46137497D01*
X131475635Y-45910808D01*
X131416739Y-45691004D01*
X131320568Y-45484766D01*
X131190047Y-45298361D01*
X131190045Y-45298358D01*
X131029141Y-45137454D01*
X130842734Y-45006932D01*
X130842732Y-45006931D01*
X130636497Y-44910761D01*
X130636488Y-44910758D01*
X130416697Y-44851866D01*
X130416693Y-44851865D01*
X130416692Y-44851865D01*
X130416691Y-44851864D01*
X130416686Y-44851864D01*
X130190002Y-44832032D01*
X130189998Y-44832032D01*
X129963313Y-44851864D01*
X129963302Y-44851866D01*
X129743511Y-44910758D01*
X129743502Y-44910761D01*
X129537267Y-45006931D01*
X129537265Y-45006932D01*
X129350858Y-45137454D01*
X129189954Y-45298358D01*
X129059432Y-45484765D01*
X129059431Y-45484767D01*
X128963261Y-45691002D01*
X128963258Y-45691011D01*
X128904366Y-45910802D01*
X128904364Y-45910813D01*
X128884532Y-46137498D01*
X110000000Y-46137498D01*
X110000000Y-42862498D01*
X128884532Y-42862498D01*
X128884532Y-42862501D01*
X128904364Y-43089186D01*
X128904366Y-43089197D01*
X128963258Y-43308988D01*
X128963261Y-43308997D01*
X129059431Y-43515232D01*
X129059432Y-43515234D01*
X129189954Y-43701641D01*
X129350858Y-43862545D01*
X129350861Y-43862547D01*
X129537266Y-43993068D01*
X129743504Y-44089239D01*
X129963308Y-44148135D01*
X130125230Y-44162301D01*
X130189998Y-44167968D01*
X130190000Y-44167968D01*
X130190002Y-44167968D01*
X130246673Y-44163009D01*
X130416692Y-44148135D01*
X130636496Y-44089239D01*
X130842734Y-43993068D01*
X131029139Y-43862547D01*
X131190047Y-43701639D01*
X131320568Y-43515234D01*
X131416739Y-43308996D01*
X131475635Y-43089192D01*
X131495468Y-42862500D01*
X131495468Y-42862498D01*
X136504532Y-42862498D01*
X136504532Y-42862501D01*
X136524364Y-43089186D01*
X136524366Y-43089197D01*
X136583258Y-43308988D01*
X136583261Y-43308997D01*
X136679431Y-43515232D01*
X136679432Y-43515234D01*
X136809954Y-43701641D01*
X136970858Y-43862545D01*
X136970861Y-43862547D01*
X137157266Y-43993068D01*
X137363504Y-44089239D01*
X137583308Y-44148135D01*
X137745230Y-44162301D01*
X137809998Y-44167968D01*
X137810000Y-44167968D01*
X137810002Y-44167968D01*
X137866673Y-44163009D01*
X138036692Y-44148135D01*
X138256496Y-44089239D01*
X138462734Y-43993068D01*
X138649139Y-43862547D01*
X138810047Y-43701639D01*
X138940568Y-43515234D01*
X139036739Y-43308996D01*
X139095635Y-43089192D01*
X139115468Y-42862500D01*
X139095635Y-42635808D01*
X139036739Y-42416004D01*
X138940568Y-42209766D01*
X138810047Y-42023361D01*
X138810045Y-42023358D01*
X138649141Y-41862454D01*
X138462734Y-41731932D01*
X138462732Y-41731931D01*
X138256497Y-41635761D01*
X138256488Y-41635758D01*
X138036697Y-41576866D01*
X138036693Y-41576865D01*
X138036692Y-41576865D01*
X138036691Y-41576864D01*
X138036686Y-41576864D01*
X137810002Y-41557032D01*
X137809998Y-41557032D01*
X137583313Y-41576864D01*
X137583302Y-41576866D01*
X137363511Y-41635758D01*
X137363502Y-41635761D01*
X137157267Y-41731931D01*
X137157265Y-41731932D01*
X136970858Y-41862454D01*
X136809954Y-42023358D01*
X136679432Y-42209765D01*
X136679431Y-42209767D01*
X136583261Y-42416002D01*
X136583258Y-42416011D01*
X136524366Y-42635802D01*
X136524364Y-42635813D01*
X136504532Y-42862498D01*
X131495468Y-42862498D01*
X131475635Y-42635808D01*
X131416739Y-42416004D01*
X131320568Y-42209766D01*
X131190047Y-42023361D01*
X131190045Y-42023358D01*
X131029141Y-41862454D01*
X130842734Y-41731932D01*
X130842732Y-41731931D01*
X130636497Y-41635761D01*
X130636488Y-41635758D01*
X130416697Y-41576866D01*
X130416693Y-41576865D01*
X130416692Y-41576865D01*
X130416691Y-41576864D01*
X130416686Y-41576864D01*
X130190002Y-41557032D01*
X130189998Y-41557032D01*
X129963313Y-41576864D01*
X129963302Y-41576866D01*
X129743511Y-41635758D01*
X129743502Y-41635761D01*
X129537267Y-41731931D01*
X129537265Y-41731932D01*
X129350858Y-41862454D01*
X129189954Y-42023358D01*
X129059432Y-42209765D01*
X129059431Y-42209767D01*
X128963261Y-42416002D01*
X128963258Y-42416011D01*
X128904366Y-42635802D01*
X128904364Y-42635813D01*
X128884532Y-42862498D01*
X110000000Y-42862498D01*
X110000000Y-39999998D01*
X130194532Y-39999998D01*
X130194532Y-40000001D01*
X130214364Y-40226686D01*
X130214366Y-40226697D01*
X130273258Y-40446488D01*
X130273261Y-40446497D01*
X130369431Y-40652732D01*
X130369432Y-40652734D01*
X130499954Y-40839141D01*
X130660858Y-41000045D01*
X130660861Y-41000047D01*
X130847266Y-41130568D01*
X131053504Y-41226739D01*
X131273308Y-41285635D01*
X131435230Y-41299801D01*
X131499998Y-41305468D01*
X131500000Y-41305468D01*
X131500002Y-41305468D01*
X131556673Y-41300509D01*
X131726692Y-41285635D01*
X131946496Y-41226739D01*
X132152734Y-41130568D01*
X132339139Y-41000047D01*
X132500047Y-40839139D01*
X132630568Y-40652734D01*
X132726739Y-40446496D01*
X132785635Y-40226692D01*
X132805468Y-40000000D01*
X132805468Y-39999998D01*
X135194532Y-39999998D01*
X135194532Y-40000001D01*
X135214364Y-40226686D01*
X135214366Y-40226697D01*
X135273258Y-40446488D01*
X135273261Y-40446497D01*
X135369431Y-40652732D01*
X135369432Y-40652734D01*
X135499954Y-40839141D01*
X135660858Y-41000045D01*
X135660861Y-41000047D01*
X135847266Y-41130568D01*
X136053504Y-41226739D01*
X136273308Y-41285635D01*
X136435230Y-41299801D01*
X136499998Y-41305468D01*
X136500000Y-41305468D01*
X136500002Y-41305468D01*
X136556673Y-41300509D01*
X136726692Y-41285635D01*
X136946496Y-41226739D01*
X137152734Y-41130568D01*
X137339139Y-41000047D01*
X137500047Y-40839139D01*
X137630568Y-40652734D01*
X137726739Y-40446496D01*
X137785635Y-40226692D01*
X137805468Y-40000000D01*
X137785635Y-39773308D01*
X137726739Y-39553504D01*
X137630568Y-39347266D01*
X137500047Y-39160861D01*
X137500045Y-39160858D01*
X137339141Y-38999954D01*
X137152734Y-38869432D01*
X137152732Y-38869431D01*
X136946497Y-38773261D01*
X136946488Y-38773258D01*
X136726697Y-38714366D01*
X136726693Y-38714365D01*
X136726692Y-38714365D01*
X136726691Y-38714364D01*
X136726686Y-38714364D01*
X136500002Y-38694532D01*
X136499998Y-38694532D01*
X136273313Y-38714364D01*
X136273302Y-38714366D01*
X136053511Y-38773258D01*
X136053502Y-38773261D01*
X135847267Y-38869431D01*
X135847265Y-38869432D01*
X135660858Y-38999954D01*
X135499954Y-39160858D01*
X135369432Y-39347265D01*
X135369431Y-39347267D01*
X135273261Y-39553502D01*
X135273258Y-39553511D01*
X135214366Y-39773302D01*
X135214364Y-39773313D01*
X135194532Y-39999998D01*
X132805468Y-39999998D01*
X132785635Y-39773308D01*
X132726739Y-39553504D01*
X132630568Y-39347266D01*
X132500047Y-39160861D01*
X132500045Y-39160858D01*
X132339141Y-38999954D01*
X132152734Y-38869432D01*
X132152732Y-38869431D01*
X131946497Y-38773261D01*
X131946488Y-38773258D01*
X131726697Y-38714366D01*
X131726693Y-38714365D01*
X131726692Y-38714365D01*
X131726691Y-38714364D01*
X131726686Y-38714364D01*
X131500002Y-38694532D01*
X131499998Y-38694532D01*
X131273313Y-38714364D01*
X131273302Y-38714366D01*
X131053511Y-38773258D01*
X131053502Y-38773261D01*
X130847267Y-38869431D01*
X130847265Y-38869432D01*
X130660858Y-38999954D01*
X130499954Y-39160858D01*
X130369432Y-39347265D01*
X130369431Y-39347267D01*
X130273261Y-39553502D01*
X130273258Y-39553511D01*
X130214366Y-39773302D01*
X130214364Y-39773313D01*
X130194532Y-39999998D01*
X110000000Y-39999998D01*
X110000000Y-36862498D01*
X151860932Y-36862498D01*
X151860932Y-36862501D01*
X151880764Y-37089186D01*
X151880766Y-37089197D01*
X151939658Y-37308988D01*
X151939661Y-37308997D01*
X152035831Y-37515232D01*
X152035832Y-37515234D01*
X152166354Y-37701641D01*
X152327258Y-37862545D01*
X152327261Y-37862547D01*
X152513666Y-37993068D01*
X152719904Y-38089239D01*
X152939708Y-38148135D01*
X153101630Y-38162301D01*
X153166398Y-38167968D01*
X153166400Y-38167968D01*
X153166402Y-38167968D01*
X153223073Y-38163009D01*
X153393092Y-38148135D01*
X153612896Y-38089239D01*
X153819134Y-37993068D01*
X154005539Y-37862547D01*
X154166447Y-37701639D01*
X154296968Y-37515234D01*
X154393139Y-37308996D01*
X154452035Y-37089192D01*
X154471868Y-36862500D01*
X154452035Y-36635808D01*
X154445789Y-36612499D01*
X159507527Y-36612499D01*
X159507528Y-36612500D01*
X160470714Y-36612500D01*
X160466320Y-36616894D01*
X160413659Y-36708106D01*
X160386400Y-36809839D01*
X160386400Y-36915161D01*
X160413659Y-37016894D01*
X160466320Y-37108106D01*
X160470714Y-37112500D01*
X159507528Y-37112500D01*
X159560130Y-37308817D01*
X159560134Y-37308826D01*
X159656265Y-37514982D01*
X159786742Y-37701320D01*
X159947579Y-37862157D01*
X160133917Y-37992634D01*
X160340073Y-38088765D01*
X160340082Y-38088769D01*
X160536399Y-38141372D01*
X160536400Y-38141371D01*
X160536400Y-37178186D01*
X160540794Y-37182580D01*
X160632006Y-37235241D01*
X160733739Y-37262500D01*
X160839061Y-37262500D01*
X160940794Y-37235241D01*
X161032006Y-37182580D01*
X161036400Y-37178186D01*
X161036400Y-38141372D01*
X161232717Y-38088769D01*
X161232726Y-38088765D01*
X161438882Y-37992634D01*
X161625220Y-37862157D01*
X161786057Y-37701320D01*
X161916534Y-37514982D01*
X162012665Y-37308826D01*
X162012669Y-37308817D01*
X162065272Y-37112500D01*
X161102086Y-37112500D01*
X161106480Y-37108106D01*
X161159141Y-37016894D01*
X161186400Y-36915161D01*
X161186400Y-36809839D01*
X161159141Y-36708106D01*
X161106480Y-36616894D01*
X161102086Y-36612500D01*
X162065272Y-36612500D01*
X162065272Y-36612499D01*
X162012669Y-36416182D01*
X162012665Y-36416173D01*
X161916534Y-36210017D01*
X161786057Y-36023679D01*
X161625220Y-35862842D01*
X161438882Y-35732365D01*
X161232728Y-35636234D01*
X161036400Y-35583627D01*
X161036400Y-36546814D01*
X161032006Y-36542420D01*
X160940794Y-36489759D01*
X160839061Y-36462500D01*
X160733739Y-36462500D01*
X160632006Y-36489759D01*
X160540794Y-36542420D01*
X160536400Y-36546814D01*
X160536400Y-35583627D01*
X160340071Y-35636234D01*
X160133917Y-35732365D01*
X159947579Y-35862842D01*
X159786742Y-36023679D01*
X159656265Y-36210017D01*
X159560134Y-36416173D01*
X159560130Y-36416182D01*
X159507527Y-36612499D01*
X154445789Y-36612499D01*
X154393139Y-36416004D01*
X154296968Y-36209766D01*
X154166447Y-36023361D01*
X154166445Y-36023358D01*
X154005541Y-35862454D01*
X153819134Y-35731932D01*
X153819132Y-35731931D01*
X153612897Y-35635761D01*
X153612888Y-35635758D01*
X153393097Y-35576866D01*
X153393093Y-35576865D01*
X153393092Y-35576865D01*
X153393091Y-35576864D01*
X153393086Y-35576864D01*
X153166402Y-35557032D01*
X153166398Y-35557032D01*
X152939713Y-35576864D01*
X152939702Y-35576866D01*
X152719911Y-35635758D01*
X152719902Y-35635761D01*
X152513667Y-35731931D01*
X152513665Y-35731932D01*
X152327258Y-35862454D01*
X152166354Y-36023358D01*
X152035832Y-36209765D01*
X152035831Y-36209767D01*
X151939661Y-36416002D01*
X151939658Y-36416011D01*
X151880766Y-36635802D01*
X151880764Y-36635813D01*
X151860932Y-36862498D01*
X110000000Y-36862498D01*
X110000000Y-31343135D01*
X153327900Y-31343135D01*
X153327900Y-32656870D01*
X153327901Y-32656876D01*
X153334308Y-32716483D01*
X153384602Y-32851328D01*
X153384606Y-32851335D01*
X153470852Y-32966544D01*
X153470855Y-32966547D01*
X153586064Y-33052793D01*
X153586071Y-33052797D01*
X153720917Y-33103091D01*
X153720916Y-33103091D01*
X153727844Y-33103835D01*
X153780527Y-33109500D01*
X155094272Y-33109499D01*
X155153883Y-33103091D01*
X155288731Y-33052796D01*
X155403946Y-32966546D01*
X155490196Y-32851331D01*
X155540491Y-32716483D01*
X155546900Y-32656873D01*
X155546899Y-31999999D01*
X155863147Y-31999999D01*
X155863147Y-32000000D01*
X155882118Y-32204742D01*
X155882119Y-32204745D01*
X155938387Y-32402510D01*
X155938390Y-32402515D01*
X156030043Y-32586579D01*
X156128142Y-32716483D01*
X156153958Y-32750668D01*
X156305912Y-32889192D01*
X156305914Y-32889194D01*
X156480731Y-32997436D01*
X156480732Y-32997436D01*
X156480735Y-32997438D01*
X156672470Y-33071717D01*
X156874590Y-33109500D01*
X156874592Y-33109500D01*
X157080208Y-33109500D01*
X157080210Y-33109500D01*
X157282330Y-33071717D01*
X157474065Y-32997438D01*
X157648887Y-32889193D01*
X157800843Y-32750667D01*
X157924757Y-32586579D01*
X158016410Y-32402515D01*
X158016410Y-32402512D01*
X158016412Y-32402510D01*
X158072680Y-32204745D01*
X158072681Y-32204742D01*
X158091653Y-32000000D01*
X158091653Y-31999999D01*
X158403147Y-31999999D01*
X158403147Y-32000000D01*
X158422118Y-32204742D01*
X158422119Y-32204745D01*
X158478387Y-32402510D01*
X158478390Y-32402515D01*
X158570043Y-32586579D01*
X158668142Y-32716483D01*
X158693958Y-32750668D01*
X158845912Y-32889192D01*
X158845914Y-32889194D01*
X159020731Y-32997436D01*
X159020732Y-32997436D01*
X159020735Y-32997438D01*
X159212470Y-33071717D01*
X159414590Y-33109500D01*
X159414592Y-33109500D01*
X159620208Y-33109500D01*
X159620210Y-33109500D01*
X159822330Y-33071717D01*
X160014065Y-32997438D01*
X160188887Y-32889193D01*
X160340843Y-32750667D01*
X160464757Y-32586579D01*
X160556410Y-32402515D01*
X160556410Y-32402512D01*
X160556412Y-32402510D01*
X160612680Y-32204745D01*
X160612681Y-32204742D01*
X160631653Y-32000000D01*
X160631653Y-31999999D01*
X160612681Y-31795257D01*
X160612680Y-31795254D01*
X160556412Y-31597489D01*
X160556409Y-31597483D01*
X160464757Y-31413421D01*
X160340843Y-31249333D01*
X160188887Y-31110807D01*
X160188885Y-31110805D01*
X160014068Y-31002563D01*
X160014062Y-31002561D01*
X159822330Y-30928283D01*
X159620210Y-30890500D01*
X159414590Y-30890500D01*
X159212470Y-30928283D01*
X159091218Y-30975256D01*
X159020737Y-31002561D01*
X159020731Y-31002563D01*
X158845914Y-31110805D01*
X158845912Y-31110807D01*
X158693958Y-31249331D01*
X158570043Y-31413420D01*
X158478390Y-31597483D01*
X158478387Y-31597489D01*
X158422119Y-31795254D01*
X158422118Y-31795257D01*
X158403147Y-31999999D01*
X158091653Y-31999999D01*
X158072681Y-31795257D01*
X158072680Y-31795254D01*
X158016412Y-31597489D01*
X158016409Y-31597483D01*
X157924757Y-31413421D01*
X157800843Y-31249333D01*
X157648887Y-31110807D01*
X157648885Y-31110805D01*
X157474068Y-31002563D01*
X157474062Y-31002561D01*
X157282330Y-30928283D01*
X157080210Y-30890500D01*
X156874590Y-30890500D01*
X156672470Y-30928283D01*
X156551218Y-30975256D01*
X156480737Y-31002561D01*
X156480731Y-31002563D01*
X156305914Y-31110805D01*
X156305912Y-31110807D01*
X156153958Y-31249331D01*
X156030043Y-31413420D01*
X155938390Y-31597483D01*
X155938387Y-31597489D01*
X155882119Y-31795254D01*
X155882118Y-31795257D01*
X155863147Y-31999999D01*
X155546899Y-31999999D01*
X155546899Y-31343128D01*
X155540491Y-31283517D01*
X155527741Y-31249333D01*
X155490197Y-31148671D01*
X155490193Y-31148664D01*
X155403947Y-31033455D01*
X155403944Y-31033452D01*
X155288735Y-30947206D01*
X155288728Y-30947202D01*
X155153882Y-30896908D01*
X155153883Y-30896908D01*
X155094283Y-30890501D01*
X155094281Y-30890500D01*
X155094273Y-30890500D01*
X155094264Y-30890500D01*
X153780529Y-30890500D01*
X153780523Y-30890501D01*
X153720916Y-30896908D01*
X153586071Y-30947202D01*
X153586064Y-30947206D01*
X153470855Y-31033452D01*
X153470852Y-31033455D01*
X153384606Y-31148664D01*
X153384602Y-31148671D01*
X153334308Y-31283517D01*
X153327901Y-31343116D01*
X153327901Y-31343123D01*
X153327900Y-31343135D01*
X110000000Y-31343135D01*
X110000000Y-29124000D01*
X110019685Y-29056961D01*
X110072489Y-29011206D01*
X110124000Y-29000000D01*
X162876000Y-29000000D01*
X162943039Y-29019685D01*
G37*
%TD.AperFunction*%
%TD*%
%TA.AperFunction,Conductor*%
%TO.N,/Power_Regulation/5V0*%
G36*
X175368039Y-102970585D02*
G01*
X175413794Y-103023389D01*
X175425000Y-103074900D01*
X175425000Y-139474538D01*
X175405315Y-139541577D01*
X175388681Y-139562219D01*
X165086319Y-149864581D01*
X165024996Y-149898066D01*
X164998638Y-149900900D01*
X149101362Y-149900900D01*
X149034323Y-149881215D01*
X149013681Y-149864581D01*
X145301255Y-146152155D01*
X149525000Y-146152155D01*
X149525000Y-146750000D01*
X150509314Y-146750000D01*
X150504920Y-146754394D01*
X150452259Y-146845606D01*
X150425000Y-146947339D01*
X150425000Y-147052661D01*
X150452259Y-147154394D01*
X150504920Y-147245606D01*
X150509314Y-147250000D01*
X149525000Y-147250000D01*
X149525000Y-147847844D01*
X149531401Y-147907372D01*
X149531403Y-147907379D01*
X149581645Y-148042086D01*
X149581649Y-148042093D01*
X149667809Y-148157187D01*
X149667812Y-148157190D01*
X149782906Y-148243350D01*
X149782913Y-148243354D01*
X149917620Y-148293596D01*
X149917627Y-148293598D01*
X149977155Y-148299999D01*
X149977172Y-148300000D01*
X150575000Y-148300000D01*
X150575000Y-147315686D01*
X150579394Y-147320080D01*
X150670606Y-147372741D01*
X150772339Y-147400000D01*
X150877661Y-147400000D01*
X150979394Y-147372741D01*
X151070606Y-147320080D01*
X151075000Y-147315686D01*
X151075000Y-148300000D01*
X151672828Y-148300000D01*
X151672844Y-148299999D01*
X151732372Y-148293598D01*
X151732379Y-148293596D01*
X151867086Y-148243354D01*
X151867093Y-148243350D01*
X151982187Y-148157190D01*
X151982190Y-148157187D01*
X152068350Y-148042093D01*
X152068354Y-148042086D01*
X152118596Y-147907380D01*
X152122424Y-147871781D01*
X152149162Y-147807230D01*
X152206555Y-147767382D01*
X152276380Y-147764888D01*
X152336469Y-147800540D01*
X152347289Y-147813912D01*
X152364956Y-147839143D01*
X152525858Y-148000045D01*
X152525861Y-148000047D01*
X152712266Y-148130568D01*
X152918504Y-148226739D01*
X153138308Y-148285635D01*
X153300230Y-148299801D01*
X153364998Y-148305468D01*
X153365000Y-148305468D01*
X153365002Y-148305468D01*
X153427511Y-148299999D01*
X153591692Y-148285635D01*
X153811496Y-148226739D01*
X154017734Y-148130568D01*
X154204139Y-148000047D01*
X154365047Y-147839139D01*
X154495568Y-147652734D01*
X154591739Y-147446496D01*
X154650635Y-147226692D01*
X154670468Y-147000000D01*
X154650635Y-146773308D01*
X154591739Y-146553504D01*
X154495568Y-146347266D01*
X154405164Y-146218155D01*
X158580000Y-146218155D01*
X158580000Y-146816000D01*
X159564314Y-146816000D01*
X159559920Y-146820394D01*
X159507259Y-146911606D01*
X159480000Y-147013339D01*
X159480000Y-147118661D01*
X159507259Y-147220394D01*
X159559920Y-147311606D01*
X159564314Y-147316000D01*
X158580000Y-147316000D01*
X158580000Y-147913844D01*
X158586401Y-147973372D01*
X158586403Y-147973379D01*
X158636645Y-148108086D01*
X158636649Y-148108093D01*
X158722809Y-148223187D01*
X158722812Y-148223190D01*
X158837906Y-148309350D01*
X158837913Y-148309354D01*
X158972620Y-148359596D01*
X158972627Y-148359598D01*
X159032155Y-148365999D01*
X159032172Y-148366000D01*
X159630000Y-148366000D01*
X159630000Y-147381686D01*
X159634394Y-147386080D01*
X159725606Y-147438741D01*
X159827339Y-147466000D01*
X159932661Y-147466000D01*
X160034394Y-147438741D01*
X160125606Y-147386080D01*
X160130000Y-147381686D01*
X160130000Y-148366000D01*
X160727828Y-148366000D01*
X160727844Y-148365999D01*
X160787372Y-148359598D01*
X160787379Y-148359596D01*
X160922086Y-148309354D01*
X160922093Y-148309350D01*
X161037187Y-148223190D01*
X161037190Y-148223187D01*
X161123350Y-148108093D01*
X161123354Y-148108086D01*
X161173596Y-147973380D01*
X161177424Y-147937781D01*
X161204162Y-147873230D01*
X161261555Y-147833382D01*
X161331380Y-147830888D01*
X161391469Y-147866540D01*
X161402289Y-147879912D01*
X161419956Y-147905143D01*
X161580858Y-148066045D01*
X161580861Y-148066047D01*
X161767266Y-148196568D01*
X161973504Y-148292739D01*
X161973509Y-148292740D01*
X161973511Y-148292741D01*
X162026415Y-148306916D01*
X162193308Y-148351635D01*
X162355230Y-148365801D01*
X162419998Y-148371468D01*
X162420000Y-148371468D01*
X162420002Y-148371468D01*
X162482511Y-148365999D01*
X162646692Y-148351635D01*
X162866496Y-148292739D01*
X163072734Y-148196568D01*
X163259139Y-148066047D01*
X163420047Y-147905139D01*
X163550568Y-147718734D01*
X163646739Y-147512496D01*
X163705635Y-147292692D01*
X163725468Y-147066000D01*
X163705635Y-146839308D01*
X163646739Y-146619504D01*
X163550568Y-146413266D01*
X163420047Y-146226861D01*
X163420045Y-146226858D01*
X163259141Y-146065954D01*
X163072734Y-145935432D01*
X163072732Y-145935431D01*
X162866497Y-145839261D01*
X162866488Y-145839258D01*
X162646697Y-145780366D01*
X162646693Y-145780365D01*
X162646692Y-145780365D01*
X162646691Y-145780364D01*
X162646686Y-145780364D01*
X162420002Y-145760532D01*
X162419998Y-145760532D01*
X162193313Y-145780364D01*
X162193302Y-145780366D01*
X161973511Y-145839258D01*
X161973502Y-145839261D01*
X161767267Y-145935431D01*
X161767265Y-145935432D01*
X161580858Y-146065954D01*
X161419951Y-146226861D01*
X161402287Y-146252088D01*
X161347710Y-146295712D01*
X161278211Y-146302904D01*
X161215857Y-146271380D01*
X161180445Y-146211150D01*
X161177425Y-146194218D01*
X161173598Y-146158627D01*
X161173596Y-146158620D01*
X161123354Y-146023913D01*
X161123350Y-146023906D01*
X161037190Y-145908812D01*
X161037187Y-145908809D01*
X160922093Y-145822649D01*
X160922086Y-145822645D01*
X160787379Y-145772403D01*
X160787372Y-145772401D01*
X160727844Y-145766000D01*
X160130000Y-145766000D01*
X160130000Y-146750314D01*
X160125606Y-146745920D01*
X160034394Y-146693259D01*
X159932661Y-146666000D01*
X159827339Y-146666000D01*
X159725606Y-146693259D01*
X159634394Y-146745920D01*
X159630000Y-146750314D01*
X159630000Y-145766000D01*
X159032155Y-145766000D01*
X158972627Y-145772401D01*
X158972620Y-145772403D01*
X158837913Y-145822645D01*
X158837906Y-145822649D01*
X158722812Y-145908809D01*
X158722809Y-145908812D01*
X158636649Y-146023906D01*
X158636645Y-146023913D01*
X158586403Y-146158620D01*
X158586401Y-146158627D01*
X158580000Y-146218155D01*
X154405164Y-146218155D01*
X154365047Y-146160861D01*
X154365045Y-146160858D01*
X154204141Y-145999954D01*
X154017734Y-145869432D01*
X154017732Y-145869431D01*
X153811497Y-145773261D01*
X153811488Y-145773258D01*
X153591697Y-145714366D01*
X153591693Y-145714365D01*
X153591692Y-145714365D01*
X153591691Y-145714364D01*
X153591686Y-145714364D01*
X153365002Y-145694532D01*
X153364998Y-145694532D01*
X153138313Y-145714364D01*
X153138302Y-145714366D01*
X152918511Y-145773258D01*
X152918502Y-145773261D01*
X152712267Y-145869431D01*
X152712265Y-145869432D01*
X152525858Y-145999954D01*
X152364951Y-146160861D01*
X152347287Y-146186088D01*
X152292710Y-146229712D01*
X152223211Y-146236904D01*
X152160857Y-146205380D01*
X152125445Y-146145150D01*
X152122425Y-146128218D01*
X152118598Y-146092627D01*
X152118596Y-146092620D01*
X152068354Y-145957913D01*
X152068350Y-145957906D01*
X151982190Y-145842812D01*
X151982187Y-145842809D01*
X151867093Y-145756649D01*
X151867086Y-145756645D01*
X151732379Y-145706403D01*
X151732372Y-145706401D01*
X151672844Y-145700000D01*
X151075000Y-145700000D01*
X151075000Y-146684314D01*
X151070606Y-146679920D01*
X150979394Y-146627259D01*
X150877661Y-146600000D01*
X150772339Y-146600000D01*
X150670606Y-146627259D01*
X150579394Y-146679920D01*
X150575000Y-146684314D01*
X150575000Y-145700000D01*
X149977155Y-145700000D01*
X149917627Y-145706401D01*
X149917620Y-145706403D01*
X149782913Y-145756645D01*
X149782906Y-145756649D01*
X149667812Y-145842809D01*
X149667809Y-145842812D01*
X149581649Y-145957906D01*
X149581645Y-145957913D01*
X149531403Y-146092620D01*
X149531401Y-146092627D01*
X149525000Y-146152155D01*
X145301255Y-146152155D01*
X137621319Y-138472219D01*
X137587834Y-138410896D01*
X137585000Y-138384538D01*
X137585000Y-135815000D01*
X151394551Y-135815000D01*
X151414317Y-136066151D01*
X151473126Y-136311110D01*
X151569533Y-136543859D01*
X151701160Y-136758653D01*
X151701161Y-136758656D01*
X151701164Y-136758659D01*
X151864776Y-136950224D01*
X152013066Y-137076875D01*
X152056343Y-137113838D01*
X152056346Y-137113839D01*
X152271140Y-137245466D01*
X152503889Y-137341873D01*
X152748852Y-137400683D01*
X153000000Y-137420449D01*
X153251148Y-137400683D01*
X153496111Y-137341873D01*
X153728859Y-137245466D01*
X153943659Y-137113836D01*
X154135224Y-136950224D01*
X154298836Y-136758659D01*
X154430466Y-136543859D01*
X154526873Y-136311111D01*
X154585683Y-136066148D01*
X154605449Y-135815000D01*
X154585683Y-135563852D01*
X154526873Y-135318889D01*
X154430466Y-135086141D01*
X154430466Y-135086140D01*
X154298839Y-134871346D01*
X154298838Y-134871343D01*
X154261875Y-134828066D01*
X154135224Y-134679776D01*
X154008571Y-134571604D01*
X153943656Y-134516161D01*
X153943653Y-134516160D01*
X153728859Y-134384533D01*
X153496110Y-134288126D01*
X153251151Y-134229317D01*
X153000000Y-134209551D01*
X152748848Y-134229317D01*
X152503889Y-134288126D01*
X152271140Y-134384533D01*
X152056346Y-134516160D01*
X152056343Y-134516161D01*
X151864776Y-134679776D01*
X151701161Y-134871343D01*
X151701160Y-134871346D01*
X151569533Y-135086140D01*
X151473126Y-135318889D01*
X151414317Y-135563848D01*
X151394551Y-135815000D01*
X137585000Y-135815000D01*
X137585000Y-124507135D01*
X151399500Y-124507135D01*
X151399500Y-126802870D01*
X151399501Y-126802876D01*
X151405908Y-126862483D01*
X151456202Y-126997328D01*
X151456206Y-126997335D01*
X151542452Y-127112544D01*
X151542455Y-127112547D01*
X151657664Y-127198793D01*
X151657671Y-127198797D01*
X151792517Y-127249091D01*
X151792516Y-127249091D01*
X151799444Y-127249835D01*
X151852127Y-127255500D01*
X154147872Y-127255499D01*
X154207483Y-127249091D01*
X154342331Y-127198796D01*
X154457546Y-127112546D01*
X154543796Y-126997331D01*
X154594091Y-126862483D01*
X154600500Y-126802873D01*
X154600499Y-124507128D01*
X154594091Y-124447517D01*
X154543796Y-124312669D01*
X154543795Y-124312668D01*
X154543793Y-124312664D01*
X154457547Y-124197455D01*
X154457544Y-124197452D01*
X154342335Y-124111206D01*
X154342328Y-124111202D01*
X154207482Y-124060908D01*
X154207483Y-124060908D01*
X154147883Y-124054501D01*
X154147881Y-124054500D01*
X154147873Y-124054500D01*
X154147864Y-124054500D01*
X151852129Y-124054500D01*
X151852123Y-124054501D01*
X151792516Y-124060908D01*
X151657671Y-124111202D01*
X151657664Y-124111206D01*
X151542455Y-124197452D01*
X151542452Y-124197455D01*
X151456206Y-124312664D01*
X151456202Y-124312671D01*
X151405908Y-124447517D01*
X151399501Y-124507116D01*
X151399501Y-124507123D01*
X151399500Y-124507135D01*
X137585000Y-124507135D01*
X137585000Y-119999999D01*
X140840554Y-119999999D01*
X140840554Y-120000000D01*
X140860295Y-120213047D01*
X140860296Y-120213050D01*
X140918846Y-120418835D01*
X140918849Y-120418840D01*
X141014219Y-120610370D01*
X141143159Y-120781114D01*
X141301278Y-120925258D01*
X141301283Y-120925261D01*
X141301286Y-120925263D01*
X141483186Y-121037891D01*
X141483187Y-121037891D01*
X141483190Y-121037893D01*
X141682703Y-121115185D01*
X141893020Y-121154500D01*
X141893022Y-121154500D01*
X142106978Y-121154500D01*
X142106980Y-121154500D01*
X142317297Y-121115185D01*
X142516810Y-121037893D01*
X142537638Y-121024997D01*
X150027677Y-121024997D01*
X150027677Y-121025002D01*
X150046929Y-121245062D01*
X150046930Y-121245070D01*
X150104104Y-121458445D01*
X150104105Y-121458447D01*
X150104106Y-121458450D01*
X150197466Y-121658662D01*
X150197468Y-121658666D01*
X150324170Y-121839615D01*
X150324175Y-121839621D01*
X150480378Y-121995824D01*
X150480384Y-121995829D01*
X150661333Y-122122531D01*
X150661335Y-122122532D01*
X150661338Y-122122534D01*
X150861550Y-122215894D01*
X151074932Y-122273070D01*
X151232123Y-122286822D01*
X151294998Y-122292323D01*
X151295000Y-122292323D01*
X151295002Y-122292323D01*
X151350017Y-122287509D01*
X151515068Y-122273070D01*
X151728450Y-122215894D01*
X151928662Y-122122534D01*
X152109620Y-121995826D01*
X152265826Y-121839620D01*
X152392534Y-121658662D01*
X152485894Y-121458450D01*
X152543070Y-121245068D01*
X152562323Y-121025000D01*
X152543070Y-120804932D01*
X152485894Y-120591550D01*
X152392534Y-120391339D01*
X152267694Y-120213048D01*
X152265827Y-120210381D01*
X152265823Y-120210377D01*
X152109620Y-120054174D01*
X152109616Y-120054171D01*
X152109615Y-120054170D01*
X151928666Y-119927468D01*
X151928662Y-119927466D01*
X151928660Y-119927465D01*
X151728450Y-119834106D01*
X151728447Y-119834105D01*
X151728445Y-119834104D01*
X151515070Y-119776930D01*
X151515062Y-119776929D01*
X151295002Y-119757677D01*
X151294998Y-119757677D01*
X151074937Y-119776929D01*
X151074929Y-119776930D01*
X150861554Y-119834104D01*
X150861548Y-119834107D01*
X150661340Y-119927465D01*
X150661338Y-119927466D01*
X150480377Y-120054175D01*
X150324175Y-120210377D01*
X150197466Y-120391338D01*
X150197465Y-120391340D01*
X150104107Y-120591548D01*
X150104104Y-120591554D01*
X150046930Y-120804929D01*
X150046929Y-120804937D01*
X150027677Y-121024997D01*
X142537638Y-121024997D01*
X142698722Y-120925258D01*
X142856841Y-120781114D01*
X142985781Y-120610370D01*
X143081151Y-120418840D01*
X143081151Y-120418837D01*
X143081153Y-120418835D01*
X143139703Y-120213050D01*
X143139704Y-120213047D01*
X143139952Y-120210377D01*
X143159446Y-120000000D01*
X143139704Y-119786952D01*
X143131200Y-119757065D01*
X143081153Y-119581164D01*
X143081150Y-119581158D01*
X142985781Y-119389630D01*
X142856841Y-119218886D01*
X142698722Y-119074742D01*
X142698716Y-119074738D01*
X142698713Y-119074736D01*
X142516813Y-118962108D01*
X142516807Y-118962106D01*
X142317297Y-118884815D01*
X142106980Y-118845500D01*
X141893020Y-118845500D01*
X141682703Y-118884815D01*
X141556533Y-118933693D01*
X141483192Y-118962106D01*
X141483186Y-118962108D01*
X141301286Y-119074736D01*
X141301283Y-119074738D01*
X141301279Y-119074740D01*
X141301278Y-119074742D01*
X141143159Y-119218886D01*
X141143158Y-119218887D01*
X141014219Y-119389629D01*
X140918849Y-119581158D01*
X140918846Y-119581164D01*
X140860296Y-119786949D01*
X140860295Y-119786952D01*
X140840554Y-119999999D01*
X137585000Y-119999999D01*
X137585000Y-116499999D01*
X140840554Y-116499999D01*
X140840554Y-116500000D01*
X140860295Y-116713047D01*
X140860296Y-116713050D01*
X140918846Y-116918835D01*
X140918849Y-116918840D01*
X141014219Y-117110370D01*
X141143159Y-117281114D01*
X141301278Y-117425258D01*
X141301283Y-117425261D01*
X141301286Y-117425263D01*
X141483186Y-117537891D01*
X141483187Y-117537891D01*
X141483190Y-117537893D01*
X141682703Y-117615185D01*
X141893020Y-117654500D01*
X141893022Y-117654500D01*
X142106978Y-117654500D01*
X142106980Y-117654500D01*
X142317297Y-117615185D01*
X142516810Y-117537893D01*
X142698722Y-117425258D01*
X142856841Y-117281114D01*
X142985781Y-117110370D01*
X143081151Y-116918840D01*
X143081151Y-116918837D01*
X143081153Y-116918835D01*
X143139703Y-116713050D01*
X143139704Y-116713047D01*
X143159446Y-116500000D01*
X143159446Y-116499999D01*
X143139704Y-116286952D01*
X143139703Y-116286949D01*
X143081153Y-116081164D01*
X143081150Y-116081158D01*
X142985781Y-115889630D01*
X142856841Y-115718886D01*
X142698722Y-115574742D01*
X142698716Y-115574738D01*
X142698713Y-115574736D01*
X142516813Y-115462108D01*
X142516807Y-115462106D01*
X142317297Y-115384815D01*
X142106980Y-115345500D01*
X141893020Y-115345500D01*
X141682703Y-115384815D01*
X141556533Y-115433693D01*
X141483192Y-115462106D01*
X141483186Y-115462108D01*
X141301286Y-115574736D01*
X141301283Y-115574738D01*
X141301279Y-115574740D01*
X141301278Y-115574742D01*
X141143159Y-115718886D01*
X141143158Y-115718887D01*
X141014219Y-115889629D01*
X140918849Y-116081158D01*
X140918846Y-116081164D01*
X140860296Y-116286949D01*
X140860295Y-116286952D01*
X140840554Y-116499999D01*
X137585000Y-116499999D01*
X137585000Y-110650899D01*
X172015340Y-110650899D01*
X172015340Y-110650900D01*
X172035936Y-110873173D01*
X172035937Y-110873176D01*
X172097023Y-111087875D01*
X172097026Y-111087880D01*
X172196526Y-111287704D01*
X172331050Y-111465843D01*
X172496017Y-111616230D01*
X172496024Y-111616234D01*
X172496025Y-111616235D01*
X172685804Y-111733741D01*
X172685805Y-111733741D01*
X172685808Y-111733743D01*
X172893961Y-111814382D01*
X173113387Y-111855400D01*
X173113389Y-111855400D01*
X173336611Y-111855400D01*
X173336613Y-111855400D01*
X173556039Y-111814382D01*
X173764192Y-111733743D01*
X173953983Y-111616230D01*
X174118950Y-111465843D01*
X174253474Y-111287704D01*
X174352974Y-111087880D01*
X174352974Y-111087877D01*
X174352976Y-111087875D01*
X174414062Y-110873176D01*
X174414063Y-110873173D01*
X174434660Y-110650900D01*
X174434660Y-110650899D01*
X174414063Y-110428626D01*
X174414062Y-110428623D01*
X174352976Y-110213924D01*
X174352973Y-110213918D01*
X174253474Y-110014096D01*
X174118950Y-109835957D01*
X173953983Y-109685570D01*
X173953979Y-109685567D01*
X173953974Y-109685564D01*
X173764195Y-109568058D01*
X173764189Y-109568056D01*
X173556039Y-109487418D01*
X173336613Y-109446400D01*
X173113387Y-109446400D01*
X172893961Y-109487418D01*
X172762328Y-109538412D01*
X172685810Y-109568056D01*
X172685804Y-109568058D01*
X172496025Y-109685564D01*
X172496015Y-109685571D01*
X172331051Y-109835955D01*
X172196526Y-110014095D01*
X172097026Y-110213918D01*
X172097023Y-110213924D01*
X172035937Y-110428623D01*
X172035936Y-110428626D01*
X172015340Y-110650899D01*
X137585000Y-110650899D01*
X137585000Y-105784999D01*
X160188179Y-105784999D01*
X160188179Y-105785000D01*
X160207424Y-106004976D01*
X160207426Y-106004986D01*
X160264575Y-106218270D01*
X160264580Y-106218284D01*
X160357898Y-106418405D01*
X160357901Y-106418411D01*
X160403258Y-106483187D01*
X160403259Y-106483188D01*
X161074000Y-105812447D01*
X161074000Y-105835160D01*
X161099964Y-105932061D01*
X161150124Y-106018940D01*
X161221060Y-106089876D01*
X161307939Y-106140036D01*
X161404840Y-106166000D01*
X161427553Y-106166000D01*
X160756810Y-106836740D01*
X160821590Y-106882099D01*
X160821592Y-106882100D01*
X161021715Y-106975419D01*
X161021729Y-106975424D01*
X161235013Y-107032573D01*
X161235023Y-107032575D01*
X161454999Y-107051821D01*
X161455001Y-107051821D01*
X161674976Y-107032575D01*
X161674986Y-107032573D01*
X161888270Y-106975424D01*
X161888284Y-106975419D01*
X162088407Y-106882100D01*
X162088417Y-106882094D01*
X162153188Y-106836741D01*
X161482448Y-106166000D01*
X161505160Y-106166000D01*
X161602061Y-106140036D01*
X161688940Y-106089876D01*
X161759876Y-106018940D01*
X161810036Y-105932061D01*
X161836000Y-105835160D01*
X161836000Y-105812447D01*
X162506741Y-106483188D01*
X162552094Y-106418417D01*
X162552100Y-106418407D01*
X162645419Y-106218284D01*
X162645424Y-106218270D01*
X162702573Y-106004986D01*
X162702575Y-106004976D01*
X162721821Y-105785000D01*
X162721821Y-105784999D01*
X162710088Y-105650899D01*
X172015842Y-105650899D01*
X172015842Y-105650900D01*
X172036429Y-105873081D01*
X172097493Y-106087695D01*
X172097498Y-106087708D01*
X172196953Y-106287440D01*
X172213282Y-106309063D01*
X172782861Y-105739484D01*
X172805667Y-105824594D01*
X172864910Y-105927206D01*
X172948694Y-106010990D01*
X173051306Y-106070233D01*
X173136414Y-106093037D01*
X172568766Y-106660685D01*
X172686031Y-106733293D01*
X172686032Y-106733294D01*
X172894095Y-106813897D01*
X173113435Y-106854900D01*
X173336565Y-106854900D01*
X173555904Y-106813897D01*
X173763967Y-106733294D01*
X173763971Y-106733292D01*
X173881231Y-106660686D01*
X173881231Y-106660685D01*
X173313585Y-106093037D01*
X173398694Y-106070233D01*
X173501306Y-106010990D01*
X173585090Y-105927206D01*
X173644333Y-105824594D01*
X173667138Y-105739485D01*
X174236716Y-106309063D01*
X174253049Y-106287436D01*
X174253053Y-106287429D01*
X174352499Y-106087713D01*
X174352506Y-106087695D01*
X174413570Y-105873081D01*
X174434158Y-105650900D01*
X174434158Y-105650899D01*
X174413570Y-105428718D01*
X174352506Y-105214104D01*
X174352501Y-105214091D01*
X174253046Y-105014358D01*
X174236716Y-104992736D01*
X173667138Y-105562314D01*
X173644333Y-105477206D01*
X173585090Y-105374594D01*
X173501306Y-105290810D01*
X173398694Y-105231567D01*
X173313584Y-105208761D01*
X173881232Y-104641113D01*
X173763966Y-104568505D01*
X173763965Y-104568504D01*
X173555904Y-104487902D01*
X173336565Y-104446900D01*
X173113435Y-104446900D01*
X172894095Y-104487902D01*
X172686034Y-104568504D01*
X172686028Y-104568507D01*
X172568767Y-104641112D01*
X172568766Y-104641113D01*
X173136415Y-105208761D01*
X173051306Y-105231567D01*
X172948694Y-105290810D01*
X172864910Y-105374594D01*
X172805667Y-105477206D01*
X172782861Y-105562315D01*
X172213282Y-104992736D01*
X172213281Y-104992736D01*
X172196953Y-105014358D01*
X172097498Y-105214091D01*
X172097493Y-105214104D01*
X172036429Y-105428718D01*
X172015842Y-105650899D01*
X162710088Y-105650899D01*
X162702575Y-105565023D01*
X162702573Y-105565013D01*
X162645424Y-105351729D01*
X162645420Y-105351720D01*
X162552096Y-105151586D01*
X162506741Y-105086811D01*
X162506740Y-105086810D01*
X161836000Y-105757551D01*
X161836000Y-105734840D01*
X161810036Y-105637939D01*
X161759876Y-105551060D01*
X161688940Y-105480124D01*
X161602061Y-105429964D01*
X161505160Y-105404000D01*
X161482448Y-105404000D01*
X162153188Y-104733259D01*
X162153187Y-104733258D01*
X162088411Y-104687901D01*
X162088405Y-104687898D01*
X161888284Y-104594580D01*
X161888270Y-104594575D01*
X161674986Y-104537426D01*
X161674976Y-104537424D01*
X161455001Y-104518179D01*
X161454999Y-104518179D01*
X161235023Y-104537424D01*
X161235013Y-104537426D01*
X161021729Y-104594575D01*
X161021720Y-104594579D01*
X160821590Y-104687901D01*
X160756811Y-104733258D01*
X161427553Y-105404000D01*
X161404840Y-105404000D01*
X161307939Y-105429964D01*
X161221060Y-105480124D01*
X161150124Y-105551060D01*
X161099964Y-105637939D01*
X161074000Y-105734840D01*
X161074000Y-105757553D01*
X160403258Y-105086811D01*
X160357901Y-105151590D01*
X160264579Y-105351720D01*
X160264575Y-105351729D01*
X160207426Y-105565013D01*
X160207424Y-105565023D01*
X160188179Y-105784999D01*
X137585000Y-105784999D01*
X137585000Y-103074900D01*
X137604685Y-103007861D01*
X137657489Y-102962106D01*
X137709000Y-102950900D01*
X175301000Y-102950900D01*
X175368039Y-102970585D01*
G37*
%TD.AperFunction*%
%TD*%
D35*
X99000000Y-25400000D02*
X226000000Y-25400000D01*
X226000000Y-152400000D01*
X99000000Y-152400000D01*
X99000000Y-25400000D01*
M02*
