%TF.GenerationSoftware,KiCad,Pcbnew,8.0.5*%
%TF.CreationDate,2024-11-18T16:18:54-05:00*%
%TF.ProjectId,CapstoneMCU,43617073-746f-46e6-954d-43552e6b6963,rev?*%
%TF.SameCoordinates,Original*%
%TF.FileFunction,Legend,Top*%
%TF.FilePolarity,Positive*%
%FSLAX46Y46*%
G04 Gerber Fmt 4.6, Leading zero omitted, Abs format (unit mm)*
G04 Created by KiCad (PCBNEW 8.0.5) date 2024-11-18 16:18:54*
%MOMM*%
%LPD*%
G01*
G04 APERTURE LIST*
%ADD10C,0.200000*%
%ADD11C,0.150000*%
%ADD12C,0.250000*%
%ADD13C,0.300000*%
%ADD14C,0.120000*%
%ADD15C,0.152400*%
G04 APERTURE END LIST*
D10*
X149860000Y-45974000D02*
X171196000Y-45974000D01*
X171196000Y-53340000D01*
X149860000Y-53340000D01*
X149860000Y-45974000D01*
D11*
X161797200Y-69902173D02*
X161797200Y-68759316D01*
X161797200Y-66902173D02*
X161797200Y-65759316D01*
X162368628Y-66330744D02*
X161225771Y-66330744D01*
D12*
X150770568Y-47174921D02*
X151103901Y-47174921D01*
X151246758Y-47698731D02*
X150770568Y-47698731D01*
X150770568Y-47698731D02*
X150770568Y-46698731D01*
X150770568Y-46698731D02*
X151246758Y-46698731D01*
X152151520Y-47698731D02*
X151675330Y-47698731D01*
X151675330Y-47698731D02*
X151675330Y-46698731D01*
X152484854Y-47174921D02*
X152818187Y-47174921D01*
X152961044Y-47698731D02*
X152484854Y-47698731D01*
X152484854Y-47698731D02*
X152484854Y-46698731D01*
X152484854Y-46698731D02*
X152961044Y-46698731D01*
X153961044Y-47603492D02*
X153913425Y-47651112D01*
X153913425Y-47651112D02*
X153770568Y-47698731D01*
X153770568Y-47698731D02*
X153675330Y-47698731D01*
X153675330Y-47698731D02*
X153532473Y-47651112D01*
X153532473Y-47651112D02*
X153437235Y-47555873D01*
X153437235Y-47555873D02*
X153389616Y-47460635D01*
X153389616Y-47460635D02*
X153341997Y-47270159D01*
X153341997Y-47270159D02*
X153341997Y-47127302D01*
X153341997Y-47127302D02*
X153389616Y-46936826D01*
X153389616Y-46936826D02*
X153437235Y-46841588D01*
X153437235Y-46841588D02*
X153532473Y-46746350D01*
X153532473Y-46746350D02*
X153675330Y-46698731D01*
X153675330Y-46698731D02*
X153770568Y-46698731D01*
X153770568Y-46698731D02*
X153913425Y-46746350D01*
X153913425Y-46746350D02*
X153961044Y-46793969D01*
X154818187Y-47032064D02*
X154818187Y-47698731D01*
X154580092Y-46651112D02*
X154341997Y-47365397D01*
X154341997Y-47365397D02*
X154961044Y-47365397D01*
X155389616Y-47698731D02*
X155580092Y-47698731D01*
X155580092Y-47698731D02*
X155675330Y-47651112D01*
X155675330Y-47651112D02*
X155722949Y-47603492D01*
X155722949Y-47603492D02*
X155818187Y-47460635D01*
X155818187Y-47460635D02*
X155865806Y-47270159D01*
X155865806Y-47270159D02*
X155865806Y-46889207D01*
X155865806Y-46889207D02*
X155818187Y-46793969D01*
X155818187Y-46793969D02*
X155770568Y-46746350D01*
X155770568Y-46746350D02*
X155675330Y-46698731D01*
X155675330Y-46698731D02*
X155484854Y-46698731D01*
X155484854Y-46698731D02*
X155389616Y-46746350D01*
X155389616Y-46746350D02*
X155341997Y-46793969D01*
X155341997Y-46793969D02*
X155294378Y-46889207D01*
X155294378Y-46889207D02*
X155294378Y-47127302D01*
X155294378Y-47127302D02*
X155341997Y-47222540D01*
X155341997Y-47222540D02*
X155389616Y-47270159D01*
X155389616Y-47270159D02*
X155484854Y-47317778D01*
X155484854Y-47317778D02*
X155675330Y-47317778D01*
X155675330Y-47317778D02*
X155770568Y-47270159D01*
X155770568Y-47270159D02*
X155818187Y-47222540D01*
X155818187Y-47222540D02*
X155865806Y-47127302D01*
X156484854Y-46698731D02*
X156580092Y-46698731D01*
X156580092Y-46698731D02*
X156675330Y-46746350D01*
X156675330Y-46746350D02*
X156722949Y-46793969D01*
X156722949Y-46793969D02*
X156770568Y-46889207D01*
X156770568Y-46889207D02*
X156818187Y-47079683D01*
X156818187Y-47079683D02*
X156818187Y-47317778D01*
X156818187Y-47317778D02*
X156770568Y-47508254D01*
X156770568Y-47508254D02*
X156722949Y-47603492D01*
X156722949Y-47603492D02*
X156675330Y-47651112D01*
X156675330Y-47651112D02*
X156580092Y-47698731D01*
X156580092Y-47698731D02*
X156484854Y-47698731D01*
X156484854Y-47698731D02*
X156389616Y-47651112D01*
X156389616Y-47651112D02*
X156341997Y-47603492D01*
X156341997Y-47603492D02*
X156294378Y-47508254D01*
X156294378Y-47508254D02*
X156246759Y-47317778D01*
X156246759Y-47317778D02*
X156246759Y-47079683D01*
X156246759Y-47079683D02*
X156294378Y-46889207D01*
X156294378Y-46889207D02*
X156341997Y-46793969D01*
X156341997Y-46793969D02*
X156389616Y-46746350D01*
X156389616Y-46746350D02*
X156484854Y-46698731D01*
X157151521Y-46698731D02*
X157818187Y-46698731D01*
X157818187Y-46698731D02*
X157389616Y-47698731D01*
X159294378Y-47174921D02*
X158961045Y-47174921D01*
X158961045Y-47698731D02*
X158961045Y-46698731D01*
X158961045Y-46698731D02*
X159437235Y-46698731D01*
X159818188Y-47698731D02*
X159818188Y-46698731D01*
X159818188Y-46698731D02*
X160151521Y-47413016D01*
X160151521Y-47413016D02*
X160484854Y-46698731D01*
X160484854Y-46698731D02*
X160484854Y-47698731D01*
X161532473Y-47603492D02*
X161484854Y-47651112D01*
X161484854Y-47651112D02*
X161341997Y-47698731D01*
X161341997Y-47698731D02*
X161246759Y-47698731D01*
X161246759Y-47698731D02*
X161103902Y-47651112D01*
X161103902Y-47651112D02*
X161008664Y-47555873D01*
X161008664Y-47555873D02*
X160961045Y-47460635D01*
X160961045Y-47460635D02*
X160913426Y-47270159D01*
X160913426Y-47270159D02*
X160913426Y-47127302D01*
X160913426Y-47127302D02*
X160961045Y-46936826D01*
X160961045Y-46936826D02*
X161008664Y-46841588D01*
X161008664Y-46841588D02*
X161103902Y-46746350D01*
X161103902Y-46746350D02*
X161246759Y-46698731D01*
X161246759Y-46698731D02*
X161341997Y-46698731D01*
X161341997Y-46698731D02*
X161484854Y-46746350D01*
X161484854Y-46746350D02*
X161532473Y-46793969D01*
X161865807Y-46698731D02*
X162103902Y-47698731D01*
X162103902Y-47698731D02*
X162294378Y-46984445D01*
X162294378Y-46984445D02*
X162484854Y-47698731D01*
X162484854Y-47698731D02*
X162722950Y-46698731D01*
X164437235Y-47698731D02*
X164103902Y-47222540D01*
X163865807Y-47698731D02*
X163865807Y-46698731D01*
X163865807Y-46698731D02*
X164246759Y-46698731D01*
X164246759Y-46698731D02*
X164341997Y-46746350D01*
X164341997Y-46746350D02*
X164389616Y-46793969D01*
X164389616Y-46793969D02*
X164437235Y-46889207D01*
X164437235Y-46889207D02*
X164437235Y-47032064D01*
X164437235Y-47032064D02*
X164389616Y-47127302D01*
X164389616Y-47127302D02*
X164341997Y-47174921D01*
X164341997Y-47174921D02*
X164246759Y-47222540D01*
X164246759Y-47222540D02*
X163865807Y-47222540D01*
X165294378Y-47698731D02*
X165294378Y-47174921D01*
X165294378Y-47174921D02*
X165246759Y-47079683D01*
X165246759Y-47079683D02*
X165151521Y-47032064D01*
X165151521Y-47032064D02*
X164961045Y-47032064D01*
X164961045Y-47032064D02*
X164865807Y-47079683D01*
X165294378Y-47651112D02*
X165199140Y-47698731D01*
X165199140Y-47698731D02*
X164961045Y-47698731D01*
X164961045Y-47698731D02*
X164865807Y-47651112D01*
X164865807Y-47651112D02*
X164818188Y-47555873D01*
X164818188Y-47555873D02*
X164818188Y-47460635D01*
X164818188Y-47460635D02*
X164865807Y-47365397D01*
X164865807Y-47365397D02*
X164961045Y-47317778D01*
X164961045Y-47317778D02*
X165199140Y-47317778D01*
X165199140Y-47317778D02*
X165294378Y-47270159D01*
X166199140Y-47698731D02*
X166199140Y-46698731D01*
X166199140Y-47651112D02*
X166103902Y-47698731D01*
X166103902Y-47698731D02*
X165913426Y-47698731D01*
X165913426Y-47698731D02*
X165818188Y-47651112D01*
X165818188Y-47651112D02*
X165770569Y-47603492D01*
X165770569Y-47603492D02*
X165722950Y-47508254D01*
X165722950Y-47508254D02*
X165722950Y-47222540D01*
X165722950Y-47222540D02*
X165770569Y-47127302D01*
X165770569Y-47127302D02*
X165818188Y-47079683D01*
X165818188Y-47079683D02*
X165913426Y-47032064D01*
X165913426Y-47032064D02*
X166103902Y-47032064D01*
X166103902Y-47032064D02*
X166199140Y-47079683D01*
X167103902Y-47698731D02*
X167103902Y-47174921D01*
X167103902Y-47174921D02*
X167056283Y-47079683D01*
X167056283Y-47079683D02*
X166961045Y-47032064D01*
X166961045Y-47032064D02*
X166770569Y-47032064D01*
X166770569Y-47032064D02*
X166675331Y-47079683D01*
X167103902Y-47651112D02*
X167008664Y-47698731D01*
X167008664Y-47698731D02*
X166770569Y-47698731D01*
X166770569Y-47698731D02*
X166675331Y-47651112D01*
X166675331Y-47651112D02*
X166627712Y-47555873D01*
X166627712Y-47555873D02*
X166627712Y-47460635D01*
X166627712Y-47460635D02*
X166675331Y-47365397D01*
X166675331Y-47365397D02*
X166770569Y-47317778D01*
X166770569Y-47317778D02*
X167008664Y-47317778D01*
X167008664Y-47317778D02*
X167103902Y-47270159D01*
X167580093Y-47698731D02*
X167580093Y-47032064D01*
X167580093Y-47222540D02*
X167627712Y-47127302D01*
X167627712Y-47127302D02*
X167675331Y-47079683D01*
X167675331Y-47079683D02*
X167770569Y-47032064D01*
X167770569Y-47032064D02*
X167865807Y-47032064D01*
X150722949Y-49022960D02*
X151199139Y-49022960D01*
X150627711Y-49308675D02*
X150961044Y-48308675D01*
X150961044Y-48308675D02*
X151294377Y-49308675D01*
X151627711Y-49308675D02*
X151627711Y-48308675D01*
X151627711Y-48308675D02*
X151865806Y-48308675D01*
X151865806Y-48308675D02*
X152008663Y-48356294D01*
X152008663Y-48356294D02*
X152103901Y-48451532D01*
X152103901Y-48451532D02*
X152151520Y-48546770D01*
X152151520Y-48546770D02*
X152199139Y-48737246D01*
X152199139Y-48737246D02*
X152199139Y-48880103D01*
X152199139Y-48880103D02*
X152151520Y-49070579D01*
X152151520Y-49070579D02*
X152103901Y-49165817D01*
X152103901Y-49165817D02*
X152008663Y-49261056D01*
X152008663Y-49261056D02*
X151865806Y-49308675D01*
X151865806Y-49308675D02*
X151627711Y-49308675D01*
X153199139Y-49213436D02*
X153151520Y-49261056D01*
X153151520Y-49261056D02*
X153008663Y-49308675D01*
X153008663Y-49308675D02*
X152913425Y-49308675D01*
X152913425Y-49308675D02*
X152770568Y-49261056D01*
X152770568Y-49261056D02*
X152675330Y-49165817D01*
X152675330Y-49165817D02*
X152627711Y-49070579D01*
X152627711Y-49070579D02*
X152580092Y-48880103D01*
X152580092Y-48880103D02*
X152580092Y-48737246D01*
X152580092Y-48737246D02*
X152627711Y-48546770D01*
X152627711Y-48546770D02*
X152675330Y-48451532D01*
X152675330Y-48451532D02*
X152770568Y-48356294D01*
X152770568Y-48356294D02*
X152913425Y-48308675D01*
X152913425Y-48308675D02*
X153008663Y-48308675D01*
X153008663Y-48308675D02*
X153151520Y-48356294D01*
X153151520Y-48356294D02*
X153199139Y-48403913D01*
X155199140Y-49308675D02*
X155151521Y-49308675D01*
X155151521Y-49308675D02*
X155056282Y-49261056D01*
X155056282Y-49261056D02*
X154913425Y-49118198D01*
X154913425Y-49118198D02*
X154675330Y-48832484D01*
X154675330Y-48832484D02*
X154580092Y-48689627D01*
X154580092Y-48689627D02*
X154532473Y-48546770D01*
X154532473Y-48546770D02*
X154532473Y-48451532D01*
X154532473Y-48451532D02*
X154580092Y-48356294D01*
X154580092Y-48356294D02*
X154675330Y-48308675D01*
X154675330Y-48308675D02*
X154722949Y-48308675D01*
X154722949Y-48308675D02*
X154818187Y-48356294D01*
X154818187Y-48356294D02*
X154865806Y-48451532D01*
X154865806Y-48451532D02*
X154865806Y-48499151D01*
X154865806Y-48499151D02*
X154818187Y-48594389D01*
X154818187Y-48594389D02*
X154770568Y-48642008D01*
X154770568Y-48642008D02*
X154484854Y-48832484D01*
X154484854Y-48832484D02*
X154437235Y-48880103D01*
X154437235Y-48880103D02*
X154389616Y-48975341D01*
X154389616Y-48975341D02*
X154389616Y-49118198D01*
X154389616Y-49118198D02*
X154437235Y-49213436D01*
X154437235Y-49213436D02*
X154484854Y-49261056D01*
X154484854Y-49261056D02*
X154580092Y-49308675D01*
X154580092Y-49308675D02*
X154722949Y-49308675D01*
X154722949Y-49308675D02*
X154818187Y-49261056D01*
X154818187Y-49261056D02*
X154865806Y-49213436D01*
X154865806Y-49213436D02*
X155008663Y-49022960D01*
X155008663Y-49022960D02*
X155056282Y-48880103D01*
X155056282Y-48880103D02*
X155056282Y-48784865D01*
X156961044Y-49213436D02*
X156913425Y-49261056D01*
X156913425Y-49261056D02*
X156770568Y-49308675D01*
X156770568Y-49308675D02*
X156675330Y-49308675D01*
X156675330Y-49308675D02*
X156532473Y-49261056D01*
X156532473Y-49261056D02*
X156437235Y-49165817D01*
X156437235Y-49165817D02*
X156389616Y-49070579D01*
X156389616Y-49070579D02*
X156341997Y-48880103D01*
X156341997Y-48880103D02*
X156341997Y-48737246D01*
X156341997Y-48737246D02*
X156389616Y-48546770D01*
X156389616Y-48546770D02*
X156437235Y-48451532D01*
X156437235Y-48451532D02*
X156532473Y-48356294D01*
X156532473Y-48356294D02*
X156675330Y-48308675D01*
X156675330Y-48308675D02*
X156770568Y-48308675D01*
X156770568Y-48308675D02*
X156913425Y-48356294D01*
X156913425Y-48356294D02*
X156961044Y-48403913D01*
X157532473Y-49308675D02*
X157437235Y-49261056D01*
X157437235Y-49261056D02*
X157389616Y-49213436D01*
X157389616Y-49213436D02*
X157341997Y-49118198D01*
X157341997Y-49118198D02*
X157341997Y-48832484D01*
X157341997Y-48832484D02*
X157389616Y-48737246D01*
X157389616Y-48737246D02*
X157437235Y-48689627D01*
X157437235Y-48689627D02*
X157532473Y-48642008D01*
X157532473Y-48642008D02*
X157675330Y-48642008D01*
X157675330Y-48642008D02*
X157770568Y-48689627D01*
X157770568Y-48689627D02*
X157818187Y-48737246D01*
X157818187Y-48737246D02*
X157865806Y-48832484D01*
X157865806Y-48832484D02*
X157865806Y-49118198D01*
X157865806Y-49118198D02*
X157818187Y-49213436D01*
X157818187Y-49213436D02*
X157770568Y-49261056D01*
X157770568Y-49261056D02*
X157675330Y-49308675D01*
X157675330Y-49308675D02*
X157532473Y-49308675D01*
X158294378Y-49308675D02*
X158294378Y-48642008D01*
X158294378Y-48737246D02*
X158341997Y-48689627D01*
X158341997Y-48689627D02*
X158437235Y-48642008D01*
X158437235Y-48642008D02*
X158580092Y-48642008D01*
X158580092Y-48642008D02*
X158675330Y-48689627D01*
X158675330Y-48689627D02*
X158722949Y-48784865D01*
X158722949Y-48784865D02*
X158722949Y-49308675D01*
X158722949Y-48784865D02*
X158770568Y-48689627D01*
X158770568Y-48689627D02*
X158865806Y-48642008D01*
X158865806Y-48642008D02*
X159008663Y-48642008D01*
X159008663Y-48642008D02*
X159103902Y-48689627D01*
X159103902Y-48689627D02*
X159151521Y-48784865D01*
X159151521Y-48784865D02*
X159151521Y-49308675D01*
X159627711Y-49308675D02*
X159627711Y-48642008D01*
X159627711Y-48737246D02*
X159675330Y-48689627D01*
X159675330Y-48689627D02*
X159770568Y-48642008D01*
X159770568Y-48642008D02*
X159913425Y-48642008D01*
X159913425Y-48642008D02*
X160008663Y-48689627D01*
X160008663Y-48689627D02*
X160056282Y-48784865D01*
X160056282Y-48784865D02*
X160056282Y-49308675D01*
X160056282Y-48784865D02*
X160103901Y-48689627D01*
X160103901Y-48689627D02*
X160199139Y-48642008D01*
X160199139Y-48642008D02*
X160341996Y-48642008D01*
X160341996Y-48642008D02*
X160437235Y-48689627D01*
X160437235Y-48689627D02*
X160484854Y-48784865D01*
X160484854Y-48784865D02*
X160484854Y-49308675D01*
X161389615Y-48642008D02*
X161389615Y-49308675D01*
X160961044Y-48642008D02*
X160961044Y-49165817D01*
X160961044Y-49165817D02*
X161008663Y-49261056D01*
X161008663Y-49261056D02*
X161103901Y-49308675D01*
X161103901Y-49308675D02*
X161246758Y-49308675D01*
X161246758Y-49308675D02*
X161341996Y-49261056D01*
X161341996Y-49261056D02*
X161389615Y-49213436D01*
X161865806Y-48642008D02*
X161865806Y-49308675D01*
X161865806Y-48737246D02*
X161913425Y-48689627D01*
X161913425Y-48689627D02*
X162008663Y-48642008D01*
X162008663Y-48642008D02*
X162151520Y-48642008D01*
X162151520Y-48642008D02*
X162246758Y-48689627D01*
X162246758Y-48689627D02*
X162294377Y-48784865D01*
X162294377Y-48784865D02*
X162294377Y-49308675D01*
X162770568Y-49308675D02*
X162770568Y-48642008D01*
X162770568Y-48308675D02*
X162722949Y-48356294D01*
X162722949Y-48356294D02*
X162770568Y-48403913D01*
X162770568Y-48403913D02*
X162818187Y-48356294D01*
X162818187Y-48356294D02*
X162770568Y-48308675D01*
X162770568Y-48308675D02*
X162770568Y-48403913D01*
X163675329Y-49261056D02*
X163580091Y-49308675D01*
X163580091Y-49308675D02*
X163389615Y-49308675D01*
X163389615Y-49308675D02*
X163294377Y-49261056D01*
X163294377Y-49261056D02*
X163246758Y-49213436D01*
X163246758Y-49213436D02*
X163199139Y-49118198D01*
X163199139Y-49118198D02*
X163199139Y-48832484D01*
X163199139Y-48832484D02*
X163246758Y-48737246D01*
X163246758Y-48737246D02*
X163294377Y-48689627D01*
X163294377Y-48689627D02*
X163389615Y-48642008D01*
X163389615Y-48642008D02*
X163580091Y-48642008D01*
X163580091Y-48642008D02*
X163675329Y-48689627D01*
X164532472Y-49308675D02*
X164532472Y-48784865D01*
X164532472Y-48784865D02*
X164484853Y-48689627D01*
X164484853Y-48689627D02*
X164389615Y-48642008D01*
X164389615Y-48642008D02*
X164199139Y-48642008D01*
X164199139Y-48642008D02*
X164103901Y-48689627D01*
X164532472Y-49261056D02*
X164437234Y-49308675D01*
X164437234Y-49308675D02*
X164199139Y-49308675D01*
X164199139Y-49308675D02*
X164103901Y-49261056D01*
X164103901Y-49261056D02*
X164056282Y-49165817D01*
X164056282Y-49165817D02*
X164056282Y-49070579D01*
X164056282Y-49070579D02*
X164103901Y-48975341D01*
X164103901Y-48975341D02*
X164199139Y-48927722D01*
X164199139Y-48927722D02*
X164437234Y-48927722D01*
X164437234Y-48927722D02*
X164532472Y-48880103D01*
X164865806Y-48642008D02*
X165246758Y-48642008D01*
X165008663Y-48308675D02*
X165008663Y-49165817D01*
X165008663Y-49165817D02*
X165056282Y-49261056D01*
X165056282Y-49261056D02*
X165151520Y-49308675D01*
X165151520Y-49308675D02*
X165246758Y-49308675D01*
X165580092Y-49308675D02*
X165580092Y-48642008D01*
X165580092Y-48308675D02*
X165532473Y-48356294D01*
X165532473Y-48356294D02*
X165580092Y-48403913D01*
X165580092Y-48403913D02*
X165627711Y-48356294D01*
X165627711Y-48356294D02*
X165580092Y-48308675D01*
X165580092Y-48308675D02*
X165580092Y-48403913D01*
X166199139Y-49308675D02*
X166103901Y-49261056D01*
X166103901Y-49261056D02*
X166056282Y-49213436D01*
X166056282Y-49213436D02*
X166008663Y-49118198D01*
X166008663Y-49118198D02*
X166008663Y-48832484D01*
X166008663Y-48832484D02*
X166056282Y-48737246D01*
X166056282Y-48737246D02*
X166103901Y-48689627D01*
X166103901Y-48689627D02*
X166199139Y-48642008D01*
X166199139Y-48642008D02*
X166341996Y-48642008D01*
X166341996Y-48642008D02*
X166437234Y-48689627D01*
X166437234Y-48689627D02*
X166484853Y-48737246D01*
X166484853Y-48737246D02*
X166532472Y-48832484D01*
X166532472Y-48832484D02*
X166532472Y-49118198D01*
X166532472Y-49118198D02*
X166484853Y-49213436D01*
X166484853Y-49213436D02*
X166437234Y-49261056D01*
X166437234Y-49261056D02*
X166341996Y-49308675D01*
X166341996Y-49308675D02*
X166199139Y-49308675D01*
X166961044Y-48642008D02*
X166961044Y-49308675D01*
X166961044Y-48737246D02*
X167008663Y-48689627D01*
X167008663Y-48689627D02*
X167103901Y-48642008D01*
X167103901Y-48642008D02*
X167246758Y-48642008D01*
X167246758Y-48642008D02*
X167341996Y-48689627D01*
X167341996Y-48689627D02*
X167389615Y-48784865D01*
X167389615Y-48784865D02*
X167389615Y-49308675D01*
X167818187Y-49261056D02*
X167913425Y-49308675D01*
X167913425Y-49308675D02*
X168103901Y-49308675D01*
X168103901Y-49308675D02*
X168199139Y-49261056D01*
X168199139Y-49261056D02*
X168246758Y-49165817D01*
X168246758Y-49165817D02*
X168246758Y-49118198D01*
X168246758Y-49118198D02*
X168199139Y-49022960D01*
X168199139Y-49022960D02*
X168103901Y-48975341D01*
X168103901Y-48975341D02*
X167961044Y-48975341D01*
X167961044Y-48975341D02*
X167865806Y-48927722D01*
X167865806Y-48927722D02*
X167818187Y-48832484D01*
X167818187Y-48832484D02*
X167818187Y-48784865D01*
X167818187Y-48784865D02*
X167865806Y-48689627D01*
X167865806Y-48689627D02*
X167961044Y-48642008D01*
X167961044Y-48642008D02*
X168103901Y-48642008D01*
X168103901Y-48642008D02*
X168199139Y-48689627D01*
X151341996Y-50918619D02*
X151008663Y-50442428D01*
X150770568Y-50918619D02*
X150770568Y-49918619D01*
X150770568Y-49918619D02*
X151151520Y-49918619D01*
X151151520Y-49918619D02*
X151246758Y-49966238D01*
X151246758Y-49966238D02*
X151294377Y-50013857D01*
X151294377Y-50013857D02*
X151341996Y-50109095D01*
X151341996Y-50109095D02*
X151341996Y-50251952D01*
X151341996Y-50251952D02*
X151294377Y-50347190D01*
X151294377Y-50347190D02*
X151246758Y-50394809D01*
X151246758Y-50394809D02*
X151151520Y-50442428D01*
X151151520Y-50442428D02*
X150770568Y-50442428D01*
X152151520Y-50871000D02*
X152056282Y-50918619D01*
X152056282Y-50918619D02*
X151865806Y-50918619D01*
X151865806Y-50918619D02*
X151770568Y-50871000D01*
X151770568Y-50871000D02*
X151722949Y-50775761D01*
X151722949Y-50775761D02*
X151722949Y-50394809D01*
X151722949Y-50394809D02*
X151770568Y-50299571D01*
X151770568Y-50299571D02*
X151865806Y-50251952D01*
X151865806Y-50251952D02*
X152056282Y-50251952D01*
X152056282Y-50251952D02*
X152151520Y-50299571D01*
X152151520Y-50299571D02*
X152199139Y-50394809D01*
X152199139Y-50394809D02*
X152199139Y-50490047D01*
X152199139Y-50490047D02*
X151722949Y-50585285D01*
X152532473Y-50251952D02*
X152770568Y-50918619D01*
X152770568Y-50918619D02*
X153008663Y-50251952D01*
X154675330Y-50918619D02*
X154103902Y-50918619D01*
X154389616Y-50918619D02*
X154389616Y-49918619D01*
X154389616Y-49918619D02*
X154294378Y-50061476D01*
X154294378Y-50061476D02*
X154199140Y-50156714D01*
X154199140Y-50156714D02*
X154103902Y-50204333D01*
D11*
X148843200Y-60504173D02*
X148843200Y-59361316D01*
X148843200Y-57504173D02*
X148843200Y-56361316D01*
X149414628Y-56932744D02*
X148271771Y-56932744D01*
X199012180Y-53422779D02*
X200012180Y-53422779D01*
X200012180Y-53422779D02*
X199297895Y-53756112D01*
X199297895Y-53756112D02*
X200012180Y-54089445D01*
X200012180Y-54089445D02*
X199012180Y-54089445D01*
X199012180Y-54565636D02*
X199678847Y-54565636D01*
X200012180Y-54565636D02*
X199964561Y-54518017D01*
X199964561Y-54518017D02*
X199916942Y-54565636D01*
X199916942Y-54565636D02*
X199964561Y-54613255D01*
X199964561Y-54613255D02*
X200012180Y-54565636D01*
X200012180Y-54565636D02*
X199916942Y-54565636D01*
X199059800Y-55470397D02*
X199012180Y-55375159D01*
X199012180Y-55375159D02*
X199012180Y-55184683D01*
X199012180Y-55184683D02*
X199059800Y-55089445D01*
X199059800Y-55089445D02*
X199107419Y-55041826D01*
X199107419Y-55041826D02*
X199202657Y-54994207D01*
X199202657Y-54994207D02*
X199488371Y-54994207D01*
X199488371Y-54994207D02*
X199583609Y-55041826D01*
X199583609Y-55041826D02*
X199631228Y-55089445D01*
X199631228Y-55089445D02*
X199678847Y-55184683D01*
X199678847Y-55184683D02*
X199678847Y-55375159D01*
X199678847Y-55375159D02*
X199631228Y-55470397D01*
X199012180Y-55898969D02*
X199678847Y-55898969D01*
X199488371Y-55898969D02*
X199583609Y-55946588D01*
X199583609Y-55946588D02*
X199631228Y-55994207D01*
X199631228Y-55994207D02*
X199678847Y-56089445D01*
X199678847Y-56089445D02*
X199678847Y-56184683D01*
X199012180Y-56660874D02*
X199059800Y-56565636D01*
X199059800Y-56565636D02*
X199107419Y-56518017D01*
X199107419Y-56518017D02*
X199202657Y-56470398D01*
X199202657Y-56470398D02*
X199488371Y-56470398D01*
X199488371Y-56470398D02*
X199583609Y-56518017D01*
X199583609Y-56518017D02*
X199631228Y-56565636D01*
X199631228Y-56565636D02*
X199678847Y-56660874D01*
X199678847Y-56660874D02*
X199678847Y-56803731D01*
X199678847Y-56803731D02*
X199631228Y-56898969D01*
X199631228Y-56898969D02*
X199583609Y-56946588D01*
X199583609Y-56946588D02*
X199488371Y-56994207D01*
X199488371Y-56994207D02*
X199202657Y-56994207D01*
X199202657Y-56994207D02*
X199107419Y-56946588D01*
X199107419Y-56946588D02*
X199059800Y-56898969D01*
X199059800Y-56898969D02*
X199012180Y-56803731D01*
X199012180Y-56803731D02*
X199012180Y-56660874D01*
X199059800Y-57375160D02*
X199012180Y-57518017D01*
X199012180Y-57518017D02*
X199012180Y-57756112D01*
X199012180Y-57756112D02*
X199059800Y-57851350D01*
X199059800Y-57851350D02*
X199107419Y-57898969D01*
X199107419Y-57898969D02*
X199202657Y-57946588D01*
X199202657Y-57946588D02*
X199297895Y-57946588D01*
X199297895Y-57946588D02*
X199393133Y-57898969D01*
X199393133Y-57898969D02*
X199440752Y-57851350D01*
X199440752Y-57851350D02*
X199488371Y-57756112D01*
X199488371Y-57756112D02*
X199535990Y-57565636D01*
X199535990Y-57565636D02*
X199583609Y-57470398D01*
X199583609Y-57470398D02*
X199631228Y-57422779D01*
X199631228Y-57422779D02*
X199726466Y-57375160D01*
X199726466Y-57375160D02*
X199821704Y-57375160D01*
X199821704Y-57375160D02*
X199916942Y-57422779D01*
X199916942Y-57422779D02*
X199964561Y-57470398D01*
X199964561Y-57470398D02*
X200012180Y-57565636D01*
X200012180Y-57565636D02*
X200012180Y-57803731D01*
X200012180Y-57803731D02*
X199964561Y-57946588D01*
X199012180Y-58375160D02*
X200012180Y-58375160D01*
X200012180Y-58375160D02*
X200012180Y-58613255D01*
X200012180Y-58613255D02*
X199964561Y-58756112D01*
X199964561Y-58756112D02*
X199869323Y-58851350D01*
X199869323Y-58851350D02*
X199774085Y-58898969D01*
X199774085Y-58898969D02*
X199583609Y-58946588D01*
X199583609Y-58946588D02*
X199440752Y-58946588D01*
X199440752Y-58946588D02*
X199250276Y-58898969D01*
X199250276Y-58898969D02*
X199155038Y-58851350D01*
X199155038Y-58851350D02*
X199059800Y-58756112D01*
X199059800Y-58756112D02*
X199012180Y-58613255D01*
X199012180Y-58613255D02*
X199012180Y-58375160D01*
X199107419Y-60708493D02*
X199059800Y-60660874D01*
X199059800Y-60660874D02*
X199012180Y-60518017D01*
X199012180Y-60518017D02*
X199012180Y-60422779D01*
X199012180Y-60422779D02*
X199059800Y-60279922D01*
X199059800Y-60279922D02*
X199155038Y-60184684D01*
X199155038Y-60184684D02*
X199250276Y-60137065D01*
X199250276Y-60137065D02*
X199440752Y-60089446D01*
X199440752Y-60089446D02*
X199583609Y-60089446D01*
X199583609Y-60089446D02*
X199774085Y-60137065D01*
X199774085Y-60137065D02*
X199869323Y-60184684D01*
X199869323Y-60184684D02*
X199964561Y-60279922D01*
X199964561Y-60279922D02*
X200012180Y-60422779D01*
X200012180Y-60422779D02*
X200012180Y-60518017D01*
X200012180Y-60518017D02*
X199964561Y-60660874D01*
X199964561Y-60660874D02*
X199916942Y-60708493D01*
X199012180Y-61565636D02*
X199535990Y-61565636D01*
X199535990Y-61565636D02*
X199631228Y-61518017D01*
X199631228Y-61518017D02*
X199678847Y-61422779D01*
X199678847Y-61422779D02*
X199678847Y-61232303D01*
X199678847Y-61232303D02*
X199631228Y-61137065D01*
X199059800Y-61565636D02*
X199012180Y-61470398D01*
X199012180Y-61470398D02*
X199012180Y-61232303D01*
X199012180Y-61232303D02*
X199059800Y-61137065D01*
X199059800Y-61137065D02*
X199155038Y-61089446D01*
X199155038Y-61089446D02*
X199250276Y-61089446D01*
X199250276Y-61089446D02*
X199345514Y-61137065D01*
X199345514Y-61137065D02*
X199393133Y-61232303D01*
X199393133Y-61232303D02*
X199393133Y-61470398D01*
X199393133Y-61470398D02*
X199440752Y-61565636D01*
X199012180Y-62041827D02*
X199678847Y-62041827D01*
X199488371Y-62041827D02*
X199583609Y-62089446D01*
X199583609Y-62089446D02*
X199631228Y-62137065D01*
X199631228Y-62137065D02*
X199678847Y-62232303D01*
X199678847Y-62232303D02*
X199678847Y-62327541D01*
X199012180Y-63089446D02*
X200012180Y-63089446D01*
X199059800Y-63089446D02*
X199012180Y-62994208D01*
X199012180Y-62994208D02*
X199012180Y-62803732D01*
X199012180Y-62803732D02*
X199059800Y-62708494D01*
X199059800Y-62708494D02*
X199107419Y-62660875D01*
X199107419Y-62660875D02*
X199202657Y-62613256D01*
X199202657Y-62613256D02*
X199488371Y-62613256D01*
X199488371Y-62613256D02*
X199583609Y-62660875D01*
X199583609Y-62660875D02*
X199631228Y-62708494D01*
X199631228Y-62708494D02*
X199678847Y-62803732D01*
X199678847Y-62803732D02*
X199678847Y-62994208D01*
X199678847Y-62994208D02*
X199631228Y-63089446D01*
X199012180Y-64898970D02*
X199488371Y-64565637D01*
X199012180Y-64327542D02*
X200012180Y-64327542D01*
X200012180Y-64327542D02*
X200012180Y-64708494D01*
X200012180Y-64708494D02*
X199964561Y-64803732D01*
X199964561Y-64803732D02*
X199916942Y-64851351D01*
X199916942Y-64851351D02*
X199821704Y-64898970D01*
X199821704Y-64898970D02*
X199678847Y-64898970D01*
X199678847Y-64898970D02*
X199583609Y-64851351D01*
X199583609Y-64851351D02*
X199535990Y-64803732D01*
X199535990Y-64803732D02*
X199488371Y-64708494D01*
X199488371Y-64708494D02*
X199488371Y-64327542D01*
X199059800Y-65708494D02*
X199012180Y-65613256D01*
X199012180Y-65613256D02*
X199012180Y-65422780D01*
X199012180Y-65422780D02*
X199059800Y-65327542D01*
X199059800Y-65327542D02*
X199155038Y-65279923D01*
X199155038Y-65279923D02*
X199535990Y-65279923D01*
X199535990Y-65279923D02*
X199631228Y-65327542D01*
X199631228Y-65327542D02*
X199678847Y-65422780D01*
X199678847Y-65422780D02*
X199678847Y-65613256D01*
X199678847Y-65613256D02*
X199631228Y-65708494D01*
X199631228Y-65708494D02*
X199535990Y-65756113D01*
X199535990Y-65756113D02*
X199440752Y-65756113D01*
X199440752Y-65756113D02*
X199345514Y-65279923D01*
X199012180Y-66613256D02*
X199535990Y-66613256D01*
X199535990Y-66613256D02*
X199631228Y-66565637D01*
X199631228Y-66565637D02*
X199678847Y-66470399D01*
X199678847Y-66470399D02*
X199678847Y-66279923D01*
X199678847Y-66279923D02*
X199631228Y-66184685D01*
X199059800Y-66613256D02*
X199012180Y-66518018D01*
X199012180Y-66518018D02*
X199012180Y-66279923D01*
X199012180Y-66279923D02*
X199059800Y-66184685D01*
X199059800Y-66184685D02*
X199155038Y-66137066D01*
X199155038Y-66137066D02*
X199250276Y-66137066D01*
X199250276Y-66137066D02*
X199345514Y-66184685D01*
X199345514Y-66184685D02*
X199393133Y-66279923D01*
X199393133Y-66279923D02*
X199393133Y-66518018D01*
X199393133Y-66518018D02*
X199440752Y-66613256D01*
X199012180Y-67518018D02*
X200012180Y-67518018D01*
X199059800Y-67518018D02*
X199012180Y-67422780D01*
X199012180Y-67422780D02*
X199012180Y-67232304D01*
X199012180Y-67232304D02*
X199059800Y-67137066D01*
X199059800Y-67137066D02*
X199107419Y-67089447D01*
X199107419Y-67089447D02*
X199202657Y-67041828D01*
X199202657Y-67041828D02*
X199488371Y-67041828D01*
X199488371Y-67041828D02*
X199583609Y-67089447D01*
X199583609Y-67089447D02*
X199631228Y-67137066D01*
X199631228Y-67137066D02*
X199678847Y-67232304D01*
X199678847Y-67232304D02*
X199678847Y-67422780D01*
X199678847Y-67422780D02*
X199631228Y-67518018D01*
X199059800Y-68375161D02*
X199012180Y-68279923D01*
X199012180Y-68279923D02*
X199012180Y-68089447D01*
X199012180Y-68089447D02*
X199059800Y-67994209D01*
X199059800Y-67994209D02*
X199155038Y-67946590D01*
X199155038Y-67946590D02*
X199535990Y-67946590D01*
X199535990Y-67946590D02*
X199631228Y-67994209D01*
X199631228Y-67994209D02*
X199678847Y-68089447D01*
X199678847Y-68089447D02*
X199678847Y-68279923D01*
X199678847Y-68279923D02*
X199631228Y-68375161D01*
X199631228Y-68375161D02*
X199535990Y-68422780D01*
X199535990Y-68422780D02*
X199440752Y-68422780D01*
X199440752Y-68422780D02*
X199345514Y-67946590D01*
X199012180Y-68851352D02*
X199678847Y-68851352D01*
X199488371Y-68851352D02*
X199583609Y-68898971D01*
X199583609Y-68898971D02*
X199631228Y-68946590D01*
X199631228Y-68946590D02*
X199678847Y-69041828D01*
X199678847Y-69041828D02*
X199678847Y-69137066D01*
X179193819Y-112947220D02*
X178193819Y-112947220D01*
X178193819Y-112947220D02*
X178193819Y-112566268D01*
X178193819Y-112566268D02*
X178241438Y-112471030D01*
X178241438Y-112471030D02*
X178289057Y-112423411D01*
X178289057Y-112423411D02*
X178384295Y-112375792D01*
X178384295Y-112375792D02*
X178527152Y-112375792D01*
X178527152Y-112375792D02*
X178622390Y-112423411D01*
X178622390Y-112423411D02*
X178670009Y-112471030D01*
X178670009Y-112471030D02*
X178717628Y-112566268D01*
X178717628Y-112566268D02*
X178717628Y-112947220D01*
X178670009Y-111613887D02*
X178717628Y-111471030D01*
X178717628Y-111471030D02*
X178765247Y-111423411D01*
X178765247Y-111423411D02*
X178860485Y-111375792D01*
X178860485Y-111375792D02*
X179003342Y-111375792D01*
X179003342Y-111375792D02*
X179098580Y-111423411D01*
X179098580Y-111423411D02*
X179146200Y-111471030D01*
X179146200Y-111471030D02*
X179193819Y-111566268D01*
X179193819Y-111566268D02*
X179193819Y-111947220D01*
X179193819Y-111947220D02*
X178193819Y-111947220D01*
X178193819Y-111947220D02*
X178193819Y-111613887D01*
X178193819Y-111613887D02*
X178241438Y-111518649D01*
X178241438Y-111518649D02*
X178289057Y-111471030D01*
X178289057Y-111471030D02*
X178384295Y-111423411D01*
X178384295Y-111423411D02*
X178479533Y-111423411D01*
X178479533Y-111423411D02*
X178574771Y-111471030D01*
X178574771Y-111471030D02*
X178622390Y-111518649D01*
X178622390Y-111518649D02*
X178670009Y-111613887D01*
X178670009Y-111613887D02*
X178670009Y-111947220D01*
X178193819Y-111042458D02*
X178193819Y-110423411D01*
X178193819Y-110423411D02*
X178574771Y-110756744D01*
X178574771Y-110756744D02*
X178574771Y-110613887D01*
X178574771Y-110613887D02*
X178622390Y-110518649D01*
X178622390Y-110518649D02*
X178670009Y-110471030D01*
X178670009Y-110471030D02*
X178765247Y-110423411D01*
X178765247Y-110423411D02*
X179003342Y-110423411D01*
X179003342Y-110423411D02*
X179098580Y-110471030D01*
X179098580Y-110471030D02*
X179146200Y-110518649D01*
X179146200Y-110518649D02*
X179193819Y-110613887D01*
X179193819Y-110613887D02*
X179193819Y-110899601D01*
X179193819Y-110899601D02*
X179146200Y-110994839D01*
X179146200Y-110994839D02*
X179098580Y-111042458D01*
X161797200Y-60504173D02*
X161797200Y-59361316D01*
X161797200Y-57504173D02*
X161797200Y-56361316D01*
X162368628Y-56932744D02*
X161225771Y-56932744D01*
X174113819Y-112947220D02*
X173113819Y-112947220D01*
X173113819Y-112947220D02*
X173113819Y-112566268D01*
X173113819Y-112566268D02*
X173161438Y-112471030D01*
X173161438Y-112471030D02*
X173209057Y-112423411D01*
X173209057Y-112423411D02*
X173304295Y-112375792D01*
X173304295Y-112375792D02*
X173447152Y-112375792D01*
X173447152Y-112375792D02*
X173542390Y-112423411D01*
X173542390Y-112423411D02*
X173590009Y-112471030D01*
X173590009Y-112471030D02*
X173637628Y-112566268D01*
X173637628Y-112566268D02*
X173637628Y-112947220D01*
X173590009Y-111613887D02*
X173637628Y-111471030D01*
X173637628Y-111471030D02*
X173685247Y-111423411D01*
X173685247Y-111423411D02*
X173780485Y-111375792D01*
X173780485Y-111375792D02*
X173923342Y-111375792D01*
X173923342Y-111375792D02*
X174018580Y-111423411D01*
X174018580Y-111423411D02*
X174066200Y-111471030D01*
X174066200Y-111471030D02*
X174113819Y-111566268D01*
X174113819Y-111566268D02*
X174113819Y-111947220D01*
X174113819Y-111947220D02*
X173113819Y-111947220D01*
X173113819Y-111947220D02*
X173113819Y-111613887D01*
X173113819Y-111613887D02*
X173161438Y-111518649D01*
X173161438Y-111518649D02*
X173209057Y-111471030D01*
X173209057Y-111471030D02*
X173304295Y-111423411D01*
X173304295Y-111423411D02*
X173399533Y-111423411D01*
X173399533Y-111423411D02*
X173494771Y-111471030D01*
X173494771Y-111471030D02*
X173542390Y-111518649D01*
X173542390Y-111518649D02*
X173590009Y-111613887D01*
X173590009Y-111613887D02*
X173590009Y-111947220D01*
X174113819Y-110423411D02*
X174113819Y-110994839D01*
X174113819Y-110709125D02*
X173113819Y-110709125D01*
X173113819Y-110709125D02*
X173256676Y-110804363D01*
X173256676Y-110804363D02*
X173351914Y-110899601D01*
X173351914Y-110899601D02*
X173399533Y-110994839D01*
X173113819Y-109518649D02*
X173113819Y-109994839D01*
X173113819Y-109994839D02*
X173590009Y-110042458D01*
X173590009Y-110042458D02*
X173542390Y-109994839D01*
X173542390Y-109994839D02*
X173494771Y-109899601D01*
X173494771Y-109899601D02*
X173494771Y-109661506D01*
X173494771Y-109661506D02*
X173542390Y-109566268D01*
X173542390Y-109566268D02*
X173590009Y-109518649D01*
X173590009Y-109518649D02*
X173685247Y-109471030D01*
X173685247Y-109471030D02*
X173923342Y-109471030D01*
X173923342Y-109471030D02*
X174018580Y-109518649D01*
X174018580Y-109518649D02*
X174066200Y-109566268D01*
X174066200Y-109566268D02*
X174113819Y-109661506D01*
X174113819Y-109661506D02*
X174113819Y-109899601D01*
X174113819Y-109899601D02*
X174066200Y-109994839D01*
X174066200Y-109994839D02*
X174018580Y-110042458D01*
X163777826Y-109981200D02*
X164920684Y-109981200D01*
X166777826Y-109981200D02*
X167920684Y-109981200D01*
X167349255Y-110552628D02*
X167349255Y-109409771D01*
X191385819Y-112947220D02*
X190385819Y-112947220D01*
X190385819Y-112947220D02*
X190385819Y-112566268D01*
X190385819Y-112566268D02*
X190433438Y-112471030D01*
X190433438Y-112471030D02*
X190481057Y-112423411D01*
X190481057Y-112423411D02*
X190576295Y-112375792D01*
X190576295Y-112375792D02*
X190719152Y-112375792D01*
X190719152Y-112375792D02*
X190814390Y-112423411D01*
X190814390Y-112423411D02*
X190862009Y-112471030D01*
X190862009Y-112471030D02*
X190909628Y-112566268D01*
X190909628Y-112566268D02*
X190909628Y-112947220D01*
X191100104Y-111994839D02*
X191100104Y-111518649D01*
X191385819Y-112090077D02*
X190385819Y-111756744D01*
X190385819Y-111756744D02*
X191385819Y-111423411D01*
X191385819Y-111042458D02*
X191385819Y-110851982D01*
X191385819Y-110851982D02*
X191338200Y-110756744D01*
X191338200Y-110756744D02*
X191290580Y-110709125D01*
X191290580Y-110709125D02*
X191147723Y-110613887D01*
X191147723Y-110613887D02*
X190957247Y-110566268D01*
X190957247Y-110566268D02*
X190576295Y-110566268D01*
X190576295Y-110566268D02*
X190481057Y-110613887D01*
X190481057Y-110613887D02*
X190433438Y-110661506D01*
X190433438Y-110661506D02*
X190385819Y-110756744D01*
X190385819Y-110756744D02*
X190385819Y-110947220D01*
X190385819Y-110947220D02*
X190433438Y-111042458D01*
X190433438Y-111042458D02*
X190481057Y-111090077D01*
X190481057Y-111090077D02*
X190576295Y-111137696D01*
X190576295Y-111137696D02*
X190814390Y-111137696D01*
X190814390Y-111137696D02*
X190909628Y-111090077D01*
X190909628Y-111090077D02*
X190957247Y-111042458D01*
X190957247Y-111042458D02*
X191004866Y-110947220D01*
X191004866Y-110947220D02*
X191004866Y-110756744D01*
X191004866Y-110756744D02*
X190957247Y-110661506D01*
X190957247Y-110661506D02*
X190909628Y-110613887D01*
X190909628Y-110613887D02*
X190814390Y-110566268D01*
X181733819Y-112947220D02*
X180733819Y-112947220D01*
X180733819Y-112947220D02*
X180733819Y-112566268D01*
X180733819Y-112566268D02*
X180781438Y-112471030D01*
X180781438Y-112471030D02*
X180829057Y-112423411D01*
X180829057Y-112423411D02*
X180924295Y-112375792D01*
X180924295Y-112375792D02*
X181067152Y-112375792D01*
X181067152Y-112375792D02*
X181162390Y-112423411D01*
X181162390Y-112423411D02*
X181210009Y-112471030D01*
X181210009Y-112471030D02*
X181257628Y-112566268D01*
X181257628Y-112566268D02*
X181257628Y-112947220D01*
X181448104Y-111994839D02*
X181448104Y-111518649D01*
X181733819Y-112090077D02*
X180733819Y-111756744D01*
X180733819Y-111756744D02*
X181733819Y-111423411D01*
X180733819Y-110899601D02*
X180733819Y-110804363D01*
X180733819Y-110804363D02*
X180781438Y-110709125D01*
X180781438Y-110709125D02*
X180829057Y-110661506D01*
X180829057Y-110661506D02*
X180924295Y-110613887D01*
X180924295Y-110613887D02*
X181114771Y-110566268D01*
X181114771Y-110566268D02*
X181352866Y-110566268D01*
X181352866Y-110566268D02*
X181543342Y-110613887D01*
X181543342Y-110613887D02*
X181638580Y-110661506D01*
X181638580Y-110661506D02*
X181686200Y-110709125D01*
X181686200Y-110709125D02*
X181733819Y-110804363D01*
X181733819Y-110804363D02*
X181733819Y-110899601D01*
X181733819Y-110899601D02*
X181686200Y-110994839D01*
X181686200Y-110994839D02*
X181638580Y-111042458D01*
X181638580Y-111042458D02*
X181543342Y-111090077D01*
X181543342Y-111090077D02*
X181352866Y-111137696D01*
X181352866Y-111137696D02*
X181114771Y-111137696D01*
X181114771Y-111137696D02*
X180924295Y-111090077D01*
X180924295Y-111090077D02*
X180829057Y-111042458D01*
X180829057Y-111042458D02*
X180781438Y-110994839D01*
X180781438Y-110994839D02*
X180733819Y-110899601D01*
D13*
X171750510Y-88954828D02*
X171750510Y-87454828D01*
X171750510Y-87454828D02*
X172250510Y-88526257D01*
X172250510Y-88526257D02*
X172750510Y-87454828D01*
X172750510Y-87454828D02*
X172750510Y-88954828D01*
X174321939Y-88811971D02*
X174250511Y-88883400D01*
X174250511Y-88883400D02*
X174036225Y-88954828D01*
X174036225Y-88954828D02*
X173893368Y-88954828D01*
X173893368Y-88954828D02*
X173679082Y-88883400D01*
X173679082Y-88883400D02*
X173536225Y-88740542D01*
X173536225Y-88740542D02*
X173464796Y-88597685D01*
X173464796Y-88597685D02*
X173393368Y-88311971D01*
X173393368Y-88311971D02*
X173393368Y-88097685D01*
X173393368Y-88097685D02*
X173464796Y-87811971D01*
X173464796Y-87811971D02*
X173536225Y-87669114D01*
X173536225Y-87669114D02*
X173679082Y-87526257D01*
X173679082Y-87526257D02*
X173893368Y-87454828D01*
X173893368Y-87454828D02*
X174036225Y-87454828D01*
X174036225Y-87454828D02*
X174250511Y-87526257D01*
X174250511Y-87526257D02*
X174321939Y-87597685D01*
X174964796Y-87454828D02*
X174964796Y-88669114D01*
X174964796Y-88669114D02*
X175036225Y-88811971D01*
X175036225Y-88811971D02*
X175107654Y-88883400D01*
X175107654Y-88883400D02*
X175250511Y-88954828D01*
X175250511Y-88954828D02*
X175536225Y-88954828D01*
X175536225Y-88954828D02*
X175679082Y-88883400D01*
X175679082Y-88883400D02*
X175750511Y-88811971D01*
X175750511Y-88811971D02*
X175821939Y-88669114D01*
X175821939Y-88669114D02*
X175821939Y-87454828D01*
D11*
X184273819Y-112947220D02*
X183273819Y-112947220D01*
X183273819Y-112947220D02*
X183273819Y-112566268D01*
X183273819Y-112566268D02*
X183321438Y-112471030D01*
X183321438Y-112471030D02*
X183369057Y-112423411D01*
X183369057Y-112423411D02*
X183464295Y-112375792D01*
X183464295Y-112375792D02*
X183607152Y-112375792D01*
X183607152Y-112375792D02*
X183702390Y-112423411D01*
X183702390Y-112423411D02*
X183750009Y-112471030D01*
X183750009Y-112471030D02*
X183797628Y-112566268D01*
X183797628Y-112566268D02*
X183797628Y-112947220D01*
X184178580Y-111375792D02*
X184226200Y-111423411D01*
X184226200Y-111423411D02*
X184273819Y-111566268D01*
X184273819Y-111566268D02*
X184273819Y-111661506D01*
X184273819Y-111661506D02*
X184226200Y-111804363D01*
X184226200Y-111804363D02*
X184130961Y-111899601D01*
X184130961Y-111899601D02*
X184035723Y-111947220D01*
X184035723Y-111947220D02*
X183845247Y-111994839D01*
X183845247Y-111994839D02*
X183702390Y-111994839D01*
X183702390Y-111994839D02*
X183511914Y-111947220D01*
X183511914Y-111947220D02*
X183416676Y-111899601D01*
X183416676Y-111899601D02*
X183321438Y-111804363D01*
X183321438Y-111804363D02*
X183273819Y-111661506D01*
X183273819Y-111661506D02*
X183273819Y-111566268D01*
X183273819Y-111566268D02*
X183321438Y-111423411D01*
X183321438Y-111423411D02*
X183369057Y-111375792D01*
X183273819Y-110756744D02*
X183273819Y-110661506D01*
X183273819Y-110661506D02*
X183321438Y-110566268D01*
X183321438Y-110566268D02*
X183369057Y-110518649D01*
X183369057Y-110518649D02*
X183464295Y-110471030D01*
X183464295Y-110471030D02*
X183654771Y-110423411D01*
X183654771Y-110423411D02*
X183892866Y-110423411D01*
X183892866Y-110423411D02*
X184083342Y-110471030D01*
X184083342Y-110471030D02*
X184178580Y-110518649D01*
X184178580Y-110518649D02*
X184226200Y-110566268D01*
X184226200Y-110566268D02*
X184273819Y-110661506D01*
X184273819Y-110661506D02*
X184273819Y-110756744D01*
X184273819Y-110756744D02*
X184226200Y-110851982D01*
X184226200Y-110851982D02*
X184178580Y-110899601D01*
X184178580Y-110899601D02*
X184083342Y-110947220D01*
X184083342Y-110947220D02*
X183892866Y-110994839D01*
X183892866Y-110994839D02*
X183654771Y-110994839D01*
X183654771Y-110994839D02*
X183464295Y-110947220D01*
X183464295Y-110947220D02*
X183369057Y-110899601D01*
X183369057Y-110899601D02*
X183321438Y-110851982D01*
X183321438Y-110851982D02*
X183273819Y-110756744D01*
X195265922Y-105803819D02*
X195837350Y-105803819D01*
X195551636Y-106803819D02*
X195551636Y-105803819D01*
X196075446Y-105803819D02*
X196742112Y-106803819D01*
X196742112Y-105803819D02*
X196075446Y-106803819D01*
X189353819Y-112947220D02*
X188353819Y-112947220D01*
X188353819Y-112947220D02*
X188353819Y-112566268D01*
X188353819Y-112566268D02*
X188401438Y-112471030D01*
X188401438Y-112471030D02*
X188449057Y-112423411D01*
X188449057Y-112423411D02*
X188544295Y-112375792D01*
X188544295Y-112375792D02*
X188687152Y-112375792D01*
X188687152Y-112375792D02*
X188782390Y-112423411D01*
X188782390Y-112423411D02*
X188830009Y-112471030D01*
X188830009Y-112471030D02*
X188877628Y-112566268D01*
X188877628Y-112566268D02*
X188877628Y-112947220D01*
X188830009Y-111613887D02*
X188877628Y-111471030D01*
X188877628Y-111471030D02*
X188925247Y-111423411D01*
X188925247Y-111423411D02*
X189020485Y-111375792D01*
X189020485Y-111375792D02*
X189163342Y-111375792D01*
X189163342Y-111375792D02*
X189258580Y-111423411D01*
X189258580Y-111423411D02*
X189306200Y-111471030D01*
X189306200Y-111471030D02*
X189353819Y-111566268D01*
X189353819Y-111566268D02*
X189353819Y-111947220D01*
X189353819Y-111947220D02*
X188353819Y-111947220D01*
X188353819Y-111947220D02*
X188353819Y-111613887D01*
X188353819Y-111613887D02*
X188401438Y-111518649D01*
X188401438Y-111518649D02*
X188449057Y-111471030D01*
X188449057Y-111471030D02*
X188544295Y-111423411D01*
X188544295Y-111423411D02*
X188639533Y-111423411D01*
X188639533Y-111423411D02*
X188734771Y-111471030D01*
X188734771Y-111471030D02*
X188782390Y-111518649D01*
X188782390Y-111518649D02*
X188830009Y-111613887D01*
X188830009Y-111613887D02*
X188830009Y-111947220D01*
X189353819Y-110423411D02*
X189353819Y-110994839D01*
X189353819Y-110709125D02*
X188353819Y-110709125D01*
X188353819Y-110709125D02*
X188496676Y-110804363D01*
X188496676Y-110804363D02*
X188591914Y-110899601D01*
X188591914Y-110899601D02*
X188639533Y-110994839D01*
X188353819Y-109804363D02*
X188353819Y-109709125D01*
X188353819Y-109709125D02*
X188401438Y-109613887D01*
X188401438Y-109613887D02*
X188449057Y-109566268D01*
X188449057Y-109566268D02*
X188544295Y-109518649D01*
X188544295Y-109518649D02*
X188734771Y-109471030D01*
X188734771Y-109471030D02*
X188972866Y-109471030D01*
X188972866Y-109471030D02*
X189163342Y-109518649D01*
X189163342Y-109518649D02*
X189258580Y-109566268D01*
X189258580Y-109566268D02*
X189306200Y-109613887D01*
X189306200Y-109613887D02*
X189353819Y-109709125D01*
X189353819Y-109709125D02*
X189353819Y-109804363D01*
X189353819Y-109804363D02*
X189306200Y-109899601D01*
X189306200Y-109899601D02*
X189258580Y-109947220D01*
X189258580Y-109947220D02*
X189163342Y-109994839D01*
X189163342Y-109994839D02*
X188972866Y-110042458D01*
X188972866Y-110042458D02*
X188734771Y-110042458D01*
X188734771Y-110042458D02*
X188544295Y-109994839D01*
X188544295Y-109994839D02*
X188449057Y-109947220D01*
X188449057Y-109947220D02*
X188401438Y-109899601D01*
X188401438Y-109899601D02*
X188353819Y-109804363D01*
X176653819Y-112947220D02*
X175653819Y-112947220D01*
X175653819Y-112947220D02*
X175653819Y-112566268D01*
X175653819Y-112566268D02*
X175701438Y-112471030D01*
X175701438Y-112471030D02*
X175749057Y-112423411D01*
X175749057Y-112423411D02*
X175844295Y-112375792D01*
X175844295Y-112375792D02*
X175987152Y-112375792D01*
X175987152Y-112375792D02*
X176082390Y-112423411D01*
X176082390Y-112423411D02*
X176130009Y-112471030D01*
X176130009Y-112471030D02*
X176177628Y-112566268D01*
X176177628Y-112566268D02*
X176177628Y-112947220D01*
X176368104Y-111994839D02*
X176368104Y-111518649D01*
X176653819Y-112090077D02*
X175653819Y-111756744D01*
X175653819Y-111756744D02*
X176653819Y-111423411D01*
X176653819Y-110566268D02*
X176653819Y-111137696D01*
X176653819Y-110851982D02*
X175653819Y-110851982D01*
X175653819Y-110851982D02*
X175796676Y-110947220D01*
X175796676Y-110947220D02*
X175891914Y-111042458D01*
X175891914Y-111042458D02*
X175939533Y-111137696D01*
X175653819Y-109661506D02*
X175653819Y-110137696D01*
X175653819Y-110137696D02*
X176130009Y-110185315D01*
X176130009Y-110185315D02*
X176082390Y-110137696D01*
X176082390Y-110137696D02*
X176034771Y-110042458D01*
X176034771Y-110042458D02*
X176034771Y-109804363D01*
X176034771Y-109804363D02*
X176082390Y-109709125D01*
X176082390Y-109709125D02*
X176130009Y-109661506D01*
X176130009Y-109661506D02*
X176225247Y-109613887D01*
X176225247Y-109613887D02*
X176463342Y-109613887D01*
X176463342Y-109613887D02*
X176558580Y-109661506D01*
X176558580Y-109661506D02*
X176606200Y-109709125D01*
X176606200Y-109709125D02*
X176653819Y-109804363D01*
X176653819Y-109804363D02*
X176653819Y-110042458D01*
X176653819Y-110042458D02*
X176606200Y-110137696D01*
X176606200Y-110137696D02*
X176558580Y-110185315D01*
X186727875Y-112947220D02*
X185727875Y-112947220D01*
X185727875Y-112947220D02*
X185727875Y-112566268D01*
X185727875Y-112566268D02*
X185775494Y-112471030D01*
X185775494Y-112471030D02*
X185823113Y-112423411D01*
X185823113Y-112423411D02*
X185918351Y-112375792D01*
X185918351Y-112375792D02*
X186061208Y-112375792D01*
X186061208Y-112375792D02*
X186156446Y-112423411D01*
X186156446Y-112423411D02*
X186204065Y-112471030D01*
X186204065Y-112471030D02*
X186251684Y-112566268D01*
X186251684Y-112566268D02*
X186251684Y-112947220D01*
X186632636Y-111375792D02*
X186680256Y-111423411D01*
X186680256Y-111423411D02*
X186727875Y-111566268D01*
X186727875Y-111566268D02*
X186727875Y-111661506D01*
X186727875Y-111661506D02*
X186680256Y-111804363D01*
X186680256Y-111804363D02*
X186585017Y-111899601D01*
X186585017Y-111899601D02*
X186489779Y-111947220D01*
X186489779Y-111947220D02*
X186299303Y-111994839D01*
X186299303Y-111994839D02*
X186156446Y-111994839D01*
X186156446Y-111994839D02*
X185965970Y-111947220D01*
X185965970Y-111947220D02*
X185870732Y-111899601D01*
X185870732Y-111899601D02*
X185775494Y-111804363D01*
X185775494Y-111804363D02*
X185727875Y-111661506D01*
X185727875Y-111661506D02*
X185727875Y-111566268D01*
X185727875Y-111566268D02*
X185775494Y-111423411D01*
X185775494Y-111423411D02*
X185823113Y-111375792D01*
X186727875Y-110423411D02*
X186727875Y-110994839D01*
X186727875Y-110709125D02*
X185727875Y-110709125D01*
X185727875Y-110709125D02*
X185870732Y-110804363D01*
X185870732Y-110804363D02*
X185965970Y-110899601D01*
X185965970Y-110899601D02*
X186013589Y-110994839D01*
X148843200Y-69902173D02*
X148843200Y-68759316D01*
X148843200Y-66902173D02*
X148843200Y-65759316D01*
X149414628Y-66330744D02*
X148271771Y-66330744D01*
X195980207Y-109597819D02*
X195646874Y-109121628D01*
X195408779Y-109597819D02*
X195408779Y-108597819D01*
X195408779Y-108597819D02*
X195789731Y-108597819D01*
X195789731Y-108597819D02*
X195884969Y-108645438D01*
X195884969Y-108645438D02*
X195932588Y-108693057D01*
X195932588Y-108693057D02*
X195980207Y-108788295D01*
X195980207Y-108788295D02*
X195980207Y-108931152D01*
X195980207Y-108931152D02*
X195932588Y-109026390D01*
X195932588Y-109026390D02*
X195884969Y-109074009D01*
X195884969Y-109074009D02*
X195789731Y-109121628D01*
X195789731Y-109121628D02*
X195408779Y-109121628D01*
X196313541Y-108597819D02*
X196980207Y-109597819D01*
X196980207Y-108597819D02*
X196313541Y-109597819D01*
X157892905Y-63462819D02*
X158511952Y-63462819D01*
X158511952Y-63462819D02*
X158178619Y-63843771D01*
X158178619Y-63843771D02*
X158321476Y-63843771D01*
X158321476Y-63843771D02*
X158416714Y-63891390D01*
X158416714Y-63891390D02*
X158464333Y-63939009D01*
X158464333Y-63939009D02*
X158511952Y-64034247D01*
X158511952Y-64034247D02*
X158511952Y-64272342D01*
X158511952Y-64272342D02*
X158464333Y-64367580D01*
X158464333Y-64367580D02*
X158416714Y-64415200D01*
X158416714Y-64415200D02*
X158321476Y-64462819D01*
X158321476Y-64462819D02*
X158035762Y-64462819D01*
X158035762Y-64462819D02*
X157940524Y-64415200D01*
X157940524Y-64415200D02*
X157892905Y-64367580D01*
X158797667Y-63462819D02*
X159131000Y-64462819D01*
X159131000Y-64462819D02*
X159464333Y-63462819D01*
X159702429Y-63462819D02*
X160321476Y-63462819D01*
X160321476Y-63462819D02*
X159988143Y-63843771D01*
X159988143Y-63843771D02*
X160131000Y-63843771D01*
X160131000Y-63843771D02*
X160226238Y-63891390D01*
X160226238Y-63891390D02*
X160273857Y-63939009D01*
X160273857Y-63939009D02*
X160321476Y-64034247D01*
X160321476Y-64034247D02*
X160321476Y-64272342D01*
X160321476Y-64272342D02*
X160273857Y-64367580D01*
X160273857Y-64367580D02*
X160226238Y-64415200D01*
X160226238Y-64415200D02*
X160131000Y-64462819D01*
X160131000Y-64462819D02*
X159845286Y-64462819D01*
X159845286Y-64462819D02*
X159750048Y-64415200D01*
X159750048Y-64415200D02*
X159702429Y-64367580D01*
X159067523Y-54269819D02*
X158591333Y-54269819D01*
X158591333Y-54269819D02*
X158543714Y-54746009D01*
X158543714Y-54746009D02*
X158591333Y-54698390D01*
X158591333Y-54698390D02*
X158686571Y-54650771D01*
X158686571Y-54650771D02*
X158924666Y-54650771D01*
X158924666Y-54650771D02*
X159019904Y-54698390D01*
X159019904Y-54698390D02*
X159067523Y-54746009D01*
X159067523Y-54746009D02*
X159115142Y-54841247D01*
X159115142Y-54841247D02*
X159115142Y-55079342D01*
X159115142Y-55079342D02*
X159067523Y-55174580D01*
X159067523Y-55174580D02*
X159019904Y-55222200D01*
X159019904Y-55222200D02*
X158924666Y-55269819D01*
X158924666Y-55269819D02*
X158686571Y-55269819D01*
X158686571Y-55269819D02*
X158591333Y-55222200D01*
X158591333Y-55222200D02*
X158543714Y-55174580D01*
X159400857Y-54269819D02*
X159734190Y-55269819D01*
X159734190Y-55269819D02*
X160067523Y-54269819D01*
X149098571Y-102531104D02*
X149574761Y-102531104D01*
X149003333Y-102816819D02*
X149336666Y-101816819D01*
X149336666Y-101816819D02*
X149669999Y-102816819D01*
X150574761Y-102816819D02*
X150241428Y-102340628D01*
X150003333Y-102816819D02*
X150003333Y-101816819D01*
X150003333Y-101816819D02*
X150384285Y-101816819D01*
X150384285Y-101816819D02*
X150479523Y-101864438D01*
X150479523Y-101864438D02*
X150527142Y-101912057D01*
X150527142Y-101912057D02*
X150574761Y-102007295D01*
X150574761Y-102007295D02*
X150574761Y-102150152D01*
X150574761Y-102150152D02*
X150527142Y-102245390D01*
X150527142Y-102245390D02*
X150479523Y-102293009D01*
X150479523Y-102293009D02*
X150384285Y-102340628D01*
X150384285Y-102340628D02*
X150003333Y-102340628D01*
X151003333Y-102816819D02*
X151003333Y-101816819D01*
X151003333Y-101816819D02*
X151336666Y-102531104D01*
X151336666Y-102531104D02*
X151669999Y-101816819D01*
X151669999Y-101816819D02*
X151669999Y-102816819D01*
X152860476Y-102769200D02*
X153003333Y-102816819D01*
X153003333Y-102816819D02*
X153241428Y-102816819D01*
X153241428Y-102816819D02*
X153336666Y-102769200D01*
X153336666Y-102769200D02*
X153384285Y-102721580D01*
X153384285Y-102721580D02*
X153431904Y-102626342D01*
X153431904Y-102626342D02*
X153431904Y-102531104D01*
X153431904Y-102531104D02*
X153384285Y-102435866D01*
X153384285Y-102435866D02*
X153336666Y-102388247D01*
X153336666Y-102388247D02*
X153241428Y-102340628D01*
X153241428Y-102340628D02*
X153050952Y-102293009D01*
X153050952Y-102293009D02*
X152955714Y-102245390D01*
X152955714Y-102245390D02*
X152908095Y-102197771D01*
X152908095Y-102197771D02*
X152860476Y-102102533D01*
X152860476Y-102102533D02*
X152860476Y-102007295D01*
X152860476Y-102007295D02*
X152908095Y-101912057D01*
X152908095Y-101912057D02*
X152955714Y-101864438D01*
X152955714Y-101864438D02*
X153050952Y-101816819D01*
X153050952Y-101816819D02*
X153289047Y-101816819D01*
X153289047Y-101816819D02*
X153431904Y-101864438D01*
X153765238Y-101816819D02*
X154003333Y-102816819D01*
X154003333Y-102816819D02*
X154193809Y-102102533D01*
X154193809Y-102102533D02*
X154384285Y-102816819D01*
X154384285Y-102816819D02*
X154622381Y-101816819D01*
X155003333Y-102816819D02*
X155003333Y-101816819D01*
X155003333Y-101816819D02*
X155241428Y-101816819D01*
X155241428Y-101816819D02*
X155384285Y-101864438D01*
X155384285Y-101864438D02*
X155479523Y-101959676D01*
X155479523Y-101959676D02*
X155527142Y-102054914D01*
X155527142Y-102054914D02*
X155574761Y-102245390D01*
X155574761Y-102245390D02*
X155574761Y-102388247D01*
X155574761Y-102388247D02*
X155527142Y-102578723D01*
X155527142Y-102578723D02*
X155479523Y-102673961D01*
X155479523Y-102673961D02*
X155384285Y-102769200D01*
X155384285Y-102769200D02*
X155241428Y-102816819D01*
X155241428Y-102816819D02*
X155003333Y-102816819D01*
X157289047Y-102816819D02*
X156717619Y-102816819D01*
X157003333Y-102816819D02*
X157003333Y-101816819D01*
X157003333Y-101816819D02*
X156908095Y-101959676D01*
X156908095Y-101959676D02*
X156812857Y-102054914D01*
X156812857Y-102054914D02*
X156717619Y-102102533D01*
X157908095Y-101816819D02*
X158003333Y-101816819D01*
X158003333Y-101816819D02*
X158098571Y-101864438D01*
X158098571Y-101864438D02*
X158146190Y-101912057D01*
X158146190Y-101912057D02*
X158193809Y-102007295D01*
X158193809Y-102007295D02*
X158241428Y-102197771D01*
X158241428Y-102197771D02*
X158241428Y-102435866D01*
X158241428Y-102435866D02*
X158193809Y-102626342D01*
X158193809Y-102626342D02*
X158146190Y-102721580D01*
X158146190Y-102721580D02*
X158098571Y-102769200D01*
X158098571Y-102769200D02*
X158003333Y-102816819D01*
X158003333Y-102816819D02*
X157908095Y-102816819D01*
X157908095Y-102816819D02*
X157812857Y-102769200D01*
X157812857Y-102769200D02*
X157765238Y-102721580D01*
X157765238Y-102721580D02*
X157717619Y-102626342D01*
X157717619Y-102626342D02*
X157670000Y-102435866D01*
X157670000Y-102435866D02*
X157670000Y-102197771D01*
X157670000Y-102197771D02*
X157717619Y-102007295D01*
X157717619Y-102007295D02*
X157765238Y-101912057D01*
X157765238Y-101912057D02*
X157812857Y-101864438D01*
X157812857Y-101864438D02*
X157908095Y-101816819D01*
X150526905Y-63462819D02*
X151145952Y-63462819D01*
X151145952Y-63462819D02*
X150812619Y-63843771D01*
X150812619Y-63843771D02*
X150955476Y-63843771D01*
X150955476Y-63843771D02*
X151050714Y-63891390D01*
X151050714Y-63891390D02*
X151098333Y-63939009D01*
X151098333Y-63939009D02*
X151145952Y-64034247D01*
X151145952Y-64034247D02*
X151145952Y-64272342D01*
X151145952Y-64272342D02*
X151098333Y-64367580D01*
X151098333Y-64367580D02*
X151050714Y-64415200D01*
X151050714Y-64415200D02*
X150955476Y-64462819D01*
X150955476Y-64462819D02*
X150669762Y-64462819D01*
X150669762Y-64462819D02*
X150574524Y-64415200D01*
X150574524Y-64415200D02*
X150526905Y-64367580D01*
X151431667Y-63462819D02*
X151765000Y-64462819D01*
X151765000Y-64462819D02*
X152098333Y-63462819D01*
X152336429Y-63462819D02*
X152955476Y-63462819D01*
X152955476Y-63462819D02*
X152622143Y-63843771D01*
X152622143Y-63843771D02*
X152765000Y-63843771D01*
X152765000Y-63843771D02*
X152860238Y-63891390D01*
X152860238Y-63891390D02*
X152907857Y-63939009D01*
X152907857Y-63939009D02*
X152955476Y-64034247D01*
X152955476Y-64034247D02*
X152955476Y-64272342D01*
X152955476Y-64272342D02*
X152907857Y-64367580D01*
X152907857Y-64367580D02*
X152860238Y-64415200D01*
X152860238Y-64415200D02*
X152765000Y-64462819D01*
X152765000Y-64462819D02*
X152479286Y-64462819D01*
X152479286Y-64462819D02*
X152384048Y-64415200D01*
X152384048Y-64415200D02*
X152336429Y-64367580D01*
X151193523Y-54269819D02*
X150717333Y-54269819D01*
X150717333Y-54269819D02*
X150669714Y-54746009D01*
X150669714Y-54746009D02*
X150717333Y-54698390D01*
X150717333Y-54698390D02*
X150812571Y-54650771D01*
X150812571Y-54650771D02*
X151050666Y-54650771D01*
X151050666Y-54650771D02*
X151145904Y-54698390D01*
X151145904Y-54698390D02*
X151193523Y-54746009D01*
X151193523Y-54746009D02*
X151241142Y-54841247D01*
X151241142Y-54841247D02*
X151241142Y-55079342D01*
X151241142Y-55079342D02*
X151193523Y-55174580D01*
X151193523Y-55174580D02*
X151145904Y-55222200D01*
X151145904Y-55222200D02*
X151050666Y-55269819D01*
X151050666Y-55269819D02*
X150812571Y-55269819D01*
X150812571Y-55269819D02*
X150717333Y-55222200D01*
X150717333Y-55222200D02*
X150669714Y-55174580D01*
X151526857Y-54269819D02*
X151860190Y-55269819D01*
X151860190Y-55269819D02*
X152193523Y-54269819D01*
X153288481Y-87598706D02*
X153288481Y-88408229D01*
X153288481Y-88408229D02*
X153336100Y-88503467D01*
X153336100Y-88503467D02*
X153383719Y-88551087D01*
X153383719Y-88551087D02*
X153478957Y-88598706D01*
X153478957Y-88598706D02*
X153669433Y-88598706D01*
X153669433Y-88598706D02*
X153764671Y-88551087D01*
X153764671Y-88551087D02*
X153812290Y-88503467D01*
X153812290Y-88503467D02*
X153859909Y-88408229D01*
X153859909Y-88408229D02*
X153859909Y-87598706D01*
X154859909Y-88598706D02*
X154288481Y-88598706D01*
X154574195Y-88598706D02*
X154574195Y-87598706D01*
X154574195Y-87598706D02*
X154478957Y-87741563D01*
X154478957Y-87741563D02*
X154383719Y-87836801D01*
X154383719Y-87836801D02*
X154288481Y-87884420D01*
X197064571Y-110750819D02*
X197064571Y-111560342D01*
X197064571Y-111560342D02*
X197112190Y-111655580D01*
X197112190Y-111655580D02*
X197159809Y-111703200D01*
X197159809Y-111703200D02*
X197255047Y-111750819D01*
X197255047Y-111750819D02*
X197445523Y-111750819D01*
X197445523Y-111750819D02*
X197540761Y-111703200D01*
X197540761Y-111703200D02*
X197588380Y-111655580D01*
X197588380Y-111655580D02*
X197635999Y-111560342D01*
X197635999Y-111560342D02*
X197635999Y-110750819D01*
X198064571Y-111703200D02*
X198207428Y-111750819D01*
X198207428Y-111750819D02*
X198445523Y-111750819D01*
X198445523Y-111750819D02*
X198540761Y-111703200D01*
X198540761Y-111703200D02*
X198588380Y-111655580D01*
X198588380Y-111655580D02*
X198635999Y-111560342D01*
X198635999Y-111560342D02*
X198635999Y-111465104D01*
X198635999Y-111465104D02*
X198588380Y-111369866D01*
X198588380Y-111369866D02*
X198540761Y-111322247D01*
X198540761Y-111322247D02*
X198445523Y-111274628D01*
X198445523Y-111274628D02*
X198255047Y-111227009D01*
X198255047Y-111227009D02*
X198159809Y-111179390D01*
X198159809Y-111179390D02*
X198112190Y-111131771D01*
X198112190Y-111131771D02*
X198064571Y-111036533D01*
X198064571Y-111036533D02*
X198064571Y-110941295D01*
X198064571Y-110941295D02*
X198112190Y-110846057D01*
X198112190Y-110846057D02*
X198159809Y-110798438D01*
X198159809Y-110798438D02*
X198255047Y-110750819D01*
X198255047Y-110750819D02*
X198493142Y-110750819D01*
X198493142Y-110750819D02*
X198635999Y-110798438D01*
X199016952Y-111465104D02*
X199493142Y-111465104D01*
X198921714Y-111750819D02*
X199255047Y-110750819D01*
X199255047Y-110750819D02*
X199588380Y-111750819D01*
X200493142Y-111750819D02*
X200159809Y-111274628D01*
X199921714Y-111750819D02*
X199921714Y-110750819D01*
X199921714Y-110750819D02*
X200302666Y-110750819D01*
X200302666Y-110750819D02*
X200397904Y-110798438D01*
X200397904Y-110798438D02*
X200445523Y-110846057D01*
X200445523Y-110846057D02*
X200493142Y-110941295D01*
X200493142Y-110941295D02*
X200493142Y-111084152D01*
X200493142Y-111084152D02*
X200445523Y-111179390D01*
X200445523Y-111179390D02*
X200397904Y-111227009D01*
X200397904Y-111227009D02*
X200302666Y-111274628D01*
X200302666Y-111274628D02*
X199921714Y-111274628D01*
X200778857Y-110750819D02*
X201350285Y-110750819D01*
X201064571Y-111750819D02*
X201064571Y-110750819D01*
X181372000Y-103642438D02*
X181276762Y-103594819D01*
X181276762Y-103594819D02*
X181133905Y-103594819D01*
X181133905Y-103594819D02*
X180991048Y-103642438D01*
X180991048Y-103642438D02*
X180895810Y-103737676D01*
X180895810Y-103737676D02*
X180848191Y-103832914D01*
X180848191Y-103832914D02*
X180800572Y-104023390D01*
X180800572Y-104023390D02*
X180800572Y-104166247D01*
X180800572Y-104166247D02*
X180848191Y-104356723D01*
X180848191Y-104356723D02*
X180895810Y-104451961D01*
X180895810Y-104451961D02*
X180991048Y-104547200D01*
X180991048Y-104547200D02*
X181133905Y-104594819D01*
X181133905Y-104594819D02*
X181229143Y-104594819D01*
X181229143Y-104594819D02*
X181372000Y-104547200D01*
X181372000Y-104547200D02*
X181419619Y-104499580D01*
X181419619Y-104499580D02*
X181419619Y-104166247D01*
X181419619Y-104166247D02*
X181229143Y-104166247D01*
X181848191Y-104594819D02*
X181848191Y-103594819D01*
X181848191Y-103594819D02*
X182229143Y-103594819D01*
X182229143Y-103594819D02*
X182324381Y-103642438D01*
X182324381Y-103642438D02*
X182372000Y-103690057D01*
X182372000Y-103690057D02*
X182419619Y-103785295D01*
X182419619Y-103785295D02*
X182419619Y-103928152D01*
X182419619Y-103928152D02*
X182372000Y-104023390D01*
X182372000Y-104023390D02*
X182324381Y-104071009D01*
X182324381Y-104071009D02*
X182229143Y-104118628D01*
X182229143Y-104118628D02*
X181848191Y-104118628D01*
X182848191Y-104594819D02*
X182848191Y-103594819D01*
X183514857Y-103594819D02*
X183705333Y-103594819D01*
X183705333Y-103594819D02*
X183800571Y-103642438D01*
X183800571Y-103642438D02*
X183895809Y-103737676D01*
X183895809Y-103737676D02*
X183943428Y-103928152D01*
X183943428Y-103928152D02*
X183943428Y-104261485D01*
X183943428Y-104261485D02*
X183895809Y-104451961D01*
X183895809Y-104451961D02*
X183800571Y-104547200D01*
X183800571Y-104547200D02*
X183705333Y-104594819D01*
X183705333Y-104594819D02*
X183514857Y-104594819D01*
X183514857Y-104594819D02*
X183419619Y-104547200D01*
X183419619Y-104547200D02*
X183324381Y-104451961D01*
X183324381Y-104451961D02*
X183276762Y-104261485D01*
X183276762Y-104261485D02*
X183276762Y-103928152D01*
X183276762Y-103928152D02*
X183324381Y-103737676D01*
X183324381Y-103737676D02*
X183419619Y-103642438D01*
X183419619Y-103642438D02*
X183514857Y-103594819D01*
X161322380Y-103817009D02*
X160989047Y-103817009D01*
X160989047Y-104340819D02*
X160989047Y-103340819D01*
X160989047Y-103340819D02*
X161465237Y-103340819D01*
X161846190Y-104340819D02*
X161846190Y-103340819D01*
X162798570Y-104340819D02*
X162322380Y-104340819D01*
X162322380Y-104340819D02*
X162322380Y-103340819D01*
X162989047Y-103340819D02*
X163560475Y-103340819D01*
X163274761Y-104340819D02*
X163274761Y-103340819D01*
X163893809Y-103817009D02*
X164227142Y-103817009D01*
X164369999Y-104340819D02*
X163893809Y-104340819D01*
X163893809Y-104340819D02*
X163893809Y-103340819D01*
X163893809Y-103340819D02*
X164369999Y-103340819D01*
X165369999Y-104340819D02*
X165036666Y-103864628D01*
X164798571Y-104340819D02*
X164798571Y-103340819D01*
X164798571Y-103340819D02*
X165179523Y-103340819D01*
X165179523Y-103340819D02*
X165274761Y-103388438D01*
X165274761Y-103388438D02*
X165322380Y-103436057D01*
X165322380Y-103436057D02*
X165369999Y-103531295D01*
X165369999Y-103531295D02*
X165369999Y-103674152D01*
X165369999Y-103674152D02*
X165322380Y-103769390D01*
X165322380Y-103769390D02*
X165274761Y-103817009D01*
X165274761Y-103817009D02*
X165179523Y-103864628D01*
X165179523Y-103864628D02*
X164798571Y-103864628D01*
X166750952Y-103340819D02*
X166941428Y-103340819D01*
X166941428Y-103340819D02*
X167036666Y-103388438D01*
X167036666Y-103388438D02*
X167131904Y-103483676D01*
X167131904Y-103483676D02*
X167179523Y-103674152D01*
X167179523Y-103674152D02*
X167179523Y-104007485D01*
X167179523Y-104007485D02*
X167131904Y-104197961D01*
X167131904Y-104197961D02*
X167036666Y-104293200D01*
X167036666Y-104293200D02*
X166941428Y-104340819D01*
X166941428Y-104340819D02*
X166750952Y-104340819D01*
X166750952Y-104340819D02*
X166655714Y-104293200D01*
X166655714Y-104293200D02*
X166560476Y-104197961D01*
X166560476Y-104197961D02*
X166512857Y-104007485D01*
X166512857Y-104007485D02*
X166512857Y-103674152D01*
X166512857Y-103674152D02*
X166560476Y-103483676D01*
X166560476Y-103483676D02*
X166655714Y-103388438D01*
X166655714Y-103388438D02*
X166750952Y-103340819D01*
X167608095Y-103340819D02*
X167608095Y-104150342D01*
X167608095Y-104150342D02*
X167655714Y-104245580D01*
X167655714Y-104245580D02*
X167703333Y-104293200D01*
X167703333Y-104293200D02*
X167798571Y-104340819D01*
X167798571Y-104340819D02*
X167989047Y-104340819D01*
X167989047Y-104340819D02*
X168084285Y-104293200D01*
X168084285Y-104293200D02*
X168131904Y-104245580D01*
X168131904Y-104245580D02*
X168179523Y-104150342D01*
X168179523Y-104150342D02*
X168179523Y-103340819D01*
X168512857Y-103340819D02*
X169084285Y-103340819D01*
X168798571Y-104340819D02*
X168798571Y-103340819D01*
X169417619Y-104340819D02*
X169417619Y-103340819D01*
X169417619Y-103340819D02*
X169798571Y-103340819D01*
X169798571Y-103340819D02*
X169893809Y-103388438D01*
X169893809Y-103388438D02*
X169941428Y-103436057D01*
X169941428Y-103436057D02*
X169989047Y-103531295D01*
X169989047Y-103531295D02*
X169989047Y-103674152D01*
X169989047Y-103674152D02*
X169941428Y-103769390D01*
X169941428Y-103769390D02*
X169893809Y-103817009D01*
X169893809Y-103817009D02*
X169798571Y-103864628D01*
X169798571Y-103864628D02*
X169417619Y-103864628D01*
X170417619Y-103340819D02*
X170417619Y-104150342D01*
X170417619Y-104150342D02*
X170465238Y-104245580D01*
X170465238Y-104245580D02*
X170512857Y-104293200D01*
X170512857Y-104293200D02*
X170608095Y-104340819D01*
X170608095Y-104340819D02*
X170798571Y-104340819D01*
X170798571Y-104340819D02*
X170893809Y-104293200D01*
X170893809Y-104293200D02*
X170941428Y-104245580D01*
X170941428Y-104245580D02*
X170989047Y-104150342D01*
X170989047Y-104150342D02*
X170989047Y-103340819D01*
X171322381Y-103340819D02*
X171893809Y-103340819D01*
X171608095Y-104340819D02*
X171608095Y-103340819D01*
X183642095Y-51016819D02*
X183642095Y-51826342D01*
X183642095Y-51826342D02*
X183689714Y-51921580D01*
X183689714Y-51921580D02*
X183737333Y-51969200D01*
X183737333Y-51969200D02*
X183832571Y-52016819D01*
X183832571Y-52016819D02*
X184023047Y-52016819D01*
X184023047Y-52016819D02*
X184118285Y-51969200D01*
X184118285Y-51969200D02*
X184165904Y-51921580D01*
X184165904Y-51921580D02*
X184213523Y-51826342D01*
X184213523Y-51826342D02*
X184213523Y-51016819D01*
X184642095Y-51112057D02*
X184689714Y-51064438D01*
X184689714Y-51064438D02*
X184784952Y-51016819D01*
X184784952Y-51016819D02*
X185023047Y-51016819D01*
X185023047Y-51016819D02*
X185118285Y-51064438D01*
X185118285Y-51064438D02*
X185165904Y-51112057D01*
X185165904Y-51112057D02*
X185213523Y-51207295D01*
X185213523Y-51207295D02*
X185213523Y-51302533D01*
X185213523Y-51302533D02*
X185165904Y-51445390D01*
X185165904Y-51445390D02*
X184594476Y-52016819D01*
X184594476Y-52016819D02*
X185213523Y-52016819D01*
D14*
%TO.C,3V3*%
X157801000Y-65218000D02*
X159131000Y-65218000D01*
X157801000Y-66548000D02*
X157801000Y-65218000D01*
X157801000Y-67818000D02*
X157801000Y-70418000D01*
X157801000Y-67818000D02*
X160461000Y-67818000D01*
X157801000Y-70418000D02*
X160461000Y-70418000D01*
X160461000Y-67818000D02*
X160461000Y-70418000D01*
%TO.C,5V*%
X157928000Y-55815000D02*
X159258000Y-55815000D01*
X157928000Y-57145000D02*
X157928000Y-55815000D01*
X157928000Y-58415000D02*
X157928000Y-61015000D01*
X157928000Y-58415000D02*
X160588000Y-58415000D01*
X157928000Y-61015000D02*
X160588000Y-61015000D01*
X160588000Y-58415000D02*
X160588000Y-61015000D01*
D10*
%TO.C,ARM SWD 10*%
X150410000Y-105473000D02*
X150410000Y-105473000D01*
X150410000Y-108903000D02*
X150410000Y-105473000D01*
X150410000Y-108903000D02*
X150410000Y-108903000D01*
X156930000Y-105473000D02*
X156930000Y-105473000D01*
X156930000Y-105473000D02*
X156930000Y-108903000D01*
X156930000Y-108903000D02*
X156930000Y-108903000D01*
X149945000Y-109223000D02*
G75*
G02*
X149745000Y-109223000I-100000J0D01*
G01*
X149745000Y-109223000D02*
G75*
G02*
X149945000Y-109223000I100000J0D01*
G01*
D14*
%TO.C,3V3*%
X150435000Y-65218000D02*
X151765000Y-65218000D01*
X150435000Y-66548000D02*
X150435000Y-65218000D01*
X150435000Y-67818000D02*
X150435000Y-70418000D01*
X150435000Y-67818000D02*
X153095000Y-67818000D01*
X150435000Y-70418000D02*
X153095000Y-70418000D01*
X153095000Y-67818000D02*
X153095000Y-70418000D01*
%TO.C,5V*%
X150308000Y-55815000D02*
X151638000Y-55815000D01*
X150308000Y-57145000D02*
X150308000Y-55815000D01*
X150308000Y-58415000D02*
X150308000Y-61015000D01*
X150308000Y-58415000D02*
X152968000Y-58415000D01*
X150308000Y-61015000D02*
X152968000Y-61015000D01*
X152968000Y-58415000D02*
X152968000Y-61015000D01*
D15*
%TO.C,U1*%
X148399500Y-98333669D02*
X148399500Y-78064529D01*
X149749528Y-76714500D02*
X196981337Y-76714500D01*
X197071090Y-99701500D02*
X149767331Y-99701500D01*
X198374000Y-78107163D02*
X198374000Y-98398591D01*
X148399500Y-78064529D02*
G75*
G02*
X149749527Y-76714500I1349966J63D01*
G01*
X149767331Y-99701500D02*
G75*
G02*
X148399500Y-98333669I57J1367888D01*
G01*
X196981337Y-76714500D02*
G75*
G02*
X198373973Y-78107163I49J-1392587D01*
G01*
X198374000Y-98398591D02*
G75*
G02*
X197071089Y-99701501I-1302864J-46D01*
G01*
D14*
%TO.C,USART*%
X197806000Y-107696000D02*
X197806000Y-105096000D01*
X200466000Y-105096000D02*
X197806000Y-105096000D01*
X200466000Y-107696000D02*
X197806000Y-107696000D01*
X200466000Y-107696000D02*
X200466000Y-105096000D01*
X200466000Y-108966000D02*
X200466000Y-110296000D01*
X200466000Y-110296000D02*
X199136000Y-110296000D01*
%TO.C,GPIO*%
X172152000Y-108772000D02*
X172152000Y-107442000D01*
X173482000Y-108772000D02*
X172152000Y-108772000D01*
X174752000Y-106112000D02*
X192592000Y-106112000D01*
X174752000Y-108772000D02*
X174752000Y-106112000D01*
X174752000Y-108772000D02*
X192592000Y-108772000D01*
X192592000Y-108772000D02*
X192592000Y-106112000D01*
%TO.C,FILTER OUTPUT*%
X163267000Y-105858000D02*
X163267000Y-108518000D01*
X165867000Y-105858000D02*
X163267000Y-105858000D01*
X165867000Y-105858000D02*
X165867000Y-108518000D01*
X165867000Y-108518000D02*
X163267000Y-108518000D01*
X167137000Y-105858000D02*
X168467000Y-105858000D01*
X168467000Y-105858000D02*
X168467000Y-107188000D01*
%TO.C,U2*%
X196850000Y-46990000D02*
X171704000Y-46990000D01*
X171704000Y-72390000D01*
X196850000Y-72390000D01*
X196850000Y-46990000D01*
%TD*%
M02*
