%TF.GenerationSoftware,KiCad,Pcbnew,8.0.5*%
%TF.CreationDate,2024-11-18T16:18:54-05:00*%
%TF.ProjectId,CapstoneMCU,43617073-746f-46e6-954d-43552e6b6963,rev?*%
%TF.SameCoordinates,Original*%
%TF.FileFunction,Copper,L4,Bot*%
%TF.FilePolarity,Positive*%
%FSLAX46Y46*%
G04 Gerber Fmt 4.6, Leading zero omitted, Abs format (unit mm)*
G04 Created by KiCad (PCBNEW 8.0.5) date 2024-11-18 16:18:54*
%MOMM*%
%LPD*%
G01*
G04 APERTURE LIST*
%TA.AperFunction,ComponentPad*%
%ADD10R,1.700000X1.700000*%
%TD*%
%TA.AperFunction,ComponentPad*%
%ADD11O,1.700000X1.700000*%
%TD*%
%TA.AperFunction,ComponentPad*%
%ADD12C,3.500000*%
%TD*%
%TA.AperFunction,ComponentPad*%
%ADD13C,1.651000*%
%TD*%
%TA.AperFunction,ComponentPad*%
%ADD14C,1.600000*%
%TD*%
%TA.AperFunction,ViaPad*%
%ADD15C,0.600000*%
%TD*%
%TA.AperFunction,Conductor*%
%ADD16C,1.000000*%
%TD*%
%TA.AperFunction,Conductor*%
%ADD17C,0.600000*%
%TD*%
%TA.AperFunction,Conductor*%
%ADD18C,0.250000*%
%TD*%
G04 APERTURE END LIST*
D10*
%TO.P,3V3,1,Pin_1*%
%TO.N,/3V3*%
X159131000Y-66548000D03*
D11*
%TO.P,3V3,2,Pin_2*%
%TO.N,/GND*%
X159131000Y-69088000D03*
%TD*%
D10*
%TO.P,5V,1,Pin_1*%
%TO.N,/5V*%
X159258000Y-57145000D03*
D11*
%TO.P,5V,2,Pin_2*%
%TO.N,/GND*%
X159258000Y-59685000D03*
%TD*%
D12*
%TO.P,REF\u002A\u002A,1*%
%TO.N,/GND*%
X160528000Y-111506000D03*
%TD*%
%TO.P,REF\u002A\u002A,1*%
%TO.N,/GND*%
X147574000Y-46482000D03*
%TD*%
%TO.P,REF\u002A\u002A,1*%
%TO.N,/GND*%
X199136000Y-46482000D03*
%TD*%
D10*
%TO.P,3V3,1,Pin_1*%
%TO.N,/3V3*%
X151765000Y-66548000D03*
D11*
%TO.P,3V3,2,Pin_2*%
%TO.N,/GND*%
X151765000Y-69088000D03*
%TD*%
D10*
%TO.P,5V,1,Pin_1*%
%TO.N,/5V*%
X151638000Y-57145000D03*
D11*
%TO.P,5V,2,Pin_2*%
%TO.N,/GND*%
X151638000Y-59685000D03*
%TD*%
D13*
%TO.P,U1,1,GND*%
%TO.N,/GND*%
X164592000Y-97028000D03*
%TO.P,U1,2,PB15*%
%TO.N,/PB15{slash}SCL*%
X167132000Y-97028000D03*
%TO.P,U1,3,PA15*%
%TO.N,/PA15{slash}SDA*%
X169672000Y-97028000D03*
%TO.P,U1,4,A4*%
%TO.N,/PB4{slash}A4*%
X172212000Y-97028000D03*
%TO.P,U1,5,PB3*%
%TO.N,/PB3{slash}A3*%
X174752000Y-97028000D03*
%TO.P,U1,6,UART_RX*%
%TO.N,unconnected-(U1-PB7-Pad6)*%
X177292000Y-97028000D03*
%TO.P,U1,7,UART_TX*%
%TO.N,unconnected-(U1-PB6-Pad7)*%
X179832000Y-97028000D03*
%TO.P,U1,8,PA0*%
%TO.N,/PA0*%
X182372000Y-97028000D03*
%TO.P,U1,9,PC0*%
%TO.N,/PC0*%
X184912000Y-97028000D03*
%TO.P,U1,10,PC1*%
%TO.N,/PC1*%
X187452000Y-97028000D03*
%TO.P,U1,11,USART_RX*%
%TO.N,/USART_RX*%
X189992000Y-97028000D03*
%TO.P,U1,12,USART_TX*%
%TO.N,/USART_TX*%
X192532000Y-97028000D03*
%TO.P,U1,13,5V*%
%TO.N,unconnected-(U1-5V-Pad13)*%
X164592000Y-79248000D03*
%TO.P,U1,14,3V3*%
%TO.N,/VCC_JTAG*%
X167132000Y-79248000D03*
%TO.P,U1,15,SWDIO*%
%TO.N,/SWDIO*%
X169672000Y-79248000D03*
%TO.P,U1,16,SWCLK*%
%TO.N,/SWCLK*%
X172212000Y-79248000D03*
%TO.P,U1,17,RST*%
%TO.N,unconnected-(U1-RST-Pad17)*%
X174752000Y-79248000D03*
%TO.P,U1,18,GND*%
%TO.N,/GND*%
X177292000Y-79248000D03*
%TO.P,U1,19,MOSI*%
%TO.N,/MOSI*%
X179832000Y-79248000D03*
%TO.P,U1,20,MISO*%
%TO.N,/MISO*%
X182372000Y-79248000D03*
%TO.P,U1,21,NSS*%
%TO.N,/NSS*%
X184912000Y-79248000D03*
%TO.P,U1,22,SCK*%
%TO.N,/SCK*%
X187452000Y-79248000D03*
%TO.P,U1,23,PB10*%
%TO.N,/PB10*%
X189992000Y-79248000D03*
%TO.P,U1,24,PA9*%
%TO.N,/PA9*%
X192532000Y-79248000D03*
%TD*%
D12*
%TO.P,REF\u002A\u002A,1*%
%TO.N,/GND*%
X193802000Y-111506000D03*
%TD*%
D10*
%TO.P,USART,1,Pin_1*%
%TO.N,/USART_RX*%
X199136000Y-108966000D03*
D11*
%TO.P,USART,2,Pin_2*%
%TO.N,/USART_TX*%
X199136000Y-106426000D03*
%TD*%
D10*
%TO.P,GPIO,1,Pin_1*%
%TO.N,/PB15{slash}SCL*%
X173482000Y-107442000D03*
D11*
%TO.P,GPIO,2,Pin_2*%
%TO.N,/PA15{slash}SDA*%
X176022000Y-107442000D03*
%TO.P,GPIO,3,Pin_3*%
%TO.N,/PB3{slash}A3*%
X178562000Y-107442000D03*
%TO.P,GPIO,4,Pin_4*%
%TO.N,/PA0*%
X181102000Y-107442000D03*
%TO.P,GPIO,5,Pin_5*%
%TO.N,/PC0*%
X183642000Y-107442000D03*
%TO.P,GPIO,6,Pin_6*%
%TO.N,/PC1*%
X186182000Y-107442000D03*
%TO.P,GPIO,7,Pin_7*%
%TO.N,/PB10*%
X188722000Y-107442000D03*
%TO.P,GPIO,8,Pin_8*%
%TO.N,/PA9*%
X191262000Y-107442000D03*
%TD*%
D10*
%TO.P,FILTER OUTPUT,1,Pin_1*%
%TO.N,/PB4{slash}A4*%
X167137000Y-107188000D03*
D11*
%TO.P,FILTER OUTPUT,2,Pin_2*%
%TO.N,/GND*%
X164597000Y-107188000D03*
%TD*%
D14*
%TO.P,U2,1,3V*%
%TO.N,/3V3*%
X174752000Y-49784000D03*
%TO.P,U2,2,GND*%
%TO.N,/GND*%
X174752000Y-52324000D03*
%TO.P,U2,3,CLK*%
%TO.N,/SCK*%
X174752000Y-54864000D03*
%TO.P,U2,4,SO*%
%TO.N,/MISO*%
X174752000Y-57404000D03*
%TO.P,U2,5,SI*%
%TO.N,/MOSI*%
X174752000Y-59944000D03*
%TO.P,U2,6,CS*%
%TO.N,/NSS*%
X174752000Y-62484000D03*
%TO.P,U2,7,D1*%
%TO.N,unconnected-(U2-D1-Pad7)*%
X174752000Y-65024000D03*
%TO.P,U2,8,DATA2*%
%TO.N,unconnected-(U2-DATA2-Pad8)*%
X174752000Y-67564000D03*
%TO.P,U2,9,DET*%
%TO.N,unconnected-(U2-DET-Pad9)*%
X174752000Y-70104000D03*
%TD*%
D15*
%TO.N,/GND*%
X154686000Y-112014000D03*
%TO.N,/VCC_JTAG*%
X148082000Y-106426000D03*
%TD*%
D16*
%TO.N,/GND*%
X151638000Y-59685000D02*
X159258000Y-59685000D01*
X151765000Y-69088000D02*
X159131000Y-69088000D01*
D17*
%TO.N,/VCC_JTAG*%
X148082000Y-98298000D02*
X167132000Y-79248000D01*
X148082000Y-106426000D02*
X148082000Y-98298000D01*
D16*
%TO.N,/3V3*%
X159131000Y-65405000D02*
X159131000Y-66548000D01*
X151765000Y-66548000D02*
X159131000Y-66548000D01*
X174752000Y-49784000D02*
X159131000Y-65405000D01*
D18*
%TO.N,/USART_TX*%
X192532000Y-97028000D02*
X199136000Y-103632000D01*
X199136000Y-103632000D02*
X199136000Y-106426000D01*
%TO.N,/USART_RX*%
X196596000Y-106426000D02*
X199136000Y-108966000D01*
X196596000Y-103632000D02*
X196596000Y-106426000D01*
X189992000Y-97028000D02*
X196596000Y-103632000D01*
D16*
%TO.N,/5V*%
X151638000Y-57145000D02*
X159258000Y-57145000D01*
D18*
%TO.N,/PA15{slash}SDA*%
X169672000Y-101092000D02*
X176022000Y-107442000D01*
X169672000Y-97028000D02*
X169672000Y-101092000D01*
%TO.N,/PB15{slash}SCL*%
X167132000Y-97028000D02*
X167132000Y-101092000D01*
X167132000Y-101092000D02*
X173482000Y-107442000D01*
%TO.N,/NSS*%
X184912000Y-79248000D02*
X184912000Y-72644000D01*
X184912000Y-72644000D02*
X174752000Y-62484000D01*
%TD*%
%TA.AperFunction,Conductor*%
%TO.N,/GND*%
G36*
X158805044Y-68306341D02*
G01*
X158809430Y-68311634D01*
X159130134Y-69083511D01*
X159130143Y-69092466D01*
X159130134Y-69092489D01*
X158809430Y-69864365D01*
X158803091Y-69870690D01*
X158796248Y-69871332D01*
X157440323Y-69589934D01*
X157432918Y-69584897D01*
X157431000Y-69578478D01*
X157431000Y-68597521D01*
X157434427Y-68589248D01*
X157440322Y-68586065D01*
X158796249Y-68304667D01*
X158805044Y-68306341D01*
G37*
%TD.AperFunction*%
%TD*%
%TA.AperFunction,Conductor*%
%TO.N,/USART_TX*%
G36*
X199261912Y-104729427D02*
G01*
X199264186Y-104732634D01*
X199915950Y-106089586D01*
X199916442Y-106098528D01*
X199910469Y-106105199D01*
X199909892Y-106105457D01*
X199140489Y-106425134D01*
X199131534Y-106425143D01*
X199131511Y-106425134D01*
X198362107Y-106105457D01*
X198355782Y-106099118D01*
X198355791Y-106090163D01*
X198356049Y-106089586D01*
X199007814Y-104732634D01*
X199014485Y-104726661D01*
X199018361Y-104726000D01*
X199253639Y-104726000D01*
X199261912Y-104729427D01*
G37*
%TD.AperFunction*%
%TD*%
%TA.AperFunction,Conductor*%
%TO.N,/5V*%
G36*
X158409747Y-56297986D02*
G01*
X158413513Y-56300506D01*
X158755424Y-56642016D01*
X159250712Y-57136722D01*
X159254144Y-57144993D01*
X159250722Y-57153268D01*
X159250712Y-57153278D01*
X158413515Y-57989491D01*
X158405240Y-57992913D01*
X158400792Y-57992032D01*
X157565245Y-57647983D01*
X157558900Y-57641664D01*
X157558000Y-57637164D01*
X157558000Y-56652835D01*
X157561427Y-56644562D01*
X157565242Y-56642017D01*
X158400794Y-56297967D01*
X158409747Y-56297986D01*
G37*
%TD.AperFunction*%
%TD*%
%TA.AperFunction,Conductor*%
%TO.N,/GND*%
G36*
X153455677Y-68586065D02*
G01*
X153463082Y-68591102D01*
X153465000Y-68597521D01*
X153465000Y-69578478D01*
X153461573Y-69586751D01*
X153455677Y-69589934D01*
X152099751Y-69871332D01*
X152090955Y-69869658D01*
X152086569Y-69864365D01*
X151765865Y-69092489D01*
X151765856Y-69083534D01*
X151765865Y-69083511D01*
X152086570Y-68311632D01*
X152092908Y-68305309D01*
X152099749Y-68304667D01*
X153455677Y-68586065D01*
G37*
%TD.AperFunction*%
%TD*%
%TA.AperFunction,Conductor*%
%TO.N,/USART_RX*%
G36*
X190752227Y-96716807D02*
G01*
X190758552Y-96723146D01*
X190758769Y-96723711D01*
X191245361Y-98100089D01*
X191244888Y-98109031D01*
X191242603Y-98112262D01*
X191076262Y-98278603D01*
X191067989Y-98282030D01*
X191064089Y-98281361D01*
X189687711Y-97794769D01*
X189681053Y-97788780D01*
X189680580Y-97779838D01*
X189680784Y-97779306D01*
X189989438Y-97031784D01*
X189995760Y-97025448D01*
X190743275Y-96716797D01*
X190752227Y-96716807D01*
G37*
%TD.AperFunction*%
%TD*%
%TA.AperFunction,Conductor*%
%TO.N,/GND*%
G36*
X158932044Y-58903341D02*
G01*
X158936430Y-58908634D01*
X159257134Y-59680511D01*
X159257143Y-59689466D01*
X159257134Y-59689489D01*
X158936430Y-60461365D01*
X158930091Y-60467690D01*
X158923248Y-60468332D01*
X157567323Y-60186934D01*
X157559918Y-60181897D01*
X157558000Y-60175478D01*
X157558000Y-59194521D01*
X157561427Y-59186248D01*
X157567322Y-59183065D01*
X158923249Y-58901667D01*
X158932044Y-58903341D01*
G37*
%TD.AperFunction*%
%TD*%
%TA.AperFunction,Conductor*%
%TO.N,/3V3*%
G36*
X152622204Y-65700966D02*
G01*
X153457756Y-66045017D01*
X153464100Y-66051335D01*
X153465000Y-66055835D01*
X153465000Y-67040164D01*
X153461573Y-67048437D01*
X153457755Y-67050983D01*
X152622207Y-67395032D01*
X152613252Y-67395013D01*
X152609485Y-67392492D01*
X151772286Y-66556276D01*
X151768855Y-66548007D01*
X151772276Y-66539733D01*
X152609486Y-65703506D01*
X152617759Y-65700086D01*
X152622204Y-65700966D01*
G37*
%TD.AperFunction*%
%TD*%
%TA.AperFunction,Conductor*%
%TO.N,/3V3*%
G36*
X158282747Y-65700986D02*
G01*
X158286513Y-65703506D01*
X158628424Y-66045016D01*
X159123712Y-66539722D01*
X159127144Y-66547993D01*
X159123722Y-66556268D01*
X159123712Y-66556278D01*
X158286515Y-67392491D01*
X158278240Y-67395913D01*
X158273792Y-67395032D01*
X157438245Y-67050983D01*
X157431900Y-67044664D01*
X157431000Y-67040164D01*
X157431000Y-66055835D01*
X157434427Y-66047562D01*
X157438242Y-66045017D01*
X158273794Y-65700967D01*
X158282747Y-65700986D01*
G37*
%TD.AperFunction*%
%TD*%
%TA.AperFunction,Conductor*%
%TO.N,/GND*%
G36*
X153328677Y-59183065D02*
G01*
X153336082Y-59188102D01*
X153338000Y-59194521D01*
X153338000Y-60175478D01*
X153334573Y-60183751D01*
X153328677Y-60186934D01*
X151972751Y-60468332D01*
X151963955Y-60466658D01*
X151959569Y-60461365D01*
X151638865Y-59689489D01*
X151638856Y-59680534D01*
X151638865Y-59680511D01*
X151959570Y-58908632D01*
X151965908Y-58902309D01*
X151972749Y-58901667D01*
X153328677Y-59183065D01*
G37*
%TD.AperFunction*%
%TD*%
%TA.AperFunction,Conductor*%
%TO.N,/3V3*%
G36*
X159179611Y-64666202D02*
G01*
X159181351Y-64667635D01*
X159876356Y-65362640D01*
X159879265Y-65367471D01*
X159978927Y-65691266D01*
X159978086Y-65700181D01*
X159976018Y-65702981D01*
X159139681Y-66539318D01*
X159131408Y-66542745D01*
X159123135Y-66539318D01*
X159122160Y-66538212D01*
X158476236Y-65704682D01*
X158473878Y-65696045D01*
X158475777Y-65690987D01*
X159163372Y-64669374D01*
X159170834Y-64664425D01*
X159179611Y-64666202D01*
G37*
%TD.AperFunction*%
%TD*%
%TA.AperFunction,Conductor*%
%TO.N,/3V3*%
G36*
X174194627Y-49226885D02*
G01*
X174196283Y-49228258D01*
X174752707Y-49783293D01*
X174752727Y-49783313D01*
X175307741Y-50339716D01*
X175311158Y-50347994D01*
X175307721Y-50356262D01*
X175306065Y-50357635D01*
X173982196Y-51263439D01*
X173973433Y-51265283D01*
X173967316Y-51262056D01*
X173273943Y-50568683D01*
X173270516Y-50560410D01*
X173272560Y-50553803D01*
X173406780Y-50357635D01*
X174178366Y-49229932D01*
X174185864Y-49225041D01*
X174194627Y-49226885D01*
G37*
%TD.AperFunction*%
%TD*%
%TA.AperFunction,Conductor*%
%TO.N,/USART_RX*%
G36*
X197780517Y-107429453D02*
G01*
X199477124Y-108111594D01*
X199483521Y-108117859D01*
X199483614Y-108126814D01*
X199483573Y-108126916D01*
X199138562Y-108962215D01*
X199132236Y-108968553D01*
X199132215Y-108968562D01*
X198296916Y-109313573D01*
X198287961Y-109313564D01*
X198281635Y-109307226D01*
X198281594Y-109307124D01*
X198145471Y-108968562D01*
X197599454Y-107610518D01*
X197599547Y-107601565D01*
X197602033Y-107597885D01*
X197767883Y-107432035D01*
X197776155Y-107428609D01*
X197780517Y-107429453D01*
G37*
%TD.AperFunction*%
%TD*%
%TA.AperFunction,Conductor*%
%TO.N,/NSS*%
G36*
X175488698Y-62182554D02*
G01*
X175495023Y-62188893D01*
X175495227Y-62189426D01*
X175863495Y-63223104D01*
X175969275Y-63520012D01*
X175968824Y-63528956D01*
X175966527Y-63532212D01*
X175800212Y-63698527D01*
X175791939Y-63701954D01*
X175788013Y-63701275D01*
X174457430Y-63227228D01*
X174450788Y-63221225D01*
X174450337Y-63212281D01*
X174450536Y-63211760D01*
X174749438Y-62487785D01*
X174755762Y-62481448D01*
X174755764Y-62481446D01*
X175479744Y-62182543D01*
X175488698Y-62182554D01*
G37*
%TD.AperFunction*%
%TD*%
%TA.AperFunction,Conductor*%
%TO.N,/5V*%
G36*
X152495204Y-56297966D02*
G01*
X153330756Y-56642017D01*
X153337100Y-56648335D01*
X153338000Y-56652835D01*
X153338000Y-57637164D01*
X153334573Y-57645437D01*
X153330755Y-57647983D01*
X152495207Y-57992032D01*
X152486252Y-57992013D01*
X152482485Y-57989492D01*
X151645286Y-57153276D01*
X151641855Y-57145007D01*
X151645276Y-57136733D01*
X152482486Y-56300506D01*
X152490759Y-56297086D01*
X152495204Y-56297966D01*
G37*
%TD.AperFunction*%
%TD*%
%TA.AperFunction,Conductor*%
%TO.N,/PA15{slash}SDA*%
G36*
X174915251Y-106153968D02*
G01*
X175397027Y-106323102D01*
X176335629Y-106652611D01*
X176342300Y-106658584D01*
X176342792Y-106667526D01*
X176342567Y-106668116D01*
X176024562Y-107438214D01*
X176018237Y-107444553D01*
X176018214Y-107444562D01*
X175248116Y-107762567D01*
X175239161Y-107762558D01*
X175232836Y-107756219D01*
X175232611Y-107755629D01*
X175122755Y-107442707D01*
X174846818Y-106656702D01*
X174733968Y-106335251D01*
X174734460Y-106326309D01*
X174736731Y-106323105D01*
X174903103Y-106156733D01*
X174911375Y-106153307D01*
X174915251Y-106153968D01*
G37*
%TD.AperFunction*%
%TD*%
%TA.AperFunction,Conductor*%
%TO.N,/USART_TX*%
G36*
X193292227Y-96716807D02*
G01*
X193298552Y-96723146D01*
X193298769Y-96723711D01*
X193785361Y-98100089D01*
X193784888Y-98109031D01*
X193782603Y-98112262D01*
X193616262Y-98278603D01*
X193607989Y-98282030D01*
X193604089Y-98281361D01*
X192227711Y-97794769D01*
X192221053Y-97788780D01*
X192220580Y-97779838D01*
X192220784Y-97779306D01*
X192529438Y-97031784D01*
X192535760Y-97025448D01*
X193283275Y-96716797D01*
X193292227Y-96716807D01*
G37*
%TD.AperFunction*%
%TD*%
%TA.AperFunction,Conductor*%
%TO.N,/NSS*%
G36*
X185037895Y-77600427D02*
G01*
X185040180Y-77603658D01*
X185669352Y-78920977D01*
X185669825Y-78929919D01*
X185663836Y-78936577D01*
X185663283Y-78936823D01*
X184916489Y-79247134D01*
X184907535Y-79247144D01*
X184907511Y-79247134D01*
X184160716Y-78936823D01*
X184154391Y-78930484D01*
X184154401Y-78921530D01*
X184154647Y-78920977D01*
X184783820Y-77603658D01*
X184790478Y-77597669D01*
X184794378Y-77597000D01*
X185029622Y-77597000D01*
X185037895Y-77600427D01*
G37*
%TD.AperFunction*%
%TD*%
%TA.AperFunction,Conductor*%
%TO.N,/PB15{slash}SCL*%
G36*
X172126517Y-105905453D02*
G01*
X173823124Y-106587594D01*
X173829521Y-106593859D01*
X173829614Y-106602814D01*
X173829573Y-106602916D01*
X173484562Y-107438215D01*
X173478236Y-107444553D01*
X173478215Y-107444562D01*
X172642916Y-107789573D01*
X172633961Y-107789564D01*
X172627635Y-107783226D01*
X172627594Y-107783124D01*
X172491471Y-107444562D01*
X171945454Y-106086518D01*
X171945547Y-106077565D01*
X171948033Y-106073885D01*
X172113883Y-105908035D01*
X172122155Y-105904609D01*
X172126517Y-105905453D01*
G37*
%TD.AperFunction*%
%TD*%
%TA.AperFunction,Conductor*%
%TO.N,/VCC_JTAG*%
G36*
X166379518Y-78936299D02*
G01*
X166648566Y-79047389D01*
X167128213Y-79245437D01*
X167134552Y-79251762D01*
X167134562Y-79251786D01*
X167443700Y-80000481D01*
X167443690Y-80009435D01*
X167437994Y-80015472D01*
X166184191Y-80623929D01*
X166175252Y-80624458D01*
X166170810Y-80621676D01*
X165758323Y-80209189D01*
X165754896Y-80200916D01*
X165756068Y-80195812D01*
X166364528Y-78942003D01*
X166371222Y-78936058D01*
X166379518Y-78936299D01*
G37*
%TD.AperFunction*%
%TD*%
M02*
