%TF.GenerationSoftware,KiCad,Pcbnew,8.0.5*%
%TF.CreationDate,2024-11-18T16:18:54-05:00*%
%TF.ProjectId,CapstoneMCU,43617073-746f-46e6-954d-43552e6b6963,rev?*%
%TF.SameCoordinates,Original*%
%TF.FileFunction,Soldermask,Top*%
%TF.FilePolarity,Negative*%
%FSLAX46Y46*%
G04 Gerber Fmt 4.6, Leading zero omitted, Abs format (unit mm)*
G04 Created by KiCad (PCBNEW 8.0.5) date 2024-11-18 16:18:54*
%MOMM*%
%LPD*%
G01*
G04 APERTURE LIST*
G04 Aperture macros list*
%AMRoundRect*
0 Rectangle with rounded corners*
0 $1 Rounding radius*
0 $2 $3 $4 $5 $6 $7 $8 $9 X,Y pos of 4 corners*
0 Add a 4 corners polygon primitive as box body*
4,1,4,$2,$3,$4,$5,$6,$7,$8,$9,$2,$3,0*
0 Add four circle primitives for the rounded corners*
1,1,$1+$1,$2,$3*
1,1,$1+$1,$4,$5*
1,1,$1+$1,$6,$7*
1,1,$1+$1,$8,$9*
0 Add four rect primitives between the rounded corners*
20,1,$1+$1,$2,$3,$4,$5,0*
20,1,$1+$1,$4,$5,$6,$7,0*
20,1,$1+$1,$6,$7,$8,$9,0*
20,1,$1+$1,$8,$9,$2,$3,0*%
G04 Aperture macros list end*
%ADD10R,1.700000X1.700000*%
%ADD11O,1.700000X1.700000*%
%ADD12C,3.500000*%
%ADD13RoundRect,0.102000X-0.370000X-1.395000X0.370000X-1.395000X0.370000X1.395000X-0.370000X1.395000X0*%
%ADD14C,1.752600*%
%ADD15C,1.600000*%
G04 APERTURE END LIST*
D10*
%TO.C,3V3*%
X159131000Y-66548000D03*
D11*
X159131000Y-69088000D03*
%TD*%
D10*
%TO.C,5V*%
X159258000Y-57145000D03*
D11*
X159258000Y-59685000D03*
%TD*%
D12*
%TO.C,REF\u002A\u002A*%
X160528000Y-111506000D03*
%TD*%
%TO.C,REF\u002A\u002A*%
X147574000Y-46482000D03*
%TD*%
%TO.C,REF\u002A\u002A*%
X199136000Y-46482000D03*
%TD*%
D13*
%TO.C,ARM SWD 10*%
X151130000Y-109223000D03*
X151130000Y-105153000D03*
X152400000Y-109223000D03*
X152400000Y-105153000D03*
X153670000Y-109223000D03*
X153670000Y-105153000D03*
X154940000Y-109223000D03*
X154940000Y-105153000D03*
X156210000Y-109223000D03*
X156210000Y-105153000D03*
%TD*%
D10*
%TO.C,3V3*%
X151765000Y-66548000D03*
D11*
X151765000Y-69088000D03*
%TD*%
D10*
%TO.C,5V*%
X151638000Y-57145000D03*
D11*
X151638000Y-59685000D03*
%TD*%
D14*
%TO.C,U1*%
X164592000Y-97028000D03*
X167132000Y-97028000D03*
X169672000Y-97028000D03*
X172212000Y-97028000D03*
X174752000Y-97028000D03*
X177292000Y-97028000D03*
X179832000Y-97028000D03*
X182372000Y-97028000D03*
X184912000Y-97028000D03*
X187452000Y-97028000D03*
X189992000Y-97028000D03*
X192532000Y-97028000D03*
X164592000Y-79248000D03*
X167132000Y-79248000D03*
X169672000Y-79248000D03*
X172212000Y-79248000D03*
X174752000Y-79248000D03*
X177292000Y-79248000D03*
X179832000Y-79248000D03*
X182372000Y-79248000D03*
X184912000Y-79248000D03*
X187452000Y-79248000D03*
X189992000Y-79248000D03*
X192532000Y-79248000D03*
%TD*%
D12*
%TO.C,REF\u002A\u002A*%
X193802000Y-111506000D03*
%TD*%
D10*
%TO.C,USART*%
X199136000Y-108966000D03*
D11*
X199136000Y-106426000D03*
%TD*%
D10*
%TO.C,GPIO*%
X173482000Y-107442000D03*
D11*
X176022000Y-107442000D03*
X178562000Y-107442000D03*
X181102000Y-107442000D03*
X183642000Y-107442000D03*
X186182000Y-107442000D03*
X188722000Y-107442000D03*
X191262000Y-107442000D03*
%TD*%
D10*
%TO.C,FILTER OUTPUT*%
X167137000Y-107188000D03*
D11*
X164597000Y-107188000D03*
%TD*%
D15*
%TO.C,U2*%
X174752000Y-49784000D03*
X174752000Y-52324000D03*
X174752000Y-54864000D03*
X174752000Y-57404000D03*
X174752000Y-59944000D03*
X174752000Y-62484000D03*
X174752000Y-65024000D03*
X174752000Y-67564000D03*
X174752000Y-70104000D03*
%TD*%
M02*
