%TF.GenerationSoftware,KiCad,Pcbnew,8.0.5*%
%TF.CreationDate,2024-11-18T16:36:35-05:00*%
%TF.ProjectId,ELEC4907,454c4543-3439-4303-972e-6b696361645f,rev?*%
%TF.SameCoordinates,Original*%
%TF.FileFunction,Legend,Bot*%
%TF.FilePolarity,Positive*%
%FSLAX46Y46*%
G04 Gerber Fmt 4.6, Leading zero omitted, Abs format (unit mm)*
G04 Created by KiCad (PCBNEW 8.0.5) date 2024-11-18 16:36:35*
%MOMM*%
%LPD*%
G01*
G04 APERTURE LIST*
%ADD10C,0.300000*%
G04 APERTURE END LIST*
D10*
X192374346Y-131142828D02*
X192017203Y-132642828D01*
X192017203Y-132642828D02*
X191731489Y-131571400D01*
X191731489Y-131571400D02*
X191445774Y-132642828D01*
X191445774Y-132642828D02*
X191088632Y-131142828D01*
X190517203Y-132642828D02*
X190517203Y-131142828D01*
X189874346Y-132642828D02*
X189874346Y-131857114D01*
X189874346Y-131857114D02*
X189945774Y-131714257D01*
X189945774Y-131714257D02*
X190088631Y-131642828D01*
X190088631Y-131642828D02*
X190302917Y-131642828D01*
X190302917Y-131642828D02*
X190445774Y-131714257D01*
X190445774Y-131714257D02*
X190517203Y-131785685D01*
X188517203Y-132642828D02*
X188517203Y-131857114D01*
X188517203Y-131857114D02*
X188588631Y-131714257D01*
X188588631Y-131714257D02*
X188731488Y-131642828D01*
X188731488Y-131642828D02*
X189017203Y-131642828D01*
X189017203Y-131642828D02*
X189160060Y-131714257D01*
X188517203Y-132571400D02*
X188660060Y-132642828D01*
X188660060Y-132642828D02*
X189017203Y-132642828D01*
X189017203Y-132642828D02*
X189160060Y-132571400D01*
X189160060Y-132571400D02*
X189231488Y-132428542D01*
X189231488Y-132428542D02*
X189231488Y-132285685D01*
X189231488Y-132285685D02*
X189160060Y-132142828D01*
X189160060Y-132142828D02*
X189017203Y-132071400D01*
X189017203Y-132071400D02*
X188660060Y-132071400D01*
X188660060Y-132071400D02*
X188517203Y-131999971D01*
X188017202Y-131642828D02*
X187445774Y-131642828D01*
X187802917Y-131142828D02*
X187802917Y-132428542D01*
X187802917Y-132428542D02*
X187731488Y-132571400D01*
X187731488Y-132571400D02*
X187588631Y-132642828D01*
X187588631Y-132642828D02*
X187445774Y-132642828D01*
X185231488Y-132571400D02*
X185374345Y-132642828D01*
X185374345Y-132642828D02*
X185660060Y-132642828D01*
X185660060Y-132642828D02*
X185802917Y-132571400D01*
X185802917Y-132571400D02*
X185874345Y-132428542D01*
X185874345Y-132428542D02*
X185874345Y-131857114D01*
X185874345Y-131857114D02*
X185802917Y-131714257D01*
X185802917Y-131714257D02*
X185660060Y-131642828D01*
X185660060Y-131642828D02*
X185374345Y-131642828D01*
X185374345Y-131642828D02*
X185231488Y-131714257D01*
X185231488Y-131714257D02*
X185160060Y-131857114D01*
X185160060Y-131857114D02*
X185160060Y-131999971D01*
X185160060Y-131999971D02*
X185874345Y-132142828D01*
X184660060Y-132642828D02*
X183874346Y-131642828D01*
X184660060Y-131642828D02*
X183874346Y-132642828D01*
X182660060Y-132642828D02*
X182660060Y-131857114D01*
X182660060Y-131857114D02*
X182731488Y-131714257D01*
X182731488Y-131714257D02*
X182874345Y-131642828D01*
X182874345Y-131642828D02*
X183160060Y-131642828D01*
X183160060Y-131642828D02*
X183302917Y-131714257D01*
X182660060Y-132571400D02*
X182802917Y-132642828D01*
X182802917Y-132642828D02*
X183160060Y-132642828D01*
X183160060Y-132642828D02*
X183302917Y-132571400D01*
X183302917Y-132571400D02*
X183374345Y-132428542D01*
X183374345Y-132428542D02*
X183374345Y-132285685D01*
X183374345Y-132285685D02*
X183302917Y-132142828D01*
X183302917Y-132142828D02*
X183160060Y-132071400D01*
X183160060Y-132071400D02*
X182802917Y-132071400D01*
X182802917Y-132071400D02*
X182660060Y-131999971D01*
X181302917Y-132571400D02*
X181445774Y-132642828D01*
X181445774Y-132642828D02*
X181731488Y-132642828D01*
X181731488Y-132642828D02*
X181874345Y-132571400D01*
X181874345Y-132571400D02*
X181945774Y-132499971D01*
X181945774Y-132499971D02*
X182017202Y-132357114D01*
X182017202Y-132357114D02*
X182017202Y-131928542D01*
X182017202Y-131928542D02*
X181945774Y-131785685D01*
X181945774Y-131785685D02*
X181874345Y-131714257D01*
X181874345Y-131714257D02*
X181731488Y-131642828D01*
X181731488Y-131642828D02*
X181445774Y-131642828D01*
X181445774Y-131642828D02*
X181302917Y-131714257D01*
X180874345Y-131642828D02*
X180302917Y-131642828D01*
X180660060Y-131142828D02*
X180660060Y-132428542D01*
X180660060Y-132428542D02*
X180588631Y-132571400D01*
X180588631Y-132571400D02*
X180445774Y-132642828D01*
X180445774Y-132642828D02*
X180302917Y-132642828D01*
X179588631Y-132642828D02*
X179731488Y-132571400D01*
X179731488Y-132571400D02*
X179802917Y-132428542D01*
X179802917Y-132428542D02*
X179802917Y-131142828D01*
X179160060Y-131642828D02*
X178802917Y-132642828D01*
X178445774Y-131642828D02*
X178802917Y-132642828D01*
X178802917Y-132642828D02*
X178945774Y-132999971D01*
X178945774Y-132999971D02*
X179017203Y-133071400D01*
X179017203Y-133071400D02*
X179160060Y-133142828D01*
X176874346Y-131642828D02*
X176588632Y-132642828D01*
X176588632Y-132642828D02*
X176302917Y-131928542D01*
X176302917Y-131928542D02*
X176017203Y-132642828D01*
X176017203Y-132642828D02*
X175731489Y-131642828D01*
X174588631Y-132571400D02*
X174731488Y-132642828D01*
X174731488Y-132642828D02*
X175017203Y-132642828D01*
X175017203Y-132642828D02*
X175160060Y-132571400D01*
X175160060Y-132571400D02*
X175231488Y-132428542D01*
X175231488Y-132428542D02*
X175231488Y-131857114D01*
X175231488Y-131857114D02*
X175160060Y-131714257D01*
X175160060Y-131714257D02*
X175017203Y-131642828D01*
X175017203Y-131642828D02*
X174731488Y-131642828D01*
X174731488Y-131642828D02*
X174588631Y-131714257D01*
X174588631Y-131714257D02*
X174517203Y-131857114D01*
X174517203Y-131857114D02*
X174517203Y-131999971D01*
X174517203Y-131999971D02*
X175231488Y-132142828D01*
X173874346Y-132642828D02*
X173874346Y-131642828D01*
X173874346Y-131928542D02*
X173802917Y-131785685D01*
X173802917Y-131785685D02*
X173731489Y-131714257D01*
X173731489Y-131714257D02*
X173588631Y-131642828D01*
X173588631Y-131642828D02*
X173445774Y-131642828D01*
X172374346Y-132571400D02*
X172517203Y-132642828D01*
X172517203Y-132642828D02*
X172802918Y-132642828D01*
X172802918Y-132642828D02*
X172945775Y-132571400D01*
X172945775Y-132571400D02*
X173017203Y-132428542D01*
X173017203Y-132428542D02*
X173017203Y-131857114D01*
X173017203Y-131857114D02*
X172945775Y-131714257D01*
X172945775Y-131714257D02*
X172802918Y-131642828D01*
X172802918Y-131642828D02*
X172517203Y-131642828D01*
X172517203Y-131642828D02*
X172374346Y-131714257D01*
X172374346Y-131714257D02*
X172302918Y-131857114D01*
X172302918Y-131857114D02*
X172302918Y-131999971D01*
X172302918Y-131999971D02*
X173017203Y-132142828D01*
X170660061Y-131642828D02*
X170302918Y-132642828D01*
X169945775Y-131642828D02*
X170302918Y-132642828D01*
X170302918Y-132642828D02*
X170445775Y-132999971D01*
X170445775Y-132999971D02*
X170517204Y-133071400D01*
X170517204Y-133071400D02*
X170660061Y-133142828D01*
X169160061Y-132642828D02*
X169302918Y-132571400D01*
X169302918Y-132571400D02*
X169374347Y-132499971D01*
X169374347Y-132499971D02*
X169445775Y-132357114D01*
X169445775Y-132357114D02*
X169445775Y-131928542D01*
X169445775Y-131928542D02*
X169374347Y-131785685D01*
X169374347Y-131785685D02*
X169302918Y-131714257D01*
X169302918Y-131714257D02*
X169160061Y-131642828D01*
X169160061Y-131642828D02*
X168945775Y-131642828D01*
X168945775Y-131642828D02*
X168802918Y-131714257D01*
X168802918Y-131714257D02*
X168731490Y-131785685D01*
X168731490Y-131785685D02*
X168660061Y-131928542D01*
X168660061Y-131928542D02*
X168660061Y-132357114D01*
X168660061Y-132357114D02*
X168731490Y-132499971D01*
X168731490Y-132499971D02*
X168802918Y-132571400D01*
X168802918Y-132571400D02*
X168945775Y-132642828D01*
X168945775Y-132642828D02*
X169160061Y-132642828D01*
X167374347Y-131642828D02*
X167374347Y-132642828D01*
X168017204Y-131642828D02*
X168017204Y-132428542D01*
X168017204Y-132428542D02*
X167945775Y-132571400D01*
X167945775Y-132571400D02*
X167802918Y-132642828D01*
X167802918Y-132642828D02*
X167588632Y-132642828D01*
X167588632Y-132642828D02*
X167445775Y-132571400D01*
X167445775Y-132571400D02*
X167374347Y-132499971D01*
X164945775Y-132571400D02*
X165088632Y-132642828D01*
X165088632Y-132642828D02*
X165374347Y-132642828D01*
X165374347Y-132642828D02*
X165517204Y-132571400D01*
X165517204Y-132571400D02*
X165588632Y-132428542D01*
X165588632Y-132428542D02*
X165588632Y-131857114D01*
X165588632Y-131857114D02*
X165517204Y-131714257D01*
X165517204Y-131714257D02*
X165374347Y-131642828D01*
X165374347Y-131642828D02*
X165088632Y-131642828D01*
X165088632Y-131642828D02*
X164945775Y-131714257D01*
X164945775Y-131714257D02*
X164874347Y-131857114D01*
X164874347Y-131857114D02*
X164874347Y-131999971D01*
X164874347Y-131999971D02*
X165588632Y-132142828D01*
X164374347Y-132642828D02*
X163588633Y-131642828D01*
X164374347Y-131642828D02*
X163588633Y-132642828D01*
X163017204Y-131642828D02*
X163017204Y-133142828D01*
X163017204Y-131714257D02*
X162874347Y-131642828D01*
X162874347Y-131642828D02*
X162588632Y-131642828D01*
X162588632Y-131642828D02*
X162445775Y-131714257D01*
X162445775Y-131714257D02*
X162374347Y-131785685D01*
X162374347Y-131785685D02*
X162302918Y-131928542D01*
X162302918Y-131928542D02*
X162302918Y-132357114D01*
X162302918Y-132357114D02*
X162374347Y-132499971D01*
X162374347Y-132499971D02*
X162445775Y-132571400D01*
X162445775Y-132571400D02*
X162588632Y-132642828D01*
X162588632Y-132642828D02*
X162874347Y-132642828D01*
X162874347Y-132642828D02*
X163017204Y-132571400D01*
X161088632Y-132571400D02*
X161231489Y-132642828D01*
X161231489Y-132642828D02*
X161517204Y-132642828D01*
X161517204Y-132642828D02*
X161660061Y-132571400D01*
X161660061Y-132571400D02*
X161731489Y-132428542D01*
X161731489Y-132428542D02*
X161731489Y-131857114D01*
X161731489Y-131857114D02*
X161660061Y-131714257D01*
X161660061Y-131714257D02*
X161517204Y-131642828D01*
X161517204Y-131642828D02*
X161231489Y-131642828D01*
X161231489Y-131642828D02*
X161088632Y-131714257D01*
X161088632Y-131714257D02*
X161017204Y-131857114D01*
X161017204Y-131857114D02*
X161017204Y-131999971D01*
X161017204Y-131999971D02*
X161731489Y-132142828D01*
X159731490Y-132571400D02*
X159874347Y-132642828D01*
X159874347Y-132642828D02*
X160160061Y-132642828D01*
X160160061Y-132642828D02*
X160302918Y-132571400D01*
X160302918Y-132571400D02*
X160374347Y-132499971D01*
X160374347Y-132499971D02*
X160445775Y-132357114D01*
X160445775Y-132357114D02*
X160445775Y-131928542D01*
X160445775Y-131928542D02*
X160374347Y-131785685D01*
X160374347Y-131785685D02*
X160302918Y-131714257D01*
X160302918Y-131714257D02*
X160160061Y-131642828D01*
X160160061Y-131642828D02*
X159874347Y-131642828D01*
X159874347Y-131642828D02*
X159731490Y-131714257D01*
X159302918Y-131642828D02*
X158731490Y-131642828D01*
X159088633Y-131142828D02*
X159088633Y-132428542D01*
X159088633Y-132428542D02*
X159017204Y-132571400D01*
X159017204Y-132571400D02*
X158874347Y-132642828D01*
X158874347Y-132642828D02*
X158731490Y-132642828D01*
X158231490Y-132642828D02*
X158231490Y-131642828D01*
X158231490Y-131142828D02*
X158302918Y-131214257D01*
X158302918Y-131214257D02*
X158231490Y-131285685D01*
X158231490Y-131285685D02*
X158160061Y-131214257D01*
X158160061Y-131214257D02*
X158231490Y-131142828D01*
X158231490Y-131142828D02*
X158231490Y-131285685D01*
X157517204Y-131642828D02*
X157517204Y-132642828D01*
X157517204Y-131785685D02*
X157445775Y-131714257D01*
X157445775Y-131714257D02*
X157302918Y-131642828D01*
X157302918Y-131642828D02*
X157088632Y-131642828D01*
X157088632Y-131642828D02*
X156945775Y-131714257D01*
X156945775Y-131714257D02*
X156874347Y-131857114D01*
X156874347Y-131857114D02*
X156874347Y-132642828D01*
X155517204Y-131642828D02*
X155517204Y-132857114D01*
X155517204Y-132857114D02*
X155588632Y-132999971D01*
X155588632Y-132999971D02*
X155660061Y-133071400D01*
X155660061Y-133071400D02*
X155802918Y-133142828D01*
X155802918Y-133142828D02*
X156017204Y-133142828D01*
X156017204Y-133142828D02*
X156160061Y-133071400D01*
X155517204Y-132571400D02*
X155660061Y-132642828D01*
X155660061Y-132642828D02*
X155945775Y-132642828D01*
X155945775Y-132642828D02*
X156088632Y-132571400D01*
X156088632Y-132571400D02*
X156160061Y-132499971D01*
X156160061Y-132499971D02*
X156231489Y-132357114D01*
X156231489Y-132357114D02*
X156231489Y-131928542D01*
X156231489Y-131928542D02*
X156160061Y-131785685D01*
X156160061Y-131785685D02*
X156088632Y-131714257D01*
X156088632Y-131714257D02*
X155945775Y-131642828D01*
X155945775Y-131642828D02*
X155660061Y-131642828D01*
X155660061Y-131642828D02*
X155517204Y-131714257D01*
X153874346Y-131642828D02*
X153302918Y-131642828D01*
X153660061Y-131142828D02*
X153660061Y-132428542D01*
X153660061Y-132428542D02*
X153588632Y-132571400D01*
X153588632Y-132571400D02*
X153445775Y-132642828D01*
X153445775Y-132642828D02*
X153302918Y-132642828D01*
X152588632Y-132642828D02*
X152731489Y-132571400D01*
X152731489Y-132571400D02*
X152802918Y-132499971D01*
X152802918Y-132499971D02*
X152874346Y-132357114D01*
X152874346Y-132357114D02*
X152874346Y-131928542D01*
X152874346Y-131928542D02*
X152802918Y-131785685D01*
X152802918Y-131785685D02*
X152731489Y-131714257D01*
X152731489Y-131714257D02*
X152588632Y-131642828D01*
X152588632Y-131642828D02*
X152374346Y-131642828D01*
X152374346Y-131642828D02*
X152231489Y-131714257D01*
X152231489Y-131714257D02*
X152160061Y-131785685D01*
X152160061Y-131785685D02*
X152088632Y-131928542D01*
X152088632Y-131928542D02*
X152088632Y-132357114D01*
X152088632Y-132357114D02*
X152160061Y-132499971D01*
X152160061Y-132499971D02*
X152231489Y-132571400D01*
X152231489Y-132571400D02*
X152374346Y-132642828D01*
X152374346Y-132642828D02*
X152588632Y-132642828D01*
X150517203Y-131642828D02*
X149945775Y-131642828D01*
X150302918Y-132642828D02*
X150302918Y-131357114D01*
X150302918Y-131357114D02*
X150231489Y-131214257D01*
X150231489Y-131214257D02*
X150088632Y-131142828D01*
X150088632Y-131142828D02*
X149945775Y-131142828D01*
X149445775Y-132642828D02*
X149445775Y-131642828D01*
X149445775Y-131142828D02*
X149517203Y-131214257D01*
X149517203Y-131214257D02*
X149445775Y-131285685D01*
X149445775Y-131285685D02*
X149374346Y-131214257D01*
X149374346Y-131214257D02*
X149445775Y-131142828D01*
X149445775Y-131142828D02*
X149445775Y-131285685D01*
X148731489Y-131642828D02*
X148731489Y-132642828D01*
X148731489Y-131785685D02*
X148660060Y-131714257D01*
X148660060Y-131714257D02*
X148517203Y-131642828D01*
X148517203Y-131642828D02*
X148302917Y-131642828D01*
X148302917Y-131642828D02*
X148160060Y-131714257D01*
X148160060Y-131714257D02*
X148088632Y-131857114D01*
X148088632Y-131857114D02*
X148088632Y-132642828D01*
X146731489Y-132642828D02*
X146731489Y-131142828D01*
X146731489Y-132571400D02*
X146874346Y-132642828D01*
X146874346Y-132642828D02*
X147160060Y-132642828D01*
X147160060Y-132642828D02*
X147302917Y-132571400D01*
X147302917Y-132571400D02*
X147374346Y-132499971D01*
X147374346Y-132499971D02*
X147445774Y-132357114D01*
X147445774Y-132357114D02*
X147445774Y-131928542D01*
X147445774Y-131928542D02*
X147374346Y-131785685D01*
X147374346Y-131785685D02*
X147302917Y-131714257D01*
X147302917Y-131714257D02*
X147160060Y-131642828D01*
X147160060Y-131642828D02*
X146874346Y-131642828D01*
X146874346Y-131642828D02*
X146731489Y-131714257D01*
X144874346Y-132642828D02*
X144874346Y-131142828D01*
X144874346Y-131714257D02*
X144731489Y-131642828D01*
X144731489Y-131642828D02*
X144445774Y-131642828D01*
X144445774Y-131642828D02*
X144302917Y-131714257D01*
X144302917Y-131714257D02*
X144231489Y-131785685D01*
X144231489Y-131785685D02*
X144160060Y-131928542D01*
X144160060Y-131928542D02*
X144160060Y-132357114D01*
X144160060Y-132357114D02*
X144231489Y-132499971D01*
X144231489Y-132499971D02*
X144302917Y-132571400D01*
X144302917Y-132571400D02*
X144445774Y-132642828D01*
X144445774Y-132642828D02*
X144731489Y-132642828D01*
X144731489Y-132642828D02*
X144874346Y-132571400D01*
X142874346Y-132642828D02*
X142874346Y-131857114D01*
X142874346Y-131857114D02*
X142945774Y-131714257D01*
X142945774Y-131714257D02*
X143088631Y-131642828D01*
X143088631Y-131642828D02*
X143374346Y-131642828D01*
X143374346Y-131642828D02*
X143517203Y-131714257D01*
X142874346Y-132571400D02*
X143017203Y-132642828D01*
X143017203Y-132642828D02*
X143374346Y-132642828D01*
X143374346Y-132642828D02*
X143517203Y-132571400D01*
X143517203Y-132571400D02*
X143588631Y-132428542D01*
X143588631Y-132428542D02*
X143588631Y-132285685D01*
X143588631Y-132285685D02*
X143517203Y-132142828D01*
X143517203Y-132142828D02*
X143374346Y-132071400D01*
X143374346Y-132071400D02*
X143017203Y-132071400D01*
X143017203Y-132071400D02*
X142874346Y-131999971D01*
X141517203Y-132571400D02*
X141660060Y-132642828D01*
X141660060Y-132642828D02*
X141945774Y-132642828D01*
X141945774Y-132642828D02*
X142088631Y-132571400D01*
X142088631Y-132571400D02*
X142160060Y-132499971D01*
X142160060Y-132499971D02*
X142231488Y-132357114D01*
X142231488Y-132357114D02*
X142231488Y-131928542D01*
X142231488Y-131928542D02*
X142160060Y-131785685D01*
X142160060Y-131785685D02*
X142088631Y-131714257D01*
X142088631Y-131714257D02*
X141945774Y-131642828D01*
X141945774Y-131642828D02*
X141660060Y-131642828D01*
X141660060Y-131642828D02*
X141517203Y-131714257D01*
X140874346Y-132642828D02*
X140874346Y-131142828D01*
X140731489Y-132071400D02*
X140302917Y-132642828D01*
X140302917Y-131642828D02*
X140874346Y-132214257D01*
X138517203Y-132642828D02*
X138517203Y-131142828D01*
X137874346Y-132642828D02*
X137874346Y-131857114D01*
X137874346Y-131857114D02*
X137945774Y-131714257D01*
X137945774Y-131714257D02*
X138088631Y-131642828D01*
X138088631Y-131642828D02*
X138302917Y-131642828D01*
X138302917Y-131642828D02*
X138445774Y-131714257D01*
X138445774Y-131714257D02*
X138517203Y-131785685D01*
X136588631Y-132571400D02*
X136731488Y-132642828D01*
X136731488Y-132642828D02*
X137017203Y-132642828D01*
X137017203Y-132642828D02*
X137160060Y-132571400D01*
X137160060Y-132571400D02*
X137231488Y-132428542D01*
X137231488Y-132428542D02*
X137231488Y-131857114D01*
X137231488Y-131857114D02*
X137160060Y-131714257D01*
X137160060Y-131714257D02*
X137017203Y-131642828D01*
X137017203Y-131642828D02*
X136731488Y-131642828D01*
X136731488Y-131642828D02*
X136588631Y-131714257D01*
X136588631Y-131714257D02*
X136517203Y-131857114D01*
X136517203Y-131857114D02*
X136517203Y-131999971D01*
X136517203Y-131999971D02*
X137231488Y-132142828D01*
X135874346Y-132642828D02*
X135874346Y-131642828D01*
X135874346Y-131928542D02*
X135802917Y-131785685D01*
X135802917Y-131785685D02*
X135731489Y-131714257D01*
X135731489Y-131714257D02*
X135588631Y-131642828D01*
X135588631Y-131642828D02*
X135445774Y-131642828D01*
X134374346Y-132571400D02*
X134517203Y-132642828D01*
X134517203Y-132642828D02*
X134802918Y-132642828D01*
X134802918Y-132642828D02*
X134945775Y-132571400D01*
X134945775Y-132571400D02*
X135017203Y-132428542D01*
X135017203Y-132428542D02*
X135017203Y-131857114D01*
X135017203Y-131857114D02*
X134945775Y-131714257D01*
X134945775Y-131714257D02*
X134802918Y-131642828D01*
X134802918Y-131642828D02*
X134517203Y-131642828D01*
X134517203Y-131642828D02*
X134374346Y-131714257D01*
X134374346Y-131714257D02*
X134302918Y-131857114D01*
X134302918Y-131857114D02*
X134302918Y-131999971D01*
X134302918Y-131999971D02*
X135017203Y-132142828D01*
X133445775Y-132499971D02*
X133374346Y-132571400D01*
X133374346Y-132571400D02*
X133445775Y-132642828D01*
X133445775Y-132642828D02*
X133517204Y-132571400D01*
X133517204Y-132571400D02*
X133445775Y-132499971D01*
X133445775Y-132499971D02*
X133445775Y-132642828D01*
X133731489Y-131214257D02*
X133588632Y-131142828D01*
X133588632Y-131142828D02*
X133231489Y-131142828D01*
X133231489Y-131142828D02*
X133088632Y-131214257D01*
X133088632Y-131214257D02*
X133017204Y-131357114D01*
X133017204Y-131357114D02*
X133017204Y-131499971D01*
X133017204Y-131499971D02*
X133088632Y-131642828D01*
X133088632Y-131642828D02*
X133160061Y-131714257D01*
X133160061Y-131714257D02*
X133302918Y-131785685D01*
X133302918Y-131785685D02*
X133374346Y-131857114D01*
X133374346Y-131857114D02*
X133445775Y-131999971D01*
X133445775Y-131999971D02*
X133445775Y-132071400D01*
X167316630Y-134714624D02*
X169030915Y-137286052D01*
X167316630Y-134619385D02*
X165602344Y-137190814D01*
X165792821Y-137000338D02*
X164269011Y-137000338D01*
X164269011Y-137000338D02*
X162745201Y-137000338D01*
X160840439Y-134714624D02*
X162554724Y-137286052D01*
X160840439Y-134619385D02*
X159126153Y-137190814D01*
X174840441Y-138982131D02*
X173316632Y-138982131D01*
X173316632Y-139553559D02*
X174840441Y-139553559D01*
X170269012Y-140791654D02*
X170364251Y-140696416D01*
X170364251Y-140696416D02*
X170554727Y-140410702D01*
X170554727Y-140410702D02*
X170649965Y-140220226D01*
X170649965Y-140220226D02*
X170745203Y-139934512D01*
X170745203Y-139934512D02*
X170840441Y-139458321D01*
X170840441Y-139458321D02*
X170840441Y-139077369D01*
X170840441Y-139077369D02*
X170745203Y-138601178D01*
X170745203Y-138601178D02*
X170649965Y-138315464D01*
X170649965Y-138315464D02*
X170554727Y-138124988D01*
X170554727Y-138124988D02*
X170364251Y-137839273D01*
X170364251Y-137839273D02*
X170269012Y-137744035D01*
X167411869Y-139077369D02*
X167411869Y-139458321D01*
X167316631Y-139458321D02*
X167316631Y-139077369D01*
X167221393Y-138982131D02*
X167221393Y-139553559D01*
X167126155Y-139458321D02*
X167126155Y-139077369D01*
X167030917Y-139077369D02*
X167030917Y-139458321D01*
X167411869Y-139363083D02*
X167221393Y-139553559D01*
X167221393Y-139553559D02*
X167030917Y-139363083D01*
X167411869Y-139172607D02*
X167221393Y-138982131D01*
X167221393Y-138982131D02*
X167030917Y-139172607D01*
X167411869Y-139077369D02*
X167221393Y-138982131D01*
X167221393Y-138982131D02*
X167030917Y-139077369D01*
X167030917Y-139077369D02*
X166935679Y-139267845D01*
X166935679Y-139267845D02*
X167030917Y-139458321D01*
X167030917Y-139458321D02*
X167221393Y-139553559D01*
X167221393Y-139553559D02*
X167411869Y-139458321D01*
X167411869Y-139458321D02*
X167507108Y-139267845D01*
X167507108Y-139267845D02*
X167411869Y-139077369D01*
X163983298Y-139839273D02*
X163888060Y-139934512D01*
X163888060Y-139934512D02*
X163983298Y-140029750D01*
X163983298Y-140029750D02*
X164078536Y-139934512D01*
X164078536Y-139934512D02*
X163983298Y-139839273D01*
X163983298Y-139839273D02*
X163983298Y-140029750D01*
X160935678Y-139077369D02*
X160935678Y-139458321D01*
X160840440Y-139458321D02*
X160840440Y-139077369D01*
X160745202Y-138982131D02*
X160745202Y-139553559D01*
X160649964Y-139458321D02*
X160649964Y-139077369D01*
X160554726Y-139077369D02*
X160554726Y-139458321D01*
X160935678Y-139363083D02*
X160745202Y-139553559D01*
X160745202Y-139553559D02*
X160554726Y-139363083D01*
X160935678Y-139172607D02*
X160745202Y-138982131D01*
X160745202Y-138982131D02*
X160554726Y-139172607D01*
X160935678Y-139077369D02*
X160745202Y-138982131D01*
X160745202Y-138982131D02*
X160554726Y-139077369D01*
X160554726Y-139077369D02*
X160459488Y-139267845D01*
X160459488Y-139267845D02*
X160554726Y-139458321D01*
X160554726Y-139458321D02*
X160745202Y-139553559D01*
X160745202Y-139553559D02*
X160935678Y-139458321D01*
X160935678Y-139458321D02*
X161030917Y-139267845D01*
X161030917Y-139267845D02*
X160935678Y-139077369D01*
X157697583Y-140791654D02*
X157602345Y-140696416D01*
X157602345Y-140696416D02*
X157411869Y-140410702D01*
X157411869Y-140410702D02*
X157316631Y-140220226D01*
X157316631Y-140220226D02*
X157221393Y-139934512D01*
X157221393Y-139934512D02*
X157126155Y-139458321D01*
X157126155Y-139458321D02*
X157126155Y-139077369D01*
X157126155Y-139077369D02*
X157221393Y-138601178D01*
X157221393Y-138601178D02*
X157316631Y-138315464D01*
X157316631Y-138315464D02*
X157411869Y-138124988D01*
X157411869Y-138124988D02*
X157602345Y-137839273D01*
X157602345Y-137839273D02*
X157697583Y-137744035D01*
X154649964Y-138982131D02*
X153126155Y-138982131D01*
X153126155Y-139553559D02*
X154649964Y-139553559D01*
X168840440Y-141154400D02*
X170554725Y-143725828D01*
X159697580Y-141059161D02*
X157983294Y-143630590D01*
M02*
