M48
; DRILL file {KiCad 8.0.5} date 2024-11-18T16:36:37-0500
; FORMAT={-:-/ absolute / inch / decimal}
; #@! TF.CreationDate,2024-11-18T16:36:37-05:00
; #@! TF.GenerationSoftware,Kicad,Pcbnew,8.0.5
; #@! TF.FileFunction,Plated,1,4,PTH
FMAT,2
INCH
; #@! TA.AperFunction,Plated,PTH,ViaDrill
T1C0.0118
; #@! TA.AperFunction,Plated,PTH,ComponentDrill
T2C0.0280
; #@! TA.AperFunction,Plated,PTH,ComponentDrill
T3C0.0299
; #@! TA.AperFunction,Plated,PTH,ComponentDrill
T4C0.0300
; #@! TA.AperFunction,Plated,PTH,ComponentDrill
T5C0.0315
; #@! TA.AperFunction,Plated,PTH,ComponentDrill
T6C0.0320
; #@! TA.AperFunction,Plated,PTH,ComponentDrill
T7C0.0350
; #@! TA.AperFunction,Plated,PTH,ComponentDrill
T8C0.0354
; #@! TA.AperFunction,Plated,PTH,ComponentDrill
T9C0.0394
; #@! TA.AperFunction,Plated,PTH,ComponentDrill
T10C0.0433
; #@! TA.AperFunction,Plated,PTH,ComponentDrill
T11C0.0472
; #@! TA.AperFunction,Plated,PTH,ComponentDrill
T12C0.0530
; #@! TA.AperFunction,Plated,PTH,ComponentDrill
T13C0.1260
%
G90
G05
T1
X5.47Y-4.84
T2
X4.5244Y-3.0709
X4.6244Y-3.0709
X4.7244Y-3.0709
X6.0802Y-1.2598
X6.1802Y-1.2598
X6.2802Y-1.2598
X7.486Y-1.8434
X7.586Y-1.8434
X7.686Y-1.8434
X7.9177Y-2.9311
X8.0177Y-2.9311
X8.1177Y-2.9311
X8.4374Y-2.0098
X8.4461Y-1.4972
X8.5374Y-2.0098
X8.5461Y-1.4972
X8.6374Y-2.0098
X8.6461Y-1.4972
T3
X7.9323Y-1.8852
X7.9323Y-1.9852
X7.9323Y-2.0852
X7.9323Y-2.1852
X7.9323Y-2.2852
X7.9323Y-2.3852
X7.9323Y-2.4852
X7.9323Y-2.5852
X8.2449Y-1.8852
X8.2449Y-1.9852
X8.2449Y-2.0852
X8.2449Y-2.1852
X8.2449Y-2.2852
X8.2449Y-2.3852
X8.2449Y-2.4852
X8.2449Y-2.5852
T4
X5.9565Y-4.7648
X6.3565Y-4.1648
X7.7569Y-4.8061
X7.8268Y-2.3524
X7.8268Y-2.5492
X8.1569Y-4.2061
T5
X4.2126Y-2.2835
X4.2126Y-2.3835
X4.61Y-5.7882
X4.71Y-5.7882
X4.7319Y-1.9469
X4.7319Y-2.0866
X5.0319Y-1.9469
X5.0319Y-2.0866
X5.0778Y-3.0787
X5.0778Y-3.3787
X5.1256Y-1.6875
X5.1256Y-1.8164
X5.1256Y-1.9469
X5.1256Y-2.2047
X5.1256Y-2.3406
X5.1772Y-1.5748
X5.1772Y-2.0804
X5.374Y-1.5748
X5.374Y-2.0804
X5.4256Y-1.6875
X5.4256Y-1.8164
X5.4256Y-1.9469
X5.4256Y-2.2047
X5.4256Y-2.3406
X5.5906Y-4.5866
X5.5906Y-4.7244
X5.6486Y-2.6371
X5.6496Y-2.4803
X5.8455Y-2.6371
X5.8465Y-2.4803
X5.938Y-5.7874
X5.9917Y-2.6161
X5.9927Y-2.471
X5.9992Y-2.3228
X6.0302Y-1.4513
X6.0302Y-1.6481
X6.038Y-5.7874
X6.2917Y-2.6161
X6.2927Y-2.471
X6.2945Y-5.79
X6.2992Y-2.3228
X6.3302Y-1.4513
X6.3302Y-1.6481
X6.3945Y-5.79
X6.65Y-1.1811
X6.75Y-1.1811
X7.0029Y-2.0042
X7.3029Y-2.0042
X7.3937Y-1.187
X7.4439Y-2.0122
X7.4937Y-1.187
X7.6914Y-2.7437
X7.6914Y-3.0437
X7.7439Y-2.0122
X7.8169Y-5.7874
X7.9022Y-1.3991
X7.9169Y-5.7874
X8.139Y-1.1614
X8.2022Y-1.3991
X8.239Y-1.1614
X8.2717Y-5.123
X8.3927Y-1.687
X8.4094Y-5.123
X8.6927Y-1.687
T6
X6.0823Y-1.9235
X6.2983Y-1.9235
X7.9799Y-1.6082
X8.1959Y-1.6082
T7
X5.5906Y-1.6929
X5.5906Y-1.7929
X5.5906Y-1.8929
X5.5906Y-1.9929
X5.5906Y-2.0929
X5.5906Y-2.1929
X5.5906Y-2.2929
X5.8906Y-1.6929
X5.8906Y-1.7929
X5.8906Y-1.8929
X5.8906Y-1.9929
X5.8906Y-2.0929
X5.8906Y-2.1929
X5.8906Y-2.2929
T8
X6.8199Y-4.1595
X6.8199Y-4.3563
X8.6073Y-4.2217
X8.6073Y-4.4185
T9
X6.7164Y-1.8432
X7.3069Y-1.8432
T10
X5.3602Y-2.752
X5.3602Y-3.7362
X6.0236Y-4.947
X6.0236Y-5.347
X8.1801Y-5.3876
X8.5801Y-5.3876
T11
X7.1066Y-2.1867
X7.8153Y-2.1867
X8.4365Y-2.4848
X8.4365Y-3.1935
T12
X7.7607Y-5.1175
X7.8277Y-5.2755
X7.8947Y-5.1175
X7.9617Y-5.2755
X8.0287Y-5.1175
T13
X4.0551Y-1.1417
X4.0551Y-5.8268
X6.3976Y-3.5
X8.7402Y-1.1417
X8.7402Y-5.8268
M30
