%TF.GenerationSoftware,KiCad,Pcbnew,8.0.5*%
%TF.CreationDate,2024-11-18T16:36:35-05:00*%
%TF.ProjectId,ELEC4907,454c4543-3439-4303-972e-6b696361645f,rev?*%
%TF.SameCoordinates,Original*%
%TF.FileFunction,Soldermask,Bot*%
%TF.FilePolarity,Negative*%
%FSLAX46Y46*%
G04 Gerber Fmt 4.6, Leading zero omitted, Abs format (unit mm)*
G04 Created by KiCad (PCBNEW 8.0.5) date 2024-11-18 16:36:35*
%MOMM*%
%LPD*%
G01*
G04 APERTURE LIST*
G04 Aperture macros list*
%AMRoundRect*
0 Rectangle with rounded corners*
0 $1 Rounding radius*
0 $2 $3 $4 $5 $6 $7 $8 $9 X,Y pos of 4 corners*
0 Add a 4 corners polygon primitive as box body*
4,1,4,$2,$3,$4,$5,$6,$7,$8,$9,$2,$3,0*
0 Add four circle primitives for the rounded corners*
1,1,$1+$1,$2,$3*
1,1,$1+$1,$4,$5*
1,1,$1+$1,$6,$7*
1,1,$1+$1,$8,$9*
0 Add four rect primitives between the rounded corners*
20,1,$1+$1,$2,$3,$4,$5,0*
20,1,$1+$1,$4,$5,$6,$7,0*
20,1,$1+$1,$6,$7,$8,$9,0*
20,1,$1+$1,$8,$9,$2,$3,0*%
G04 Aperture macros list end*
%ADD10C,1.600000*%
%ADD11C,5.500000*%
%ADD12RoundRect,0.102000X-0.609000X-0.609000X0.609000X-0.609000X0.609000X0.609000X-0.609000X0.609000X0*%
%ADD13C,1.422000*%
%ADD14O,1.600000X1.600000*%
%ADD15C,1.524000*%
%ADD16R,1.600000X1.600000*%
%ADD17R,1.160000X1.160000*%
%ADD18C,1.160000*%
%ADD19RoundRect,0.102000X0.609000X0.609000X-0.609000X0.609000X-0.609000X-0.609000X0.609000X-0.609000X0*%
%ADD20R,2.000000X2.000000*%
%ADD21O,2.000000X2.000000*%
%ADD22R,2.400000X2.400000*%
%ADD23O,2.400000X2.400000*%
%ADD24C,1.612000*%
%ADD25R,1.320800X1.320800*%
%ADD26C,1.320800*%
%ADD27C,1.512000*%
%ADD28RoundRect,0.102000X1.009650X1.009650X-1.009650X1.009650X-1.009650X-1.009650X1.009650X-1.009650X0*%
%ADD29C,2.223300*%
%ADD30R,1.397000X1.397000*%
%ADD31C,1.397000*%
%ADD32R,2.200000X2.200000*%
%ADD33O,2.200000X2.200000*%
%ADD34C,2.200000*%
G04 APERTURE END LIST*
D10*
%TO.C,C10*%
X136500000Y-40000000D03*
X131500000Y-40000000D03*
%TD*%
%TO.C,J5*%
X187800000Y-30150000D03*
X190340000Y-30150000D03*
%TD*%
D11*
%TO.C,GND*%
X103000000Y-148000000D03*
%TD*%
D12*
%TO.C,Amplitude Adjust*%
X190144400Y-46821200D03*
D13*
X192684400Y-46821200D03*
X195224400Y-46821200D03*
%TD*%
D10*
%TO.C,R12*%
X130190000Y-56000000D03*
D14*
X137810000Y-56000000D03*
%TD*%
D11*
%TO.C,GND*%
X222000000Y-148000000D03*
%TD*%
D10*
%TO.C,C12*%
X148475000Y-66982500D03*
X143475000Y-66982500D03*
%TD*%
D15*
%TO.C,C6*%
X198800000Y-59750000D03*
X198800000Y-64750000D03*
%TD*%
D16*
%TO.C,J8*%
X117094000Y-147021000D03*
D10*
X119634000Y-147021000D03*
%TD*%
%TO.C,R18*%
X128975000Y-78200000D03*
D14*
X128975000Y-85820000D03*
%TD*%
D12*
%TO.C,PREAMP_GAIN1*%
X154437400Y-32000000D03*
D13*
X156977400Y-32000000D03*
X159517400Y-32000000D03*
%TD*%
D17*
%TO.C,IC1*%
X201481200Y-47883000D03*
D18*
X201481200Y-50423000D03*
X201481200Y-52963000D03*
X201481200Y-55503000D03*
X201481200Y-58043000D03*
X201481200Y-60583000D03*
X201481200Y-63123000D03*
X201481200Y-65663000D03*
X209421200Y-65663000D03*
X209421200Y-63123000D03*
X209421200Y-60583000D03*
X209421200Y-58043000D03*
X209421200Y-55503000D03*
X209421200Y-52963000D03*
X209421200Y-50423000D03*
X209421200Y-47883000D03*
%TD*%
D11*
%TO.C,*%
X162500000Y-88900000D03*
%TD*%
D10*
%TO.C,J6*%
X153365000Y-147000000D03*
D16*
X150825000Y-147000000D03*
%TD*%
D19*
%TO.C,Frequency Adjust*%
X206190000Y-74450000D03*
D13*
X203650000Y-74450000D03*
X201110000Y-74450000D03*
%TD*%
D11*
%TO.C,GND*%
X222000000Y-29000000D03*
%TD*%
D10*
%TO.C,R8*%
X130190000Y-42862500D03*
X137810000Y-42862500D03*
%TD*%
D20*
%TO.C,C9*%
X185596000Y-46816200D03*
D21*
X170596000Y-46816200D03*
%TD*%
D22*
%TO.C,C8*%
X198507600Y-55542600D03*
D23*
X180507600Y-55542600D03*
%TD*%
D10*
%TO.C,J1*%
X171450000Y-30000000D03*
D16*
X168910000Y-30000000D03*
%TD*%
D10*
%TO.C,R13*%
X130190000Y-59450000D03*
D14*
X137810000Y-59450000D03*
%TD*%
D24*
%TO.C,C2*%
X218625000Y-107230000D03*
X218625000Y-112230000D03*
%TD*%
D25*
%TO.C,C13*%
X159976400Y-48856600D03*
D26*
X154490000Y-48856600D03*
%TD*%
D10*
%TO.C,R3*%
X195362500Y-69690000D03*
D14*
X195362500Y-77310000D03*
%TD*%
D27*
%TO.C,C1*%
X210100000Y-130125000D03*
X213600000Y-130125000D03*
%TD*%
D12*
%TO.C,DC Bias*%
X214531400Y-38029500D03*
D13*
X217071400Y-38029500D03*
X219611400Y-38029500D03*
%TD*%
D10*
%TO.C,R9*%
X120190000Y-49450000D03*
X127810000Y-49450000D03*
%TD*%
%TO.C,J3*%
X209270000Y-29500000D03*
D16*
X206730000Y-29500000D03*
%TD*%
D27*
%TO.C,C4*%
X142000000Y-120000000D03*
X142000000Y-116500000D03*
%TD*%
D12*
%TO.C,DC_ADJUST1*%
X114920000Y-78000000D03*
D13*
X117460000Y-78000000D03*
X120000000Y-78000000D03*
%TD*%
D10*
%TO.C,R1*%
X200715000Y-35537500D03*
D14*
X208335000Y-35537500D03*
%TD*%
D28*
%TO.C,U1*%
X203928600Y-129983425D03*
D29*
X202226800Y-133996625D03*
X200525000Y-129983425D03*
X198823200Y-133996625D03*
X197121400Y-129983425D03*
%TD*%
D10*
%TO.C,R17*%
X152190000Y-66450000D03*
X159810000Y-66450000D03*
%TD*%
%TO.C,R4*%
X196695800Y-51108800D03*
D14*
X189075800Y-51108800D03*
%TD*%
D25*
%TO.C,C5*%
X202690200Y-40847200D03*
D26*
X208176600Y-40847200D03*
%TD*%
D10*
%TO.C,R6*%
X120190000Y-53000000D03*
X127810000Y-53000000D03*
%TD*%
D30*
%TO.C,U3*%
X142000000Y-43000000D03*
D31*
X142000000Y-45540000D03*
X142000000Y-48080000D03*
X142000000Y-50620000D03*
X142000000Y-53160000D03*
X142000000Y-55700000D03*
X142000000Y-58240000D03*
X149620000Y-58240000D03*
X149620000Y-55700000D03*
X149620000Y-53160000D03*
X149620000Y-50620000D03*
X149620000Y-48080000D03*
X149620000Y-45540000D03*
X149620000Y-43000000D03*
%TD*%
D10*
%TO.C,C11*%
X131500000Y-52842500D03*
X136500000Y-52842500D03*
%TD*%
D32*
%TO.C,D2*%
X153000000Y-125655000D03*
D33*
X153000000Y-135815000D03*
%TD*%
D10*
%TO.C,R2*%
X220795000Y-42850000D03*
D14*
X213175000Y-42850000D03*
%TD*%
D10*
%TO.C,R10*%
X137810000Y-46137500D03*
X130190000Y-46137500D03*
%TD*%
%TO.C,R14*%
X152380000Y-59000000D03*
X160000000Y-59000000D03*
%TD*%
D32*
%TO.C,D1*%
X207775000Y-136845000D03*
D33*
X217935000Y-136845000D03*
%TD*%
D10*
%TO.C,J4*%
X107000000Y-60540000D03*
D16*
X107000000Y-58000000D03*
%TD*%
D19*
%TO.C,Symmetry Adjust*%
X219390000Y-51050000D03*
D13*
X216850000Y-51050000D03*
X214310000Y-51050000D03*
%TD*%
D16*
%TO.C,J2*%
X159880000Y-147066000D03*
D10*
X162420000Y-147066000D03*
%TD*%
%TO.C,J7*%
X201090000Y-147000000D03*
D16*
X198550000Y-147000000D03*
%TD*%
D34*
%TO.C,C15*%
X136150000Y-69900000D03*
D33*
X136150000Y-94900000D03*
%TD*%
D10*
%TO.C,C14*%
X143500000Y-63000000D03*
X148500000Y-63000000D03*
%TD*%
%TO.C,R5*%
X185494400Y-50905600D03*
D14*
X177874400Y-50905600D03*
%TD*%
D10*
%TO.C,R7*%
X130190000Y-49450000D03*
X137810000Y-49450000D03*
%TD*%
D15*
%TO.C,L1*%
X197025000Y-122075000D03*
X207185000Y-106835000D03*
%TD*%
D24*
%TO.C,C3*%
X173225000Y-105650900D03*
X173225000Y-110650900D03*
%TD*%
D10*
%TO.C,R16*%
X153166400Y-41862500D03*
D14*
X160786400Y-41862500D03*
%TD*%
D11*
%TO.C,GND*%
X103000000Y-29000000D03*
%TD*%
D15*
%TO.C,L2*%
X161455000Y-105785000D03*
X151295000Y-121025000D03*
%TD*%
D10*
%TO.C,R11*%
X153166400Y-36862500D03*
D14*
X160786400Y-36862500D03*
%TD*%
D10*
%TO.C,R15*%
X159835000Y-62762500D03*
X152215000Y-62762500D03*
%TD*%
D22*
%TO.C,C7*%
X214286800Y-63114600D03*
D23*
X214286800Y-81114600D03*
%TD*%
M02*
